M48
INCH,TZ
T1C0.030
T2C0.032
T3C0.040
T4C0.047
T5C0.091
T6C0.098
T7C0.098
T8C0.102
T9C0.157
%
G90
G05
T1
X42350Y-28275
X47650Y-26750
X48550Y-30500
X53200Y-25300
X55150Y-29200
X62250Y-35150
X64900Y-23775
X66175Y-25500
X66200Y-34275
X73425Y-26975
X80200Y-40225
T2
X34500Y-23800
X34500Y-25800
X37500Y-23800
X37500Y-25800
X80250Y-27750
X80250Y-28750
X81037Y-27750
X81037Y-28750
T3
X41250Y-34500
X41250Y-38750
X42250Y-34500
X42250Y-38750
X43250Y-34500
X43250Y-38750
X44250Y-34500
X44250Y-38750
X45250Y-34500
X45250Y-38750
X46250Y-34500
X46250Y-38750
X47250Y-34500
X47250Y-38750
X47750Y-32000
X47750Y-33000
X48250Y-34500
X48250Y-38750
X48750Y-32000
X48750Y-33000
X49250Y-34500
X49250Y-38750
X49750Y-32000
X49750Y-33000
X50250Y-34500
X50250Y-38750
X51250Y-34500
X51250Y-38750
X52250Y-34500
X52250Y-38750
X53250Y-34500
X53250Y-38750
X54250Y-34500
X54250Y-38750
X55250Y-34500
X55250Y-38750
X56250Y-34500
X56250Y-38750
X79266Y-43547
X79266Y-49256
X80250Y-43547
X81234Y-43547
X81234Y-49256
T4
X31300Y-25500
X31300Y-26500
X31300Y-28000
X31300Y-29000
X31300Y-31600
X31300Y-32600
X31300Y-34600
X31300Y-35600
X31300Y-37400
X31300Y-38400
T5
X82100Y-25888
X82100Y-30612
T6
X38250Y-38750
X38250Y-60405
X74864Y-38750
X74864Y-60404
T7
X38250Y-38750
X38250Y-60400
X74850Y-38750
X74850Y-60400
T8
X78006Y-46500
X82494Y-46500
T9
X31500Y-22000
X31500Y-59500
X81400Y-21600
X82000Y-59500
T0
M30
