G04 #@! TF.FileFunction,Legend,Top*
%FSLAX46Y46*%
G04 Gerber Fmt 4.6, Leading zero omitted, Abs format (unit mm)*
G04 Created by KiCad (PCBNEW 4.0.1-stable) date Tuesday, March 29, 2016 'AMt' 01:29:57 AM*
%MOMM*%
G01*
G04 APERTURE LIST*
%ADD10C,0.100000*%
%ADD11C,0.150000*%
%ADD12C,0.127000*%
%ADD13C,0.254000*%
%ADD14C,0.050000*%
G04 APERTURE END LIST*
D10*
D11*
X101385000Y-70620000D02*
X101385000Y-71620000D01*
X103085000Y-71620000D02*
X103085000Y-70620000D01*
X171077000Y-66001000D02*
X172077000Y-66001000D01*
X172077000Y-64301000D02*
X171077000Y-64301000D01*
X161472500Y-51728000D02*
X160472500Y-51728000D01*
X160472500Y-53428000D02*
X161472500Y-53428000D01*
X170950000Y-68414000D02*
X171950000Y-68414000D01*
X171950000Y-66714000D02*
X170950000Y-66714000D01*
X159805000Y-64270000D02*
X159805000Y-65270000D01*
X161505000Y-65270000D02*
X161505000Y-64270000D01*
X156425000Y-69715000D02*
X156425000Y-68715000D01*
X154725000Y-68715000D02*
X154725000Y-69715000D01*
X151900000Y-53555000D02*
X152900000Y-53555000D01*
X152900000Y-51855000D02*
X151900000Y-51855000D01*
X156710000Y-62650000D02*
X155710000Y-62650000D01*
X155710000Y-64350000D02*
X156710000Y-64350000D01*
X127770000Y-58000000D02*
X128770000Y-58000000D01*
X128770000Y-56300000D02*
X127770000Y-56300000D01*
X129040000Y-60540000D02*
X130040000Y-60540000D01*
X130040000Y-58840000D02*
X129040000Y-58840000D01*
X204685000Y-107624500D02*
X204685000Y-106624500D01*
X202985000Y-106624500D02*
X202985000Y-107624500D01*
X205525000Y-97290000D02*
X205525000Y-98290000D01*
X207225000Y-98290000D02*
X207225000Y-97290000D01*
X196672000Y-62242000D02*
X193972000Y-62242000D01*
X196672000Y-63742000D02*
X193972000Y-63742000D01*
X195172000Y-62842000D02*
X195172000Y-63092000D01*
X195172000Y-63092000D02*
X195322000Y-62942000D01*
X195422000Y-63342000D02*
X195422000Y-62642000D01*
X195072000Y-62992000D02*
X194722000Y-62992000D01*
X195422000Y-62992000D02*
X195072000Y-63342000D01*
X195072000Y-63342000D02*
X195072000Y-62642000D01*
X195072000Y-62642000D02*
X195422000Y-62992000D01*
X196799000Y-58813000D02*
X194099000Y-58813000D01*
X196799000Y-60313000D02*
X194099000Y-60313000D01*
X195299000Y-59413000D02*
X195299000Y-59663000D01*
X195299000Y-59663000D02*
X195449000Y-59513000D01*
X195549000Y-59913000D02*
X195549000Y-59213000D01*
X195199000Y-59563000D02*
X194849000Y-59563000D01*
X195549000Y-59563000D02*
X195199000Y-59913000D01*
X195199000Y-59913000D02*
X195199000Y-59213000D01*
X195199000Y-59213000D02*
X195549000Y-59563000D01*
X139375000Y-54585000D02*
X147675000Y-54585000D01*
X147675000Y-60985000D02*
X139375000Y-60985000D01*
X134943000Y-70035000D02*
X134618000Y-70035000D01*
X134943000Y-77285000D02*
X134618000Y-77285000D01*
X127693000Y-77285000D02*
X128018000Y-77285000D01*
X127693000Y-70035000D02*
X128018000Y-70035000D01*
X134943000Y-70035000D02*
X134943000Y-70360000D01*
X127693000Y-70035000D02*
X127693000Y-70360000D01*
X127693000Y-77285000D02*
X127693000Y-76960000D01*
X134943000Y-77285000D02*
X134943000Y-76960000D01*
X134618000Y-70035000D02*
X134618000Y-68610000D01*
X197350000Y-69000000D02*
X196350000Y-69000000D01*
X196350000Y-70700000D02*
X197350000Y-70700000D01*
X151980000Y-56380000D02*
X151980000Y-55380000D01*
X150280000Y-55380000D02*
X150280000Y-56380000D01*
X82042000Y-63500000D02*
X82042000Y-68580000D01*
X76327000Y-68580000D02*
X77597000Y-68580000D01*
X82042000Y-68580000D02*
X81407000Y-68580000D01*
X76962000Y-63500000D02*
X77597000Y-63500000D01*
X82042000Y-63500000D02*
X81407000Y-63500000D01*
X82042000Y-63500000D02*
X82677000Y-63500000D01*
X82677000Y-63500000D02*
X82677000Y-68580000D01*
X82677000Y-68580000D02*
X82042000Y-68580000D01*
X76327000Y-68580000D02*
X76327000Y-63500000D01*
X76327000Y-63500000D02*
X76962000Y-63500000D01*
X210185000Y-77851000D02*
X218821000Y-77851000D01*
X201803000Y-77851000D02*
X206883000Y-77851000D01*
X210185000Y-65659000D02*
X218821000Y-65659000D01*
X201803000Y-65659000D02*
X206883000Y-65659000D01*
X218821000Y-65659000D02*
X218821000Y-77851000D01*
X201803000Y-77851000D02*
X201803000Y-65659000D01*
X82042000Y-93726000D02*
X82042000Y-98806000D01*
X76327000Y-98806000D02*
X77597000Y-98806000D01*
X82042000Y-98806000D02*
X81407000Y-98806000D01*
X76962000Y-93726000D02*
X77597000Y-93726000D01*
X82042000Y-93726000D02*
X81407000Y-93726000D01*
X82042000Y-93726000D02*
X82677000Y-93726000D01*
X82677000Y-93726000D02*
X82677000Y-98806000D01*
X82677000Y-98806000D02*
X82042000Y-98806000D01*
X76327000Y-98806000D02*
X76327000Y-93726000D01*
X76327000Y-93726000D02*
X76962000Y-93726000D01*
X82042000Y-78994000D02*
X82042000Y-84074000D01*
X76327000Y-84074000D02*
X77597000Y-84074000D01*
X82042000Y-84074000D02*
X81407000Y-84074000D01*
X76962000Y-78994000D02*
X77597000Y-78994000D01*
X82042000Y-78994000D02*
X81407000Y-78994000D01*
X82042000Y-78994000D02*
X82677000Y-78994000D01*
X82677000Y-78994000D02*
X82677000Y-84074000D01*
X82677000Y-84074000D02*
X82042000Y-84074000D01*
X76327000Y-84074000D02*
X76327000Y-78994000D01*
X76327000Y-78994000D02*
X76962000Y-78994000D01*
X82042000Y-86614000D02*
X82042000Y-91694000D01*
X76327000Y-91694000D02*
X77597000Y-91694000D01*
X82042000Y-91694000D02*
X81407000Y-91694000D01*
X76962000Y-86614000D02*
X77597000Y-86614000D01*
X82042000Y-86614000D02*
X81407000Y-86614000D01*
X82042000Y-86614000D02*
X82677000Y-86614000D01*
X82677000Y-86614000D02*
X82677000Y-91694000D01*
X82677000Y-91694000D02*
X82042000Y-91694000D01*
X76327000Y-91694000D02*
X76327000Y-86614000D01*
X76327000Y-86614000D02*
X76962000Y-86614000D01*
X86979760Y-89505840D02*
X86979760Y-89554100D01*
X87680800Y-92304820D02*
X86979760Y-92304820D01*
X86979760Y-92304820D02*
X86979760Y-92055900D01*
X86979760Y-89505840D02*
X86979760Y-89305180D01*
X86979760Y-89305180D02*
X87680800Y-89305180D01*
X86979760Y-74265840D02*
X86979760Y-74314100D01*
X87680800Y-77064820D02*
X86979760Y-77064820D01*
X86979760Y-77064820D02*
X86979760Y-76815900D01*
X86979760Y-74265840D02*
X86979760Y-74065180D01*
X86979760Y-74065180D02*
X87680800Y-74065180D01*
X86979760Y-81250840D02*
X86979760Y-81299100D01*
X87680800Y-84049820D02*
X86979760Y-84049820D01*
X86979760Y-84049820D02*
X86979760Y-83800900D01*
X86979760Y-81250840D02*
X86979760Y-81050180D01*
X86979760Y-81050180D02*
X87680800Y-81050180D01*
X190027000Y-62117000D02*
X191227000Y-62117000D01*
X191227000Y-63867000D02*
X190027000Y-63867000D01*
X190027000Y-58688000D02*
X191227000Y-58688000D01*
X191227000Y-60438000D02*
X190027000Y-60438000D01*
X157318000Y-73773000D02*
X156118000Y-73773000D01*
X156118000Y-72023000D02*
X157318000Y-72023000D01*
X166864000Y-57121500D02*
X166864000Y-58321500D01*
X165114000Y-58321500D02*
X165114000Y-57121500D01*
X170674000Y-59090000D02*
X170674000Y-60290000D01*
X168924000Y-60290000D02*
X168924000Y-59090000D01*
X140935000Y-68185000D02*
X139735000Y-68185000D01*
X139735000Y-66435000D02*
X140935000Y-66435000D01*
X147355000Y-77230000D02*
X148555000Y-77230000D01*
X148555000Y-78980000D02*
X147355000Y-78980000D01*
X146085000Y-74055000D02*
X147285000Y-74055000D01*
X147285000Y-75805000D02*
X146085000Y-75805000D01*
X103110000Y-64805000D02*
X103110000Y-66005000D01*
X101360000Y-66005000D02*
X101360000Y-64805000D01*
X200371000Y-104634000D02*
X199171000Y-104634000D01*
X199171000Y-102884000D02*
X200371000Y-102884000D01*
X199552000Y-106440000D02*
X200752000Y-106440000D01*
X200752000Y-108190000D02*
X199552000Y-108190000D01*
X208245000Y-108190000D02*
X207045000Y-108190000D01*
X207045000Y-106440000D02*
X208245000Y-106440000D01*
X96788000Y-76038000D02*
X96788000Y-74838000D01*
X98538000Y-74838000D02*
X98538000Y-76038000D01*
X97903000Y-90332000D02*
X97903000Y-91532000D01*
X96153000Y-91532000D02*
X96153000Y-90332000D01*
X96407000Y-83150000D02*
X96407000Y-81950000D01*
X98157000Y-81950000D02*
X98157000Y-83150000D01*
X208245000Y-103110000D02*
X207045000Y-103110000D01*
X207045000Y-101360000D02*
X208245000Y-101360000D01*
X91962000Y-91405000D02*
X91962000Y-90205000D01*
X93712000Y-90205000D02*
X93712000Y-91405000D01*
X94220000Y-74965000D02*
X94220000Y-76165000D01*
X92470000Y-76165000D02*
X92470000Y-74965000D01*
X93712000Y-81950000D02*
X93712000Y-83150000D01*
X91962000Y-83150000D02*
X91962000Y-81950000D01*
D12*
X207818717Y-115810000D02*
G75*
G03X203835000Y-113510000I-3983717J-2300000D01*
G01*
X199851283Y-115810000D02*
G75*
G02X203835000Y-113510000I3983717J-2300000D01*
G01*
X199851283Y-120410000D02*
G75*
G03X203835000Y-122710000I3983717J2300000D01*
G01*
X207818717Y-120410000D02*
G75*
G02X203835000Y-122710000I-3983717J2300000D01*
G01*
X200335000Y-113110000D02*
G75*
G03X200335000Y-113110000I-500000J0D01*
G01*
X208335000Y-113110000D02*
G75*
G03X208335000Y-113110000I-500000J0D01*
G01*
X200335000Y-123110000D02*
G75*
G03X200335000Y-123110000I-500000J0D01*
G01*
X208335000Y-123110000D02*
G75*
G03X208335000Y-123110000I-500000J0D01*
G01*
X198085000Y-120360000D02*
X199835000Y-120360000D01*
X209585000Y-120360000D02*
X207835000Y-120360000D01*
X198085000Y-115860000D02*
X199835000Y-115860000D01*
X209585000Y-115860000D02*
X207835000Y-115860000D01*
X199685000Y-111510000D02*
G75*
G03X198585000Y-112610000I0J-1100000D01*
G01*
X209085000Y-112610000D02*
G75*
G03X207985000Y-111510000I-1100000J0D01*
G01*
X207985000Y-124710000D02*
G75*
G03X209085000Y-123610000I0J1100000D01*
G01*
X198585000Y-123610000D02*
G75*
G03X199685000Y-124710000I1100000J0D01*
G01*
X198085000Y-123610000D02*
X198585000Y-123610000D01*
X209585000Y-123610000D02*
X209085000Y-123610000D01*
X209585000Y-112610000D02*
X209085000Y-112610000D01*
X198085000Y-112610000D02*
X198585000Y-112610000D01*
X207985000Y-111510000D02*
X199685000Y-111510000D01*
X207985000Y-124710000D02*
X199685000Y-124710000D01*
X198085000Y-123610000D02*
X198085000Y-112610000D01*
X209585000Y-123610000D02*
X209585000Y-112610000D01*
X206135000Y-117110000D02*
X201535000Y-117110000D01*
X206835000Y-118110000D02*
G75*
G03X206835000Y-118110000I-3000000J0D01*
G01*
X206335000Y-118110000D02*
G75*
G03X206335000Y-118110000I-2500000J0D01*
G01*
X203868975Y-120168846D02*
G75*
G02X202035000Y-117110000I-33975J2058846D01*
G01*
X203801025Y-120168846D02*
G75*
G03X205635000Y-117110000I33975J2058846D01*
G01*
D11*
X82042000Y-69850000D02*
X82042000Y-74930000D01*
X76327000Y-74930000D02*
X77597000Y-74930000D01*
X82042000Y-74930000D02*
X81407000Y-74930000D01*
X76962000Y-69850000D02*
X77597000Y-69850000D01*
X82042000Y-69850000D02*
X81407000Y-69850000D01*
X82042000Y-69850000D02*
X82677000Y-69850000D01*
X82677000Y-69850000D02*
X82677000Y-74930000D01*
X82677000Y-74930000D02*
X82042000Y-74930000D01*
X76327000Y-74930000D02*
X76327000Y-69850000D01*
X76327000Y-69850000D02*
X76962000Y-69850000D01*
X159140000Y-82250000D02*
X159790000Y-82250000D01*
X159140000Y-76500000D02*
X159790000Y-76500000D01*
X169790000Y-76500000D02*
X169140000Y-76500000D01*
X169790000Y-82250000D02*
X169140000Y-82250000D01*
X159140000Y-82250000D02*
X159140000Y-76500000D01*
X169790000Y-82250000D02*
X169790000Y-76500000D01*
X159790000Y-82250000D02*
X159790000Y-83850000D01*
X157310000Y-54575000D02*
X157310000Y-54720000D01*
X161460000Y-54575000D02*
X161460000Y-54720000D01*
X161460000Y-59725000D02*
X161460000Y-59580000D01*
X157310000Y-59725000D02*
X157310000Y-59580000D01*
X157310000Y-54575000D02*
X161460000Y-54575000D01*
X157310000Y-59725000D02*
X161460000Y-59725000D01*
X157310000Y-54720000D02*
X155910000Y-54720000D01*
X135711859Y-58285380D02*
G75*
G03X135711859Y-58285380I-141899J0D01*
G01*
X136469120Y-57083960D02*
X136469120Y-58486040D01*
X132770880Y-58486040D02*
X132770880Y-57083960D01*
X164360000Y-89765000D02*
X160260000Y-89765000D01*
X164360000Y-86765000D02*
X160260000Y-86765000D01*
X166790000Y-68207000D02*
X166790000Y-69207000D01*
X168490000Y-69207000D02*
X168490000Y-68207000D01*
X144425000Y-86330000D02*
X142875000Y-86330000D01*
X144425000Y-87630000D02*
X144425000Y-86330000D01*
X143002000Y-91821000D02*
X143002000Y-97663000D01*
X143002000Y-97663000D02*
X142748000Y-97663000D01*
X142748000Y-97663000D02*
X142748000Y-91821000D01*
X142748000Y-91821000D02*
X142875000Y-91821000D01*
X142875000Y-91821000D02*
X142875000Y-97663000D01*
X125349000Y-89154000D02*
X125349000Y-88773000D01*
X124841000Y-89154000D02*
X124841000Y-88773000D01*
X122809000Y-89154000D02*
X122809000Y-88773000D01*
X122301000Y-89154000D02*
X122301000Y-88773000D01*
X120269000Y-89154000D02*
X120269000Y-88773000D01*
X119761000Y-89154000D02*
X119761000Y-88773000D01*
X117729000Y-89154000D02*
X117729000Y-88773000D01*
X117221000Y-89154000D02*
X117221000Y-88773000D01*
X107061000Y-89154000D02*
X107061000Y-88773000D01*
X107569000Y-89154000D02*
X107569000Y-88773000D01*
X109601000Y-89154000D02*
X109601000Y-88773000D01*
X110109000Y-89154000D02*
X110109000Y-88773000D01*
X112141000Y-89154000D02*
X112141000Y-88773000D01*
X112649000Y-89154000D02*
X112649000Y-88773000D01*
X114681000Y-89154000D02*
X114681000Y-88773000D01*
X115189000Y-89154000D02*
X115189000Y-88773000D01*
X104521000Y-89154000D02*
X104521000Y-88773000D01*
X105029000Y-89154000D02*
X105029000Y-88773000D01*
X143129000Y-89154000D02*
X143129000Y-88773000D01*
X142621000Y-89154000D02*
X142621000Y-88773000D01*
X140589000Y-89154000D02*
X140589000Y-88773000D01*
X140081000Y-89154000D02*
X140081000Y-88773000D01*
X138049000Y-89154000D02*
X138049000Y-88773000D01*
X137541000Y-89154000D02*
X137541000Y-88773000D01*
X127381000Y-89154000D02*
X127381000Y-88773000D01*
X127889000Y-89154000D02*
X127889000Y-88773000D01*
X129921000Y-89154000D02*
X129921000Y-88773000D01*
X130429000Y-89154000D02*
X130429000Y-88773000D01*
X132461000Y-89154000D02*
X132461000Y-88773000D01*
X132969000Y-89154000D02*
X132969000Y-88773000D01*
X135001000Y-89154000D02*
X135001000Y-88773000D01*
X135509000Y-89154000D02*
X135509000Y-88773000D01*
X128905000Y-89154000D02*
X128905000Y-91694000D01*
X128905000Y-89154000D02*
X126365000Y-89154000D01*
X126365000Y-89154000D02*
X126365000Y-91694000D01*
X127889000Y-91694000D02*
X127889000Y-97790000D01*
X127889000Y-97790000D02*
X127381000Y-97790000D01*
X127381000Y-97790000D02*
X127381000Y-91694000D01*
X126365000Y-91694000D02*
X128905000Y-91694000D01*
X123825000Y-91694000D02*
X126365000Y-91694000D01*
X124841000Y-97790000D02*
X124841000Y-91694000D01*
X125349000Y-97790000D02*
X124841000Y-97790000D01*
X125349000Y-91694000D02*
X125349000Y-97790000D01*
X123825000Y-89154000D02*
X123825000Y-91694000D01*
X126365000Y-89154000D02*
X123825000Y-89154000D01*
X126365000Y-89154000D02*
X126365000Y-91694000D01*
X121285000Y-89154000D02*
X121285000Y-91694000D01*
X121285000Y-89154000D02*
X118745000Y-89154000D01*
X118745000Y-89154000D02*
X118745000Y-91694000D01*
X120269000Y-91694000D02*
X120269000Y-97790000D01*
X120269000Y-97790000D02*
X119761000Y-97790000D01*
X119761000Y-97790000D02*
X119761000Y-91694000D01*
X118745000Y-91694000D02*
X121285000Y-91694000D01*
X121285000Y-91694000D02*
X123825000Y-91694000D01*
X122301000Y-97790000D02*
X122301000Y-91694000D01*
X122809000Y-97790000D02*
X122301000Y-97790000D01*
X122809000Y-91694000D02*
X122809000Y-97790000D01*
X121285000Y-89154000D02*
X121285000Y-91694000D01*
X123825000Y-89154000D02*
X121285000Y-89154000D01*
X123825000Y-89154000D02*
X123825000Y-91694000D01*
X113665000Y-89154000D02*
X113665000Y-91694000D01*
X113665000Y-89154000D02*
X111125000Y-89154000D01*
X111125000Y-89154000D02*
X111125000Y-91694000D01*
X112649000Y-91694000D02*
X112649000Y-97790000D01*
X112649000Y-97790000D02*
X112141000Y-97790000D01*
X112141000Y-97790000D02*
X112141000Y-91694000D01*
X111125000Y-91694000D02*
X113665000Y-91694000D01*
X108585000Y-91694000D02*
X111125000Y-91694000D01*
X109601000Y-97790000D02*
X109601000Y-91694000D01*
X110109000Y-97790000D02*
X109601000Y-97790000D01*
X110109000Y-91694000D02*
X110109000Y-97790000D01*
X108585000Y-89154000D02*
X108585000Y-91694000D01*
X111125000Y-89154000D02*
X108585000Y-89154000D01*
X111125000Y-89154000D02*
X111125000Y-91694000D01*
X116205000Y-89154000D02*
X116205000Y-91694000D01*
X116205000Y-89154000D02*
X113665000Y-89154000D01*
X113665000Y-89154000D02*
X113665000Y-91694000D01*
X115189000Y-91694000D02*
X115189000Y-97790000D01*
X115189000Y-97790000D02*
X114681000Y-97790000D01*
X114681000Y-97790000D02*
X114681000Y-91694000D01*
X113665000Y-91694000D02*
X116205000Y-91694000D01*
X116205000Y-91694000D02*
X118745000Y-91694000D01*
X117221000Y-97790000D02*
X117221000Y-91694000D01*
X117729000Y-97790000D02*
X117221000Y-97790000D01*
X117729000Y-91694000D02*
X117729000Y-97790000D01*
X116205000Y-89154000D02*
X116205000Y-91694000D01*
X118745000Y-89154000D02*
X116205000Y-89154000D01*
X118745000Y-89154000D02*
X118745000Y-91694000D01*
X106045000Y-89154000D02*
X106045000Y-91694000D01*
X106045000Y-89154000D02*
X103505000Y-89154000D01*
X103505000Y-89154000D02*
X103505000Y-91694000D01*
X105029000Y-91694000D02*
X105029000Y-97790000D01*
X105029000Y-97790000D02*
X104521000Y-97790000D01*
X104521000Y-97790000D02*
X104521000Y-91694000D01*
X103505000Y-91694000D02*
X106045000Y-91694000D01*
X106045000Y-91694000D02*
X108585000Y-91694000D01*
X107061000Y-97790000D02*
X107061000Y-91694000D01*
X107569000Y-97790000D02*
X107061000Y-97790000D01*
X107569000Y-91694000D02*
X107569000Y-97790000D01*
X106045000Y-89154000D02*
X106045000Y-91694000D01*
X108585000Y-89154000D02*
X106045000Y-89154000D01*
X108585000Y-89154000D02*
X108585000Y-91694000D01*
X144145000Y-89154000D02*
X144145000Y-91694000D01*
X141605000Y-89154000D02*
X141605000Y-91694000D01*
X141605000Y-89154000D02*
X139065000Y-89154000D01*
X139065000Y-89154000D02*
X139065000Y-91694000D01*
X140589000Y-91694000D02*
X140589000Y-97790000D01*
X140589000Y-97790000D02*
X140081000Y-97790000D01*
X140081000Y-97790000D02*
X140081000Y-91694000D01*
X139065000Y-91694000D02*
X141605000Y-91694000D01*
X141605000Y-91694000D02*
X144145000Y-91694000D01*
X142621000Y-97790000D02*
X142621000Y-91694000D01*
X143129000Y-97790000D02*
X142621000Y-97790000D01*
X143129000Y-91694000D02*
X143129000Y-97790000D01*
X141605000Y-89154000D02*
X141605000Y-91694000D01*
X144145000Y-89154000D02*
X141605000Y-89154000D01*
X133985000Y-89154000D02*
X133985000Y-91694000D01*
X133985000Y-89154000D02*
X131445000Y-89154000D01*
X131445000Y-89154000D02*
X131445000Y-91694000D01*
X132969000Y-91694000D02*
X132969000Y-97790000D01*
X132969000Y-97790000D02*
X132461000Y-97790000D01*
X132461000Y-97790000D02*
X132461000Y-91694000D01*
X131445000Y-91694000D02*
X133985000Y-91694000D01*
X128905000Y-91694000D02*
X131445000Y-91694000D01*
X129921000Y-97790000D02*
X129921000Y-91694000D01*
X130429000Y-97790000D02*
X129921000Y-97790000D01*
X130429000Y-91694000D02*
X130429000Y-97790000D01*
X128905000Y-89154000D02*
X128905000Y-91694000D01*
X131445000Y-89154000D02*
X128905000Y-89154000D01*
X131445000Y-89154000D02*
X131445000Y-91694000D01*
X136525000Y-89154000D02*
X136525000Y-91694000D01*
X136525000Y-89154000D02*
X133985000Y-89154000D01*
X133985000Y-89154000D02*
X133985000Y-91694000D01*
X135509000Y-91694000D02*
X135509000Y-97790000D01*
X135509000Y-97790000D02*
X135001000Y-97790000D01*
X135001000Y-97790000D02*
X135001000Y-91694000D01*
X133985000Y-91694000D02*
X136525000Y-91694000D01*
X136525000Y-91694000D02*
X139065000Y-91694000D01*
X137541000Y-97790000D02*
X137541000Y-91694000D01*
X138049000Y-97790000D02*
X137541000Y-97790000D01*
X138049000Y-91694000D02*
X138049000Y-97790000D01*
X136525000Y-89154000D02*
X136525000Y-91694000D01*
X139065000Y-89154000D02*
X136525000Y-89154000D01*
X139065000Y-89154000D02*
X139065000Y-91694000D01*
X122555000Y-85090000D02*
X127635000Y-85090000D01*
X119735000Y-85370000D02*
X119735000Y-83820000D01*
X120015000Y-82550000D02*
X122555000Y-82550000D01*
X122555000Y-82550000D02*
X122555000Y-85090000D01*
X127635000Y-85090000D02*
X127635000Y-80010000D01*
X127635000Y-80010000D02*
X122555000Y-80010000D01*
X119735000Y-85370000D02*
X121285000Y-85370000D01*
X120015000Y-80010000D02*
X120015000Y-82550000D01*
X122555000Y-80010000D02*
X120015000Y-80010000D01*
D13*
X108732000Y-84392000D02*
X107982000Y-84392000D01*
X107982000Y-84392000D02*
X107982000Y-79692000D01*
X111982000Y-79692000D02*
X111982000Y-84392000D01*
X111982000Y-84392000D02*
X111232000Y-84392000D01*
X109732000Y-79692000D02*
X110232000Y-79692000D01*
D11*
X196455000Y-124495000D02*
X196455000Y-125695000D01*
X194705000Y-125695000D02*
X194705000Y-124495000D01*
X93980000Y-62992000D02*
G75*
G03X93980000Y-62992000I-2540000J0D01*
G01*
X87630000Y-59182000D02*
X95250000Y-59182000D01*
X95250000Y-59182000D02*
X95250000Y-66802000D01*
X95250000Y-66802000D02*
X87630000Y-66802000D01*
X87630000Y-59182000D02*
X87630000Y-66802000D01*
X146055000Y-66560000D02*
X146755000Y-66560000D01*
X146405000Y-66210000D02*
X146405000Y-66910000D01*
X150455000Y-65860000D02*
X150455000Y-68560000D01*
X150455000Y-68560000D02*
X149205000Y-69810000D01*
X149205000Y-69810000D02*
X147255000Y-69810000D01*
X145455000Y-66060000D02*
X145455000Y-68560000D01*
X148955000Y-64810000D02*
X147255000Y-64810000D01*
X100492143Y-71286666D02*
X100539762Y-71334285D01*
X100587381Y-71477142D01*
X100587381Y-71572380D01*
X100539762Y-71715238D01*
X100444524Y-71810476D01*
X100349286Y-71858095D01*
X100158810Y-71905714D01*
X100015952Y-71905714D01*
X99825476Y-71858095D01*
X99730238Y-71810476D01*
X99635000Y-71715238D01*
X99587381Y-71572380D01*
X99587381Y-71477142D01*
X99635000Y-71334285D01*
X99682619Y-71286666D01*
X100587381Y-70334285D02*
X100587381Y-70905714D01*
X100587381Y-70620000D02*
X99587381Y-70620000D01*
X99730238Y-70715238D01*
X99825476Y-70810476D01*
X99873095Y-70905714D01*
X174204334Y-65508143D02*
X174156715Y-65555762D01*
X174013858Y-65603381D01*
X173918620Y-65603381D01*
X173775762Y-65555762D01*
X173680524Y-65460524D01*
X173632905Y-65365286D01*
X173585286Y-65174810D01*
X173585286Y-65031952D01*
X173632905Y-64841476D01*
X173680524Y-64746238D01*
X173775762Y-64651000D01*
X173918620Y-64603381D01*
X174013858Y-64603381D01*
X174156715Y-64651000D01*
X174204334Y-64698619D01*
X174585286Y-64698619D02*
X174632905Y-64651000D01*
X174728143Y-64603381D01*
X174966239Y-64603381D01*
X175061477Y-64651000D01*
X175109096Y-64698619D01*
X175156715Y-64793857D01*
X175156715Y-64889095D01*
X175109096Y-65031952D01*
X174537667Y-65603381D01*
X175156715Y-65603381D01*
X164044334Y-54078143D02*
X163996715Y-54125762D01*
X163853858Y-54173381D01*
X163758620Y-54173381D01*
X163615762Y-54125762D01*
X163520524Y-54030524D01*
X163472905Y-53935286D01*
X163425286Y-53744810D01*
X163425286Y-53601952D01*
X163472905Y-53411476D01*
X163520524Y-53316238D01*
X163615762Y-53221000D01*
X163758620Y-53173381D01*
X163853858Y-53173381D01*
X163996715Y-53221000D01*
X164044334Y-53268619D01*
X164377667Y-53173381D02*
X164996715Y-53173381D01*
X164663381Y-53554333D01*
X164806239Y-53554333D01*
X164901477Y-53601952D01*
X164949096Y-53649571D01*
X164996715Y-53744810D01*
X164996715Y-53982905D01*
X164949096Y-54078143D01*
X164901477Y-54125762D01*
X164806239Y-54173381D01*
X164520524Y-54173381D01*
X164425286Y-54125762D01*
X164377667Y-54078143D01*
X171283334Y-70021143D02*
X171235715Y-70068762D01*
X171092858Y-70116381D01*
X170997620Y-70116381D01*
X170854762Y-70068762D01*
X170759524Y-69973524D01*
X170711905Y-69878286D01*
X170664286Y-69687810D01*
X170664286Y-69544952D01*
X170711905Y-69354476D01*
X170759524Y-69259238D01*
X170854762Y-69164000D01*
X170997620Y-69116381D01*
X171092858Y-69116381D01*
X171235715Y-69164000D01*
X171283334Y-69211619D01*
X172188096Y-69116381D02*
X171711905Y-69116381D01*
X171664286Y-69592571D01*
X171711905Y-69544952D01*
X171807143Y-69497333D01*
X172045239Y-69497333D01*
X172140477Y-69544952D01*
X172188096Y-69592571D01*
X172235715Y-69687810D01*
X172235715Y-69925905D01*
X172188096Y-70021143D01*
X172140477Y-70068762D01*
X172045239Y-70116381D01*
X171807143Y-70116381D01*
X171711905Y-70068762D01*
X171664286Y-70021143D01*
X158912143Y-64936666D02*
X158959762Y-64984285D01*
X159007381Y-65127142D01*
X159007381Y-65222380D01*
X158959762Y-65365238D01*
X158864524Y-65460476D01*
X158769286Y-65508095D01*
X158578810Y-65555714D01*
X158435952Y-65555714D01*
X158245476Y-65508095D01*
X158150238Y-65460476D01*
X158055000Y-65365238D01*
X158007381Y-65222380D01*
X158007381Y-65127142D01*
X158055000Y-64984285D01*
X158102619Y-64936666D01*
X158435952Y-64365238D02*
X158388333Y-64460476D01*
X158340714Y-64508095D01*
X158245476Y-64555714D01*
X158197857Y-64555714D01*
X158102619Y-64508095D01*
X158055000Y-64460476D01*
X158007381Y-64365238D01*
X158007381Y-64174761D01*
X158055000Y-64079523D01*
X158102619Y-64031904D01*
X158197857Y-63984285D01*
X158245476Y-63984285D01*
X158340714Y-64031904D01*
X158388333Y-64079523D01*
X158435952Y-64174761D01*
X158435952Y-64365238D01*
X158483571Y-64460476D01*
X158531190Y-64508095D01*
X158626429Y-64555714D01*
X158816905Y-64555714D01*
X158912143Y-64508095D01*
X158959762Y-64460476D01*
X159007381Y-64365238D01*
X159007381Y-64174761D01*
X158959762Y-64079523D01*
X158912143Y-64031904D01*
X158816905Y-63984285D01*
X158626429Y-63984285D01*
X158531190Y-64031904D01*
X158483571Y-64079523D01*
X158435952Y-64174761D01*
X158032143Y-69857857D02*
X158079762Y-69905476D01*
X158127381Y-70048333D01*
X158127381Y-70143571D01*
X158079762Y-70286429D01*
X157984524Y-70381667D01*
X157889286Y-70429286D01*
X157698810Y-70476905D01*
X157555952Y-70476905D01*
X157365476Y-70429286D01*
X157270238Y-70381667D01*
X157175000Y-70286429D01*
X157127381Y-70143571D01*
X157127381Y-70048333D01*
X157175000Y-69905476D01*
X157222619Y-69857857D01*
X158127381Y-68905476D02*
X158127381Y-69476905D01*
X158127381Y-69191191D02*
X157127381Y-69191191D01*
X157270238Y-69286429D01*
X157365476Y-69381667D01*
X157413095Y-69476905D01*
X157127381Y-68286429D02*
X157127381Y-68191190D01*
X157175000Y-68095952D01*
X157222619Y-68048333D01*
X157317857Y-68000714D01*
X157508333Y-67953095D01*
X157746429Y-67953095D01*
X157936905Y-68000714D01*
X158032143Y-68048333D01*
X158079762Y-68095952D01*
X158127381Y-68191190D01*
X158127381Y-68286429D01*
X158079762Y-68381667D01*
X158032143Y-68429286D01*
X157936905Y-68476905D01*
X157746429Y-68524524D01*
X157508333Y-68524524D01*
X157317857Y-68476905D01*
X157222619Y-68429286D01*
X157175000Y-68381667D01*
X157127381Y-68286429D01*
X148582143Y-53062143D02*
X148534524Y-53109762D01*
X148391667Y-53157381D01*
X148296429Y-53157381D01*
X148153571Y-53109762D01*
X148058333Y-53014524D01*
X148010714Y-52919286D01*
X147963095Y-52728810D01*
X147963095Y-52585952D01*
X148010714Y-52395476D01*
X148058333Y-52300238D01*
X148153571Y-52205000D01*
X148296429Y-52157381D01*
X148391667Y-52157381D01*
X148534524Y-52205000D01*
X148582143Y-52252619D01*
X149534524Y-53157381D02*
X148963095Y-53157381D01*
X149248809Y-53157381D02*
X149248809Y-52157381D01*
X149153571Y-52300238D01*
X149058333Y-52395476D01*
X148963095Y-52443095D01*
X150486905Y-53157381D02*
X149915476Y-53157381D01*
X150201190Y-53157381D02*
X150201190Y-52157381D01*
X150105952Y-52300238D01*
X150010714Y-52395476D01*
X149915476Y-52443095D01*
X155567143Y-61757143D02*
X155519524Y-61804762D01*
X155376667Y-61852381D01*
X155281429Y-61852381D01*
X155138571Y-61804762D01*
X155043333Y-61709524D01*
X154995714Y-61614286D01*
X154948095Y-61423810D01*
X154948095Y-61280952D01*
X154995714Y-61090476D01*
X155043333Y-60995238D01*
X155138571Y-60900000D01*
X155281429Y-60852381D01*
X155376667Y-60852381D01*
X155519524Y-60900000D01*
X155567143Y-60947619D01*
X156519524Y-61852381D02*
X155948095Y-61852381D01*
X156233809Y-61852381D02*
X156233809Y-60852381D01*
X156138571Y-60995238D01*
X156043333Y-61090476D01*
X155948095Y-61138095D01*
X156900476Y-60947619D02*
X156948095Y-60900000D01*
X157043333Y-60852381D01*
X157281429Y-60852381D01*
X157376667Y-60900000D01*
X157424286Y-60947619D01*
X157471905Y-61042857D01*
X157471905Y-61138095D01*
X157424286Y-61280952D01*
X156852857Y-61852381D01*
X157471905Y-61852381D01*
X127627143Y-55602143D02*
X127579524Y-55649762D01*
X127436667Y-55697381D01*
X127341429Y-55697381D01*
X127198571Y-55649762D01*
X127103333Y-55554524D01*
X127055714Y-55459286D01*
X127008095Y-55268810D01*
X127008095Y-55125952D01*
X127055714Y-54935476D01*
X127103333Y-54840238D01*
X127198571Y-54745000D01*
X127341429Y-54697381D01*
X127436667Y-54697381D01*
X127579524Y-54745000D01*
X127627143Y-54792619D01*
X128579524Y-55697381D02*
X128008095Y-55697381D01*
X128293809Y-55697381D02*
X128293809Y-54697381D01*
X128198571Y-54840238D01*
X128103333Y-54935476D01*
X128008095Y-54983095D01*
X128912857Y-54697381D02*
X129531905Y-54697381D01*
X129198571Y-55078333D01*
X129341429Y-55078333D01*
X129436667Y-55125952D01*
X129484286Y-55173571D01*
X129531905Y-55268810D01*
X129531905Y-55506905D01*
X129484286Y-55602143D01*
X129436667Y-55649762D01*
X129341429Y-55697381D01*
X129055714Y-55697381D01*
X128960476Y-55649762D01*
X128912857Y-55602143D01*
X128897143Y-62147143D02*
X128849524Y-62194762D01*
X128706667Y-62242381D01*
X128611429Y-62242381D01*
X128468571Y-62194762D01*
X128373333Y-62099524D01*
X128325714Y-62004286D01*
X128278095Y-61813810D01*
X128278095Y-61670952D01*
X128325714Y-61480476D01*
X128373333Y-61385238D01*
X128468571Y-61290000D01*
X128611429Y-61242381D01*
X128706667Y-61242381D01*
X128849524Y-61290000D01*
X128897143Y-61337619D01*
X129849524Y-62242381D02*
X129278095Y-62242381D01*
X129563809Y-62242381D02*
X129563809Y-61242381D01*
X129468571Y-61385238D01*
X129373333Y-61480476D01*
X129278095Y-61528095D01*
X130706667Y-61575714D02*
X130706667Y-62242381D01*
X130468571Y-61194762D02*
X130230476Y-61909048D01*
X130849524Y-61909048D01*
X206292143Y-107767357D02*
X206339762Y-107814976D01*
X206387381Y-107957833D01*
X206387381Y-108053071D01*
X206339762Y-108195929D01*
X206244524Y-108291167D01*
X206149286Y-108338786D01*
X205958810Y-108386405D01*
X205815952Y-108386405D01*
X205625476Y-108338786D01*
X205530238Y-108291167D01*
X205435000Y-108195929D01*
X205387381Y-108053071D01*
X205387381Y-107957833D01*
X205435000Y-107814976D01*
X205482619Y-107767357D01*
X206387381Y-106814976D02*
X206387381Y-107386405D01*
X206387381Y-107100691D02*
X205387381Y-107100691D01*
X205530238Y-107195929D01*
X205625476Y-107291167D01*
X205673095Y-107386405D01*
X205387381Y-105910214D02*
X205387381Y-106386405D01*
X205863571Y-106434024D01*
X205815952Y-106386405D01*
X205768333Y-106291167D01*
X205768333Y-106053071D01*
X205815952Y-105957833D01*
X205863571Y-105910214D01*
X205958810Y-105862595D01*
X206196905Y-105862595D01*
X206292143Y-105910214D01*
X206339762Y-105957833D01*
X206387381Y-106053071D01*
X206387381Y-106291167D01*
X206339762Y-106386405D01*
X206292143Y-106434024D01*
X204632143Y-98432857D02*
X204679762Y-98480476D01*
X204727381Y-98623333D01*
X204727381Y-98718571D01*
X204679762Y-98861429D01*
X204584524Y-98956667D01*
X204489286Y-99004286D01*
X204298810Y-99051905D01*
X204155952Y-99051905D01*
X203965476Y-99004286D01*
X203870238Y-98956667D01*
X203775000Y-98861429D01*
X203727381Y-98718571D01*
X203727381Y-98623333D01*
X203775000Y-98480476D01*
X203822619Y-98432857D01*
X204727381Y-97480476D02*
X204727381Y-98051905D01*
X204727381Y-97766191D02*
X203727381Y-97766191D01*
X203870238Y-97861429D01*
X203965476Y-97956667D01*
X204013095Y-98051905D01*
X203727381Y-96623333D02*
X203727381Y-96813810D01*
X203775000Y-96909048D01*
X203822619Y-96956667D01*
X203965476Y-97051905D01*
X204155952Y-97099524D01*
X204536905Y-97099524D01*
X204632143Y-97051905D01*
X204679762Y-97004286D01*
X204727381Y-96909048D01*
X204727381Y-96718571D01*
X204679762Y-96623333D01*
X204632143Y-96575714D01*
X204536905Y-96528095D01*
X204298810Y-96528095D01*
X204203571Y-96575714D01*
X204155952Y-96623333D01*
X204108333Y-96718571D01*
X204108333Y-96909048D01*
X204155952Y-97004286D01*
X204203571Y-97051905D01*
X204298810Y-97099524D01*
X197381905Y-63444381D02*
X197381905Y-62444381D01*
X197620000Y-62444381D01*
X197762858Y-62492000D01*
X197858096Y-62587238D01*
X197905715Y-62682476D01*
X197953334Y-62872952D01*
X197953334Y-63015810D01*
X197905715Y-63206286D01*
X197858096Y-63301524D01*
X197762858Y-63396762D01*
X197620000Y-63444381D01*
X197381905Y-63444381D01*
X198905715Y-63444381D02*
X198334286Y-63444381D01*
X198620000Y-63444381D02*
X198620000Y-62444381D01*
X198524762Y-62587238D01*
X198429524Y-62682476D01*
X198334286Y-62730095D01*
X199120381Y-62444381D02*
X199691810Y-62444381D01*
X199406095Y-63444381D02*
X199406095Y-62444381D01*
X199929905Y-62444381D02*
X200596572Y-63444381D01*
X200596572Y-62444381D02*
X199929905Y-63444381D01*
X201453715Y-63444381D02*
X200977524Y-63444381D01*
X200977524Y-62444381D01*
X202168001Y-63396762D02*
X202072763Y-63444381D01*
X201882286Y-63444381D01*
X201787048Y-63396762D01*
X201739429Y-63301524D01*
X201739429Y-62920571D01*
X201787048Y-62825333D01*
X201882286Y-62777714D01*
X202072763Y-62777714D01*
X202168001Y-62825333D01*
X202215620Y-62920571D01*
X202215620Y-63015810D01*
X201739429Y-63111048D01*
X203072763Y-63444381D02*
X203072763Y-62444381D01*
X203072763Y-63396762D02*
X202977525Y-63444381D01*
X202787048Y-63444381D01*
X202691810Y-63396762D01*
X202644191Y-63349143D01*
X202596572Y-63253905D01*
X202596572Y-62968190D01*
X202644191Y-62872952D01*
X202691810Y-62825333D01*
X202787048Y-62777714D01*
X202977525Y-62777714D01*
X203072763Y-62825333D01*
X197381905Y-60015381D02*
X197381905Y-59015381D01*
X197620000Y-59015381D01*
X197762858Y-59063000D01*
X197858096Y-59158238D01*
X197905715Y-59253476D01*
X197953334Y-59443952D01*
X197953334Y-59586810D01*
X197905715Y-59777286D01*
X197858096Y-59872524D01*
X197762858Y-59967762D01*
X197620000Y-60015381D01*
X197381905Y-60015381D01*
X198334286Y-59110619D02*
X198381905Y-59063000D01*
X198477143Y-59015381D01*
X198715239Y-59015381D01*
X198810477Y-59063000D01*
X198858096Y-59110619D01*
X198905715Y-59205857D01*
X198905715Y-59301095D01*
X198858096Y-59443952D01*
X198286667Y-60015381D01*
X198905715Y-60015381D01*
X199842619Y-60015381D02*
X199509285Y-59539190D01*
X199271190Y-60015381D02*
X199271190Y-59015381D01*
X199652143Y-59015381D01*
X199747381Y-59063000D01*
X199795000Y-59110619D01*
X199842619Y-59205857D01*
X199842619Y-59348714D01*
X199795000Y-59443952D01*
X199747381Y-59491571D01*
X199652143Y-59539190D01*
X199271190Y-59539190D01*
X200175952Y-59015381D02*
X200842619Y-60015381D01*
X200842619Y-59015381D02*
X200175952Y-60015381D01*
X201699762Y-60015381D02*
X201223571Y-60015381D01*
X201223571Y-59015381D01*
X202414048Y-59967762D02*
X202318810Y-60015381D01*
X202128333Y-60015381D01*
X202033095Y-59967762D01*
X201985476Y-59872524D01*
X201985476Y-59491571D01*
X202033095Y-59396333D01*
X202128333Y-59348714D01*
X202318810Y-59348714D01*
X202414048Y-59396333D01*
X202461667Y-59491571D01*
X202461667Y-59586810D01*
X201985476Y-59682048D01*
X203318810Y-60015381D02*
X203318810Y-59015381D01*
X203318810Y-59967762D02*
X203223572Y-60015381D01*
X203033095Y-60015381D01*
X202937857Y-59967762D01*
X202890238Y-59920143D01*
X202842619Y-59824905D01*
X202842619Y-59539190D01*
X202890238Y-59443952D01*
X202937857Y-59396333D01*
X203033095Y-59348714D01*
X203223572Y-59348714D01*
X203318810Y-59396333D01*
X142136905Y-62437381D02*
X142136905Y-61437381D01*
X142375000Y-61437381D01*
X142517858Y-61485000D01*
X142613096Y-61580238D01*
X142660715Y-61675476D01*
X142708334Y-61865952D01*
X142708334Y-62008810D01*
X142660715Y-62199286D01*
X142613096Y-62294524D01*
X142517858Y-62389762D01*
X142375000Y-62437381D01*
X142136905Y-62437381D01*
X143041667Y-61437381D02*
X143660715Y-61437381D01*
X143327381Y-61818333D01*
X143470239Y-61818333D01*
X143565477Y-61865952D01*
X143613096Y-61913571D01*
X143660715Y-62008810D01*
X143660715Y-62246905D01*
X143613096Y-62342143D01*
X143565477Y-62389762D01*
X143470239Y-62437381D01*
X143184524Y-62437381D01*
X143089286Y-62389762D01*
X143041667Y-62342143D01*
X137820381Y-74636190D02*
X136820381Y-74636190D01*
X137725143Y-73588571D02*
X137772762Y-73636190D01*
X137820381Y-73779047D01*
X137820381Y-73874285D01*
X137772762Y-74017143D01*
X137677524Y-74112381D01*
X137582286Y-74160000D01*
X137391810Y-74207619D01*
X137248952Y-74207619D01*
X137058476Y-74160000D01*
X136963238Y-74112381D01*
X136868000Y-74017143D01*
X136820381Y-73874285D01*
X136820381Y-73779047D01*
X136868000Y-73636190D01*
X136915619Y-73588571D01*
X137820381Y-72636190D02*
X137820381Y-73207619D01*
X137820381Y-72921905D02*
X136820381Y-72921905D01*
X136963238Y-73017143D01*
X137058476Y-73112381D01*
X137106095Y-73207619D01*
X196683334Y-68202381D02*
X196207143Y-68202381D01*
X196207143Y-67202381D01*
X197540477Y-68202381D02*
X196969048Y-68202381D01*
X197254762Y-68202381D02*
X197254762Y-67202381D01*
X197159524Y-67345238D01*
X197064286Y-67440476D01*
X196969048Y-67488095D01*
X153682381Y-56046666D02*
X153682381Y-56522857D01*
X152682381Y-56522857D01*
X152777619Y-55760952D02*
X152730000Y-55713333D01*
X152682381Y-55618095D01*
X152682381Y-55379999D01*
X152730000Y-55284761D01*
X152777619Y-55237142D01*
X152872857Y-55189523D01*
X152968095Y-55189523D01*
X153110952Y-55237142D01*
X153682381Y-55808571D01*
X153682381Y-55189523D01*
X84399381Y-66778095D02*
X83399381Y-66778095D01*
X83399381Y-66397142D01*
X83447000Y-66301904D01*
X83494619Y-66254285D01*
X83589857Y-66206666D01*
X83732714Y-66206666D01*
X83827952Y-66254285D01*
X83875571Y-66301904D01*
X83923190Y-66397142D01*
X83923190Y-66778095D01*
X84399381Y-65254285D02*
X84399381Y-65825714D01*
X84399381Y-65540000D02*
X83399381Y-65540000D01*
X83542238Y-65635238D01*
X83637476Y-65730476D01*
X83685095Y-65825714D01*
X83907477Y-63952381D02*
X83336048Y-63952381D01*
X83621762Y-63952381D02*
X83621762Y-62952381D01*
X83526524Y-63095238D01*
X83431286Y-63190476D01*
X83336048Y-63238095D01*
X84288429Y-63047619D02*
X84336048Y-63000000D01*
X84431286Y-62952381D01*
X84669382Y-62952381D01*
X84764620Y-63000000D01*
X84812239Y-63047619D01*
X84859858Y-63142857D01*
X84859858Y-63238095D01*
X84812239Y-63380952D01*
X84240810Y-63952381D01*
X84859858Y-63952381D01*
X85145572Y-62952381D02*
X85478905Y-63952381D01*
X85812239Y-62952381D01*
X86145572Y-63952381D02*
X86145572Y-63285714D01*
X86145572Y-62952381D02*
X86097953Y-63000000D01*
X86145572Y-63047619D01*
X86193191Y-63000000D01*
X86145572Y-62952381D01*
X86145572Y-63047619D01*
X86621762Y-63285714D02*
X86621762Y-63952381D01*
X86621762Y-63380952D02*
X86669381Y-63333333D01*
X86764619Y-63285714D01*
X86907477Y-63285714D01*
X87002715Y-63333333D01*
X87050334Y-63428571D01*
X87050334Y-63952381D01*
X215336381Y-72493095D02*
X214336381Y-72493095D01*
X214336381Y-72112142D01*
X214384000Y-72016904D01*
X214431619Y-71969285D01*
X214526857Y-71921666D01*
X214669714Y-71921666D01*
X214764952Y-71969285D01*
X214812571Y-72016904D01*
X214860190Y-72112142D01*
X214860190Y-72493095D01*
X214431619Y-71540714D02*
X214384000Y-71493095D01*
X214336381Y-71397857D01*
X214336381Y-71159761D01*
X214384000Y-71064523D01*
X214431619Y-71016904D01*
X214526857Y-70969285D01*
X214622095Y-70969285D01*
X214764952Y-71016904D01*
X215336381Y-71588333D01*
X215336381Y-70969285D01*
X84399381Y-97004095D02*
X83399381Y-97004095D01*
X83399381Y-96623142D01*
X83447000Y-96527904D01*
X83494619Y-96480285D01*
X83589857Y-96432666D01*
X83732714Y-96432666D01*
X83827952Y-96480285D01*
X83875571Y-96527904D01*
X83923190Y-96623142D01*
X83923190Y-97004095D01*
X83732714Y-95575523D02*
X84399381Y-95575523D01*
X83351762Y-95813619D02*
X84066048Y-96051714D01*
X84066048Y-95432666D01*
X84669381Y-99146952D02*
X85669381Y-98813619D01*
X84669381Y-98480285D01*
X85383667Y-98194571D02*
X85383667Y-97718380D01*
X85669381Y-98289809D02*
X84669381Y-97956476D01*
X85669381Y-97623142D01*
X85574143Y-96718380D02*
X85621762Y-96765999D01*
X85669381Y-96908856D01*
X85669381Y-97004094D01*
X85621762Y-97146952D01*
X85526524Y-97242190D01*
X85431286Y-97289809D01*
X85240810Y-97337428D01*
X85097952Y-97337428D01*
X84907476Y-97289809D01*
X84812238Y-97242190D01*
X84717000Y-97146952D01*
X84669381Y-97004094D01*
X84669381Y-96908856D01*
X84717000Y-96765999D01*
X84764619Y-96718380D01*
X84669381Y-96289809D02*
X85478905Y-96289809D01*
X85574143Y-96242190D01*
X85621762Y-96194571D01*
X85669381Y-96099333D01*
X85669381Y-95908856D01*
X85621762Y-95813618D01*
X85574143Y-95765999D01*
X85478905Y-95718380D01*
X84669381Y-95718380D01*
X84669381Y-95242190D02*
X85478905Y-95242190D01*
X85574143Y-95194571D01*
X85621762Y-95146952D01*
X85669381Y-95051714D01*
X85669381Y-94861237D01*
X85621762Y-94765999D01*
X85574143Y-94718380D01*
X85478905Y-94670761D01*
X84669381Y-94670761D01*
X85669381Y-94194571D02*
X84669381Y-94194571D01*
X85383667Y-93861237D01*
X84669381Y-93527904D01*
X85669381Y-93527904D01*
X84399381Y-82272095D02*
X83399381Y-82272095D01*
X83399381Y-81891142D01*
X83447000Y-81795904D01*
X83494619Y-81748285D01*
X83589857Y-81700666D01*
X83732714Y-81700666D01*
X83827952Y-81748285D01*
X83875571Y-81795904D01*
X83923190Y-81891142D01*
X83923190Y-82272095D01*
X83399381Y-80795904D02*
X83399381Y-81272095D01*
X83875571Y-81319714D01*
X83827952Y-81272095D01*
X83780333Y-81176857D01*
X83780333Y-80938761D01*
X83827952Y-80843523D01*
X83875571Y-80795904D01*
X83970810Y-80748285D01*
X84208905Y-80748285D01*
X84304143Y-80795904D01*
X84351762Y-80843523D01*
X84399381Y-80938761D01*
X84399381Y-81176857D01*
X84351762Y-81272095D01*
X84304143Y-81319714D01*
X85669381Y-83962571D02*
X85669381Y-84438762D01*
X84669381Y-84438762D01*
X85145571Y-83629238D02*
X85145571Y-83295904D01*
X85669381Y-83153047D02*
X85669381Y-83629238D01*
X84669381Y-83629238D01*
X84669381Y-83153047D01*
X85669381Y-82724476D02*
X84669381Y-82724476D01*
X84669381Y-82486381D01*
X84717000Y-82343523D01*
X84812238Y-82248285D01*
X84907476Y-82200666D01*
X85097952Y-82153047D01*
X85240810Y-82153047D01*
X85431286Y-82200666D01*
X85526524Y-82248285D01*
X85621762Y-82343523D01*
X85669381Y-82486381D01*
X85669381Y-82724476D01*
X85764619Y-81962571D02*
X85764619Y-81200666D01*
X84669381Y-81105428D02*
X84669381Y-80533999D01*
X85669381Y-80819714D02*
X84669381Y-80819714D01*
X84669381Y-80010190D02*
X84669381Y-79819713D01*
X84717000Y-79724475D01*
X84812238Y-79629237D01*
X85002714Y-79581618D01*
X85336048Y-79581618D01*
X85526524Y-79629237D01*
X85621762Y-79724475D01*
X85669381Y-79819713D01*
X85669381Y-80010190D01*
X85621762Y-80105428D01*
X85526524Y-80200666D01*
X85336048Y-80248285D01*
X85002714Y-80248285D01*
X84812238Y-80200666D01*
X84717000Y-80105428D01*
X84669381Y-80010190D01*
X85669381Y-79153047D02*
X84669381Y-79153047D01*
X84669381Y-78772094D01*
X84717000Y-78676856D01*
X84764619Y-78629237D01*
X84859857Y-78581618D01*
X85002714Y-78581618D01*
X85097952Y-78629237D01*
X85145571Y-78676856D01*
X85193190Y-78772094D01*
X85193190Y-79153047D01*
X84399381Y-89892095D02*
X83399381Y-89892095D01*
X83399381Y-89511142D01*
X83447000Y-89415904D01*
X83494619Y-89368285D01*
X83589857Y-89320666D01*
X83732714Y-89320666D01*
X83827952Y-89368285D01*
X83875571Y-89415904D01*
X83923190Y-89511142D01*
X83923190Y-89892095D01*
X83399381Y-88463523D02*
X83399381Y-88654000D01*
X83447000Y-88749238D01*
X83494619Y-88796857D01*
X83637476Y-88892095D01*
X83827952Y-88939714D01*
X84208905Y-88939714D01*
X84304143Y-88892095D01*
X84351762Y-88844476D01*
X84399381Y-88749238D01*
X84399381Y-88558761D01*
X84351762Y-88463523D01*
X84304143Y-88415904D01*
X84208905Y-88368285D01*
X83970810Y-88368285D01*
X83875571Y-88415904D01*
X83827952Y-88463523D01*
X83780333Y-88558761D01*
X83780333Y-88749238D01*
X83827952Y-88844476D01*
X83875571Y-88892095D01*
X83970810Y-88939714D01*
X85669381Y-92423762D02*
X85669381Y-92899953D01*
X84669381Y-92899953D01*
X85145571Y-92090429D02*
X85145571Y-91757095D01*
X85669381Y-91614238D02*
X85669381Y-92090429D01*
X84669381Y-92090429D01*
X84669381Y-91614238D01*
X85669381Y-91185667D02*
X84669381Y-91185667D01*
X84669381Y-90947572D01*
X84717000Y-90804714D01*
X84812238Y-90709476D01*
X84907476Y-90661857D01*
X85097952Y-90614238D01*
X85240810Y-90614238D01*
X85431286Y-90661857D01*
X85526524Y-90709476D01*
X85621762Y-90804714D01*
X85669381Y-90947572D01*
X85669381Y-91185667D01*
X85764619Y-90423762D02*
X85764619Y-89661857D01*
X85145571Y-89090428D02*
X85193190Y-88947571D01*
X85240810Y-88899952D01*
X85336048Y-88852333D01*
X85478905Y-88852333D01*
X85574143Y-88899952D01*
X85621762Y-88947571D01*
X85669381Y-89042809D01*
X85669381Y-89423762D01*
X84669381Y-89423762D01*
X84669381Y-89090428D01*
X84717000Y-88995190D01*
X84764619Y-88947571D01*
X84859857Y-88899952D01*
X84955095Y-88899952D01*
X85050333Y-88947571D01*
X85097952Y-88995190D01*
X85145571Y-89090428D01*
X85145571Y-89423762D01*
X84669381Y-88233286D02*
X84669381Y-88042809D01*
X84717000Y-87947571D01*
X84812238Y-87852333D01*
X85002714Y-87804714D01*
X85336048Y-87804714D01*
X85526524Y-87852333D01*
X85621762Y-87947571D01*
X85669381Y-88042809D01*
X85669381Y-88233286D01*
X85621762Y-88328524D01*
X85526524Y-88423762D01*
X85336048Y-88471381D01*
X85002714Y-88471381D01*
X84812238Y-88423762D01*
X84717000Y-88328524D01*
X84669381Y-88233286D01*
X84669381Y-87519000D02*
X84669381Y-86947571D01*
X85669381Y-87233286D02*
X84669381Y-87233286D01*
X84669381Y-86757095D02*
X84669381Y-86185666D01*
X85669381Y-86471381D02*
X84669381Y-86471381D01*
X84669381Y-85661857D02*
X84669381Y-85471380D01*
X84717000Y-85376142D01*
X84812238Y-85280904D01*
X85002714Y-85233285D01*
X85336048Y-85233285D01*
X85526524Y-85280904D01*
X85621762Y-85376142D01*
X85669381Y-85471380D01*
X85669381Y-85661857D01*
X85621762Y-85757095D01*
X85526524Y-85852333D01*
X85336048Y-85899952D01*
X85002714Y-85899952D01*
X84812238Y-85852333D01*
X84717000Y-85757095D01*
X84669381Y-85661857D01*
X85669381Y-84804714D02*
X84669381Y-84804714D01*
X85383667Y-84471380D01*
X84669381Y-84138047D01*
X85669381Y-84138047D01*
X87534762Y-88812619D02*
X87439524Y-88765000D01*
X87344286Y-88669762D01*
X87201429Y-88526905D01*
X87106190Y-88479286D01*
X87010952Y-88479286D01*
X87058571Y-88717381D02*
X86963333Y-88669762D01*
X86868095Y-88574524D01*
X86820476Y-88384048D01*
X86820476Y-88050714D01*
X86868095Y-87860238D01*
X86963333Y-87765000D01*
X87058571Y-87717381D01*
X87249048Y-87717381D01*
X87344286Y-87765000D01*
X87439524Y-87860238D01*
X87487143Y-88050714D01*
X87487143Y-88384048D01*
X87439524Y-88574524D01*
X87344286Y-88669762D01*
X87249048Y-88717381D01*
X87058571Y-88717381D01*
X88439524Y-88717381D02*
X87868095Y-88717381D01*
X88153809Y-88717381D02*
X88153809Y-87717381D01*
X88058571Y-87860238D01*
X87963333Y-87955476D01*
X87868095Y-88003095D01*
X87534762Y-73572619D02*
X87439524Y-73525000D01*
X87344286Y-73429762D01*
X87201429Y-73286905D01*
X87106190Y-73239286D01*
X87010952Y-73239286D01*
X87058571Y-73477381D02*
X86963333Y-73429762D01*
X86868095Y-73334524D01*
X86820476Y-73144048D01*
X86820476Y-72810714D01*
X86868095Y-72620238D01*
X86963333Y-72525000D01*
X87058571Y-72477381D01*
X87249048Y-72477381D01*
X87344286Y-72525000D01*
X87439524Y-72620238D01*
X87487143Y-72810714D01*
X87487143Y-73144048D01*
X87439524Y-73334524D01*
X87344286Y-73429762D01*
X87249048Y-73477381D01*
X87058571Y-73477381D01*
X87868095Y-72572619D02*
X87915714Y-72525000D01*
X88010952Y-72477381D01*
X88249048Y-72477381D01*
X88344286Y-72525000D01*
X88391905Y-72572619D01*
X88439524Y-72667857D01*
X88439524Y-72763095D01*
X88391905Y-72905952D01*
X87820476Y-73477381D01*
X88439524Y-73477381D01*
X87534762Y-80557619D02*
X87439524Y-80510000D01*
X87344286Y-80414762D01*
X87201429Y-80271905D01*
X87106190Y-80224286D01*
X87010952Y-80224286D01*
X87058571Y-80462381D02*
X86963333Y-80414762D01*
X86868095Y-80319524D01*
X86820476Y-80129048D01*
X86820476Y-79795714D01*
X86868095Y-79605238D01*
X86963333Y-79510000D01*
X87058571Y-79462381D01*
X87249048Y-79462381D01*
X87344286Y-79510000D01*
X87439524Y-79605238D01*
X87487143Y-79795714D01*
X87487143Y-80129048D01*
X87439524Y-80319524D01*
X87344286Y-80414762D01*
X87249048Y-80462381D01*
X87058571Y-80462381D01*
X87820476Y-79462381D02*
X88439524Y-79462381D01*
X88106190Y-79843333D01*
X88249048Y-79843333D01*
X88344286Y-79890952D01*
X88391905Y-79938571D01*
X88439524Y-80033810D01*
X88439524Y-80271905D01*
X88391905Y-80367143D01*
X88344286Y-80414762D01*
X88249048Y-80462381D01*
X87963333Y-80462381D01*
X87868095Y-80414762D01*
X87820476Y-80367143D01*
X187920334Y-63444381D02*
X187587000Y-62968190D01*
X187348905Y-63444381D02*
X187348905Y-62444381D01*
X187729858Y-62444381D01*
X187825096Y-62492000D01*
X187872715Y-62539619D01*
X187920334Y-62634857D01*
X187920334Y-62777714D01*
X187872715Y-62872952D01*
X187825096Y-62920571D01*
X187729858Y-62968190D01*
X187348905Y-62968190D01*
X188872715Y-63444381D02*
X188301286Y-63444381D01*
X188587000Y-63444381D02*
X188587000Y-62444381D01*
X188491762Y-62587238D01*
X188396524Y-62682476D01*
X188301286Y-62730095D01*
X187285334Y-60015381D02*
X186952000Y-59539190D01*
X186713905Y-60015381D02*
X186713905Y-59015381D01*
X187094858Y-59015381D01*
X187190096Y-59063000D01*
X187237715Y-59110619D01*
X187285334Y-59205857D01*
X187285334Y-59348714D01*
X187237715Y-59443952D01*
X187190096Y-59491571D01*
X187094858Y-59539190D01*
X186713905Y-59539190D01*
X187666286Y-59110619D02*
X187713905Y-59063000D01*
X187809143Y-59015381D01*
X188047239Y-59015381D01*
X188142477Y-59063000D01*
X188190096Y-59110619D01*
X188237715Y-59205857D01*
X188237715Y-59301095D01*
X188190096Y-59443952D01*
X187618667Y-60015381D01*
X188237715Y-60015381D01*
X153376334Y-73096381D02*
X153043000Y-72620190D01*
X152804905Y-73096381D02*
X152804905Y-72096381D01*
X153185858Y-72096381D01*
X153281096Y-72144000D01*
X153328715Y-72191619D01*
X153376334Y-72286857D01*
X153376334Y-72429714D01*
X153328715Y-72524952D01*
X153281096Y-72572571D01*
X153185858Y-72620190D01*
X152804905Y-72620190D01*
X154233477Y-72429714D02*
X154233477Y-73096381D01*
X153995381Y-72048762D02*
X153757286Y-72763048D01*
X154376334Y-72763048D01*
X164341381Y-57888166D02*
X163865190Y-58221500D01*
X164341381Y-58459595D02*
X163341381Y-58459595D01*
X163341381Y-58078642D01*
X163389000Y-57983404D01*
X163436619Y-57935785D01*
X163531857Y-57888166D01*
X163674714Y-57888166D01*
X163769952Y-57935785D01*
X163817571Y-57983404D01*
X163865190Y-58078642D01*
X163865190Y-58459595D01*
X163341381Y-56983404D02*
X163341381Y-57459595D01*
X163817571Y-57507214D01*
X163769952Y-57459595D01*
X163722333Y-57364357D01*
X163722333Y-57126261D01*
X163769952Y-57031023D01*
X163817571Y-56983404D01*
X163912810Y-56935785D01*
X164150905Y-56935785D01*
X164246143Y-56983404D01*
X164293762Y-57031023D01*
X164341381Y-57126261D01*
X164341381Y-57364357D01*
X164293762Y-57459595D01*
X164246143Y-57507214D01*
X172156381Y-59856666D02*
X171680190Y-60190000D01*
X172156381Y-60428095D02*
X171156381Y-60428095D01*
X171156381Y-60047142D01*
X171204000Y-59951904D01*
X171251619Y-59904285D01*
X171346857Y-59856666D01*
X171489714Y-59856666D01*
X171584952Y-59904285D01*
X171632571Y-59951904D01*
X171680190Y-60047142D01*
X171680190Y-60428095D01*
X171156381Y-58999523D02*
X171156381Y-59190000D01*
X171204000Y-59285238D01*
X171251619Y-59332857D01*
X171394476Y-59428095D01*
X171584952Y-59475714D01*
X171965905Y-59475714D01*
X172061143Y-59428095D01*
X172108762Y-59380476D01*
X172156381Y-59285238D01*
X172156381Y-59094761D01*
X172108762Y-58999523D01*
X172061143Y-58951904D01*
X171965905Y-58904285D01*
X171727810Y-58904285D01*
X171632571Y-58951904D01*
X171584952Y-58999523D01*
X171537333Y-59094761D01*
X171537333Y-59285238D01*
X171584952Y-59380476D01*
X171632571Y-59428095D01*
X171727810Y-59475714D01*
X140168334Y-65662381D02*
X139835000Y-65186190D01*
X139596905Y-65662381D02*
X139596905Y-64662381D01*
X139977858Y-64662381D01*
X140073096Y-64710000D01*
X140120715Y-64757619D01*
X140168334Y-64852857D01*
X140168334Y-64995714D01*
X140120715Y-65090952D01*
X140073096Y-65138571D01*
X139977858Y-65186190D01*
X139596905Y-65186190D01*
X140501667Y-64662381D02*
X141168334Y-64662381D01*
X140739762Y-65662381D01*
X147788334Y-80657381D02*
X147455000Y-80181190D01*
X147216905Y-80657381D02*
X147216905Y-79657381D01*
X147597858Y-79657381D01*
X147693096Y-79705000D01*
X147740715Y-79752619D01*
X147788334Y-79847857D01*
X147788334Y-79990714D01*
X147740715Y-80085952D01*
X147693096Y-80133571D01*
X147597858Y-80181190D01*
X147216905Y-80181190D01*
X148359762Y-80085952D02*
X148264524Y-80038333D01*
X148216905Y-79990714D01*
X148169286Y-79895476D01*
X148169286Y-79847857D01*
X148216905Y-79752619D01*
X148264524Y-79705000D01*
X148359762Y-79657381D01*
X148550239Y-79657381D01*
X148645477Y-79705000D01*
X148693096Y-79752619D01*
X148740715Y-79847857D01*
X148740715Y-79895476D01*
X148693096Y-79990714D01*
X148645477Y-80038333D01*
X148550239Y-80085952D01*
X148359762Y-80085952D01*
X148264524Y-80133571D01*
X148216905Y-80181190D01*
X148169286Y-80276429D01*
X148169286Y-80466905D01*
X148216905Y-80562143D01*
X148264524Y-80609762D01*
X148359762Y-80657381D01*
X148550239Y-80657381D01*
X148645477Y-80609762D01*
X148693096Y-80562143D01*
X148740715Y-80466905D01*
X148740715Y-80276429D01*
X148693096Y-80181190D01*
X148645477Y-80133571D01*
X148550239Y-80085952D01*
X146518334Y-77482381D02*
X146185000Y-77006190D01*
X145946905Y-77482381D02*
X145946905Y-76482381D01*
X146327858Y-76482381D01*
X146423096Y-76530000D01*
X146470715Y-76577619D01*
X146518334Y-76672857D01*
X146518334Y-76815714D01*
X146470715Y-76910952D01*
X146423096Y-76958571D01*
X146327858Y-77006190D01*
X145946905Y-77006190D01*
X146994524Y-77482381D02*
X147185000Y-77482381D01*
X147280239Y-77434762D01*
X147327858Y-77387143D01*
X147423096Y-77244286D01*
X147470715Y-77053810D01*
X147470715Y-76672857D01*
X147423096Y-76577619D01*
X147375477Y-76530000D01*
X147280239Y-76482381D01*
X147089762Y-76482381D01*
X146994524Y-76530000D01*
X146946905Y-76577619D01*
X146899286Y-76672857D01*
X146899286Y-76910952D01*
X146946905Y-77006190D01*
X146994524Y-77053810D01*
X147089762Y-77101429D01*
X147280239Y-77101429D01*
X147375477Y-77053810D01*
X147423096Y-77006190D01*
X147470715Y-76910952D01*
X100587381Y-66047857D02*
X100111190Y-66381191D01*
X100587381Y-66619286D02*
X99587381Y-66619286D01*
X99587381Y-66238333D01*
X99635000Y-66143095D01*
X99682619Y-66095476D01*
X99777857Y-66047857D01*
X99920714Y-66047857D01*
X100015952Y-66095476D01*
X100063571Y-66143095D01*
X100111190Y-66238333D01*
X100111190Y-66619286D01*
X100587381Y-65095476D02*
X100587381Y-65666905D01*
X100587381Y-65381191D02*
X99587381Y-65381191D01*
X99730238Y-65476429D01*
X99825476Y-65571667D01*
X99873095Y-65666905D01*
X99587381Y-64476429D02*
X99587381Y-64381190D01*
X99635000Y-64285952D01*
X99682619Y-64238333D01*
X99777857Y-64190714D01*
X99968333Y-64143095D01*
X100206429Y-64143095D01*
X100396905Y-64190714D01*
X100492143Y-64238333D01*
X100539762Y-64285952D01*
X100587381Y-64381190D01*
X100587381Y-64476429D01*
X100539762Y-64571667D01*
X100492143Y-64619286D01*
X100396905Y-64666905D01*
X100206429Y-64714524D01*
X99968333Y-64714524D01*
X99777857Y-64666905D01*
X99682619Y-64619286D01*
X99635000Y-64571667D01*
X99587381Y-64476429D01*
X195953143Y-104084381D02*
X195619809Y-103608190D01*
X195381714Y-104084381D02*
X195381714Y-103084381D01*
X195762667Y-103084381D01*
X195857905Y-103132000D01*
X195905524Y-103179619D01*
X195953143Y-103274857D01*
X195953143Y-103417714D01*
X195905524Y-103512952D01*
X195857905Y-103560571D01*
X195762667Y-103608190D01*
X195381714Y-103608190D01*
X196905524Y-104084381D02*
X196334095Y-104084381D01*
X196619809Y-104084381D02*
X196619809Y-103084381D01*
X196524571Y-103227238D01*
X196429333Y-103322476D01*
X196334095Y-103370095D01*
X197286476Y-103179619D02*
X197334095Y-103132000D01*
X197429333Y-103084381D01*
X197667429Y-103084381D01*
X197762667Y-103132000D01*
X197810286Y-103179619D01*
X197857905Y-103274857D01*
X197857905Y-103370095D01*
X197810286Y-103512952D01*
X197238857Y-104084381D01*
X197857905Y-104084381D01*
X196207143Y-107767381D02*
X195873809Y-107291190D01*
X195635714Y-107767381D02*
X195635714Y-106767381D01*
X196016667Y-106767381D01*
X196111905Y-106815000D01*
X196159524Y-106862619D01*
X196207143Y-106957857D01*
X196207143Y-107100714D01*
X196159524Y-107195952D01*
X196111905Y-107243571D01*
X196016667Y-107291190D01*
X195635714Y-107291190D01*
X197159524Y-107767381D02*
X196588095Y-107767381D01*
X196873809Y-107767381D02*
X196873809Y-106767381D01*
X196778571Y-106910238D01*
X196683333Y-107005476D01*
X196588095Y-107053095D01*
X197492857Y-106767381D02*
X198111905Y-106767381D01*
X197778571Y-107148333D01*
X197921429Y-107148333D01*
X198016667Y-107195952D01*
X198064286Y-107243571D01*
X198111905Y-107338810D01*
X198111905Y-107576905D01*
X198064286Y-107672143D01*
X198016667Y-107719762D01*
X197921429Y-107767381D01*
X197635714Y-107767381D01*
X197540476Y-107719762D01*
X197492857Y-107672143D01*
X207002143Y-105667381D02*
X206668809Y-105191190D01*
X206430714Y-105667381D02*
X206430714Y-104667381D01*
X206811667Y-104667381D01*
X206906905Y-104715000D01*
X206954524Y-104762619D01*
X207002143Y-104857857D01*
X207002143Y-105000714D01*
X206954524Y-105095952D01*
X206906905Y-105143571D01*
X206811667Y-105191190D01*
X206430714Y-105191190D01*
X207954524Y-105667381D02*
X207383095Y-105667381D01*
X207668809Y-105667381D02*
X207668809Y-104667381D01*
X207573571Y-104810238D01*
X207478333Y-104905476D01*
X207383095Y-104953095D01*
X208811667Y-105000714D02*
X208811667Y-105667381D01*
X208573571Y-104619762D02*
X208335476Y-105334048D01*
X208954524Y-105334048D01*
X96512143Y-78430381D02*
X96178809Y-77954190D01*
X95940714Y-78430381D02*
X95940714Y-77430381D01*
X96321667Y-77430381D01*
X96416905Y-77478000D01*
X96464524Y-77525619D01*
X96512143Y-77620857D01*
X96512143Y-77763714D01*
X96464524Y-77858952D01*
X96416905Y-77906571D01*
X96321667Y-77954190D01*
X95940714Y-77954190D01*
X97464524Y-78430381D02*
X96893095Y-78430381D01*
X97178809Y-78430381D02*
X97178809Y-77430381D01*
X97083571Y-77573238D01*
X96988333Y-77668476D01*
X96893095Y-77716095D01*
X98321667Y-77430381D02*
X98131190Y-77430381D01*
X98035952Y-77478000D01*
X97988333Y-77525619D01*
X97893095Y-77668476D01*
X97845476Y-77858952D01*
X97845476Y-78239905D01*
X97893095Y-78335143D01*
X97940714Y-78382762D01*
X98035952Y-78430381D01*
X98226429Y-78430381D01*
X98321667Y-78382762D01*
X98369286Y-78335143D01*
X98416905Y-78239905D01*
X98416905Y-78001810D01*
X98369286Y-77906571D01*
X98321667Y-77858952D01*
X98226429Y-77811333D01*
X98035952Y-77811333D01*
X97940714Y-77858952D01*
X97893095Y-77906571D01*
X97845476Y-78001810D01*
X96639143Y-89098381D02*
X96305809Y-88622190D01*
X96067714Y-89098381D02*
X96067714Y-88098381D01*
X96448667Y-88098381D01*
X96543905Y-88146000D01*
X96591524Y-88193619D01*
X96639143Y-88288857D01*
X96639143Y-88431714D01*
X96591524Y-88526952D01*
X96543905Y-88574571D01*
X96448667Y-88622190D01*
X96067714Y-88622190D01*
X97591524Y-89098381D02*
X97020095Y-89098381D01*
X97305809Y-89098381D02*
X97305809Y-88098381D01*
X97210571Y-88241238D01*
X97115333Y-88336476D01*
X97020095Y-88384095D01*
X97924857Y-88098381D02*
X98591524Y-88098381D01*
X98162952Y-89098381D01*
X96004143Y-85542381D02*
X95670809Y-85066190D01*
X95432714Y-85542381D02*
X95432714Y-84542381D01*
X95813667Y-84542381D01*
X95908905Y-84590000D01*
X95956524Y-84637619D01*
X96004143Y-84732857D01*
X96004143Y-84875714D01*
X95956524Y-84970952D01*
X95908905Y-85018571D01*
X95813667Y-85066190D01*
X95432714Y-85066190D01*
X96956524Y-85542381D02*
X96385095Y-85542381D01*
X96670809Y-85542381D02*
X96670809Y-84542381D01*
X96575571Y-84685238D01*
X96480333Y-84780476D01*
X96385095Y-84828095D01*
X97527952Y-84970952D02*
X97432714Y-84923333D01*
X97385095Y-84875714D01*
X97337476Y-84780476D01*
X97337476Y-84732857D01*
X97385095Y-84637619D01*
X97432714Y-84590000D01*
X97527952Y-84542381D01*
X97718429Y-84542381D01*
X97813667Y-84590000D01*
X97861286Y-84637619D01*
X97908905Y-84732857D01*
X97908905Y-84780476D01*
X97861286Y-84875714D01*
X97813667Y-84923333D01*
X97718429Y-84970952D01*
X97527952Y-84970952D01*
X97432714Y-85018571D01*
X97385095Y-85066190D01*
X97337476Y-85161429D01*
X97337476Y-85351905D01*
X97385095Y-85447143D01*
X97432714Y-85494762D01*
X97527952Y-85542381D01*
X97718429Y-85542381D01*
X97813667Y-85494762D01*
X97861286Y-85447143D01*
X97908905Y-85351905D01*
X97908905Y-85161429D01*
X97861286Y-85066190D01*
X97813667Y-85018571D01*
X97718429Y-84970952D01*
X207002143Y-100587381D02*
X206668809Y-100111190D01*
X206430714Y-100587381D02*
X206430714Y-99587381D01*
X206811667Y-99587381D01*
X206906905Y-99635000D01*
X206954524Y-99682619D01*
X207002143Y-99777857D01*
X207002143Y-99920714D01*
X206954524Y-100015952D01*
X206906905Y-100063571D01*
X206811667Y-100111190D01*
X206430714Y-100111190D01*
X207954524Y-100587381D02*
X207383095Y-100587381D01*
X207668809Y-100587381D02*
X207668809Y-99587381D01*
X207573571Y-99730238D01*
X207478333Y-99825476D01*
X207383095Y-99873095D01*
X208430714Y-100587381D02*
X208621190Y-100587381D01*
X208716429Y-100539762D01*
X208764048Y-100492143D01*
X208859286Y-100349286D01*
X208906905Y-100158810D01*
X208906905Y-99777857D01*
X208859286Y-99682619D01*
X208811667Y-99635000D01*
X208716429Y-99587381D01*
X208525952Y-99587381D01*
X208430714Y-99635000D01*
X208383095Y-99682619D01*
X208335476Y-99777857D01*
X208335476Y-100015952D01*
X208383095Y-100111190D01*
X208430714Y-100158810D01*
X208525952Y-100206429D01*
X208716429Y-100206429D01*
X208811667Y-100158810D01*
X208859286Y-100111190D01*
X208906905Y-100015952D01*
X92067143Y-88971381D02*
X91733809Y-88495190D01*
X91495714Y-88971381D02*
X91495714Y-87971381D01*
X91876667Y-87971381D01*
X91971905Y-88019000D01*
X92019524Y-88066619D01*
X92067143Y-88161857D01*
X92067143Y-88304714D01*
X92019524Y-88399952D01*
X91971905Y-88447571D01*
X91876667Y-88495190D01*
X91495714Y-88495190D01*
X92448095Y-88066619D02*
X92495714Y-88019000D01*
X92590952Y-87971381D01*
X92829048Y-87971381D01*
X92924286Y-88019000D01*
X92971905Y-88066619D01*
X93019524Y-88161857D01*
X93019524Y-88257095D01*
X92971905Y-88399952D01*
X92400476Y-88971381D01*
X93019524Y-88971381D01*
X93638571Y-87971381D02*
X93733810Y-87971381D01*
X93829048Y-88019000D01*
X93876667Y-88066619D01*
X93924286Y-88161857D01*
X93971905Y-88352333D01*
X93971905Y-88590429D01*
X93924286Y-88780905D01*
X93876667Y-88876143D01*
X93829048Y-88923762D01*
X93733810Y-88971381D01*
X93638571Y-88971381D01*
X93543333Y-88923762D01*
X93495714Y-88876143D01*
X93448095Y-88780905D01*
X93400476Y-88590429D01*
X93400476Y-88352333D01*
X93448095Y-88161857D01*
X93495714Y-88066619D01*
X93543333Y-88019000D01*
X93638571Y-87971381D01*
X92702143Y-73477381D02*
X92368809Y-73001190D01*
X92130714Y-73477381D02*
X92130714Y-72477381D01*
X92511667Y-72477381D01*
X92606905Y-72525000D01*
X92654524Y-72572619D01*
X92702143Y-72667857D01*
X92702143Y-72810714D01*
X92654524Y-72905952D01*
X92606905Y-72953571D01*
X92511667Y-73001190D01*
X92130714Y-73001190D01*
X93083095Y-72572619D02*
X93130714Y-72525000D01*
X93225952Y-72477381D01*
X93464048Y-72477381D01*
X93559286Y-72525000D01*
X93606905Y-72572619D01*
X93654524Y-72667857D01*
X93654524Y-72763095D01*
X93606905Y-72905952D01*
X93035476Y-73477381D01*
X93654524Y-73477381D01*
X94606905Y-73477381D02*
X94035476Y-73477381D01*
X94321190Y-73477381D02*
X94321190Y-72477381D01*
X94225952Y-72620238D01*
X94130714Y-72715476D01*
X94035476Y-72763095D01*
X92194143Y-80462381D02*
X91860809Y-79986190D01*
X91622714Y-80462381D02*
X91622714Y-79462381D01*
X92003667Y-79462381D01*
X92098905Y-79510000D01*
X92146524Y-79557619D01*
X92194143Y-79652857D01*
X92194143Y-79795714D01*
X92146524Y-79890952D01*
X92098905Y-79938571D01*
X92003667Y-79986190D01*
X91622714Y-79986190D01*
X92575095Y-79557619D02*
X92622714Y-79510000D01*
X92717952Y-79462381D01*
X92956048Y-79462381D01*
X93051286Y-79510000D01*
X93098905Y-79557619D01*
X93146524Y-79652857D01*
X93146524Y-79748095D01*
X93098905Y-79890952D01*
X92527476Y-80462381D01*
X93146524Y-80462381D01*
X93527476Y-79557619D02*
X93575095Y-79510000D01*
X93670333Y-79462381D01*
X93908429Y-79462381D01*
X94003667Y-79510000D01*
X94051286Y-79557619D01*
X94098905Y-79652857D01*
X94098905Y-79748095D01*
X94051286Y-79890952D01*
X93479857Y-80462381D01*
X94098905Y-80462381D01*
X84351762Y-73723333D02*
X84399381Y-73580476D01*
X84399381Y-73342380D01*
X84351762Y-73247142D01*
X84304143Y-73199523D01*
X84208905Y-73151904D01*
X84113667Y-73151904D01*
X84018429Y-73199523D01*
X83970810Y-73247142D01*
X83923190Y-73342380D01*
X83875571Y-73532857D01*
X83827952Y-73628095D01*
X83780333Y-73675714D01*
X83685095Y-73723333D01*
X83589857Y-73723333D01*
X83494619Y-73675714D01*
X83447000Y-73628095D01*
X83399381Y-73532857D01*
X83399381Y-73294761D01*
X83447000Y-73151904D01*
X83399381Y-72818571D02*
X84399381Y-72580476D01*
X83685095Y-72389999D01*
X84399381Y-72199523D01*
X83399381Y-71961428D01*
X84399381Y-71056666D02*
X84399381Y-71628095D01*
X84399381Y-71342381D02*
X83399381Y-71342381D01*
X83542238Y-71437619D01*
X83637476Y-71532857D01*
X83685095Y-71628095D01*
X83574143Y-75334762D02*
X83717000Y-75382381D01*
X83955096Y-75382381D01*
X84050334Y-75334762D01*
X84097953Y-75287143D01*
X84145572Y-75191905D01*
X84145572Y-75096667D01*
X84097953Y-75001429D01*
X84050334Y-74953810D01*
X83955096Y-74906190D01*
X83764619Y-74858571D01*
X83669381Y-74810952D01*
X83621762Y-74763333D01*
X83574143Y-74668095D01*
X83574143Y-74572857D01*
X83621762Y-74477619D01*
X83669381Y-74430000D01*
X83764619Y-74382381D01*
X84002715Y-74382381D01*
X84145572Y-74430000D01*
X84574143Y-75382381D02*
X84574143Y-74382381D01*
X84955096Y-74382381D01*
X85050334Y-74430000D01*
X85097953Y-74477619D01*
X85145572Y-74572857D01*
X85145572Y-74715714D01*
X85097953Y-74810952D01*
X85050334Y-74858571D01*
X84955096Y-74906190D01*
X84574143Y-74906190D01*
X85526524Y-75334762D02*
X85669381Y-75382381D01*
X85907477Y-75382381D01*
X86002715Y-75334762D01*
X86050334Y-75287143D01*
X86097953Y-75191905D01*
X86097953Y-75096667D01*
X86050334Y-75001429D01*
X86002715Y-74953810D01*
X85907477Y-74906190D01*
X85717000Y-74858571D01*
X85621762Y-74810952D01*
X85574143Y-74763333D01*
X85526524Y-74668095D01*
X85526524Y-74572857D01*
X85574143Y-74477619D01*
X85621762Y-74430000D01*
X85717000Y-74382381D01*
X85955096Y-74382381D01*
X86097953Y-74430000D01*
X86383667Y-74382381D02*
X86955096Y-74382381D01*
X86669381Y-75382381D02*
X86669381Y-74382381D01*
X157667381Y-80136905D02*
X158476905Y-80136905D01*
X158572143Y-80089286D01*
X158619762Y-80041667D01*
X158667381Y-79946429D01*
X158667381Y-79755952D01*
X158619762Y-79660714D01*
X158572143Y-79613095D01*
X158476905Y-79565476D01*
X157667381Y-79565476D01*
X158667381Y-78565476D02*
X158667381Y-79136905D01*
X158667381Y-78851191D02*
X157667381Y-78851191D01*
X157810238Y-78946429D01*
X157905476Y-79041667D01*
X157953095Y-79136905D01*
X156273595Y-52728881D02*
X156273595Y-53538405D01*
X156321214Y-53633643D01*
X156368833Y-53681262D01*
X156464071Y-53728881D01*
X156654548Y-53728881D01*
X156749786Y-53681262D01*
X156797405Y-53633643D01*
X156845024Y-53538405D01*
X156845024Y-52728881D01*
X157273595Y-52824119D02*
X157321214Y-52776500D01*
X157416452Y-52728881D01*
X157654548Y-52728881D01*
X157749786Y-52776500D01*
X157797405Y-52824119D01*
X157845024Y-52919357D01*
X157845024Y-53014595D01*
X157797405Y-53157452D01*
X157225976Y-53728881D01*
X157845024Y-53728881D01*
X207375238Y-145083281D02*
X207613333Y-146083281D01*
X207803810Y-145368995D01*
X207994286Y-146083281D01*
X208232381Y-145083281D01*
X208518095Y-145083281D02*
X209137143Y-145083281D01*
X208803809Y-145464233D01*
X208946667Y-145464233D01*
X209041905Y-145511852D01*
X209089524Y-145559471D01*
X209137143Y-145654710D01*
X209137143Y-145892805D01*
X209089524Y-145988043D01*
X209041905Y-146035662D01*
X208946667Y-146083281D01*
X208660952Y-146083281D01*
X208565714Y-146035662D01*
X208518095Y-145988043D01*
X205851238Y-48817281D02*
X206089333Y-49817281D01*
X206279810Y-49102995D01*
X206470286Y-49817281D01*
X206708381Y-48817281D01*
X207565524Y-48817281D02*
X207089333Y-48817281D01*
X207041714Y-49293471D01*
X207089333Y-49245852D01*
X207184571Y-49198233D01*
X207422667Y-49198233D01*
X207517905Y-49245852D01*
X207565524Y-49293471D01*
X207613143Y-49388710D01*
X207613143Y-49626805D01*
X207565524Y-49722043D01*
X207517905Y-49769662D01*
X207422667Y-49817281D01*
X207184571Y-49817281D01*
X207089333Y-49769662D01*
X207041714Y-49722043D01*
X79105238Y-49833281D02*
X79343333Y-50833281D01*
X79533810Y-50118995D01*
X79724286Y-50833281D01*
X79962381Y-49833281D01*
X80771905Y-49833281D02*
X80581428Y-49833281D01*
X80486190Y-49880900D01*
X80438571Y-49928519D01*
X80343333Y-50071376D01*
X80295714Y-50261852D01*
X80295714Y-50642805D01*
X80343333Y-50738043D01*
X80390952Y-50785662D01*
X80486190Y-50833281D01*
X80676667Y-50833281D01*
X80771905Y-50785662D01*
X80819524Y-50738043D01*
X80867143Y-50642805D01*
X80867143Y-50404710D01*
X80819524Y-50309471D01*
X80771905Y-50261852D01*
X80676667Y-50214233D01*
X80486190Y-50214233D01*
X80390952Y-50261852D01*
X80343333Y-50309471D01*
X80295714Y-50404710D01*
X133810476Y-52792381D02*
X134477143Y-53792381D01*
X134477143Y-52792381D02*
X133810476Y-53792381D01*
X135381905Y-53792381D02*
X134810476Y-53792381D01*
X135096190Y-53792381D02*
X135096190Y-52792381D01*
X135000952Y-52935238D01*
X134905714Y-53030476D01*
X134810476Y-53078095D01*
X161917143Y-86022143D02*
X161869524Y-86069762D01*
X161726667Y-86117381D01*
X161631429Y-86117381D01*
X161488571Y-86069762D01*
X161393333Y-85974524D01*
X161345714Y-85879286D01*
X161298095Y-85688810D01*
X161298095Y-85545952D01*
X161345714Y-85355476D01*
X161393333Y-85260238D01*
X161488571Y-85165000D01*
X161631429Y-85117381D01*
X161726667Y-85117381D01*
X161869524Y-85165000D01*
X161917143Y-85212619D01*
X162869524Y-86117381D02*
X162298095Y-86117381D01*
X162583809Y-86117381D02*
X162583809Y-85117381D01*
X162488571Y-85260238D01*
X162393333Y-85355476D01*
X162298095Y-85403095D01*
X163202857Y-85117381D02*
X163869524Y-85117381D01*
X163440952Y-86117381D01*
X166997143Y-66524143D02*
X166949524Y-66571762D01*
X166806667Y-66619381D01*
X166711429Y-66619381D01*
X166568571Y-66571762D01*
X166473333Y-66476524D01*
X166425714Y-66381286D01*
X166378095Y-66190810D01*
X166378095Y-66047952D01*
X166425714Y-65857476D01*
X166473333Y-65762238D01*
X166568571Y-65667000D01*
X166711429Y-65619381D01*
X166806667Y-65619381D01*
X166949524Y-65667000D01*
X166997143Y-65714619D01*
X167949524Y-66619381D02*
X167378095Y-66619381D01*
X167663809Y-66619381D02*
X167663809Y-65619381D01*
X167568571Y-65762238D01*
X167473333Y-65857476D01*
X167378095Y-65905095D01*
X168520952Y-66047952D02*
X168425714Y-66000333D01*
X168378095Y-65952714D01*
X168330476Y-65857476D01*
X168330476Y-65809857D01*
X168378095Y-65714619D01*
X168425714Y-65667000D01*
X168520952Y-65619381D01*
X168711429Y-65619381D01*
X168806667Y-65667000D01*
X168854286Y-65714619D01*
X168901905Y-65809857D01*
X168901905Y-65857476D01*
X168854286Y-65952714D01*
X168806667Y-66000333D01*
X168711429Y-66047952D01*
X168520952Y-66047952D01*
X168425714Y-66095571D01*
X168378095Y-66143190D01*
X168330476Y-66238429D01*
X168330476Y-66428905D01*
X168378095Y-66524143D01*
X168425714Y-66571762D01*
X168520952Y-66619381D01*
X168711429Y-66619381D01*
X168806667Y-66571762D01*
X168854286Y-66524143D01*
X168901905Y-66428905D01*
X168901905Y-66238429D01*
X168854286Y-66143190D01*
X168806667Y-66095571D01*
X168711429Y-66047952D01*
X145184905Y-88082381D02*
X145184905Y-87082381D01*
X145565858Y-87082381D01*
X145661096Y-87130000D01*
X145708715Y-87177619D01*
X145756334Y-87272857D01*
X145756334Y-87415714D01*
X145708715Y-87510952D01*
X145661096Y-87558571D01*
X145565858Y-87606190D01*
X145184905Y-87606190D01*
X146089667Y-87082381D02*
X146708715Y-87082381D01*
X146375381Y-87463333D01*
X146518239Y-87463333D01*
X146613477Y-87510952D01*
X146661096Y-87558571D01*
X146708715Y-87653810D01*
X146708715Y-87891905D01*
X146661096Y-87987143D01*
X146613477Y-88034762D01*
X146518239Y-88082381D01*
X146232524Y-88082381D01*
X146137286Y-88034762D01*
X146089667Y-87987143D01*
X116637381Y-84558095D02*
X115637381Y-84558095D01*
X115637381Y-84177142D01*
X115685000Y-84081904D01*
X115732619Y-84034285D01*
X115827857Y-83986666D01*
X115970714Y-83986666D01*
X116065952Y-84034285D01*
X116113571Y-84081904D01*
X116161190Y-84177142D01*
X116161190Y-84558095D01*
X115637381Y-83653333D02*
X115637381Y-82986666D01*
X116637381Y-83415238D01*
X118637381Y-84796190D02*
X117637381Y-84796190D01*
X118589762Y-84367619D02*
X118637381Y-84224762D01*
X118637381Y-83986666D01*
X118589762Y-83891428D01*
X118542143Y-83843809D01*
X118446905Y-83796190D01*
X118351667Y-83796190D01*
X118256429Y-83843809D01*
X118208810Y-83891428D01*
X118161190Y-83986666D01*
X118113571Y-84177143D01*
X118065952Y-84272381D01*
X118018333Y-84320000D01*
X117923095Y-84367619D01*
X117827857Y-84367619D01*
X117732619Y-84320000D01*
X117685000Y-84272381D01*
X117637381Y-84177143D01*
X117637381Y-83939047D01*
X117685000Y-83796190D01*
X118637381Y-83367619D02*
X117637381Y-83367619D01*
X117637381Y-82986666D01*
X117685000Y-82891428D01*
X117732619Y-82843809D01*
X117827857Y-82796190D01*
X117970714Y-82796190D01*
X118065952Y-82843809D01*
X118113571Y-82891428D01*
X118161190Y-82986666D01*
X118161190Y-83367619D01*
D14*
X114244381Y-82637238D02*
X113768190Y-82970572D01*
X114244381Y-83208667D02*
X113244381Y-83208667D01*
X113244381Y-82827714D01*
X113292000Y-82732476D01*
X113339619Y-82684857D01*
X113434857Y-82637238D01*
X113577714Y-82637238D01*
X113672952Y-82684857D01*
X113720571Y-82732476D01*
X113768190Y-82827714D01*
X113768190Y-83208667D01*
X113244381Y-82351524D02*
X114244381Y-82018191D01*
X113244381Y-81684857D01*
X114244381Y-80827714D02*
X114244381Y-81399143D01*
X114244381Y-81113429D02*
X113244381Y-81113429D01*
X113387238Y-81208667D01*
X113482476Y-81303905D01*
X113530095Y-81399143D01*
D11*
X196032381Y-128912857D02*
X195556190Y-129246191D01*
X196032381Y-129484286D02*
X195032381Y-129484286D01*
X195032381Y-129103333D01*
X195080000Y-129008095D01*
X195127619Y-128960476D01*
X195222857Y-128912857D01*
X195365714Y-128912857D01*
X195460952Y-128960476D01*
X195508571Y-129008095D01*
X195556190Y-129103333D01*
X195556190Y-129484286D01*
X196032381Y-127960476D02*
X196032381Y-128531905D01*
X196032381Y-128246191D02*
X195032381Y-128246191D01*
X195175238Y-128341429D01*
X195270476Y-128436667D01*
X195318095Y-128531905D01*
X196032381Y-127008095D02*
X196032381Y-127579524D01*
X196032381Y-127293810D02*
X195032381Y-127293810D01*
X195175238Y-127389048D01*
X195270476Y-127484286D01*
X195318095Y-127579524D01*
X90106667Y-62634762D02*
X90249524Y-62682381D01*
X90487620Y-62682381D01*
X90582858Y-62634762D01*
X90630477Y-62587143D01*
X90678096Y-62491905D01*
X90678096Y-62396667D01*
X90630477Y-62301429D01*
X90582858Y-62253810D01*
X90487620Y-62206190D01*
X90297143Y-62158571D01*
X90201905Y-62110952D01*
X90154286Y-62063333D01*
X90106667Y-61968095D01*
X90106667Y-61872857D01*
X90154286Y-61777619D01*
X90201905Y-61730000D01*
X90297143Y-61682381D01*
X90535239Y-61682381D01*
X90678096Y-61730000D01*
X91011429Y-61682381D02*
X91249524Y-62682381D01*
X91440001Y-61968095D01*
X91630477Y-62682381D01*
X91868572Y-61682381D01*
X92201905Y-61777619D02*
X92249524Y-61730000D01*
X92344762Y-61682381D01*
X92582858Y-61682381D01*
X92678096Y-61730000D01*
X92725715Y-61777619D01*
X92773334Y-61872857D01*
X92773334Y-61968095D01*
X92725715Y-62110952D01*
X92154286Y-62682381D01*
X92773334Y-62682381D01*
X152359762Y-68571905D02*
X152407381Y-68429048D01*
X152407381Y-68190952D01*
X152359762Y-68095714D01*
X152312143Y-68048095D01*
X152216905Y-68000476D01*
X152121667Y-68000476D01*
X152026429Y-68048095D01*
X151978810Y-68095714D01*
X151931190Y-68190952D01*
X151883571Y-68381429D01*
X151835952Y-68476667D01*
X151788333Y-68524286D01*
X151693095Y-68571905D01*
X151597857Y-68571905D01*
X151502619Y-68524286D01*
X151455000Y-68476667D01*
X151407381Y-68381429D01*
X151407381Y-68143333D01*
X151455000Y-68000476D01*
X152407381Y-67571905D02*
X151407381Y-67571905D01*
X151407381Y-67190952D01*
X151455000Y-67095714D01*
X151502619Y-67048095D01*
X151597857Y-67000476D01*
X151740714Y-67000476D01*
X151835952Y-67048095D01*
X151883571Y-67095714D01*
X151931190Y-67190952D01*
X151931190Y-67571905D01*
X152407381Y-66048095D02*
X152407381Y-66619524D01*
X152407381Y-66333810D02*
X151407381Y-66333810D01*
X151550238Y-66429048D01*
X151645476Y-66524286D01*
X151693095Y-66619524D01*
M02*
