G04 #@! TF.FileFunction,Copper,L2,Bot,Signal*
%FSLAX46Y46*%
G04 Gerber Fmt 4.6, Leading zero omitted, Abs format (unit mm)*
G04 Created by KiCad (PCBNEW 4.0.1-stable) date Tuesday, March 29, 2016 'AMt' 01:29:57 AM*
%MOMM*%
G01*
G04 APERTURE LIST*
%ADD10C,0.100000*%
%ADD11R,1.000000X1.250000*%
%ADD12R,1.250000X1.000000*%
%ADD13O,3.500120X1.800860*%
%ADD14C,1.524000*%
%ADD15C,2.700020*%
%ADD16R,1.300000X0.700000*%
%ADD17R,3.200000X3.200000*%
%ADD18R,1.550000X0.600000*%
%ADD19O,1.727200X2.032000*%
%ADD20R,1.727200X2.032000*%
%ADD21R,1.727200X1.727200*%
%ADD22O,1.727200X1.727200*%
%ADD23C,1.397000*%
%ADD24C,1.016000*%
%ADD25C,0.508000*%
%ADD26C,0.250000*%
%ADD27C,0.254000*%
G04 APERTURE END LIST*
D10*
D11*
X108315000Y-65405000D03*
X106315000Y-65405000D03*
X108315000Y-69215000D03*
X106315000Y-69215000D03*
D12*
X100330000Y-61960000D03*
X100330000Y-59960000D03*
D13*
X79502000Y-64770000D03*
X79502000Y-67310000D03*
D14*
X203835000Y-73025000D03*
X203835000Y-70485000D03*
X205833980Y-70485000D03*
X205833980Y-73025000D03*
D15*
X208534000Y-77754480D03*
X208534000Y-65755520D03*
D13*
X79502000Y-94996000D03*
X79502000Y-97536000D03*
X79502000Y-80264000D03*
X79502000Y-82804000D03*
X79502000Y-87884000D03*
X79502000Y-90424000D03*
D16*
X105410000Y-61910000D03*
X105410000Y-60010000D03*
D14*
X206335000Y-110610000D03*
X203835000Y-110610000D03*
X201335000Y-110610000D03*
X201335000Y-125110000D03*
X206335000Y-125110000D03*
D17*
X209535000Y-118110000D03*
X198135000Y-118110000D03*
D13*
X79502000Y-71120000D03*
X79502000Y-73660000D03*
D18*
X114775000Y-64770000D03*
X114775000Y-63500000D03*
X114775000Y-62230000D03*
X114775000Y-60960000D03*
X120175000Y-60960000D03*
X120175000Y-62230000D03*
X120175000Y-63500000D03*
X120175000Y-64770000D03*
D19*
X142875000Y-87630000D03*
X140335000Y-87630000D03*
X137795000Y-87630000D03*
X135255000Y-87630000D03*
X132715000Y-87630000D03*
X130175000Y-87630000D03*
X127635000Y-87630000D03*
X125095000Y-87630000D03*
X122555000Y-87630000D03*
X120015000Y-87630000D03*
X117475000Y-87630000D03*
X114935000Y-87630000D03*
X112395000Y-87630000D03*
X109855000Y-87630000D03*
X107315000Y-87630000D03*
D20*
X104775000Y-87630000D03*
D21*
X121285000Y-83820000D03*
D22*
X121285000Y-81280000D03*
X123825000Y-83820000D03*
X123825000Y-81280000D03*
X126365000Y-83820000D03*
X126365000Y-81280000D03*
D23*
X95250000Y-60452000D03*
X95250000Y-65532000D03*
X87630000Y-60452000D03*
X87630000Y-65532000D03*
D24*
X168148000Y-87058500D03*
X168084500Y-64770000D03*
X203708000Y-102171500D03*
X107569000Y-71818500D03*
X186499500Y-68516500D03*
X164846000Y-60388500D03*
X158115000Y-89281000D03*
X135128000Y-64262000D03*
X123317000Y-77470000D03*
X140081000Y-74168000D03*
X121031000Y-67945000D03*
D25*
X100330000Y-61960000D02*
X98822000Y-61960000D01*
X98822000Y-61960000D02*
X95250000Y-65532000D01*
X79502000Y-64770000D02*
X86868000Y-64770000D01*
X86868000Y-64770000D02*
X87630000Y-65532000D01*
X87630000Y-65532000D02*
X95250000Y-65532000D01*
X142875000Y-87630000D02*
X156019500Y-87630000D01*
X166497000Y-85407500D02*
X168148000Y-87058500D01*
X158242000Y-85407500D02*
X166497000Y-85407500D01*
X156019500Y-87630000D02*
X158242000Y-85407500D01*
X188437520Y-65755520D02*
X208534000Y-65755520D01*
X186626500Y-63944500D02*
X188437520Y-65755520D01*
X175133000Y-63944500D02*
X186626500Y-63944500D01*
X173672500Y-62484000D02*
X175133000Y-63944500D01*
X170370500Y-62484000D02*
X173672500Y-62484000D01*
X168084500Y-64770000D02*
X170370500Y-62484000D01*
X114935000Y-87630000D02*
X114935000Y-87249000D01*
X114935000Y-87249000D02*
X116586000Y-85598000D01*
X127889000Y-81280000D02*
X126365000Y-81280000D01*
X128524000Y-81915000D02*
X127889000Y-81280000D01*
X128524000Y-84582000D02*
X128524000Y-81915000D01*
X127508000Y-85598000D02*
X128524000Y-84582000D01*
X116586000Y-85598000D02*
X127508000Y-85598000D01*
X79502000Y-64770000D02*
X77724000Y-64770000D01*
X77597000Y-82804000D02*
X79502000Y-82804000D01*
X75692000Y-80899000D02*
X77597000Y-82804000D01*
X75692000Y-66802000D02*
X75692000Y-80899000D01*
X77724000Y-64770000D02*
X75692000Y-66802000D01*
X79502000Y-90424000D02*
X77216000Y-90424000D01*
X77216000Y-97536000D02*
X79502000Y-97536000D01*
X75819000Y-96139000D02*
X77216000Y-97536000D01*
X75819000Y-91821000D02*
X75819000Y-96139000D01*
X77216000Y-90424000D02*
X75819000Y-91821000D01*
X79502000Y-82804000D02*
X77343000Y-82804000D01*
X77343000Y-82804000D02*
X75819000Y-84328000D01*
X75819000Y-84328000D02*
X75819000Y-89154000D01*
X75819000Y-89154000D02*
X77089000Y-90424000D01*
X77089000Y-90424000D02*
X79502000Y-90424000D01*
X114775000Y-62230000D02*
X105730000Y-62230000D01*
X105730000Y-62230000D02*
X105410000Y-61910000D01*
X106315000Y-69215000D02*
X106315000Y-65405000D01*
X106315000Y-65405000D02*
X105410000Y-64500000D01*
X105410000Y-64500000D02*
X105410000Y-61910000D01*
X105410000Y-61910000D02*
X100380000Y-61910000D01*
X199961500Y-98425000D02*
X196532500Y-98425000D01*
X203708000Y-102171500D02*
X199961500Y-98425000D01*
X108315000Y-69215000D02*
X108315000Y-71072500D01*
X108315000Y-71072500D02*
X107569000Y-71818500D01*
X171672250Y-83343750D02*
X171672250Y-85248750D01*
X186499500Y-68516500D02*
X171672250Y-83343750D01*
X164846000Y-60388500D02*
X163957000Y-61277500D01*
X163957000Y-61277500D02*
X163957000Y-69723000D01*
X163957000Y-69723000D02*
X157861000Y-75819000D01*
X157861000Y-75819000D02*
X157861000Y-79438500D01*
X157861000Y-79438500D02*
X160528000Y-82105500D01*
X160528000Y-82105500D02*
X168529000Y-82105500D01*
X168529000Y-82105500D02*
X171672250Y-85248750D01*
X172783500Y-91567000D02*
X171323000Y-93027500D01*
X171672250Y-85248750D02*
X172783500Y-86360000D01*
X172783500Y-86360000D02*
X172783500Y-91567000D01*
X152590500Y-93091000D02*
X152590500Y-93027500D01*
X152654000Y-93027500D02*
X152590500Y-93091000D01*
X154368500Y-93027500D02*
X152654000Y-93027500D01*
X158115000Y-89281000D02*
X154368500Y-93027500D01*
X140335000Y-87630000D02*
X140335000Y-89217500D01*
X140335000Y-89217500D02*
X144145000Y-93027500D01*
X144145000Y-93027500D02*
X152590500Y-93027500D01*
X203898500Y-122673500D02*
X206335000Y-125110000D01*
X203898500Y-117538500D02*
X203898500Y-122673500D01*
X196532500Y-110172500D02*
X203898500Y-117538500D01*
X196532500Y-98425000D02*
X196532500Y-110172500D01*
X152590500Y-93027500D02*
X171323000Y-93027500D01*
X171323000Y-93027500D02*
X189420500Y-93027500D01*
X192722500Y-94615000D02*
X196532500Y-98425000D01*
X191008000Y-94615000D02*
X192722500Y-94615000D01*
X189420500Y-93027500D02*
X191008000Y-94615000D01*
X107315000Y-87630000D02*
X107315000Y-88900000D01*
X140335000Y-89281000D02*
X140335000Y-87630000D01*
X139192000Y-90424000D02*
X140335000Y-89281000D01*
X108839000Y-90424000D02*
X139192000Y-90424000D01*
X107315000Y-88900000D02*
X108839000Y-90424000D01*
X107315000Y-87630000D02*
X107315000Y-86995000D01*
X115062000Y-73660000D02*
X115062000Y-71120000D01*
X107315000Y-81407000D02*
X115062000Y-73660000D01*
X107315000Y-87630000D02*
X107315000Y-81407000D01*
X116332000Y-63500000D02*
X114775000Y-63500000D01*
X117348000Y-64516000D02*
X116332000Y-63500000D01*
X117348000Y-68834000D02*
X117348000Y-64516000D01*
X115062000Y-71120000D02*
X117348000Y-68834000D01*
X108315000Y-69215000D02*
X108315000Y-65405000D01*
X108315000Y-65405000D02*
X110220000Y-63500000D01*
X110220000Y-63500000D02*
X114775000Y-63500000D01*
X116807000Y-58928000D02*
X114775000Y-60960000D01*
X124968000Y-58928000D02*
X116807000Y-58928000D01*
X129540000Y-63500000D02*
X124968000Y-58928000D01*
X134366000Y-63500000D02*
X129540000Y-63500000D01*
X135128000Y-64262000D02*
X134366000Y-63500000D01*
X100330000Y-59960000D02*
X105360000Y-59960000D01*
X105360000Y-59960000D02*
X105410000Y-60010000D01*
X114775000Y-60960000D02*
X114300000Y-60960000D01*
X114300000Y-60960000D02*
X113350000Y-60010000D01*
X113350000Y-60010000D02*
X105410000Y-60010000D01*
X118872000Y-83820000D02*
X121285000Y-83820000D01*
X118364000Y-83312000D02*
X118872000Y-83820000D01*
X118364000Y-79756000D02*
X118364000Y-83312000D01*
X120015000Y-78105000D02*
X118364000Y-79756000D01*
X122682000Y-78105000D02*
X120015000Y-78105000D01*
X123317000Y-77470000D02*
X122682000Y-78105000D01*
X121031000Y-67945000D02*
X121031000Y-73025000D01*
X121031000Y-73025000D02*
X125095000Y-77089000D01*
X140081000Y-74168000D02*
X140716000Y-74803000D01*
X140716000Y-74803000D02*
X140716000Y-78359000D01*
X140716000Y-78359000D02*
X139446000Y-79629000D01*
X139446000Y-79629000D02*
X127635000Y-79629000D01*
X127635000Y-79629000D02*
X125095000Y-77089000D01*
D26*
X125095000Y-82677000D02*
X125095000Y-77089000D01*
X125095000Y-82677000D02*
X126238000Y-83820000D01*
X126365000Y-83820000D02*
X126238000Y-83820000D01*
D27*
G36*
X213285000Y-156770000D02*
X187400000Y-156770000D01*
X187400000Y-153948044D01*
X187518853Y-153948044D01*
X187919201Y-154916959D01*
X188659862Y-155658914D01*
X189628077Y-156060952D01*
X190676444Y-156061867D01*
X191645359Y-155661519D01*
X192387314Y-154920858D01*
X192789352Y-153952643D01*
X192790267Y-152904276D01*
X192389919Y-151935361D01*
X192106887Y-151651834D01*
X205644543Y-151651834D01*
X206044853Y-152620658D01*
X206785443Y-153362542D01*
X207753567Y-153764542D01*
X208801834Y-153765457D01*
X209770658Y-153365147D01*
X210512542Y-152624557D01*
X210914542Y-151656433D01*
X210915457Y-150608166D01*
X210515147Y-149639342D01*
X209774557Y-148897458D01*
X208806433Y-148495458D01*
X207758166Y-148494543D01*
X206789342Y-148894853D01*
X206047458Y-149635443D01*
X205645458Y-150603567D01*
X205644543Y-151651834D01*
X192106887Y-151651834D01*
X191649258Y-151193406D01*
X190681043Y-150791368D01*
X189632676Y-150790453D01*
X188663761Y-151190801D01*
X187921806Y-151931462D01*
X187519768Y-152899677D01*
X187518853Y-153948044D01*
X187400000Y-153948044D01*
X187400000Y-125386661D01*
X199937758Y-125386661D01*
X200149990Y-125900303D01*
X200542630Y-126293629D01*
X201055900Y-126506757D01*
X201611661Y-126507242D01*
X202125303Y-126295010D01*
X202518629Y-125902370D01*
X202731757Y-125389100D01*
X202732242Y-124833339D01*
X202520010Y-124319697D01*
X202127370Y-123926371D01*
X201614100Y-123713243D01*
X201058339Y-123712758D01*
X200544697Y-123924990D01*
X200151371Y-124317630D01*
X199938243Y-124830900D01*
X199937758Y-125386661D01*
X187400000Y-125386661D01*
X187400000Y-118395750D01*
X195900000Y-118395750D01*
X195900000Y-119836310D01*
X195996673Y-120069699D01*
X196175302Y-120248327D01*
X196408691Y-120345000D01*
X197849250Y-120345000D01*
X198008000Y-120186250D01*
X198008000Y-118237000D01*
X198262000Y-118237000D01*
X198262000Y-120186250D01*
X198420750Y-120345000D01*
X199861309Y-120345000D01*
X200094698Y-120248327D01*
X200273327Y-120069699D01*
X200370000Y-119836310D01*
X200370000Y-118395750D01*
X200211250Y-118237000D01*
X198262000Y-118237000D01*
X198008000Y-118237000D01*
X196058750Y-118237000D01*
X195900000Y-118395750D01*
X187400000Y-118395750D01*
X187400000Y-116383690D01*
X195900000Y-116383690D01*
X195900000Y-117824250D01*
X196058750Y-117983000D01*
X198008000Y-117983000D01*
X198008000Y-116033750D01*
X198262000Y-116033750D01*
X198262000Y-117983000D01*
X200211250Y-117983000D01*
X200370000Y-117824250D01*
X200370000Y-116383690D01*
X200273327Y-116150301D01*
X200094698Y-115971673D01*
X199861309Y-115875000D01*
X198420750Y-115875000D01*
X198262000Y-116033750D01*
X198008000Y-116033750D01*
X197849250Y-115875000D01*
X196408691Y-115875000D01*
X196175302Y-115971673D01*
X195996673Y-116150301D01*
X195900000Y-116383690D01*
X187400000Y-116383690D01*
X187400000Y-98946884D01*
X187518853Y-98946884D01*
X187919201Y-99915799D01*
X188659862Y-100657754D01*
X189628077Y-101059792D01*
X190676444Y-101060707D01*
X191645359Y-100660359D01*
X192387314Y-99919698D01*
X192789352Y-98951483D01*
X192790267Y-97903116D01*
X192389919Y-96934201D01*
X191649258Y-96192246D01*
X190681043Y-95790208D01*
X189632676Y-95789293D01*
X188663761Y-96189641D01*
X187921806Y-96930302D01*
X187519768Y-97898517D01*
X187518853Y-98946884D01*
X187400000Y-98946884D01*
X187400000Y-93980000D01*
X187387369Y-93916500D01*
X189052264Y-93916500D01*
X190379382Y-95243618D01*
X190667794Y-95436329D01*
X191008000Y-95504000D01*
X192354264Y-95504000D01*
X195643500Y-98793236D01*
X195643500Y-110172500D01*
X195711171Y-110512706D01*
X195776181Y-110610000D01*
X195903882Y-110801118D01*
X203009500Y-117906736D01*
X203009500Y-122673500D01*
X203077171Y-123013706D01*
X203269882Y-123302118D01*
X204938121Y-124970357D01*
X204937758Y-125386661D01*
X205149990Y-125900303D01*
X205542630Y-126293629D01*
X206055900Y-126506757D01*
X206611661Y-126507242D01*
X207125303Y-126295010D01*
X207518629Y-125902370D01*
X207731757Y-125389100D01*
X207732242Y-124833339D01*
X207520010Y-124319697D01*
X207127370Y-123926371D01*
X206614100Y-123713243D01*
X206195113Y-123712877D01*
X204787500Y-122305264D01*
X204787500Y-118395750D01*
X207300000Y-118395750D01*
X207300000Y-119836310D01*
X207396673Y-120069699D01*
X207575302Y-120248327D01*
X207808691Y-120345000D01*
X209249250Y-120345000D01*
X209408000Y-120186250D01*
X209408000Y-118237000D01*
X209662000Y-118237000D01*
X209662000Y-120186250D01*
X209820750Y-120345000D01*
X211261309Y-120345000D01*
X211494698Y-120248327D01*
X211673327Y-120069699D01*
X211770000Y-119836310D01*
X211770000Y-118395750D01*
X211611250Y-118237000D01*
X209662000Y-118237000D01*
X209408000Y-118237000D01*
X207458750Y-118237000D01*
X207300000Y-118395750D01*
X204787500Y-118395750D01*
X204787500Y-117538500D01*
X204719829Y-117198294D01*
X204527118Y-116909882D01*
X204000926Y-116383690D01*
X207300000Y-116383690D01*
X207300000Y-117824250D01*
X207458750Y-117983000D01*
X209408000Y-117983000D01*
X209408000Y-116033750D01*
X209662000Y-116033750D01*
X209662000Y-117983000D01*
X211611250Y-117983000D01*
X211770000Y-117824250D01*
X211770000Y-116383690D01*
X211673327Y-116150301D01*
X211494698Y-115971673D01*
X211261309Y-115875000D01*
X209820750Y-115875000D01*
X209662000Y-116033750D01*
X209408000Y-116033750D01*
X209249250Y-115875000D01*
X207808691Y-115875000D01*
X207575302Y-115971673D01*
X207396673Y-116150301D01*
X207300000Y-116383690D01*
X204000926Y-116383690D01*
X198503897Y-110886661D01*
X199937758Y-110886661D01*
X200149990Y-111400303D01*
X200542630Y-111793629D01*
X201055900Y-112006757D01*
X201611661Y-112007242D01*
X202125303Y-111795010D01*
X202330457Y-111590213D01*
X203034392Y-111590213D01*
X203103857Y-111832397D01*
X203627302Y-112019144D01*
X204182368Y-111991362D01*
X204566143Y-111832397D01*
X204635608Y-111590213D01*
X203835000Y-110789605D01*
X203034392Y-111590213D01*
X202330457Y-111590213D01*
X202518629Y-111402370D01*
X202578370Y-111258497D01*
X202612603Y-111341143D01*
X202854787Y-111410608D01*
X203655395Y-110610000D01*
X204014605Y-110610000D01*
X204815213Y-111410608D01*
X205057397Y-111341143D01*
X205088974Y-111252633D01*
X205149990Y-111400303D01*
X205542630Y-111793629D01*
X206055900Y-112006757D01*
X206611661Y-112007242D01*
X207125303Y-111795010D01*
X207518629Y-111402370D01*
X207731757Y-110889100D01*
X207732242Y-110333339D01*
X207520010Y-109819697D01*
X207127370Y-109426371D01*
X206614100Y-109213243D01*
X206058339Y-109212758D01*
X205544697Y-109424990D01*
X205151371Y-109817630D01*
X205091630Y-109961503D01*
X205057397Y-109878857D01*
X204815213Y-109809392D01*
X204014605Y-110610000D01*
X203655395Y-110610000D01*
X202854787Y-109809392D01*
X202612603Y-109878857D01*
X202581026Y-109967367D01*
X202520010Y-109819697D01*
X202330432Y-109629787D01*
X203034392Y-109629787D01*
X203835000Y-110430395D01*
X204635608Y-109629787D01*
X204566143Y-109387603D01*
X204042698Y-109200856D01*
X203487632Y-109228638D01*
X203103857Y-109387603D01*
X203034392Y-109629787D01*
X202330432Y-109629787D01*
X202127370Y-109426371D01*
X201614100Y-109213243D01*
X201058339Y-109212758D01*
X200544697Y-109424990D01*
X200151371Y-109817630D01*
X199938243Y-110330900D01*
X199937758Y-110886661D01*
X198503897Y-110886661D01*
X197421500Y-109804264D01*
X197421500Y-99314000D01*
X199593264Y-99314000D01*
X202564900Y-102285636D01*
X202564802Y-102397859D01*
X202738446Y-102818112D01*
X203059697Y-103139923D01*
X203479646Y-103314301D01*
X203934359Y-103314698D01*
X204354612Y-103141054D01*
X204676423Y-102819803D01*
X204850801Y-102399854D01*
X204851198Y-101945141D01*
X204677554Y-101524888D01*
X204356303Y-101203077D01*
X203936354Y-101028699D01*
X203822335Y-101028599D01*
X200590118Y-97796382D01*
X200301706Y-97603671D01*
X199961500Y-97536000D01*
X196900736Y-97536000D01*
X193351118Y-93986382D01*
X193237234Y-93910287D01*
X193062706Y-93793671D01*
X192722500Y-93726000D01*
X191376236Y-93726000D01*
X190049118Y-92398882D01*
X190033324Y-92388329D01*
X189760706Y-92206171D01*
X189420500Y-92138500D01*
X173450283Y-92138500D01*
X173604829Y-91907206D01*
X173672500Y-91567000D01*
X173672500Y-86360000D01*
X173604829Y-86019794D01*
X173412118Y-85731382D01*
X172561250Y-84880514D01*
X172561250Y-83711986D01*
X177113155Y-79160081D01*
X207308004Y-79160081D01*
X207449472Y-79463270D01*
X208185952Y-79748227D01*
X208975420Y-79729654D01*
X209618528Y-79463270D01*
X209759996Y-79160081D01*
X208534000Y-77934085D01*
X207308004Y-79160081D01*
X177113155Y-79160081D01*
X178866804Y-77406432D01*
X206540253Y-77406432D01*
X206558826Y-78195900D01*
X206825210Y-78839008D01*
X207128399Y-78980476D01*
X208354395Y-77754480D01*
X208713605Y-77754480D01*
X209939601Y-78980476D01*
X210242790Y-78839008D01*
X210527747Y-78102528D01*
X210509174Y-77313060D01*
X210242790Y-76669952D01*
X209939601Y-76528484D01*
X208713605Y-77754480D01*
X208354395Y-77754480D01*
X207128399Y-76528484D01*
X206825210Y-76669952D01*
X206540253Y-77406432D01*
X178866804Y-77406432D01*
X179924357Y-76348879D01*
X207308004Y-76348879D01*
X208534000Y-77574875D01*
X209759996Y-76348879D01*
X209618528Y-76045690D01*
X208882048Y-75760733D01*
X208092580Y-75779306D01*
X207449472Y-76045690D01*
X207308004Y-76348879D01*
X179924357Y-76348879D01*
X185511575Y-70761661D01*
X202437758Y-70761661D01*
X202649990Y-71275303D01*
X203042630Y-71668629D01*
X203250512Y-71754949D01*
X203044697Y-71839990D01*
X202651371Y-72232630D01*
X202438243Y-72745900D01*
X202437758Y-73301661D01*
X202649990Y-73815303D01*
X203042630Y-74208629D01*
X203555900Y-74421757D01*
X204111661Y-74422242D01*
X204625303Y-74210010D01*
X204834510Y-74001168D01*
X205041610Y-74208629D01*
X205554880Y-74421757D01*
X206110641Y-74422242D01*
X206624283Y-74210010D01*
X207017609Y-73817370D01*
X207230737Y-73304100D01*
X207231222Y-72748339D01*
X207018990Y-72234697D01*
X206626350Y-71841371D01*
X206434253Y-71761605D01*
X206565123Y-71707397D01*
X206634588Y-71465213D01*
X205833980Y-70664605D01*
X205033372Y-71465213D01*
X205102837Y-71707397D01*
X205243298Y-71757509D01*
X205043677Y-71839990D01*
X204834470Y-72048832D01*
X204627370Y-71841371D01*
X204419488Y-71755051D01*
X204625303Y-71670010D01*
X205018629Y-71277370D01*
X205129846Y-71009529D01*
X205654375Y-70485000D01*
X206013585Y-70485000D01*
X206814193Y-71285608D01*
X207056377Y-71216143D01*
X207243124Y-70692698D01*
X207215342Y-70137632D01*
X207056377Y-69753857D01*
X206814193Y-69684392D01*
X206013585Y-70485000D01*
X205654375Y-70485000D01*
X205129811Y-69960436D01*
X205020010Y-69694697D01*
X204830432Y-69504787D01*
X205033372Y-69504787D01*
X205833980Y-70305395D01*
X206634588Y-69504787D01*
X206565123Y-69262603D01*
X206041678Y-69075856D01*
X205486612Y-69103638D01*
X205102837Y-69262603D01*
X205033372Y-69504787D01*
X204830432Y-69504787D01*
X204627370Y-69301371D01*
X204114100Y-69088243D01*
X203558339Y-69087758D01*
X203044697Y-69299990D01*
X202651371Y-69692630D01*
X202438243Y-70205900D01*
X202437758Y-70761661D01*
X185511575Y-70761661D01*
X186613636Y-69659600D01*
X186725859Y-69659698D01*
X187146112Y-69486054D01*
X187467923Y-69164803D01*
X187642301Y-68744854D01*
X187642698Y-68290141D01*
X187469054Y-67869888D01*
X187147803Y-67548077D01*
X186727854Y-67373699D01*
X186273141Y-67373302D01*
X185852888Y-67546946D01*
X185531077Y-67868197D01*
X185356699Y-68288146D01*
X185356599Y-68402165D01*
X171043632Y-82715132D01*
X170850921Y-83003544D01*
X170823274Y-83142538D01*
X169157618Y-81476882D01*
X168906902Y-81309359D01*
X168869206Y-81284171D01*
X168529000Y-81216500D01*
X160896236Y-81216500D01*
X158750000Y-79070264D01*
X158750000Y-76187236D01*
X164585618Y-70351618D01*
X164635274Y-70277302D01*
X164778329Y-70063206D01*
X164846000Y-69723000D01*
X164846000Y-67161121D01*
X207308004Y-67161121D01*
X207449472Y-67464310D01*
X208185952Y-67749267D01*
X208975420Y-67730694D01*
X209618528Y-67464310D01*
X209759996Y-67161121D01*
X208534000Y-65935125D01*
X207308004Y-67161121D01*
X164846000Y-67161121D01*
X164846000Y-65407472D01*
X206540253Y-65407472D01*
X206558826Y-66196940D01*
X206825210Y-66840048D01*
X207128399Y-66981516D01*
X208354395Y-65755520D01*
X208713605Y-65755520D01*
X209939601Y-66981516D01*
X210242790Y-66840048D01*
X210527747Y-66103568D01*
X210509174Y-65314100D01*
X210242790Y-64670992D01*
X209939601Y-64529524D01*
X208713605Y-65755520D01*
X208354395Y-65755520D01*
X207128399Y-64529524D01*
X206825210Y-64670992D01*
X206540253Y-65407472D01*
X164846000Y-65407472D01*
X164846000Y-64349919D01*
X207308004Y-64349919D01*
X208534000Y-65575915D01*
X209759996Y-64349919D01*
X209618528Y-64046730D01*
X208882048Y-63761773D01*
X208092580Y-63780346D01*
X207449472Y-64046730D01*
X207308004Y-64349919D01*
X164846000Y-64349919D01*
X164846000Y-61645736D01*
X164960136Y-61531600D01*
X165072359Y-61531698D01*
X165492612Y-61358054D01*
X165814423Y-61036803D01*
X165988801Y-60616854D01*
X165989198Y-60162141D01*
X165815554Y-59741888D01*
X165494303Y-59420077D01*
X165074354Y-59245699D01*
X164619641Y-59245302D01*
X164199388Y-59418946D01*
X163877577Y-59740197D01*
X163703199Y-60160146D01*
X163703099Y-60274165D01*
X163328382Y-60648882D01*
X163135671Y-60937294D01*
X163068000Y-61277500D01*
X163068000Y-69354764D01*
X157232382Y-75190382D01*
X157039671Y-75478794D01*
X156972000Y-75819000D01*
X156972000Y-79438500D01*
X157039671Y-79778706D01*
X157070632Y-79825042D01*
X157232382Y-80067118D01*
X159899382Y-82734118D01*
X160187795Y-82926830D01*
X160528000Y-82994500D01*
X168160764Y-82994500D01*
X171894500Y-86728236D01*
X171894500Y-91198764D01*
X170954764Y-92138500D01*
X156514736Y-92138500D01*
X158229136Y-90424100D01*
X158341359Y-90424198D01*
X158761612Y-90250554D01*
X159083423Y-89929303D01*
X159257801Y-89509354D01*
X159258198Y-89054641D01*
X159084554Y-88634388D01*
X158763303Y-88312577D01*
X158343354Y-88138199D01*
X157888641Y-88137802D01*
X157468388Y-88311446D01*
X157146577Y-88632697D01*
X156972199Y-89052646D01*
X156972099Y-89166665D01*
X154000264Y-92138500D01*
X144513236Y-92138500D01*
X141307438Y-88932702D01*
X141394670Y-88874415D01*
X141601461Y-88564931D01*
X141972964Y-88980732D01*
X142500209Y-89234709D01*
X142515974Y-89237358D01*
X142748000Y-89116217D01*
X142748000Y-87757000D01*
X143002000Y-87757000D01*
X143002000Y-89116217D01*
X143234026Y-89237358D01*
X143249791Y-89234709D01*
X143777036Y-88980732D01*
X144166954Y-88544320D01*
X144360184Y-87991913D01*
X144215924Y-87757000D01*
X143002000Y-87757000D01*
X142748000Y-87757000D01*
X142728000Y-87757000D01*
X142728000Y-87503000D01*
X142748000Y-87503000D01*
X142748000Y-86143783D01*
X143002000Y-86143783D01*
X143002000Y-87503000D01*
X144215924Y-87503000D01*
X144360184Y-87268087D01*
X144166954Y-86715680D01*
X143777036Y-86279268D01*
X143249791Y-86025291D01*
X143234026Y-86022642D01*
X143002000Y-86143783D01*
X142748000Y-86143783D01*
X142515974Y-86022642D01*
X142500209Y-86025291D01*
X141972964Y-86279268D01*
X141601461Y-86695069D01*
X141394670Y-86385585D01*
X140908489Y-86060729D01*
X140335000Y-85946655D01*
X139761511Y-86060729D01*
X139275330Y-86385585D01*
X139065000Y-86700366D01*
X138854670Y-86385585D01*
X138368489Y-86060729D01*
X137795000Y-85946655D01*
X137221511Y-86060729D01*
X136735330Y-86385585D01*
X136525000Y-86700366D01*
X136314670Y-86385585D01*
X135828489Y-86060729D01*
X135255000Y-85946655D01*
X134681511Y-86060729D01*
X134195330Y-86385585D01*
X133985000Y-86700366D01*
X133774670Y-86385585D01*
X133288489Y-86060729D01*
X132715000Y-85946655D01*
X132141511Y-86060729D01*
X131655330Y-86385585D01*
X131445000Y-86700366D01*
X131234670Y-86385585D01*
X130748489Y-86060729D01*
X130175000Y-85946655D01*
X129601511Y-86060729D01*
X129115330Y-86385585D01*
X128905000Y-86700366D01*
X128694670Y-86385585D01*
X128208489Y-86060729D01*
X127635000Y-85946655D01*
X127061511Y-86060729D01*
X126575330Y-86385585D01*
X126365000Y-86700366D01*
X126154670Y-86385585D01*
X125668489Y-86060729D01*
X125095000Y-85946655D01*
X124521511Y-86060729D01*
X124035330Y-86385585D01*
X123825000Y-86700366D01*
X123614670Y-86385585D01*
X123128489Y-86060729D01*
X122555000Y-85946655D01*
X121981511Y-86060729D01*
X121495330Y-86385585D01*
X121285000Y-86700366D01*
X121074670Y-86385585D01*
X120588489Y-86060729D01*
X120015000Y-85946655D01*
X119441511Y-86060729D01*
X118955330Y-86385585D01*
X118745000Y-86700366D01*
X118534670Y-86385585D01*
X118048489Y-86060729D01*
X117475000Y-85946655D01*
X116901511Y-86060729D01*
X116415330Y-86385585D01*
X116208539Y-86695069D01*
X115837036Y-86279268D01*
X115309791Y-86025291D01*
X115294026Y-86022642D01*
X115062000Y-86143783D01*
X115062000Y-87503000D01*
X115082000Y-87503000D01*
X115082000Y-87757000D01*
X115062000Y-87757000D01*
X115062000Y-89116217D01*
X115294026Y-89237358D01*
X115309791Y-89234709D01*
X115837036Y-88980732D01*
X116208539Y-88564931D01*
X116415330Y-88874415D01*
X116901511Y-89199271D01*
X117475000Y-89313345D01*
X118048489Y-89199271D01*
X118534670Y-88874415D01*
X118745000Y-88559634D01*
X118955330Y-88874415D01*
X119441511Y-89199271D01*
X120015000Y-89313345D01*
X120588489Y-89199271D01*
X121074670Y-88874415D01*
X121285000Y-88559634D01*
X121495330Y-88874415D01*
X121981511Y-89199271D01*
X122555000Y-89313345D01*
X123128489Y-89199271D01*
X123614670Y-88874415D01*
X123825000Y-88559634D01*
X124035330Y-88874415D01*
X124521511Y-89199271D01*
X125095000Y-89313345D01*
X125668489Y-89199271D01*
X126154670Y-88874415D01*
X126365000Y-88559634D01*
X126575330Y-88874415D01*
X127061511Y-89199271D01*
X127635000Y-89313345D01*
X128208489Y-89199271D01*
X128694670Y-88874415D01*
X128905000Y-88559634D01*
X129115330Y-88874415D01*
X129601511Y-89199271D01*
X130175000Y-89313345D01*
X130748489Y-89199271D01*
X131234670Y-88874415D01*
X131445000Y-88559634D01*
X131655330Y-88874415D01*
X132141511Y-89199271D01*
X132715000Y-89313345D01*
X133288489Y-89199271D01*
X133774670Y-88874415D01*
X133985000Y-88559634D01*
X134195330Y-88874415D01*
X134681511Y-89199271D01*
X135255000Y-89313345D01*
X135828489Y-89199271D01*
X136314670Y-88874415D01*
X136525000Y-88559634D01*
X136735330Y-88874415D01*
X137221511Y-89199271D01*
X137795000Y-89313345D01*
X138368489Y-89199271D01*
X138854670Y-88874415D01*
X139065000Y-88559634D01*
X139275330Y-88874415D01*
X139400628Y-88958136D01*
X138823764Y-89535000D01*
X109207236Y-89535000D01*
X108443556Y-88771320D01*
X108585000Y-88559634D01*
X108795330Y-88874415D01*
X109281511Y-89199271D01*
X109855000Y-89313345D01*
X110428489Y-89199271D01*
X110914670Y-88874415D01*
X111125000Y-88559634D01*
X111335330Y-88874415D01*
X111821511Y-89199271D01*
X112395000Y-89313345D01*
X112968489Y-89199271D01*
X113454670Y-88874415D01*
X113661461Y-88564931D01*
X114032964Y-88980732D01*
X114560209Y-89234709D01*
X114575974Y-89237358D01*
X114808000Y-89116217D01*
X114808000Y-87757000D01*
X114788000Y-87757000D01*
X114788000Y-87503000D01*
X114808000Y-87503000D01*
X114808000Y-86143783D01*
X114575974Y-86022642D01*
X114560209Y-86025291D01*
X114032964Y-86279268D01*
X113661461Y-86695069D01*
X113454670Y-86385585D01*
X112968489Y-86060729D01*
X112395000Y-85946655D01*
X111821511Y-86060729D01*
X111335330Y-86385585D01*
X111125000Y-86700366D01*
X110914670Y-86385585D01*
X110428489Y-86060729D01*
X109855000Y-85946655D01*
X109281511Y-86060729D01*
X108795330Y-86385585D01*
X108585000Y-86700366D01*
X108374670Y-86385585D01*
X108204000Y-86271547D01*
X108204000Y-81775236D01*
X110223236Y-79756000D01*
X117475000Y-79756000D01*
X117475000Y-83312000D01*
X117542671Y-83652206D01*
X117654788Y-83820000D01*
X117735382Y-83940618D01*
X118243382Y-84448618D01*
X118531794Y-84641329D01*
X118872000Y-84709000D01*
X119778739Y-84709000D01*
X119818238Y-84918917D01*
X119957310Y-85135041D01*
X120169510Y-85280031D01*
X120421400Y-85331040D01*
X122148600Y-85331040D01*
X122383917Y-85286762D01*
X122600041Y-85147690D01*
X122745031Y-84935490D01*
X122753864Y-84891869D01*
X122765330Y-84909029D01*
X123251511Y-85233885D01*
X123825000Y-85347959D01*
X124398489Y-85233885D01*
X124884670Y-84909029D01*
X125095000Y-84594248D01*
X125305330Y-84909029D01*
X125791511Y-85233885D01*
X126365000Y-85347959D01*
X126938489Y-85233885D01*
X127424670Y-84909029D01*
X127749526Y-84422848D01*
X127863600Y-83849359D01*
X127863600Y-83790641D01*
X127749526Y-83217152D01*
X127424670Y-82730971D01*
X127153839Y-82550008D01*
X127571821Y-82168490D01*
X127819968Y-81639027D01*
X127699469Y-81407000D01*
X126492000Y-81407000D01*
X126492000Y-81427000D01*
X126238000Y-81427000D01*
X126238000Y-81407000D01*
X126218000Y-81407000D01*
X126218000Y-81153000D01*
X126238000Y-81153000D01*
X126238000Y-79946183D01*
X126005974Y-79825042D01*
X125855000Y-79887574D01*
X125855000Y-79106236D01*
X126625333Y-79876569D01*
X126492000Y-79946183D01*
X126492000Y-81153000D01*
X127699469Y-81153000D01*
X127819968Y-80920973D01*
X127630703Y-80517145D01*
X127635000Y-80518000D01*
X139446000Y-80518000D01*
X139786206Y-80450329D01*
X140074618Y-80257618D01*
X141344618Y-78987618D01*
X141443916Y-78839008D01*
X141537329Y-78699206D01*
X141605000Y-78359000D01*
X141605000Y-74803000D01*
X141593605Y-74745713D01*
X141537330Y-74462795D01*
X141344618Y-74174382D01*
X141224100Y-74053864D01*
X141224198Y-73941641D01*
X141050554Y-73521388D01*
X140729303Y-73199577D01*
X140309354Y-73025199D01*
X139854641Y-73024802D01*
X139434388Y-73198446D01*
X139112577Y-73519697D01*
X138938199Y-73939646D01*
X138937802Y-74394359D01*
X139111446Y-74814612D01*
X139432697Y-75136423D01*
X139827000Y-75300152D01*
X139827000Y-77990764D01*
X139077764Y-78740000D01*
X128003236Y-78740000D01*
X121920000Y-72656764D01*
X121920000Y-68672588D01*
X121999423Y-68593303D01*
X122173801Y-68173354D01*
X122174198Y-67718641D01*
X122000554Y-67298388D01*
X121679303Y-66976577D01*
X121259354Y-66802199D01*
X120804641Y-66801802D01*
X120384388Y-66975446D01*
X120062577Y-67296697D01*
X119888199Y-67716646D01*
X119887802Y-68171359D01*
X120061446Y-68591612D01*
X120142000Y-68672306D01*
X120142000Y-73025000D01*
X120209671Y-73365206D01*
X120312899Y-73519697D01*
X120402382Y-73653618D01*
X123079974Y-76331210D01*
X122670388Y-76500446D01*
X122348577Y-76821697D01*
X122184848Y-77216000D01*
X120015000Y-77216000D01*
X119674795Y-77283670D01*
X119386382Y-77476382D01*
X117735382Y-79127382D01*
X117542671Y-79415794D01*
X117475000Y-79756000D01*
X110223236Y-79756000D01*
X115690618Y-74288618D01*
X115883329Y-74000206D01*
X115951000Y-73660000D01*
X115951000Y-71488236D01*
X117976618Y-69462618D01*
X118084360Y-69301371D01*
X118169329Y-69174206D01*
X118237000Y-68834000D01*
X118237000Y-64516000D01*
X118169329Y-64175794D01*
X117976618Y-63887382D01*
X116960618Y-62871382D01*
X116672206Y-62678671D01*
X116332000Y-62611000D01*
X116185000Y-62611000D01*
X116185000Y-62515750D01*
X116026250Y-62357000D01*
X114902000Y-62357000D01*
X114902000Y-62377000D01*
X114648000Y-62377000D01*
X114648000Y-62357000D01*
X113523750Y-62357000D01*
X113365000Y-62515750D01*
X113365000Y-62611000D01*
X110220000Y-62611000D01*
X109879794Y-62678671D01*
X109591382Y-62871382D01*
X108330204Y-64132560D01*
X107815000Y-64132560D01*
X107579683Y-64176838D01*
X107363559Y-64315910D01*
X107317031Y-64384006D01*
X107174698Y-64241673D01*
X106941309Y-64145000D01*
X106600750Y-64145000D01*
X106442000Y-64303750D01*
X106442000Y-65278000D01*
X106462000Y-65278000D01*
X106462000Y-65532000D01*
X106442000Y-65532000D01*
X106442000Y-66506250D01*
X106600750Y-66665000D01*
X106941309Y-66665000D01*
X107174698Y-66568327D01*
X107315936Y-66427090D01*
X107350910Y-66481441D01*
X107426000Y-66532748D01*
X107426000Y-68085730D01*
X107363559Y-68125910D01*
X107317031Y-68194006D01*
X107174698Y-68051673D01*
X106941309Y-67955000D01*
X106600750Y-67955000D01*
X106442000Y-68113750D01*
X106442000Y-69088000D01*
X106462000Y-69088000D01*
X106462000Y-69342000D01*
X106442000Y-69342000D01*
X106442000Y-70316250D01*
X106600750Y-70475000D01*
X106941309Y-70475000D01*
X107174698Y-70378327D01*
X107315936Y-70237090D01*
X107350910Y-70291441D01*
X107426000Y-70342748D01*
X107426000Y-70675375D01*
X107342641Y-70675302D01*
X106922388Y-70848946D01*
X106600577Y-71170197D01*
X106426199Y-71590146D01*
X106425802Y-72044859D01*
X106599446Y-72465112D01*
X106920697Y-72786923D01*
X107340646Y-72961301D01*
X107795359Y-72961698D01*
X108215612Y-72788054D01*
X108537423Y-72466803D01*
X108711801Y-72046854D01*
X108711901Y-71932835D01*
X108943618Y-71701118D01*
X109136329Y-71412706D01*
X109204000Y-71072500D01*
X109204000Y-70344270D01*
X109266441Y-70304090D01*
X109411431Y-70091890D01*
X109462440Y-69840000D01*
X109462440Y-68590000D01*
X109418162Y-68354683D01*
X109279090Y-68138559D01*
X109204000Y-68087252D01*
X109204000Y-66534270D01*
X109266441Y-66494090D01*
X109411431Y-66281890D01*
X109462440Y-66030000D01*
X109462440Y-65514796D01*
X110588236Y-64389000D01*
X113368963Y-64389000D01*
X113352560Y-64470000D01*
X113352560Y-65070000D01*
X113396838Y-65305317D01*
X113535910Y-65521441D01*
X113748110Y-65666431D01*
X114000000Y-65717440D01*
X115550000Y-65717440D01*
X115785317Y-65673162D01*
X116001441Y-65534090D01*
X116146431Y-65321890D01*
X116197440Y-65070000D01*
X116197440Y-64622676D01*
X116459000Y-64884236D01*
X116459000Y-68465764D01*
X114433382Y-70491382D01*
X114240671Y-70779794D01*
X114173000Y-71120000D01*
X114173000Y-73291764D01*
X106686382Y-80778382D01*
X106493671Y-81066794D01*
X106426000Y-81407000D01*
X106426000Y-86271547D01*
X106255330Y-86385585D01*
X106240500Y-86407780D01*
X106176927Y-86254302D01*
X105998299Y-86075673D01*
X105764910Y-85979000D01*
X105060750Y-85979000D01*
X104902000Y-86137750D01*
X104902000Y-87503000D01*
X104922000Y-87503000D01*
X104922000Y-87757000D01*
X104902000Y-87757000D01*
X104902000Y-89122250D01*
X105060750Y-89281000D01*
X105764910Y-89281000D01*
X105998299Y-89184327D01*
X106176927Y-89005698D01*
X106240500Y-88852220D01*
X106255330Y-88874415D01*
X106446291Y-89002011D01*
X106493671Y-89240206D01*
X106542541Y-89313345D01*
X106686382Y-89528618D01*
X108210382Y-91052618D01*
X108498794Y-91245329D01*
X108839000Y-91313000D01*
X139192000Y-91313000D01*
X139532206Y-91245329D01*
X139820618Y-91052618D01*
X140366750Y-90506486D01*
X143130264Y-93270000D01*
X101600000Y-93270000D01*
X101328295Y-93324046D01*
X101097954Y-93477954D01*
X100944046Y-93708295D01*
X100890000Y-93980000D01*
X100890000Y-156770000D01*
X75005000Y-156770000D01*
X75005000Y-153950584D01*
X94519293Y-153950584D01*
X94919641Y-154919499D01*
X95660302Y-155661454D01*
X96628517Y-156063492D01*
X97676884Y-156064407D01*
X98645799Y-155664059D01*
X99387754Y-154923398D01*
X99789792Y-153955183D01*
X99790707Y-152906816D01*
X99390359Y-151937901D01*
X98649698Y-151195946D01*
X97681483Y-150793908D01*
X96633116Y-150792993D01*
X95664201Y-151193341D01*
X94922246Y-151934002D01*
X94520208Y-152902217D01*
X94519293Y-153950584D01*
X75005000Y-153950584D01*
X75005000Y-151651834D01*
X77374543Y-151651834D01*
X77774853Y-152620658D01*
X78515443Y-153362542D01*
X79483567Y-153764542D01*
X80531834Y-153765457D01*
X81500658Y-153365147D01*
X82242542Y-152624557D01*
X82644542Y-151656433D01*
X82645457Y-150608166D01*
X82245147Y-149639342D01*
X81504557Y-148897458D01*
X80536433Y-148495458D01*
X79488166Y-148494543D01*
X78519342Y-148894853D01*
X77777458Y-149635443D01*
X77375458Y-150603567D01*
X77374543Y-151651834D01*
X75005000Y-151651834D01*
X75005000Y-97900808D01*
X77160907Y-97900808D01*
X77185217Y-98006252D01*
X77476855Y-98531911D01*
X77947454Y-98905952D01*
X78525370Y-99071430D01*
X79375000Y-99071430D01*
X79375000Y-97663000D01*
X79629000Y-97663000D01*
X79629000Y-99071430D01*
X80478630Y-99071430D01*
X80913594Y-98946884D01*
X94519293Y-98946884D01*
X94919641Y-99915799D01*
X95660302Y-100657754D01*
X96628517Y-101059792D01*
X97676884Y-101060707D01*
X98645799Y-100660359D01*
X99387754Y-99919698D01*
X99789792Y-98951483D01*
X99790707Y-97903116D01*
X99390359Y-96934201D01*
X98649698Y-96192246D01*
X97681483Y-95790208D01*
X96633116Y-95789293D01*
X95664201Y-96189641D01*
X94922246Y-96930302D01*
X94520208Y-97898517D01*
X94519293Y-98946884D01*
X80913594Y-98946884D01*
X81056546Y-98905952D01*
X81527145Y-98531911D01*
X81818783Y-98006252D01*
X81843093Y-97900808D01*
X81722440Y-97663000D01*
X79629000Y-97663000D01*
X79375000Y-97663000D01*
X77281560Y-97663000D01*
X77160907Y-97900808D01*
X75005000Y-97900808D01*
X75005000Y-94996000D01*
X77070214Y-94996000D01*
X77187092Y-95583584D01*
X77519931Y-96081713D01*
X77809842Y-96275425D01*
X77476855Y-96540089D01*
X77185217Y-97065748D01*
X77160907Y-97171192D01*
X77281560Y-97409000D01*
X79375000Y-97409000D01*
X79375000Y-97389000D01*
X79629000Y-97389000D01*
X79629000Y-97409000D01*
X81722440Y-97409000D01*
X81843093Y-97171192D01*
X81818783Y-97065748D01*
X81527145Y-96540089D01*
X81194158Y-96275425D01*
X81484069Y-96081713D01*
X81816908Y-95583584D01*
X81933786Y-94996000D01*
X81816908Y-94408416D01*
X81484069Y-93910287D01*
X80985940Y-93577448D01*
X80398356Y-93460570D01*
X78605644Y-93460570D01*
X78018060Y-93577448D01*
X77519931Y-93910287D01*
X77187092Y-94408416D01*
X77070214Y-94996000D01*
X75005000Y-94996000D01*
X75005000Y-90788808D01*
X77160907Y-90788808D01*
X77185217Y-90894252D01*
X77476855Y-91419911D01*
X77947454Y-91793952D01*
X78525370Y-91959430D01*
X79375000Y-91959430D01*
X79375000Y-90551000D01*
X79629000Y-90551000D01*
X79629000Y-91959430D01*
X80478630Y-91959430D01*
X81056546Y-91793952D01*
X81527145Y-91419911D01*
X81818783Y-90894252D01*
X81843093Y-90788808D01*
X81722440Y-90551000D01*
X79629000Y-90551000D01*
X79375000Y-90551000D01*
X77281560Y-90551000D01*
X77160907Y-90788808D01*
X75005000Y-90788808D01*
X75005000Y-87884000D01*
X77070214Y-87884000D01*
X77187092Y-88471584D01*
X77519931Y-88969713D01*
X77809842Y-89163425D01*
X77476855Y-89428089D01*
X77185217Y-89953748D01*
X77160907Y-90059192D01*
X77281560Y-90297000D01*
X79375000Y-90297000D01*
X79375000Y-90277000D01*
X79629000Y-90277000D01*
X79629000Y-90297000D01*
X81722440Y-90297000D01*
X81843093Y-90059192D01*
X81818783Y-89953748D01*
X81527145Y-89428089D01*
X81194158Y-89163425D01*
X81484069Y-88969713D01*
X81816908Y-88471584D01*
X81927470Y-87915750D01*
X103276400Y-87915750D01*
X103276400Y-88772309D01*
X103373073Y-89005698D01*
X103551701Y-89184327D01*
X103785090Y-89281000D01*
X104489250Y-89281000D01*
X104648000Y-89122250D01*
X104648000Y-87757000D01*
X103435150Y-87757000D01*
X103276400Y-87915750D01*
X81927470Y-87915750D01*
X81933786Y-87884000D01*
X81816908Y-87296416D01*
X81484069Y-86798287D01*
X81019230Y-86487691D01*
X103276400Y-86487691D01*
X103276400Y-87344250D01*
X103435150Y-87503000D01*
X104648000Y-87503000D01*
X104648000Y-86137750D01*
X104489250Y-85979000D01*
X103785090Y-85979000D01*
X103551701Y-86075673D01*
X103373073Y-86254302D01*
X103276400Y-86487691D01*
X81019230Y-86487691D01*
X80985940Y-86465448D01*
X80398356Y-86348570D01*
X78605644Y-86348570D01*
X78018060Y-86465448D01*
X77519931Y-86798287D01*
X77187092Y-87296416D01*
X77070214Y-87884000D01*
X75005000Y-87884000D01*
X75005000Y-83168808D01*
X77160907Y-83168808D01*
X77185217Y-83274252D01*
X77476855Y-83799911D01*
X77947454Y-84173952D01*
X78525370Y-84339430D01*
X79375000Y-84339430D01*
X79375000Y-82931000D01*
X79629000Y-82931000D01*
X79629000Y-84339430D01*
X80478630Y-84339430D01*
X81056546Y-84173952D01*
X81527145Y-83799911D01*
X81818783Y-83274252D01*
X81843093Y-83168808D01*
X81722440Y-82931000D01*
X79629000Y-82931000D01*
X79375000Y-82931000D01*
X77281560Y-82931000D01*
X77160907Y-83168808D01*
X75005000Y-83168808D01*
X75005000Y-80264000D01*
X77070214Y-80264000D01*
X77187092Y-80851584D01*
X77519931Y-81349713D01*
X77809842Y-81543425D01*
X77476855Y-81808089D01*
X77185217Y-82333748D01*
X77160907Y-82439192D01*
X77281560Y-82677000D01*
X79375000Y-82677000D01*
X79375000Y-82657000D01*
X79629000Y-82657000D01*
X79629000Y-82677000D01*
X81722440Y-82677000D01*
X81843093Y-82439192D01*
X81818783Y-82333748D01*
X81527145Y-81808089D01*
X81194158Y-81543425D01*
X81484069Y-81349713D01*
X81816908Y-80851584D01*
X81933786Y-80264000D01*
X81816908Y-79676416D01*
X81484069Y-79178287D01*
X80985940Y-78845448D01*
X80398356Y-78728570D01*
X78605644Y-78728570D01*
X78018060Y-78845448D01*
X77519931Y-79178287D01*
X77187092Y-79676416D01*
X77070214Y-80264000D01*
X75005000Y-80264000D01*
X75005000Y-71120000D01*
X77070214Y-71120000D01*
X77187092Y-71707584D01*
X77519931Y-72205713D01*
X77795736Y-72390000D01*
X77519931Y-72574287D01*
X77187092Y-73072416D01*
X77070214Y-73660000D01*
X77187092Y-74247584D01*
X77519931Y-74745713D01*
X78018060Y-75078552D01*
X78605644Y-75195430D01*
X80398356Y-75195430D01*
X80985940Y-75078552D01*
X81484069Y-74745713D01*
X81816908Y-74247584D01*
X81933786Y-73660000D01*
X81816908Y-73072416D01*
X81484069Y-72574287D01*
X81208264Y-72390000D01*
X81484069Y-72205713D01*
X81816908Y-71707584D01*
X81933786Y-71120000D01*
X81816908Y-70532416D01*
X81484069Y-70034287D01*
X80985940Y-69701448D01*
X80398356Y-69584570D01*
X78605644Y-69584570D01*
X78018060Y-69701448D01*
X77519931Y-70034287D01*
X77187092Y-70532416D01*
X77070214Y-71120000D01*
X75005000Y-71120000D01*
X75005000Y-69500750D01*
X105180000Y-69500750D01*
X105180000Y-69966310D01*
X105276673Y-70199699D01*
X105455302Y-70378327D01*
X105688691Y-70475000D01*
X106029250Y-70475000D01*
X106188000Y-70316250D01*
X106188000Y-69342000D01*
X105338750Y-69342000D01*
X105180000Y-69500750D01*
X75005000Y-69500750D01*
X75005000Y-67310000D01*
X77070214Y-67310000D01*
X77187092Y-67897584D01*
X77519931Y-68395713D01*
X78018060Y-68728552D01*
X78605644Y-68845430D01*
X80398356Y-68845430D01*
X80985940Y-68728552D01*
X81382334Y-68463690D01*
X105180000Y-68463690D01*
X105180000Y-68929250D01*
X105338750Y-69088000D01*
X106188000Y-69088000D01*
X106188000Y-68113750D01*
X106029250Y-67955000D01*
X105688691Y-67955000D01*
X105455302Y-68051673D01*
X105276673Y-68230301D01*
X105180000Y-68463690D01*
X81382334Y-68463690D01*
X81484069Y-68395713D01*
X81816908Y-67897584D01*
X81933786Y-67310000D01*
X81816908Y-66722416D01*
X81645703Y-66466188D01*
X86875417Y-66466188D01*
X86937071Y-66701800D01*
X87437480Y-66877927D01*
X87967199Y-66849148D01*
X88322929Y-66701800D01*
X88384583Y-66466188D01*
X94495417Y-66466188D01*
X94557071Y-66701800D01*
X95057480Y-66877927D01*
X95587199Y-66849148D01*
X95942929Y-66701800D01*
X96004583Y-66466188D01*
X95250000Y-65711605D01*
X94495417Y-66466188D01*
X88384583Y-66466188D01*
X87630000Y-65711605D01*
X86875417Y-66466188D01*
X81645703Y-66466188D01*
X81484069Y-66224287D01*
X81194158Y-66030575D01*
X81527145Y-65765911D01*
X81763730Y-65339480D01*
X86284073Y-65339480D01*
X86312852Y-65869199D01*
X86460200Y-66224929D01*
X86695812Y-66286583D01*
X87450395Y-65532000D01*
X87809605Y-65532000D01*
X88564188Y-66286583D01*
X88799800Y-66224929D01*
X88975927Y-65724520D01*
X88955009Y-65339480D01*
X93904073Y-65339480D01*
X93932852Y-65869199D01*
X94080200Y-66224929D01*
X94315812Y-66286583D01*
X95070395Y-65532000D01*
X95429605Y-65532000D01*
X96184188Y-66286583D01*
X96419800Y-66224929D01*
X96595927Y-65724520D01*
X96594093Y-65690750D01*
X105180000Y-65690750D01*
X105180000Y-66156310D01*
X105276673Y-66389699D01*
X105455302Y-66568327D01*
X105688691Y-66665000D01*
X106029250Y-66665000D01*
X106188000Y-66506250D01*
X106188000Y-65532000D01*
X105338750Y-65532000D01*
X105180000Y-65690750D01*
X96594093Y-65690750D01*
X96567148Y-65194801D01*
X96419800Y-64839071D01*
X96184188Y-64777417D01*
X95429605Y-65532000D01*
X95070395Y-65532000D01*
X94315812Y-64777417D01*
X94080200Y-64839071D01*
X93904073Y-65339480D01*
X88955009Y-65339480D01*
X88947148Y-65194801D01*
X88799800Y-64839071D01*
X88564188Y-64777417D01*
X87809605Y-65532000D01*
X87450395Y-65532000D01*
X86695812Y-64777417D01*
X86460200Y-64839071D01*
X86284073Y-65339480D01*
X81763730Y-65339480D01*
X81818783Y-65240252D01*
X81843093Y-65134808D01*
X81722440Y-64897000D01*
X79629000Y-64897000D01*
X79629000Y-64917000D01*
X79375000Y-64917000D01*
X79375000Y-64897000D01*
X77281560Y-64897000D01*
X77160907Y-65134808D01*
X77185217Y-65240252D01*
X77476855Y-65765911D01*
X77809842Y-66030575D01*
X77519931Y-66224287D01*
X77187092Y-66722416D01*
X77070214Y-67310000D01*
X75005000Y-67310000D01*
X75005000Y-64405192D01*
X77160907Y-64405192D01*
X77281560Y-64643000D01*
X79375000Y-64643000D01*
X79375000Y-63234570D01*
X79629000Y-63234570D01*
X79629000Y-64643000D01*
X81722440Y-64643000D01*
X81745366Y-64597812D01*
X86875417Y-64597812D01*
X87630000Y-65352395D01*
X88384583Y-64597812D01*
X94495417Y-64597812D01*
X95250000Y-65352395D01*
X95948705Y-64653690D01*
X105180000Y-64653690D01*
X105180000Y-65119250D01*
X105338750Y-65278000D01*
X106188000Y-65278000D01*
X106188000Y-64303750D01*
X106029250Y-64145000D01*
X105688691Y-64145000D01*
X105455302Y-64241673D01*
X105276673Y-64420301D01*
X105180000Y-64653690D01*
X95948705Y-64653690D01*
X96004583Y-64597812D01*
X95942929Y-64362200D01*
X95442520Y-64186073D01*
X94912801Y-64214852D01*
X94557071Y-64362200D01*
X94495417Y-64597812D01*
X88384583Y-64597812D01*
X88322929Y-64362200D01*
X87822520Y-64186073D01*
X87292801Y-64214852D01*
X86937071Y-64362200D01*
X86875417Y-64597812D01*
X81745366Y-64597812D01*
X81843093Y-64405192D01*
X81818783Y-64299748D01*
X81527145Y-63774089D01*
X81056546Y-63400048D01*
X80478630Y-63234570D01*
X79629000Y-63234570D01*
X79375000Y-63234570D01*
X78525370Y-63234570D01*
X77947454Y-63400048D01*
X77476855Y-63774089D01*
X77185217Y-64299748D01*
X77160907Y-64405192D01*
X75005000Y-64405192D01*
X75005000Y-62245750D01*
X99070000Y-62245750D01*
X99070000Y-62586309D01*
X99166673Y-62819698D01*
X99345301Y-62998327D01*
X99578690Y-63095000D01*
X100044250Y-63095000D01*
X100203000Y-62936250D01*
X100203000Y-62087000D01*
X100457000Y-62087000D01*
X100457000Y-62936250D01*
X100615750Y-63095000D01*
X101081310Y-63095000D01*
X101314699Y-62998327D01*
X101493327Y-62819698D01*
X101590000Y-62586309D01*
X101590000Y-62245750D01*
X101540000Y-62195750D01*
X104125000Y-62195750D01*
X104125000Y-62386309D01*
X104221673Y-62619698D01*
X104400301Y-62798327D01*
X104633690Y-62895000D01*
X105124250Y-62895000D01*
X105283000Y-62736250D01*
X105283000Y-62037000D01*
X105537000Y-62037000D01*
X105537000Y-62736250D01*
X105695750Y-62895000D01*
X106186310Y-62895000D01*
X106419699Y-62798327D01*
X106598327Y-62619698D01*
X106695000Y-62386309D01*
X106695000Y-62195750D01*
X106536250Y-62037000D01*
X105537000Y-62037000D01*
X105283000Y-62037000D01*
X104283750Y-62037000D01*
X104125000Y-62195750D01*
X101540000Y-62195750D01*
X101431250Y-62087000D01*
X100457000Y-62087000D01*
X100203000Y-62087000D01*
X99228750Y-62087000D01*
X99070000Y-62245750D01*
X75005000Y-62245750D01*
X75005000Y-60716086D01*
X86296269Y-60716086D01*
X86498854Y-61206380D01*
X86873647Y-61581827D01*
X87363587Y-61785268D01*
X87894086Y-61785731D01*
X88384380Y-61583146D01*
X88759827Y-61208353D01*
X88963268Y-60718413D01*
X88963270Y-60716086D01*
X93916269Y-60716086D01*
X94118854Y-61206380D01*
X94493647Y-61581827D01*
X94983587Y-61785268D01*
X95514086Y-61785731D01*
X96004380Y-61583146D01*
X96379827Y-61208353D01*
X96583268Y-60718413D01*
X96583731Y-60187914D01*
X96381146Y-59697620D01*
X96143940Y-59460000D01*
X99057560Y-59460000D01*
X99057560Y-60460000D01*
X99101838Y-60695317D01*
X99240910Y-60911441D01*
X99309006Y-60957969D01*
X99166673Y-61100302D01*
X99070000Y-61333691D01*
X99070000Y-61674250D01*
X99228750Y-61833000D01*
X100203000Y-61833000D01*
X100203000Y-61813000D01*
X100457000Y-61813000D01*
X100457000Y-61833000D01*
X101431250Y-61833000D01*
X101590000Y-61674250D01*
X101590000Y-61333691D01*
X101493327Y-61100302D01*
X101352090Y-60959064D01*
X101406441Y-60924090D01*
X101457748Y-60849000D01*
X104350879Y-60849000D01*
X104508110Y-60956431D01*
X104541490Y-60963191D01*
X104400301Y-61021673D01*
X104221673Y-61200302D01*
X104125000Y-61433691D01*
X104125000Y-61624250D01*
X104283750Y-61783000D01*
X105283000Y-61783000D01*
X105283000Y-61763000D01*
X105537000Y-61763000D01*
X105537000Y-61783000D01*
X106536250Y-61783000D01*
X106695000Y-61624250D01*
X106695000Y-61433691D01*
X106598327Y-61200302D01*
X106419699Y-61021673D01*
X106283713Y-60965346D01*
X106295317Y-60963162D01*
X106395028Y-60899000D01*
X112981764Y-60899000D01*
X113354830Y-61272066D01*
X113396838Y-61495317D01*
X113455178Y-61585980D01*
X113365000Y-61803690D01*
X113365000Y-61944250D01*
X113523750Y-62103000D01*
X114648000Y-62103000D01*
X114648000Y-62083000D01*
X114902000Y-62083000D01*
X114902000Y-62103000D01*
X116026250Y-62103000D01*
X116185000Y-61944250D01*
X116185000Y-61803690D01*
X116095194Y-61586878D01*
X116146431Y-61511890D01*
X116197440Y-61260000D01*
X116197440Y-60794796D01*
X116332236Y-60660000D01*
X118752560Y-60660000D01*
X118752560Y-61260000D01*
X118796838Y-61495317D01*
X118860678Y-61594528D01*
X118803569Y-61678110D01*
X118752560Y-61930000D01*
X118752560Y-62530000D01*
X118796838Y-62765317D01*
X118860678Y-62864528D01*
X118803569Y-62948110D01*
X118752560Y-63200000D01*
X118752560Y-63800000D01*
X118796838Y-64035317D01*
X118860678Y-64134528D01*
X118803569Y-64218110D01*
X118752560Y-64470000D01*
X118752560Y-65070000D01*
X118796838Y-65305317D01*
X118935910Y-65521441D01*
X119148110Y-65666431D01*
X119400000Y-65717440D01*
X120950000Y-65717440D01*
X121185317Y-65673162D01*
X121401441Y-65534090D01*
X121546431Y-65321890D01*
X121597440Y-65070000D01*
X121597440Y-64470000D01*
X121553162Y-64234683D01*
X121489322Y-64135472D01*
X121546431Y-64051890D01*
X121597440Y-63800000D01*
X121597440Y-63200000D01*
X121553162Y-62964683D01*
X121489322Y-62865472D01*
X121546431Y-62781890D01*
X121597440Y-62530000D01*
X121597440Y-61930000D01*
X121553162Y-61694683D01*
X121489322Y-61595472D01*
X121546431Y-61511890D01*
X121597440Y-61260000D01*
X121597440Y-60660000D01*
X121553162Y-60424683D01*
X121414090Y-60208559D01*
X121201890Y-60063569D01*
X120950000Y-60012560D01*
X119400000Y-60012560D01*
X119164683Y-60056838D01*
X118948559Y-60195910D01*
X118803569Y-60408110D01*
X118752560Y-60660000D01*
X116332236Y-60660000D01*
X117175236Y-59817000D01*
X124599764Y-59817000D01*
X128911382Y-64128618D01*
X129199794Y-64321329D01*
X129540000Y-64389000D01*
X133984889Y-64389000D01*
X133984802Y-64488359D01*
X134158446Y-64908612D01*
X134479697Y-65230423D01*
X134899646Y-65404801D01*
X135354359Y-65405198D01*
X135774612Y-65231554D01*
X136096423Y-64910303D01*
X136270801Y-64490354D01*
X136271198Y-64035641D01*
X136097554Y-63615388D01*
X135776303Y-63293577D01*
X135356354Y-63119199D01*
X135242335Y-63119099D01*
X134994618Y-62871382D01*
X134706206Y-62678671D01*
X134366000Y-62611000D01*
X129908236Y-62611000D01*
X125596618Y-58299382D01*
X125308206Y-58106671D01*
X124968000Y-58039000D01*
X116807000Y-58039000D01*
X116466794Y-58106671D01*
X116178382Y-58299382D01*
X114537500Y-59940264D01*
X113978618Y-59381382D01*
X113903788Y-59331382D01*
X113690206Y-59188671D01*
X113350000Y-59121000D01*
X106395943Y-59121000D01*
X106311890Y-59063569D01*
X106060000Y-59012560D01*
X104760000Y-59012560D01*
X104524683Y-59056838D01*
X104502675Y-59071000D01*
X101459270Y-59071000D01*
X101419090Y-59008559D01*
X101206890Y-58863569D01*
X100955000Y-58812560D01*
X99705000Y-58812560D01*
X99469683Y-58856838D01*
X99253559Y-58995910D01*
X99108569Y-59208110D01*
X99057560Y-59460000D01*
X96143940Y-59460000D01*
X96006353Y-59322173D01*
X95516413Y-59118732D01*
X94985914Y-59118269D01*
X94495620Y-59320854D01*
X94120173Y-59695647D01*
X93916732Y-60185587D01*
X93916269Y-60716086D01*
X88963270Y-60716086D01*
X88963731Y-60187914D01*
X88761146Y-59697620D01*
X88386353Y-59322173D01*
X87896413Y-59118732D01*
X87365914Y-59118269D01*
X86875620Y-59320854D01*
X86500173Y-59695647D01*
X86296732Y-60185587D01*
X86296269Y-60716086D01*
X75005000Y-60716086D01*
X75005000Y-56401834D01*
X77374543Y-56401834D01*
X77774853Y-57370658D01*
X78515443Y-58112542D01*
X79483567Y-58514542D01*
X80531834Y-58515457D01*
X81500658Y-58115147D01*
X82242542Y-57374557D01*
X82644542Y-56406433D01*
X82645432Y-55385834D01*
X204120543Y-55385834D01*
X204520853Y-56354658D01*
X205261443Y-57096542D01*
X206229567Y-57498542D01*
X207277834Y-57499457D01*
X208246658Y-57099147D01*
X208988542Y-56358557D01*
X209390542Y-55390433D01*
X209391457Y-54342166D01*
X208991147Y-53373342D01*
X208250557Y-52631458D01*
X207282433Y-52229458D01*
X206234166Y-52228543D01*
X205265342Y-52628853D01*
X204523458Y-53369443D01*
X204121458Y-54337567D01*
X204120543Y-55385834D01*
X82645432Y-55385834D01*
X82645457Y-55358166D01*
X82245147Y-54389342D01*
X81504557Y-53647458D01*
X80536433Y-53245458D01*
X79488166Y-53244543D01*
X78519342Y-53644853D01*
X77777458Y-54385443D01*
X77375458Y-55353567D01*
X77374543Y-56401834D01*
X75005000Y-56401834D01*
X75005000Y-50875000D01*
X213285000Y-50875000D01*
X213285000Y-156770000D01*
X213285000Y-156770000D01*
G37*
X213285000Y-156770000D02*
X187400000Y-156770000D01*
X187400000Y-153948044D01*
X187518853Y-153948044D01*
X187919201Y-154916959D01*
X188659862Y-155658914D01*
X189628077Y-156060952D01*
X190676444Y-156061867D01*
X191645359Y-155661519D01*
X192387314Y-154920858D01*
X192789352Y-153952643D01*
X192790267Y-152904276D01*
X192389919Y-151935361D01*
X192106887Y-151651834D01*
X205644543Y-151651834D01*
X206044853Y-152620658D01*
X206785443Y-153362542D01*
X207753567Y-153764542D01*
X208801834Y-153765457D01*
X209770658Y-153365147D01*
X210512542Y-152624557D01*
X210914542Y-151656433D01*
X210915457Y-150608166D01*
X210515147Y-149639342D01*
X209774557Y-148897458D01*
X208806433Y-148495458D01*
X207758166Y-148494543D01*
X206789342Y-148894853D01*
X206047458Y-149635443D01*
X205645458Y-150603567D01*
X205644543Y-151651834D01*
X192106887Y-151651834D01*
X191649258Y-151193406D01*
X190681043Y-150791368D01*
X189632676Y-150790453D01*
X188663761Y-151190801D01*
X187921806Y-151931462D01*
X187519768Y-152899677D01*
X187518853Y-153948044D01*
X187400000Y-153948044D01*
X187400000Y-125386661D01*
X199937758Y-125386661D01*
X200149990Y-125900303D01*
X200542630Y-126293629D01*
X201055900Y-126506757D01*
X201611661Y-126507242D01*
X202125303Y-126295010D01*
X202518629Y-125902370D01*
X202731757Y-125389100D01*
X202732242Y-124833339D01*
X202520010Y-124319697D01*
X202127370Y-123926371D01*
X201614100Y-123713243D01*
X201058339Y-123712758D01*
X200544697Y-123924990D01*
X200151371Y-124317630D01*
X199938243Y-124830900D01*
X199937758Y-125386661D01*
X187400000Y-125386661D01*
X187400000Y-118395750D01*
X195900000Y-118395750D01*
X195900000Y-119836310D01*
X195996673Y-120069699D01*
X196175302Y-120248327D01*
X196408691Y-120345000D01*
X197849250Y-120345000D01*
X198008000Y-120186250D01*
X198008000Y-118237000D01*
X198262000Y-118237000D01*
X198262000Y-120186250D01*
X198420750Y-120345000D01*
X199861309Y-120345000D01*
X200094698Y-120248327D01*
X200273327Y-120069699D01*
X200370000Y-119836310D01*
X200370000Y-118395750D01*
X200211250Y-118237000D01*
X198262000Y-118237000D01*
X198008000Y-118237000D01*
X196058750Y-118237000D01*
X195900000Y-118395750D01*
X187400000Y-118395750D01*
X187400000Y-116383690D01*
X195900000Y-116383690D01*
X195900000Y-117824250D01*
X196058750Y-117983000D01*
X198008000Y-117983000D01*
X198008000Y-116033750D01*
X198262000Y-116033750D01*
X198262000Y-117983000D01*
X200211250Y-117983000D01*
X200370000Y-117824250D01*
X200370000Y-116383690D01*
X200273327Y-116150301D01*
X200094698Y-115971673D01*
X199861309Y-115875000D01*
X198420750Y-115875000D01*
X198262000Y-116033750D01*
X198008000Y-116033750D01*
X197849250Y-115875000D01*
X196408691Y-115875000D01*
X196175302Y-115971673D01*
X195996673Y-116150301D01*
X195900000Y-116383690D01*
X187400000Y-116383690D01*
X187400000Y-98946884D01*
X187518853Y-98946884D01*
X187919201Y-99915799D01*
X188659862Y-100657754D01*
X189628077Y-101059792D01*
X190676444Y-101060707D01*
X191645359Y-100660359D01*
X192387314Y-99919698D01*
X192789352Y-98951483D01*
X192790267Y-97903116D01*
X192389919Y-96934201D01*
X191649258Y-96192246D01*
X190681043Y-95790208D01*
X189632676Y-95789293D01*
X188663761Y-96189641D01*
X187921806Y-96930302D01*
X187519768Y-97898517D01*
X187518853Y-98946884D01*
X187400000Y-98946884D01*
X187400000Y-93980000D01*
X187387369Y-93916500D01*
X189052264Y-93916500D01*
X190379382Y-95243618D01*
X190667794Y-95436329D01*
X191008000Y-95504000D01*
X192354264Y-95504000D01*
X195643500Y-98793236D01*
X195643500Y-110172500D01*
X195711171Y-110512706D01*
X195776181Y-110610000D01*
X195903882Y-110801118D01*
X203009500Y-117906736D01*
X203009500Y-122673500D01*
X203077171Y-123013706D01*
X203269882Y-123302118D01*
X204938121Y-124970357D01*
X204937758Y-125386661D01*
X205149990Y-125900303D01*
X205542630Y-126293629D01*
X206055900Y-126506757D01*
X206611661Y-126507242D01*
X207125303Y-126295010D01*
X207518629Y-125902370D01*
X207731757Y-125389100D01*
X207732242Y-124833339D01*
X207520010Y-124319697D01*
X207127370Y-123926371D01*
X206614100Y-123713243D01*
X206195113Y-123712877D01*
X204787500Y-122305264D01*
X204787500Y-118395750D01*
X207300000Y-118395750D01*
X207300000Y-119836310D01*
X207396673Y-120069699D01*
X207575302Y-120248327D01*
X207808691Y-120345000D01*
X209249250Y-120345000D01*
X209408000Y-120186250D01*
X209408000Y-118237000D01*
X209662000Y-118237000D01*
X209662000Y-120186250D01*
X209820750Y-120345000D01*
X211261309Y-120345000D01*
X211494698Y-120248327D01*
X211673327Y-120069699D01*
X211770000Y-119836310D01*
X211770000Y-118395750D01*
X211611250Y-118237000D01*
X209662000Y-118237000D01*
X209408000Y-118237000D01*
X207458750Y-118237000D01*
X207300000Y-118395750D01*
X204787500Y-118395750D01*
X204787500Y-117538500D01*
X204719829Y-117198294D01*
X204527118Y-116909882D01*
X204000926Y-116383690D01*
X207300000Y-116383690D01*
X207300000Y-117824250D01*
X207458750Y-117983000D01*
X209408000Y-117983000D01*
X209408000Y-116033750D01*
X209662000Y-116033750D01*
X209662000Y-117983000D01*
X211611250Y-117983000D01*
X211770000Y-117824250D01*
X211770000Y-116383690D01*
X211673327Y-116150301D01*
X211494698Y-115971673D01*
X211261309Y-115875000D01*
X209820750Y-115875000D01*
X209662000Y-116033750D01*
X209408000Y-116033750D01*
X209249250Y-115875000D01*
X207808691Y-115875000D01*
X207575302Y-115971673D01*
X207396673Y-116150301D01*
X207300000Y-116383690D01*
X204000926Y-116383690D01*
X198503897Y-110886661D01*
X199937758Y-110886661D01*
X200149990Y-111400303D01*
X200542630Y-111793629D01*
X201055900Y-112006757D01*
X201611661Y-112007242D01*
X202125303Y-111795010D01*
X202330457Y-111590213D01*
X203034392Y-111590213D01*
X203103857Y-111832397D01*
X203627302Y-112019144D01*
X204182368Y-111991362D01*
X204566143Y-111832397D01*
X204635608Y-111590213D01*
X203835000Y-110789605D01*
X203034392Y-111590213D01*
X202330457Y-111590213D01*
X202518629Y-111402370D01*
X202578370Y-111258497D01*
X202612603Y-111341143D01*
X202854787Y-111410608D01*
X203655395Y-110610000D01*
X204014605Y-110610000D01*
X204815213Y-111410608D01*
X205057397Y-111341143D01*
X205088974Y-111252633D01*
X205149990Y-111400303D01*
X205542630Y-111793629D01*
X206055900Y-112006757D01*
X206611661Y-112007242D01*
X207125303Y-111795010D01*
X207518629Y-111402370D01*
X207731757Y-110889100D01*
X207732242Y-110333339D01*
X207520010Y-109819697D01*
X207127370Y-109426371D01*
X206614100Y-109213243D01*
X206058339Y-109212758D01*
X205544697Y-109424990D01*
X205151371Y-109817630D01*
X205091630Y-109961503D01*
X205057397Y-109878857D01*
X204815213Y-109809392D01*
X204014605Y-110610000D01*
X203655395Y-110610000D01*
X202854787Y-109809392D01*
X202612603Y-109878857D01*
X202581026Y-109967367D01*
X202520010Y-109819697D01*
X202330432Y-109629787D01*
X203034392Y-109629787D01*
X203835000Y-110430395D01*
X204635608Y-109629787D01*
X204566143Y-109387603D01*
X204042698Y-109200856D01*
X203487632Y-109228638D01*
X203103857Y-109387603D01*
X203034392Y-109629787D01*
X202330432Y-109629787D01*
X202127370Y-109426371D01*
X201614100Y-109213243D01*
X201058339Y-109212758D01*
X200544697Y-109424990D01*
X200151371Y-109817630D01*
X199938243Y-110330900D01*
X199937758Y-110886661D01*
X198503897Y-110886661D01*
X197421500Y-109804264D01*
X197421500Y-99314000D01*
X199593264Y-99314000D01*
X202564900Y-102285636D01*
X202564802Y-102397859D01*
X202738446Y-102818112D01*
X203059697Y-103139923D01*
X203479646Y-103314301D01*
X203934359Y-103314698D01*
X204354612Y-103141054D01*
X204676423Y-102819803D01*
X204850801Y-102399854D01*
X204851198Y-101945141D01*
X204677554Y-101524888D01*
X204356303Y-101203077D01*
X203936354Y-101028699D01*
X203822335Y-101028599D01*
X200590118Y-97796382D01*
X200301706Y-97603671D01*
X199961500Y-97536000D01*
X196900736Y-97536000D01*
X193351118Y-93986382D01*
X193237234Y-93910287D01*
X193062706Y-93793671D01*
X192722500Y-93726000D01*
X191376236Y-93726000D01*
X190049118Y-92398882D01*
X190033324Y-92388329D01*
X189760706Y-92206171D01*
X189420500Y-92138500D01*
X173450283Y-92138500D01*
X173604829Y-91907206D01*
X173672500Y-91567000D01*
X173672500Y-86360000D01*
X173604829Y-86019794D01*
X173412118Y-85731382D01*
X172561250Y-84880514D01*
X172561250Y-83711986D01*
X177113155Y-79160081D01*
X207308004Y-79160081D01*
X207449472Y-79463270D01*
X208185952Y-79748227D01*
X208975420Y-79729654D01*
X209618528Y-79463270D01*
X209759996Y-79160081D01*
X208534000Y-77934085D01*
X207308004Y-79160081D01*
X177113155Y-79160081D01*
X178866804Y-77406432D01*
X206540253Y-77406432D01*
X206558826Y-78195900D01*
X206825210Y-78839008D01*
X207128399Y-78980476D01*
X208354395Y-77754480D01*
X208713605Y-77754480D01*
X209939601Y-78980476D01*
X210242790Y-78839008D01*
X210527747Y-78102528D01*
X210509174Y-77313060D01*
X210242790Y-76669952D01*
X209939601Y-76528484D01*
X208713605Y-77754480D01*
X208354395Y-77754480D01*
X207128399Y-76528484D01*
X206825210Y-76669952D01*
X206540253Y-77406432D01*
X178866804Y-77406432D01*
X179924357Y-76348879D01*
X207308004Y-76348879D01*
X208534000Y-77574875D01*
X209759996Y-76348879D01*
X209618528Y-76045690D01*
X208882048Y-75760733D01*
X208092580Y-75779306D01*
X207449472Y-76045690D01*
X207308004Y-76348879D01*
X179924357Y-76348879D01*
X185511575Y-70761661D01*
X202437758Y-70761661D01*
X202649990Y-71275303D01*
X203042630Y-71668629D01*
X203250512Y-71754949D01*
X203044697Y-71839990D01*
X202651371Y-72232630D01*
X202438243Y-72745900D01*
X202437758Y-73301661D01*
X202649990Y-73815303D01*
X203042630Y-74208629D01*
X203555900Y-74421757D01*
X204111661Y-74422242D01*
X204625303Y-74210010D01*
X204834510Y-74001168D01*
X205041610Y-74208629D01*
X205554880Y-74421757D01*
X206110641Y-74422242D01*
X206624283Y-74210010D01*
X207017609Y-73817370D01*
X207230737Y-73304100D01*
X207231222Y-72748339D01*
X207018990Y-72234697D01*
X206626350Y-71841371D01*
X206434253Y-71761605D01*
X206565123Y-71707397D01*
X206634588Y-71465213D01*
X205833980Y-70664605D01*
X205033372Y-71465213D01*
X205102837Y-71707397D01*
X205243298Y-71757509D01*
X205043677Y-71839990D01*
X204834470Y-72048832D01*
X204627370Y-71841371D01*
X204419488Y-71755051D01*
X204625303Y-71670010D01*
X205018629Y-71277370D01*
X205129846Y-71009529D01*
X205654375Y-70485000D01*
X206013585Y-70485000D01*
X206814193Y-71285608D01*
X207056377Y-71216143D01*
X207243124Y-70692698D01*
X207215342Y-70137632D01*
X207056377Y-69753857D01*
X206814193Y-69684392D01*
X206013585Y-70485000D01*
X205654375Y-70485000D01*
X205129811Y-69960436D01*
X205020010Y-69694697D01*
X204830432Y-69504787D01*
X205033372Y-69504787D01*
X205833980Y-70305395D01*
X206634588Y-69504787D01*
X206565123Y-69262603D01*
X206041678Y-69075856D01*
X205486612Y-69103638D01*
X205102837Y-69262603D01*
X205033372Y-69504787D01*
X204830432Y-69504787D01*
X204627370Y-69301371D01*
X204114100Y-69088243D01*
X203558339Y-69087758D01*
X203044697Y-69299990D01*
X202651371Y-69692630D01*
X202438243Y-70205900D01*
X202437758Y-70761661D01*
X185511575Y-70761661D01*
X186613636Y-69659600D01*
X186725859Y-69659698D01*
X187146112Y-69486054D01*
X187467923Y-69164803D01*
X187642301Y-68744854D01*
X187642698Y-68290141D01*
X187469054Y-67869888D01*
X187147803Y-67548077D01*
X186727854Y-67373699D01*
X186273141Y-67373302D01*
X185852888Y-67546946D01*
X185531077Y-67868197D01*
X185356699Y-68288146D01*
X185356599Y-68402165D01*
X171043632Y-82715132D01*
X170850921Y-83003544D01*
X170823274Y-83142538D01*
X169157618Y-81476882D01*
X168906902Y-81309359D01*
X168869206Y-81284171D01*
X168529000Y-81216500D01*
X160896236Y-81216500D01*
X158750000Y-79070264D01*
X158750000Y-76187236D01*
X164585618Y-70351618D01*
X164635274Y-70277302D01*
X164778329Y-70063206D01*
X164846000Y-69723000D01*
X164846000Y-67161121D01*
X207308004Y-67161121D01*
X207449472Y-67464310D01*
X208185952Y-67749267D01*
X208975420Y-67730694D01*
X209618528Y-67464310D01*
X209759996Y-67161121D01*
X208534000Y-65935125D01*
X207308004Y-67161121D01*
X164846000Y-67161121D01*
X164846000Y-65407472D01*
X206540253Y-65407472D01*
X206558826Y-66196940D01*
X206825210Y-66840048D01*
X207128399Y-66981516D01*
X208354395Y-65755520D01*
X208713605Y-65755520D01*
X209939601Y-66981516D01*
X210242790Y-66840048D01*
X210527747Y-66103568D01*
X210509174Y-65314100D01*
X210242790Y-64670992D01*
X209939601Y-64529524D01*
X208713605Y-65755520D01*
X208354395Y-65755520D01*
X207128399Y-64529524D01*
X206825210Y-64670992D01*
X206540253Y-65407472D01*
X164846000Y-65407472D01*
X164846000Y-64349919D01*
X207308004Y-64349919D01*
X208534000Y-65575915D01*
X209759996Y-64349919D01*
X209618528Y-64046730D01*
X208882048Y-63761773D01*
X208092580Y-63780346D01*
X207449472Y-64046730D01*
X207308004Y-64349919D01*
X164846000Y-64349919D01*
X164846000Y-61645736D01*
X164960136Y-61531600D01*
X165072359Y-61531698D01*
X165492612Y-61358054D01*
X165814423Y-61036803D01*
X165988801Y-60616854D01*
X165989198Y-60162141D01*
X165815554Y-59741888D01*
X165494303Y-59420077D01*
X165074354Y-59245699D01*
X164619641Y-59245302D01*
X164199388Y-59418946D01*
X163877577Y-59740197D01*
X163703199Y-60160146D01*
X163703099Y-60274165D01*
X163328382Y-60648882D01*
X163135671Y-60937294D01*
X163068000Y-61277500D01*
X163068000Y-69354764D01*
X157232382Y-75190382D01*
X157039671Y-75478794D01*
X156972000Y-75819000D01*
X156972000Y-79438500D01*
X157039671Y-79778706D01*
X157070632Y-79825042D01*
X157232382Y-80067118D01*
X159899382Y-82734118D01*
X160187795Y-82926830D01*
X160528000Y-82994500D01*
X168160764Y-82994500D01*
X171894500Y-86728236D01*
X171894500Y-91198764D01*
X170954764Y-92138500D01*
X156514736Y-92138500D01*
X158229136Y-90424100D01*
X158341359Y-90424198D01*
X158761612Y-90250554D01*
X159083423Y-89929303D01*
X159257801Y-89509354D01*
X159258198Y-89054641D01*
X159084554Y-88634388D01*
X158763303Y-88312577D01*
X158343354Y-88138199D01*
X157888641Y-88137802D01*
X157468388Y-88311446D01*
X157146577Y-88632697D01*
X156972199Y-89052646D01*
X156972099Y-89166665D01*
X154000264Y-92138500D01*
X144513236Y-92138500D01*
X141307438Y-88932702D01*
X141394670Y-88874415D01*
X141601461Y-88564931D01*
X141972964Y-88980732D01*
X142500209Y-89234709D01*
X142515974Y-89237358D01*
X142748000Y-89116217D01*
X142748000Y-87757000D01*
X143002000Y-87757000D01*
X143002000Y-89116217D01*
X143234026Y-89237358D01*
X143249791Y-89234709D01*
X143777036Y-88980732D01*
X144166954Y-88544320D01*
X144360184Y-87991913D01*
X144215924Y-87757000D01*
X143002000Y-87757000D01*
X142748000Y-87757000D01*
X142728000Y-87757000D01*
X142728000Y-87503000D01*
X142748000Y-87503000D01*
X142748000Y-86143783D01*
X143002000Y-86143783D01*
X143002000Y-87503000D01*
X144215924Y-87503000D01*
X144360184Y-87268087D01*
X144166954Y-86715680D01*
X143777036Y-86279268D01*
X143249791Y-86025291D01*
X143234026Y-86022642D01*
X143002000Y-86143783D01*
X142748000Y-86143783D01*
X142515974Y-86022642D01*
X142500209Y-86025291D01*
X141972964Y-86279268D01*
X141601461Y-86695069D01*
X141394670Y-86385585D01*
X140908489Y-86060729D01*
X140335000Y-85946655D01*
X139761511Y-86060729D01*
X139275330Y-86385585D01*
X139065000Y-86700366D01*
X138854670Y-86385585D01*
X138368489Y-86060729D01*
X137795000Y-85946655D01*
X137221511Y-86060729D01*
X136735330Y-86385585D01*
X136525000Y-86700366D01*
X136314670Y-86385585D01*
X135828489Y-86060729D01*
X135255000Y-85946655D01*
X134681511Y-86060729D01*
X134195330Y-86385585D01*
X133985000Y-86700366D01*
X133774670Y-86385585D01*
X133288489Y-86060729D01*
X132715000Y-85946655D01*
X132141511Y-86060729D01*
X131655330Y-86385585D01*
X131445000Y-86700366D01*
X131234670Y-86385585D01*
X130748489Y-86060729D01*
X130175000Y-85946655D01*
X129601511Y-86060729D01*
X129115330Y-86385585D01*
X128905000Y-86700366D01*
X128694670Y-86385585D01*
X128208489Y-86060729D01*
X127635000Y-85946655D01*
X127061511Y-86060729D01*
X126575330Y-86385585D01*
X126365000Y-86700366D01*
X126154670Y-86385585D01*
X125668489Y-86060729D01*
X125095000Y-85946655D01*
X124521511Y-86060729D01*
X124035330Y-86385585D01*
X123825000Y-86700366D01*
X123614670Y-86385585D01*
X123128489Y-86060729D01*
X122555000Y-85946655D01*
X121981511Y-86060729D01*
X121495330Y-86385585D01*
X121285000Y-86700366D01*
X121074670Y-86385585D01*
X120588489Y-86060729D01*
X120015000Y-85946655D01*
X119441511Y-86060729D01*
X118955330Y-86385585D01*
X118745000Y-86700366D01*
X118534670Y-86385585D01*
X118048489Y-86060729D01*
X117475000Y-85946655D01*
X116901511Y-86060729D01*
X116415330Y-86385585D01*
X116208539Y-86695069D01*
X115837036Y-86279268D01*
X115309791Y-86025291D01*
X115294026Y-86022642D01*
X115062000Y-86143783D01*
X115062000Y-87503000D01*
X115082000Y-87503000D01*
X115082000Y-87757000D01*
X115062000Y-87757000D01*
X115062000Y-89116217D01*
X115294026Y-89237358D01*
X115309791Y-89234709D01*
X115837036Y-88980732D01*
X116208539Y-88564931D01*
X116415330Y-88874415D01*
X116901511Y-89199271D01*
X117475000Y-89313345D01*
X118048489Y-89199271D01*
X118534670Y-88874415D01*
X118745000Y-88559634D01*
X118955330Y-88874415D01*
X119441511Y-89199271D01*
X120015000Y-89313345D01*
X120588489Y-89199271D01*
X121074670Y-88874415D01*
X121285000Y-88559634D01*
X121495330Y-88874415D01*
X121981511Y-89199271D01*
X122555000Y-89313345D01*
X123128489Y-89199271D01*
X123614670Y-88874415D01*
X123825000Y-88559634D01*
X124035330Y-88874415D01*
X124521511Y-89199271D01*
X125095000Y-89313345D01*
X125668489Y-89199271D01*
X126154670Y-88874415D01*
X126365000Y-88559634D01*
X126575330Y-88874415D01*
X127061511Y-89199271D01*
X127635000Y-89313345D01*
X128208489Y-89199271D01*
X128694670Y-88874415D01*
X128905000Y-88559634D01*
X129115330Y-88874415D01*
X129601511Y-89199271D01*
X130175000Y-89313345D01*
X130748489Y-89199271D01*
X131234670Y-88874415D01*
X131445000Y-88559634D01*
X131655330Y-88874415D01*
X132141511Y-89199271D01*
X132715000Y-89313345D01*
X133288489Y-89199271D01*
X133774670Y-88874415D01*
X133985000Y-88559634D01*
X134195330Y-88874415D01*
X134681511Y-89199271D01*
X135255000Y-89313345D01*
X135828489Y-89199271D01*
X136314670Y-88874415D01*
X136525000Y-88559634D01*
X136735330Y-88874415D01*
X137221511Y-89199271D01*
X137795000Y-89313345D01*
X138368489Y-89199271D01*
X138854670Y-88874415D01*
X139065000Y-88559634D01*
X139275330Y-88874415D01*
X139400628Y-88958136D01*
X138823764Y-89535000D01*
X109207236Y-89535000D01*
X108443556Y-88771320D01*
X108585000Y-88559634D01*
X108795330Y-88874415D01*
X109281511Y-89199271D01*
X109855000Y-89313345D01*
X110428489Y-89199271D01*
X110914670Y-88874415D01*
X111125000Y-88559634D01*
X111335330Y-88874415D01*
X111821511Y-89199271D01*
X112395000Y-89313345D01*
X112968489Y-89199271D01*
X113454670Y-88874415D01*
X113661461Y-88564931D01*
X114032964Y-88980732D01*
X114560209Y-89234709D01*
X114575974Y-89237358D01*
X114808000Y-89116217D01*
X114808000Y-87757000D01*
X114788000Y-87757000D01*
X114788000Y-87503000D01*
X114808000Y-87503000D01*
X114808000Y-86143783D01*
X114575974Y-86022642D01*
X114560209Y-86025291D01*
X114032964Y-86279268D01*
X113661461Y-86695069D01*
X113454670Y-86385585D01*
X112968489Y-86060729D01*
X112395000Y-85946655D01*
X111821511Y-86060729D01*
X111335330Y-86385585D01*
X111125000Y-86700366D01*
X110914670Y-86385585D01*
X110428489Y-86060729D01*
X109855000Y-85946655D01*
X109281511Y-86060729D01*
X108795330Y-86385585D01*
X108585000Y-86700366D01*
X108374670Y-86385585D01*
X108204000Y-86271547D01*
X108204000Y-81775236D01*
X110223236Y-79756000D01*
X117475000Y-79756000D01*
X117475000Y-83312000D01*
X117542671Y-83652206D01*
X117654788Y-83820000D01*
X117735382Y-83940618D01*
X118243382Y-84448618D01*
X118531794Y-84641329D01*
X118872000Y-84709000D01*
X119778739Y-84709000D01*
X119818238Y-84918917D01*
X119957310Y-85135041D01*
X120169510Y-85280031D01*
X120421400Y-85331040D01*
X122148600Y-85331040D01*
X122383917Y-85286762D01*
X122600041Y-85147690D01*
X122745031Y-84935490D01*
X122753864Y-84891869D01*
X122765330Y-84909029D01*
X123251511Y-85233885D01*
X123825000Y-85347959D01*
X124398489Y-85233885D01*
X124884670Y-84909029D01*
X125095000Y-84594248D01*
X125305330Y-84909029D01*
X125791511Y-85233885D01*
X126365000Y-85347959D01*
X126938489Y-85233885D01*
X127424670Y-84909029D01*
X127749526Y-84422848D01*
X127863600Y-83849359D01*
X127863600Y-83790641D01*
X127749526Y-83217152D01*
X127424670Y-82730971D01*
X127153839Y-82550008D01*
X127571821Y-82168490D01*
X127819968Y-81639027D01*
X127699469Y-81407000D01*
X126492000Y-81407000D01*
X126492000Y-81427000D01*
X126238000Y-81427000D01*
X126238000Y-81407000D01*
X126218000Y-81407000D01*
X126218000Y-81153000D01*
X126238000Y-81153000D01*
X126238000Y-79946183D01*
X126005974Y-79825042D01*
X125855000Y-79887574D01*
X125855000Y-79106236D01*
X126625333Y-79876569D01*
X126492000Y-79946183D01*
X126492000Y-81153000D01*
X127699469Y-81153000D01*
X127819968Y-80920973D01*
X127630703Y-80517145D01*
X127635000Y-80518000D01*
X139446000Y-80518000D01*
X139786206Y-80450329D01*
X140074618Y-80257618D01*
X141344618Y-78987618D01*
X141443916Y-78839008D01*
X141537329Y-78699206D01*
X141605000Y-78359000D01*
X141605000Y-74803000D01*
X141593605Y-74745713D01*
X141537330Y-74462795D01*
X141344618Y-74174382D01*
X141224100Y-74053864D01*
X141224198Y-73941641D01*
X141050554Y-73521388D01*
X140729303Y-73199577D01*
X140309354Y-73025199D01*
X139854641Y-73024802D01*
X139434388Y-73198446D01*
X139112577Y-73519697D01*
X138938199Y-73939646D01*
X138937802Y-74394359D01*
X139111446Y-74814612D01*
X139432697Y-75136423D01*
X139827000Y-75300152D01*
X139827000Y-77990764D01*
X139077764Y-78740000D01*
X128003236Y-78740000D01*
X121920000Y-72656764D01*
X121920000Y-68672588D01*
X121999423Y-68593303D01*
X122173801Y-68173354D01*
X122174198Y-67718641D01*
X122000554Y-67298388D01*
X121679303Y-66976577D01*
X121259354Y-66802199D01*
X120804641Y-66801802D01*
X120384388Y-66975446D01*
X120062577Y-67296697D01*
X119888199Y-67716646D01*
X119887802Y-68171359D01*
X120061446Y-68591612D01*
X120142000Y-68672306D01*
X120142000Y-73025000D01*
X120209671Y-73365206D01*
X120312899Y-73519697D01*
X120402382Y-73653618D01*
X123079974Y-76331210D01*
X122670388Y-76500446D01*
X122348577Y-76821697D01*
X122184848Y-77216000D01*
X120015000Y-77216000D01*
X119674795Y-77283670D01*
X119386382Y-77476382D01*
X117735382Y-79127382D01*
X117542671Y-79415794D01*
X117475000Y-79756000D01*
X110223236Y-79756000D01*
X115690618Y-74288618D01*
X115883329Y-74000206D01*
X115951000Y-73660000D01*
X115951000Y-71488236D01*
X117976618Y-69462618D01*
X118084360Y-69301371D01*
X118169329Y-69174206D01*
X118237000Y-68834000D01*
X118237000Y-64516000D01*
X118169329Y-64175794D01*
X117976618Y-63887382D01*
X116960618Y-62871382D01*
X116672206Y-62678671D01*
X116332000Y-62611000D01*
X116185000Y-62611000D01*
X116185000Y-62515750D01*
X116026250Y-62357000D01*
X114902000Y-62357000D01*
X114902000Y-62377000D01*
X114648000Y-62377000D01*
X114648000Y-62357000D01*
X113523750Y-62357000D01*
X113365000Y-62515750D01*
X113365000Y-62611000D01*
X110220000Y-62611000D01*
X109879794Y-62678671D01*
X109591382Y-62871382D01*
X108330204Y-64132560D01*
X107815000Y-64132560D01*
X107579683Y-64176838D01*
X107363559Y-64315910D01*
X107317031Y-64384006D01*
X107174698Y-64241673D01*
X106941309Y-64145000D01*
X106600750Y-64145000D01*
X106442000Y-64303750D01*
X106442000Y-65278000D01*
X106462000Y-65278000D01*
X106462000Y-65532000D01*
X106442000Y-65532000D01*
X106442000Y-66506250D01*
X106600750Y-66665000D01*
X106941309Y-66665000D01*
X107174698Y-66568327D01*
X107315936Y-66427090D01*
X107350910Y-66481441D01*
X107426000Y-66532748D01*
X107426000Y-68085730D01*
X107363559Y-68125910D01*
X107317031Y-68194006D01*
X107174698Y-68051673D01*
X106941309Y-67955000D01*
X106600750Y-67955000D01*
X106442000Y-68113750D01*
X106442000Y-69088000D01*
X106462000Y-69088000D01*
X106462000Y-69342000D01*
X106442000Y-69342000D01*
X106442000Y-70316250D01*
X106600750Y-70475000D01*
X106941309Y-70475000D01*
X107174698Y-70378327D01*
X107315936Y-70237090D01*
X107350910Y-70291441D01*
X107426000Y-70342748D01*
X107426000Y-70675375D01*
X107342641Y-70675302D01*
X106922388Y-70848946D01*
X106600577Y-71170197D01*
X106426199Y-71590146D01*
X106425802Y-72044859D01*
X106599446Y-72465112D01*
X106920697Y-72786923D01*
X107340646Y-72961301D01*
X107795359Y-72961698D01*
X108215612Y-72788054D01*
X108537423Y-72466803D01*
X108711801Y-72046854D01*
X108711901Y-71932835D01*
X108943618Y-71701118D01*
X109136329Y-71412706D01*
X109204000Y-71072500D01*
X109204000Y-70344270D01*
X109266441Y-70304090D01*
X109411431Y-70091890D01*
X109462440Y-69840000D01*
X109462440Y-68590000D01*
X109418162Y-68354683D01*
X109279090Y-68138559D01*
X109204000Y-68087252D01*
X109204000Y-66534270D01*
X109266441Y-66494090D01*
X109411431Y-66281890D01*
X109462440Y-66030000D01*
X109462440Y-65514796D01*
X110588236Y-64389000D01*
X113368963Y-64389000D01*
X113352560Y-64470000D01*
X113352560Y-65070000D01*
X113396838Y-65305317D01*
X113535910Y-65521441D01*
X113748110Y-65666431D01*
X114000000Y-65717440D01*
X115550000Y-65717440D01*
X115785317Y-65673162D01*
X116001441Y-65534090D01*
X116146431Y-65321890D01*
X116197440Y-65070000D01*
X116197440Y-64622676D01*
X116459000Y-64884236D01*
X116459000Y-68465764D01*
X114433382Y-70491382D01*
X114240671Y-70779794D01*
X114173000Y-71120000D01*
X114173000Y-73291764D01*
X106686382Y-80778382D01*
X106493671Y-81066794D01*
X106426000Y-81407000D01*
X106426000Y-86271547D01*
X106255330Y-86385585D01*
X106240500Y-86407780D01*
X106176927Y-86254302D01*
X105998299Y-86075673D01*
X105764910Y-85979000D01*
X105060750Y-85979000D01*
X104902000Y-86137750D01*
X104902000Y-87503000D01*
X104922000Y-87503000D01*
X104922000Y-87757000D01*
X104902000Y-87757000D01*
X104902000Y-89122250D01*
X105060750Y-89281000D01*
X105764910Y-89281000D01*
X105998299Y-89184327D01*
X106176927Y-89005698D01*
X106240500Y-88852220D01*
X106255330Y-88874415D01*
X106446291Y-89002011D01*
X106493671Y-89240206D01*
X106542541Y-89313345D01*
X106686382Y-89528618D01*
X108210382Y-91052618D01*
X108498794Y-91245329D01*
X108839000Y-91313000D01*
X139192000Y-91313000D01*
X139532206Y-91245329D01*
X139820618Y-91052618D01*
X140366750Y-90506486D01*
X143130264Y-93270000D01*
X101600000Y-93270000D01*
X101328295Y-93324046D01*
X101097954Y-93477954D01*
X100944046Y-93708295D01*
X100890000Y-93980000D01*
X100890000Y-156770000D01*
X75005000Y-156770000D01*
X75005000Y-153950584D01*
X94519293Y-153950584D01*
X94919641Y-154919499D01*
X95660302Y-155661454D01*
X96628517Y-156063492D01*
X97676884Y-156064407D01*
X98645799Y-155664059D01*
X99387754Y-154923398D01*
X99789792Y-153955183D01*
X99790707Y-152906816D01*
X99390359Y-151937901D01*
X98649698Y-151195946D01*
X97681483Y-150793908D01*
X96633116Y-150792993D01*
X95664201Y-151193341D01*
X94922246Y-151934002D01*
X94520208Y-152902217D01*
X94519293Y-153950584D01*
X75005000Y-153950584D01*
X75005000Y-151651834D01*
X77374543Y-151651834D01*
X77774853Y-152620658D01*
X78515443Y-153362542D01*
X79483567Y-153764542D01*
X80531834Y-153765457D01*
X81500658Y-153365147D01*
X82242542Y-152624557D01*
X82644542Y-151656433D01*
X82645457Y-150608166D01*
X82245147Y-149639342D01*
X81504557Y-148897458D01*
X80536433Y-148495458D01*
X79488166Y-148494543D01*
X78519342Y-148894853D01*
X77777458Y-149635443D01*
X77375458Y-150603567D01*
X77374543Y-151651834D01*
X75005000Y-151651834D01*
X75005000Y-97900808D01*
X77160907Y-97900808D01*
X77185217Y-98006252D01*
X77476855Y-98531911D01*
X77947454Y-98905952D01*
X78525370Y-99071430D01*
X79375000Y-99071430D01*
X79375000Y-97663000D01*
X79629000Y-97663000D01*
X79629000Y-99071430D01*
X80478630Y-99071430D01*
X80913594Y-98946884D01*
X94519293Y-98946884D01*
X94919641Y-99915799D01*
X95660302Y-100657754D01*
X96628517Y-101059792D01*
X97676884Y-101060707D01*
X98645799Y-100660359D01*
X99387754Y-99919698D01*
X99789792Y-98951483D01*
X99790707Y-97903116D01*
X99390359Y-96934201D01*
X98649698Y-96192246D01*
X97681483Y-95790208D01*
X96633116Y-95789293D01*
X95664201Y-96189641D01*
X94922246Y-96930302D01*
X94520208Y-97898517D01*
X94519293Y-98946884D01*
X80913594Y-98946884D01*
X81056546Y-98905952D01*
X81527145Y-98531911D01*
X81818783Y-98006252D01*
X81843093Y-97900808D01*
X81722440Y-97663000D01*
X79629000Y-97663000D01*
X79375000Y-97663000D01*
X77281560Y-97663000D01*
X77160907Y-97900808D01*
X75005000Y-97900808D01*
X75005000Y-94996000D01*
X77070214Y-94996000D01*
X77187092Y-95583584D01*
X77519931Y-96081713D01*
X77809842Y-96275425D01*
X77476855Y-96540089D01*
X77185217Y-97065748D01*
X77160907Y-97171192D01*
X77281560Y-97409000D01*
X79375000Y-97409000D01*
X79375000Y-97389000D01*
X79629000Y-97389000D01*
X79629000Y-97409000D01*
X81722440Y-97409000D01*
X81843093Y-97171192D01*
X81818783Y-97065748D01*
X81527145Y-96540089D01*
X81194158Y-96275425D01*
X81484069Y-96081713D01*
X81816908Y-95583584D01*
X81933786Y-94996000D01*
X81816908Y-94408416D01*
X81484069Y-93910287D01*
X80985940Y-93577448D01*
X80398356Y-93460570D01*
X78605644Y-93460570D01*
X78018060Y-93577448D01*
X77519931Y-93910287D01*
X77187092Y-94408416D01*
X77070214Y-94996000D01*
X75005000Y-94996000D01*
X75005000Y-90788808D01*
X77160907Y-90788808D01*
X77185217Y-90894252D01*
X77476855Y-91419911D01*
X77947454Y-91793952D01*
X78525370Y-91959430D01*
X79375000Y-91959430D01*
X79375000Y-90551000D01*
X79629000Y-90551000D01*
X79629000Y-91959430D01*
X80478630Y-91959430D01*
X81056546Y-91793952D01*
X81527145Y-91419911D01*
X81818783Y-90894252D01*
X81843093Y-90788808D01*
X81722440Y-90551000D01*
X79629000Y-90551000D01*
X79375000Y-90551000D01*
X77281560Y-90551000D01*
X77160907Y-90788808D01*
X75005000Y-90788808D01*
X75005000Y-87884000D01*
X77070214Y-87884000D01*
X77187092Y-88471584D01*
X77519931Y-88969713D01*
X77809842Y-89163425D01*
X77476855Y-89428089D01*
X77185217Y-89953748D01*
X77160907Y-90059192D01*
X77281560Y-90297000D01*
X79375000Y-90297000D01*
X79375000Y-90277000D01*
X79629000Y-90277000D01*
X79629000Y-90297000D01*
X81722440Y-90297000D01*
X81843093Y-90059192D01*
X81818783Y-89953748D01*
X81527145Y-89428089D01*
X81194158Y-89163425D01*
X81484069Y-88969713D01*
X81816908Y-88471584D01*
X81927470Y-87915750D01*
X103276400Y-87915750D01*
X103276400Y-88772309D01*
X103373073Y-89005698D01*
X103551701Y-89184327D01*
X103785090Y-89281000D01*
X104489250Y-89281000D01*
X104648000Y-89122250D01*
X104648000Y-87757000D01*
X103435150Y-87757000D01*
X103276400Y-87915750D01*
X81927470Y-87915750D01*
X81933786Y-87884000D01*
X81816908Y-87296416D01*
X81484069Y-86798287D01*
X81019230Y-86487691D01*
X103276400Y-86487691D01*
X103276400Y-87344250D01*
X103435150Y-87503000D01*
X104648000Y-87503000D01*
X104648000Y-86137750D01*
X104489250Y-85979000D01*
X103785090Y-85979000D01*
X103551701Y-86075673D01*
X103373073Y-86254302D01*
X103276400Y-86487691D01*
X81019230Y-86487691D01*
X80985940Y-86465448D01*
X80398356Y-86348570D01*
X78605644Y-86348570D01*
X78018060Y-86465448D01*
X77519931Y-86798287D01*
X77187092Y-87296416D01*
X77070214Y-87884000D01*
X75005000Y-87884000D01*
X75005000Y-83168808D01*
X77160907Y-83168808D01*
X77185217Y-83274252D01*
X77476855Y-83799911D01*
X77947454Y-84173952D01*
X78525370Y-84339430D01*
X79375000Y-84339430D01*
X79375000Y-82931000D01*
X79629000Y-82931000D01*
X79629000Y-84339430D01*
X80478630Y-84339430D01*
X81056546Y-84173952D01*
X81527145Y-83799911D01*
X81818783Y-83274252D01*
X81843093Y-83168808D01*
X81722440Y-82931000D01*
X79629000Y-82931000D01*
X79375000Y-82931000D01*
X77281560Y-82931000D01*
X77160907Y-83168808D01*
X75005000Y-83168808D01*
X75005000Y-80264000D01*
X77070214Y-80264000D01*
X77187092Y-80851584D01*
X77519931Y-81349713D01*
X77809842Y-81543425D01*
X77476855Y-81808089D01*
X77185217Y-82333748D01*
X77160907Y-82439192D01*
X77281560Y-82677000D01*
X79375000Y-82677000D01*
X79375000Y-82657000D01*
X79629000Y-82657000D01*
X79629000Y-82677000D01*
X81722440Y-82677000D01*
X81843093Y-82439192D01*
X81818783Y-82333748D01*
X81527145Y-81808089D01*
X81194158Y-81543425D01*
X81484069Y-81349713D01*
X81816908Y-80851584D01*
X81933786Y-80264000D01*
X81816908Y-79676416D01*
X81484069Y-79178287D01*
X80985940Y-78845448D01*
X80398356Y-78728570D01*
X78605644Y-78728570D01*
X78018060Y-78845448D01*
X77519931Y-79178287D01*
X77187092Y-79676416D01*
X77070214Y-80264000D01*
X75005000Y-80264000D01*
X75005000Y-71120000D01*
X77070214Y-71120000D01*
X77187092Y-71707584D01*
X77519931Y-72205713D01*
X77795736Y-72390000D01*
X77519931Y-72574287D01*
X77187092Y-73072416D01*
X77070214Y-73660000D01*
X77187092Y-74247584D01*
X77519931Y-74745713D01*
X78018060Y-75078552D01*
X78605644Y-75195430D01*
X80398356Y-75195430D01*
X80985940Y-75078552D01*
X81484069Y-74745713D01*
X81816908Y-74247584D01*
X81933786Y-73660000D01*
X81816908Y-73072416D01*
X81484069Y-72574287D01*
X81208264Y-72390000D01*
X81484069Y-72205713D01*
X81816908Y-71707584D01*
X81933786Y-71120000D01*
X81816908Y-70532416D01*
X81484069Y-70034287D01*
X80985940Y-69701448D01*
X80398356Y-69584570D01*
X78605644Y-69584570D01*
X78018060Y-69701448D01*
X77519931Y-70034287D01*
X77187092Y-70532416D01*
X77070214Y-71120000D01*
X75005000Y-71120000D01*
X75005000Y-69500750D01*
X105180000Y-69500750D01*
X105180000Y-69966310D01*
X105276673Y-70199699D01*
X105455302Y-70378327D01*
X105688691Y-70475000D01*
X106029250Y-70475000D01*
X106188000Y-70316250D01*
X106188000Y-69342000D01*
X105338750Y-69342000D01*
X105180000Y-69500750D01*
X75005000Y-69500750D01*
X75005000Y-67310000D01*
X77070214Y-67310000D01*
X77187092Y-67897584D01*
X77519931Y-68395713D01*
X78018060Y-68728552D01*
X78605644Y-68845430D01*
X80398356Y-68845430D01*
X80985940Y-68728552D01*
X81382334Y-68463690D01*
X105180000Y-68463690D01*
X105180000Y-68929250D01*
X105338750Y-69088000D01*
X106188000Y-69088000D01*
X106188000Y-68113750D01*
X106029250Y-67955000D01*
X105688691Y-67955000D01*
X105455302Y-68051673D01*
X105276673Y-68230301D01*
X105180000Y-68463690D01*
X81382334Y-68463690D01*
X81484069Y-68395713D01*
X81816908Y-67897584D01*
X81933786Y-67310000D01*
X81816908Y-66722416D01*
X81645703Y-66466188D01*
X86875417Y-66466188D01*
X86937071Y-66701800D01*
X87437480Y-66877927D01*
X87967199Y-66849148D01*
X88322929Y-66701800D01*
X88384583Y-66466188D01*
X94495417Y-66466188D01*
X94557071Y-66701800D01*
X95057480Y-66877927D01*
X95587199Y-66849148D01*
X95942929Y-66701800D01*
X96004583Y-66466188D01*
X95250000Y-65711605D01*
X94495417Y-66466188D01*
X88384583Y-66466188D01*
X87630000Y-65711605D01*
X86875417Y-66466188D01*
X81645703Y-66466188D01*
X81484069Y-66224287D01*
X81194158Y-66030575D01*
X81527145Y-65765911D01*
X81763730Y-65339480D01*
X86284073Y-65339480D01*
X86312852Y-65869199D01*
X86460200Y-66224929D01*
X86695812Y-66286583D01*
X87450395Y-65532000D01*
X87809605Y-65532000D01*
X88564188Y-66286583D01*
X88799800Y-66224929D01*
X88975927Y-65724520D01*
X88955009Y-65339480D01*
X93904073Y-65339480D01*
X93932852Y-65869199D01*
X94080200Y-66224929D01*
X94315812Y-66286583D01*
X95070395Y-65532000D01*
X95429605Y-65532000D01*
X96184188Y-66286583D01*
X96419800Y-66224929D01*
X96595927Y-65724520D01*
X96594093Y-65690750D01*
X105180000Y-65690750D01*
X105180000Y-66156310D01*
X105276673Y-66389699D01*
X105455302Y-66568327D01*
X105688691Y-66665000D01*
X106029250Y-66665000D01*
X106188000Y-66506250D01*
X106188000Y-65532000D01*
X105338750Y-65532000D01*
X105180000Y-65690750D01*
X96594093Y-65690750D01*
X96567148Y-65194801D01*
X96419800Y-64839071D01*
X96184188Y-64777417D01*
X95429605Y-65532000D01*
X95070395Y-65532000D01*
X94315812Y-64777417D01*
X94080200Y-64839071D01*
X93904073Y-65339480D01*
X88955009Y-65339480D01*
X88947148Y-65194801D01*
X88799800Y-64839071D01*
X88564188Y-64777417D01*
X87809605Y-65532000D01*
X87450395Y-65532000D01*
X86695812Y-64777417D01*
X86460200Y-64839071D01*
X86284073Y-65339480D01*
X81763730Y-65339480D01*
X81818783Y-65240252D01*
X81843093Y-65134808D01*
X81722440Y-64897000D01*
X79629000Y-64897000D01*
X79629000Y-64917000D01*
X79375000Y-64917000D01*
X79375000Y-64897000D01*
X77281560Y-64897000D01*
X77160907Y-65134808D01*
X77185217Y-65240252D01*
X77476855Y-65765911D01*
X77809842Y-66030575D01*
X77519931Y-66224287D01*
X77187092Y-66722416D01*
X77070214Y-67310000D01*
X75005000Y-67310000D01*
X75005000Y-64405192D01*
X77160907Y-64405192D01*
X77281560Y-64643000D01*
X79375000Y-64643000D01*
X79375000Y-63234570D01*
X79629000Y-63234570D01*
X79629000Y-64643000D01*
X81722440Y-64643000D01*
X81745366Y-64597812D01*
X86875417Y-64597812D01*
X87630000Y-65352395D01*
X88384583Y-64597812D01*
X94495417Y-64597812D01*
X95250000Y-65352395D01*
X95948705Y-64653690D01*
X105180000Y-64653690D01*
X105180000Y-65119250D01*
X105338750Y-65278000D01*
X106188000Y-65278000D01*
X106188000Y-64303750D01*
X106029250Y-64145000D01*
X105688691Y-64145000D01*
X105455302Y-64241673D01*
X105276673Y-64420301D01*
X105180000Y-64653690D01*
X95948705Y-64653690D01*
X96004583Y-64597812D01*
X95942929Y-64362200D01*
X95442520Y-64186073D01*
X94912801Y-64214852D01*
X94557071Y-64362200D01*
X94495417Y-64597812D01*
X88384583Y-64597812D01*
X88322929Y-64362200D01*
X87822520Y-64186073D01*
X87292801Y-64214852D01*
X86937071Y-64362200D01*
X86875417Y-64597812D01*
X81745366Y-64597812D01*
X81843093Y-64405192D01*
X81818783Y-64299748D01*
X81527145Y-63774089D01*
X81056546Y-63400048D01*
X80478630Y-63234570D01*
X79629000Y-63234570D01*
X79375000Y-63234570D01*
X78525370Y-63234570D01*
X77947454Y-63400048D01*
X77476855Y-63774089D01*
X77185217Y-64299748D01*
X77160907Y-64405192D01*
X75005000Y-64405192D01*
X75005000Y-62245750D01*
X99070000Y-62245750D01*
X99070000Y-62586309D01*
X99166673Y-62819698D01*
X99345301Y-62998327D01*
X99578690Y-63095000D01*
X100044250Y-63095000D01*
X100203000Y-62936250D01*
X100203000Y-62087000D01*
X100457000Y-62087000D01*
X100457000Y-62936250D01*
X100615750Y-63095000D01*
X101081310Y-63095000D01*
X101314699Y-62998327D01*
X101493327Y-62819698D01*
X101590000Y-62586309D01*
X101590000Y-62245750D01*
X101540000Y-62195750D01*
X104125000Y-62195750D01*
X104125000Y-62386309D01*
X104221673Y-62619698D01*
X104400301Y-62798327D01*
X104633690Y-62895000D01*
X105124250Y-62895000D01*
X105283000Y-62736250D01*
X105283000Y-62037000D01*
X105537000Y-62037000D01*
X105537000Y-62736250D01*
X105695750Y-62895000D01*
X106186310Y-62895000D01*
X106419699Y-62798327D01*
X106598327Y-62619698D01*
X106695000Y-62386309D01*
X106695000Y-62195750D01*
X106536250Y-62037000D01*
X105537000Y-62037000D01*
X105283000Y-62037000D01*
X104283750Y-62037000D01*
X104125000Y-62195750D01*
X101540000Y-62195750D01*
X101431250Y-62087000D01*
X100457000Y-62087000D01*
X100203000Y-62087000D01*
X99228750Y-62087000D01*
X99070000Y-62245750D01*
X75005000Y-62245750D01*
X75005000Y-60716086D01*
X86296269Y-60716086D01*
X86498854Y-61206380D01*
X86873647Y-61581827D01*
X87363587Y-61785268D01*
X87894086Y-61785731D01*
X88384380Y-61583146D01*
X88759827Y-61208353D01*
X88963268Y-60718413D01*
X88963270Y-60716086D01*
X93916269Y-60716086D01*
X94118854Y-61206380D01*
X94493647Y-61581827D01*
X94983587Y-61785268D01*
X95514086Y-61785731D01*
X96004380Y-61583146D01*
X96379827Y-61208353D01*
X96583268Y-60718413D01*
X96583731Y-60187914D01*
X96381146Y-59697620D01*
X96143940Y-59460000D01*
X99057560Y-59460000D01*
X99057560Y-60460000D01*
X99101838Y-60695317D01*
X99240910Y-60911441D01*
X99309006Y-60957969D01*
X99166673Y-61100302D01*
X99070000Y-61333691D01*
X99070000Y-61674250D01*
X99228750Y-61833000D01*
X100203000Y-61833000D01*
X100203000Y-61813000D01*
X100457000Y-61813000D01*
X100457000Y-61833000D01*
X101431250Y-61833000D01*
X101590000Y-61674250D01*
X101590000Y-61333691D01*
X101493327Y-61100302D01*
X101352090Y-60959064D01*
X101406441Y-60924090D01*
X101457748Y-60849000D01*
X104350879Y-60849000D01*
X104508110Y-60956431D01*
X104541490Y-60963191D01*
X104400301Y-61021673D01*
X104221673Y-61200302D01*
X104125000Y-61433691D01*
X104125000Y-61624250D01*
X104283750Y-61783000D01*
X105283000Y-61783000D01*
X105283000Y-61763000D01*
X105537000Y-61763000D01*
X105537000Y-61783000D01*
X106536250Y-61783000D01*
X106695000Y-61624250D01*
X106695000Y-61433691D01*
X106598327Y-61200302D01*
X106419699Y-61021673D01*
X106283713Y-60965346D01*
X106295317Y-60963162D01*
X106395028Y-60899000D01*
X112981764Y-60899000D01*
X113354830Y-61272066D01*
X113396838Y-61495317D01*
X113455178Y-61585980D01*
X113365000Y-61803690D01*
X113365000Y-61944250D01*
X113523750Y-62103000D01*
X114648000Y-62103000D01*
X114648000Y-62083000D01*
X114902000Y-62083000D01*
X114902000Y-62103000D01*
X116026250Y-62103000D01*
X116185000Y-61944250D01*
X116185000Y-61803690D01*
X116095194Y-61586878D01*
X116146431Y-61511890D01*
X116197440Y-61260000D01*
X116197440Y-60794796D01*
X116332236Y-60660000D01*
X118752560Y-60660000D01*
X118752560Y-61260000D01*
X118796838Y-61495317D01*
X118860678Y-61594528D01*
X118803569Y-61678110D01*
X118752560Y-61930000D01*
X118752560Y-62530000D01*
X118796838Y-62765317D01*
X118860678Y-62864528D01*
X118803569Y-62948110D01*
X118752560Y-63200000D01*
X118752560Y-63800000D01*
X118796838Y-64035317D01*
X118860678Y-64134528D01*
X118803569Y-64218110D01*
X118752560Y-64470000D01*
X118752560Y-65070000D01*
X118796838Y-65305317D01*
X118935910Y-65521441D01*
X119148110Y-65666431D01*
X119400000Y-65717440D01*
X120950000Y-65717440D01*
X121185317Y-65673162D01*
X121401441Y-65534090D01*
X121546431Y-65321890D01*
X121597440Y-65070000D01*
X121597440Y-64470000D01*
X121553162Y-64234683D01*
X121489322Y-64135472D01*
X121546431Y-64051890D01*
X121597440Y-63800000D01*
X121597440Y-63200000D01*
X121553162Y-62964683D01*
X121489322Y-62865472D01*
X121546431Y-62781890D01*
X121597440Y-62530000D01*
X121597440Y-61930000D01*
X121553162Y-61694683D01*
X121489322Y-61595472D01*
X121546431Y-61511890D01*
X121597440Y-61260000D01*
X121597440Y-60660000D01*
X121553162Y-60424683D01*
X121414090Y-60208559D01*
X121201890Y-60063569D01*
X120950000Y-60012560D01*
X119400000Y-60012560D01*
X119164683Y-60056838D01*
X118948559Y-60195910D01*
X118803569Y-60408110D01*
X118752560Y-60660000D01*
X116332236Y-60660000D01*
X117175236Y-59817000D01*
X124599764Y-59817000D01*
X128911382Y-64128618D01*
X129199794Y-64321329D01*
X129540000Y-64389000D01*
X133984889Y-64389000D01*
X133984802Y-64488359D01*
X134158446Y-64908612D01*
X134479697Y-65230423D01*
X134899646Y-65404801D01*
X135354359Y-65405198D01*
X135774612Y-65231554D01*
X136096423Y-64910303D01*
X136270801Y-64490354D01*
X136271198Y-64035641D01*
X136097554Y-63615388D01*
X135776303Y-63293577D01*
X135356354Y-63119199D01*
X135242335Y-63119099D01*
X134994618Y-62871382D01*
X134706206Y-62678671D01*
X134366000Y-62611000D01*
X129908236Y-62611000D01*
X125596618Y-58299382D01*
X125308206Y-58106671D01*
X124968000Y-58039000D01*
X116807000Y-58039000D01*
X116466794Y-58106671D01*
X116178382Y-58299382D01*
X114537500Y-59940264D01*
X113978618Y-59381382D01*
X113903788Y-59331382D01*
X113690206Y-59188671D01*
X113350000Y-59121000D01*
X106395943Y-59121000D01*
X106311890Y-59063569D01*
X106060000Y-59012560D01*
X104760000Y-59012560D01*
X104524683Y-59056838D01*
X104502675Y-59071000D01*
X101459270Y-59071000D01*
X101419090Y-59008559D01*
X101206890Y-58863569D01*
X100955000Y-58812560D01*
X99705000Y-58812560D01*
X99469683Y-58856838D01*
X99253559Y-58995910D01*
X99108569Y-59208110D01*
X99057560Y-59460000D01*
X96143940Y-59460000D01*
X96006353Y-59322173D01*
X95516413Y-59118732D01*
X94985914Y-59118269D01*
X94495620Y-59320854D01*
X94120173Y-59695647D01*
X93916732Y-60185587D01*
X93916269Y-60716086D01*
X88963270Y-60716086D01*
X88963731Y-60187914D01*
X88761146Y-59697620D01*
X88386353Y-59322173D01*
X87896413Y-59118732D01*
X87365914Y-59118269D01*
X86875620Y-59320854D01*
X86500173Y-59695647D01*
X86296732Y-60185587D01*
X86296269Y-60716086D01*
X75005000Y-60716086D01*
X75005000Y-56401834D01*
X77374543Y-56401834D01*
X77774853Y-57370658D01*
X78515443Y-58112542D01*
X79483567Y-58514542D01*
X80531834Y-58515457D01*
X81500658Y-58115147D01*
X82242542Y-57374557D01*
X82644542Y-56406433D01*
X82645432Y-55385834D01*
X204120543Y-55385834D01*
X204520853Y-56354658D01*
X205261443Y-57096542D01*
X206229567Y-57498542D01*
X207277834Y-57499457D01*
X208246658Y-57099147D01*
X208988542Y-56358557D01*
X209390542Y-55390433D01*
X209391457Y-54342166D01*
X208991147Y-53373342D01*
X208250557Y-52631458D01*
X207282433Y-52229458D01*
X206234166Y-52228543D01*
X205265342Y-52628853D01*
X204523458Y-53369443D01*
X204121458Y-54337567D01*
X204120543Y-55385834D01*
X82645432Y-55385834D01*
X82645457Y-55358166D01*
X82245147Y-54389342D01*
X81504557Y-53647458D01*
X80536433Y-53245458D01*
X79488166Y-53244543D01*
X78519342Y-53644853D01*
X77777458Y-54385443D01*
X77375458Y-55353567D01*
X77374543Y-56401834D01*
X75005000Y-56401834D01*
X75005000Y-50875000D01*
X213285000Y-50875000D01*
X213285000Y-156770000D01*
M02*
