G04 #@! TF.FileFunction,Soldermask,Top*
%FSLAX46Y46*%
G04 Gerber Fmt 4.6, Leading zero omitted, Abs format (unit mm)*
G04 Created by KiCad (PCBNEW 4.0.1-stable) date Tuesday, March 29, 2016 'AMt' 01:29:57 AM*
%MOMM*%
G01*
G04 APERTURE LIST*
%ADD10C,0.100000*%
%ADD11R,1.650000X1.400000*%
%ADD12R,1.400000X1.650000*%
%ADD13R,1.598880X1.598880*%
%ADD14R,3.000000X3.600000*%
%ADD15R,0.950000X2.000000*%
%ADD16R,2.000000X0.950000*%
%ADD17O,3.900120X2.200860*%
%ADD18C,1.924000*%
%ADD19C,3.100020*%
%ADD20R,1.200100X1.200100*%
%ADD21R,1.100000X1.700000*%
%ADD22R,1.700000X1.100000*%
%ADD23R,3.600000X3.600000*%
%ADD24R,0.850000X2.150000*%
%ADD25R,1.950000X1.000000*%
%ADD26R,1.799540X2.200860*%
%ADD27R,2.200000X2.630000*%
%ADD28O,2.127200X2.432000*%
%ADD29R,2.127200X2.432000*%
%ADD30R,2.127200X2.127200*%
%ADD31O,2.127200X2.127200*%
%ADD32R,1.600000X1.600000*%
%ADD33R,2.000000X1.900000*%
%ADD34C,1.797000*%
%ADD35R,1.700000X1.900000*%
%ADD36R,1.700000X1.700000*%
G04 APERTURE END LIST*
D10*
D11*
X102235000Y-72120000D03*
X102235000Y-70120000D03*
D12*
X172577000Y-65151000D03*
X170577000Y-65151000D03*
X159972500Y-52578000D03*
X161972500Y-52578000D03*
X172450000Y-67564000D03*
X170450000Y-67564000D03*
D11*
X160655000Y-65770000D03*
X160655000Y-63770000D03*
X155575000Y-68215000D03*
X155575000Y-70215000D03*
D12*
X153400000Y-52705000D03*
X151400000Y-52705000D03*
X155210000Y-63500000D03*
X157210000Y-63500000D03*
X129270000Y-57150000D03*
X127270000Y-57150000D03*
X130540000Y-59690000D03*
X128540000Y-59690000D03*
D11*
X203835000Y-106124500D03*
X203835000Y-108124500D03*
X206375000Y-98790000D03*
X206375000Y-96790000D03*
D13*
X194022980Y-62992000D03*
X196121020Y-62992000D03*
X194149980Y-59563000D03*
X196248020Y-59563000D03*
D14*
X139275000Y-57785000D03*
X146475000Y-57785000D03*
D15*
X134118000Y-69410000D03*
X133318000Y-69410000D03*
X132518000Y-69410000D03*
X131718000Y-69410000D03*
X130918000Y-69410000D03*
X130118000Y-69410000D03*
X129318000Y-69410000D03*
X128518000Y-69410000D03*
D16*
X127068000Y-70860000D03*
X127068000Y-71660000D03*
X127068000Y-72460000D03*
X127068000Y-73260000D03*
X127068000Y-74060000D03*
X127068000Y-74860000D03*
X127068000Y-75660000D03*
X127068000Y-76460000D03*
D15*
X128518000Y-77910000D03*
X129318000Y-77910000D03*
X130118000Y-77910000D03*
X130918000Y-77910000D03*
X131718000Y-77910000D03*
X132518000Y-77910000D03*
X133318000Y-77910000D03*
X134118000Y-77910000D03*
D16*
X135568000Y-76460000D03*
X135568000Y-75660000D03*
X135568000Y-74860000D03*
X135568000Y-74060000D03*
X135568000Y-73260000D03*
X135568000Y-72460000D03*
X135568000Y-71660000D03*
X135568000Y-70860000D03*
D12*
X195850000Y-69850000D03*
X197850000Y-69850000D03*
D11*
X151130000Y-54880000D03*
X151130000Y-56880000D03*
D17*
X79502000Y-64770000D03*
X79502000Y-67310000D03*
D18*
X203835000Y-73025000D03*
X203835000Y-70485000D03*
X205833980Y-70485000D03*
X205833980Y-73025000D03*
D19*
X208534000Y-77754480D03*
X208534000Y-65755520D03*
D17*
X79502000Y-94996000D03*
X79502000Y-97536000D03*
X79502000Y-80264000D03*
X79502000Y-82804000D03*
X79502000Y-87884000D03*
X79502000Y-90424000D03*
D20*
X88630760Y-91755000D03*
X88630760Y-89855000D03*
X86631780Y-90805000D03*
X88630760Y-76515000D03*
X88630760Y-74615000D03*
X86631780Y-75565000D03*
X88630760Y-83500000D03*
X88630760Y-81600000D03*
X86631780Y-82550000D03*
D21*
X191577000Y-62992000D03*
X189677000Y-62992000D03*
X191577000Y-59563000D03*
X189677000Y-59563000D03*
X155768000Y-72898000D03*
X157668000Y-72898000D03*
D22*
X165989000Y-58671500D03*
X165989000Y-56771500D03*
X169799000Y-60640000D03*
X169799000Y-58740000D03*
D21*
X139385000Y-67310000D03*
X141285000Y-67310000D03*
X148905000Y-78105000D03*
X147005000Y-78105000D03*
X147635000Y-74930000D03*
X145735000Y-74930000D03*
D22*
X102235000Y-66355000D03*
X102235000Y-64455000D03*
D21*
X198821000Y-103759000D03*
X200721000Y-103759000D03*
X201102000Y-107315000D03*
X199202000Y-107315000D03*
X206695000Y-107315000D03*
X208595000Y-107315000D03*
D22*
X97663000Y-74488000D03*
X97663000Y-76388000D03*
X97028000Y-91882000D03*
X97028000Y-89982000D03*
X97282000Y-81600000D03*
X97282000Y-83500000D03*
D21*
X206695000Y-102235000D03*
X208595000Y-102235000D03*
D22*
X92837000Y-89855000D03*
X92837000Y-91755000D03*
X93345000Y-76515000D03*
X93345000Y-74615000D03*
X92837000Y-83500000D03*
X92837000Y-81600000D03*
D18*
X206335000Y-110610000D03*
X203835000Y-110610000D03*
X201335000Y-110610000D03*
X201335000Y-125110000D03*
X206335000Y-125110000D03*
D23*
X209535000Y-118110000D03*
X198135000Y-118110000D03*
D17*
X79502000Y-71120000D03*
X79502000Y-73660000D03*
D24*
X160240000Y-82975000D03*
X160890000Y-82975000D03*
X161540000Y-82975000D03*
X162190000Y-82975000D03*
X162840000Y-82975000D03*
X163490000Y-82975000D03*
X164140000Y-82975000D03*
X164790000Y-82975000D03*
X165440000Y-82975000D03*
X166090000Y-82975000D03*
X166740000Y-82975000D03*
X167390000Y-82975000D03*
X168040000Y-82975000D03*
X168690000Y-82975000D03*
X168690000Y-75775000D03*
X168040000Y-75775000D03*
X167390000Y-75775000D03*
X166740000Y-75775000D03*
X166090000Y-75775000D03*
X165440000Y-75775000D03*
X164790000Y-75775000D03*
X164140000Y-75775000D03*
X163490000Y-75775000D03*
X162840000Y-75775000D03*
X162190000Y-75775000D03*
X161540000Y-75775000D03*
X160890000Y-75775000D03*
X160240000Y-75775000D03*
D25*
X156685000Y-55245000D03*
X156685000Y-56515000D03*
X156685000Y-57785000D03*
X156685000Y-59055000D03*
X162085000Y-59055000D03*
X162085000Y-57785000D03*
X162085000Y-56515000D03*
X162085000Y-55245000D03*
D26*
X135818880Y-59984640D03*
X135818880Y-55585360D03*
X133421120Y-55585360D03*
X133421120Y-59984640D03*
D27*
X164020000Y-88265000D03*
X161100000Y-88265000D03*
D11*
X167640000Y-69707000D03*
X167640000Y-67707000D03*
D28*
X142875000Y-87630000D03*
X140335000Y-87630000D03*
X137795000Y-87630000D03*
X135255000Y-87630000D03*
X132715000Y-87630000D03*
X130175000Y-87630000D03*
X127635000Y-87630000D03*
X125095000Y-87630000D03*
X122555000Y-87630000D03*
X120015000Y-87630000D03*
X117475000Y-87630000D03*
X114935000Y-87630000D03*
X112395000Y-87630000D03*
X109855000Y-87630000D03*
X107315000Y-87630000D03*
D29*
X104775000Y-87630000D03*
D30*
X121285000Y-83820000D03*
D31*
X121285000Y-81280000D03*
X123825000Y-83820000D03*
X123825000Y-81280000D03*
X126365000Y-83820000D03*
X126365000Y-81280000D03*
D32*
X110982000Y-80442000D03*
X108982000Y-80442000D03*
D33*
X109982000Y-83692000D03*
D22*
X195580000Y-126045000D03*
X195580000Y-124145000D03*
D34*
X95250000Y-60452000D03*
X95250000Y-65532000D03*
X87630000Y-60452000D03*
X87630000Y-65532000D03*
D35*
X146355000Y-65060000D03*
X146355000Y-69560000D03*
D36*
X149855000Y-64960000D03*
M02*
