%FSLAX45Y45*%
G04 Gerber Fmt 4.5, Leading zero omitted, Abs format (unit mm)*
G04 Created by KiCad (PCBNEW 4.0.1-stable) date Tuesday, March 29, 2016 'AMt' 01:29:09 AM*
%MOMM*%
G01*
G04 APERTURE LIST*
%ADD10C,0.127000*%
%ADD11C,0.150000*%
%ADD12C,0.200000*%
%ADD13C,0.300000*%
G04 APERTURE END LIST*
D10*
D11*
X21399500Y-15748000D02*
X18669000Y-15748000D01*
X21399500Y-12827000D02*
X21399500Y-15748000D01*
X18669000Y-15684500D02*
X18669000Y-15748000D01*
X18669000Y-12827000D02*
X18669000Y-15684500D01*
X7429500Y-12827000D02*
X7429500Y-15748000D01*
X10160000Y-12827000D02*
X10160000Y-15748000D01*
X7429500Y-12827000D02*
X7429500Y-12509500D01*
X10160000Y-15748000D02*
X7429500Y-15748000D01*
X10160000Y-12509500D02*
X10160000Y-12827000D01*
X7429500Y-5016500D02*
X7429500Y-12509500D01*
X21399500Y-5016500D02*
X7429500Y-5016500D01*
X21399500Y-5143500D02*
X21399500Y-5016500D01*
X21399500Y-12827000D02*
X21399500Y-5143500D01*
X18669000Y-9398000D02*
X18669000Y-12827000D01*
X10160000Y-9398000D02*
X18669000Y-9398000D01*
X10160000Y-12509500D02*
X10160000Y-9398000D01*
D12*
X10718800Y-7143750D02*
X10795000Y-7219950D01*
X10795000Y-7143750D02*
X10718800Y-7219950D01*
X12065000Y-6756400D02*
X12141200Y-6832600D01*
X12141200Y-6756400D02*
X12065000Y-6832600D01*
X12293600Y-7708900D02*
X12369800Y-7785100D01*
X12369800Y-7708900D02*
X12293600Y-7785100D01*
X13474700Y-6388100D02*
X13550900Y-6464300D01*
X13550900Y-6388100D02*
X13474700Y-6464300D01*
X13970000Y-7378700D02*
X14046200Y-7454900D01*
X14046200Y-7378700D02*
X13970000Y-7454900D01*
X15773400Y-8890000D02*
X15849600Y-8966200D01*
X15849600Y-8890000D02*
X15773400Y-8966200D01*
X16446500Y-6000750D02*
X16522700Y-6076950D01*
X16522700Y-6000750D02*
X16446500Y-6076950D01*
X16770350Y-6438900D02*
X16846550Y-6515100D01*
X16846550Y-6438900D02*
X16770350Y-6515100D01*
X16776700Y-8667750D02*
X16852900Y-8743950D01*
X16852900Y-8667750D02*
X16776700Y-8743950D01*
X18611850Y-6813550D02*
X18688050Y-6889750D01*
X18688050Y-6813550D02*
X18611850Y-6889750D01*
X20332700Y-10179050D02*
X20408900Y-10255250D01*
X20408900Y-10179050D02*
X20332700Y-10255250D01*
X8803640Y-6045200D02*
G75*
G03X8803640Y-6045200I-40640J0D01*
G01*
X8803640Y-6553200D02*
G75*
G03X8803640Y-6553200I-40640J0D01*
G01*
X9565640Y-6045200D02*
G75*
G03X9565640Y-6045200I-40640J0D01*
G01*
X9565640Y-6553200D02*
G75*
G03X9565640Y-6553200I-40640J0D01*
G01*
X20424140Y-7048500D02*
G75*
G03X20424140Y-7048500I-40640J0D01*
G01*
X20424140Y-7302500D02*
G75*
G03X20424140Y-7302500I-40640J0D01*
G01*
X20624038Y-7048500D02*
G75*
G03X20624038Y-7048500I-40640J0D01*
G01*
X20624038Y-7302500D02*
G75*
G03X20624038Y-7302500I-40640J0D01*
G01*
X10477500Y-8712200D02*
X10477500Y-8813800D01*
X10426700Y-8763000D02*
X10528300Y-8763000D01*
X10477500Y-9791700D02*
X10477500Y-9893300D01*
X10426700Y-9842500D02*
X10528300Y-9842500D01*
X10731500Y-8712200D02*
X10731500Y-8813800D01*
X10680700Y-8763000D02*
X10782300Y-8763000D01*
X10731500Y-9791700D02*
X10731500Y-9893300D01*
X10680700Y-9842500D02*
X10782300Y-9842500D01*
X10985500Y-8712200D02*
X10985500Y-8813800D01*
X10934700Y-8763000D02*
X11036300Y-8763000D01*
X10985500Y-9791700D02*
X10985500Y-9893300D01*
X10934700Y-9842500D02*
X11036300Y-9842500D01*
X11239500Y-8712200D02*
X11239500Y-8813800D01*
X11188700Y-8763000D02*
X11290300Y-8763000D01*
X11239500Y-9791700D02*
X11239500Y-9893300D01*
X11188700Y-9842500D02*
X11290300Y-9842500D01*
X11493500Y-8712200D02*
X11493500Y-8813800D01*
X11442700Y-8763000D02*
X11544300Y-8763000D01*
X11493500Y-9791700D02*
X11493500Y-9893300D01*
X11442700Y-9842500D02*
X11544300Y-9842500D01*
X11747500Y-8712200D02*
X11747500Y-8813800D01*
X11696700Y-8763000D02*
X11798300Y-8763000D01*
X11747500Y-9791700D02*
X11747500Y-9893300D01*
X11696700Y-9842500D02*
X11798300Y-9842500D01*
X12001500Y-8712200D02*
X12001500Y-8813800D01*
X11950700Y-8763000D02*
X12052300Y-8763000D01*
X12001500Y-9791700D02*
X12001500Y-9893300D01*
X11950700Y-9842500D02*
X12052300Y-9842500D01*
X12128500Y-8077200D02*
X12128500Y-8178800D01*
X12077700Y-8128000D02*
X12179300Y-8128000D01*
X12128500Y-8331200D02*
X12128500Y-8432800D01*
X12077700Y-8382000D02*
X12179300Y-8382000D01*
X12255500Y-8712200D02*
X12255500Y-8813800D01*
X12204700Y-8763000D02*
X12306300Y-8763000D01*
X12255500Y-9791700D02*
X12255500Y-9893300D01*
X12204700Y-9842500D02*
X12306300Y-9842500D01*
X12382500Y-8077200D02*
X12382500Y-8178800D01*
X12331700Y-8128000D02*
X12433300Y-8128000D01*
X12382500Y-8331200D02*
X12382500Y-8432800D01*
X12331700Y-8382000D02*
X12433300Y-8382000D01*
X12509500Y-8712200D02*
X12509500Y-8813800D01*
X12458700Y-8763000D02*
X12560300Y-8763000D01*
X12509500Y-9791700D02*
X12509500Y-9893300D01*
X12458700Y-9842500D02*
X12560300Y-9842500D01*
X12636500Y-8077200D02*
X12636500Y-8178800D01*
X12585700Y-8128000D02*
X12687300Y-8128000D01*
X12636500Y-8331200D02*
X12636500Y-8432800D01*
X12585700Y-8382000D02*
X12687300Y-8382000D01*
X12763500Y-8712200D02*
X12763500Y-8813800D01*
X12712700Y-8763000D02*
X12814300Y-8763000D01*
X12763500Y-9791700D02*
X12763500Y-9893300D01*
X12712700Y-9842500D02*
X12814300Y-9842500D01*
X13017500Y-8712200D02*
X13017500Y-8813800D01*
X12966700Y-8763000D02*
X13068300Y-8763000D01*
X13017500Y-9791700D02*
X13017500Y-9893300D01*
X12966700Y-9842500D02*
X13068300Y-9842500D01*
X13271500Y-8712200D02*
X13271500Y-8813800D01*
X13220700Y-8763000D02*
X13322300Y-8763000D01*
X13271500Y-9791700D02*
X13271500Y-9893300D01*
X13220700Y-9842500D02*
X13322300Y-9842500D01*
X13525500Y-8712200D02*
X13525500Y-8813800D01*
X13474700Y-8763000D02*
X13576300Y-8763000D01*
X13525500Y-9791700D02*
X13525500Y-9893300D01*
X13474700Y-9842500D02*
X13576300Y-9842500D01*
X13779500Y-8712200D02*
X13779500Y-8813800D01*
X13728700Y-8763000D02*
X13830300Y-8763000D01*
X13779500Y-9791700D02*
X13779500Y-9893300D01*
X13728700Y-9842500D02*
X13830300Y-9842500D01*
X14033500Y-8712200D02*
X14033500Y-8813800D01*
X13982700Y-8763000D02*
X14084300Y-8763000D01*
X14033500Y-9791700D02*
X14033500Y-9893300D01*
X13982700Y-9842500D02*
X14084300Y-9842500D01*
X14287500Y-8712200D02*
X14287500Y-8813800D01*
X14236700Y-8763000D02*
X14338300Y-8763000D01*
X14287500Y-9791700D02*
X14287500Y-9893300D01*
X14236700Y-9842500D02*
X14338300Y-9842500D01*
X20133500Y-11010200D02*
X20133500Y-11111800D01*
X20082700Y-11061000D02*
X20184300Y-11061000D01*
X20133500Y-12460200D02*
X20133500Y-12561800D01*
X20082700Y-12511000D02*
X20184300Y-12511000D01*
X20383500Y-11010200D02*
X20383500Y-11111800D01*
X20332700Y-11061000D02*
X20434300Y-11061000D01*
X20633500Y-11010200D02*
X20633500Y-11111800D01*
X20582700Y-11061000D02*
X20684300Y-11061000D01*
X20633500Y-12460200D02*
X20633500Y-12561800D01*
X20582700Y-12511000D02*
X20684300Y-12511000D01*
X7992587Y-6519387D02*
X7992587Y-6434613D01*
X7907813Y-6434613D01*
X7907813Y-6519387D01*
X7992587Y-6519387D01*
X7992587Y-6773387D02*
X7992587Y-6688613D01*
X7907813Y-6688613D01*
X7907813Y-6773387D01*
X7992587Y-6773387D01*
X7992587Y-7154387D02*
X7992587Y-7069613D01*
X7907813Y-7069613D01*
X7907813Y-7154387D01*
X7992587Y-7154387D01*
X7992587Y-7408387D02*
X7992587Y-7323613D01*
X7907813Y-7323613D01*
X7907813Y-7408387D01*
X7992587Y-7408387D01*
X7992587Y-8068787D02*
X7992587Y-7984013D01*
X7907813Y-7984013D01*
X7907813Y-8068787D01*
X7992587Y-8068787D01*
X7992587Y-8322787D02*
X7992587Y-8238013D01*
X7907813Y-8238013D01*
X7907813Y-8322787D01*
X7992587Y-8322787D01*
X7992587Y-8830787D02*
X7992587Y-8746013D01*
X7907813Y-8746013D01*
X7907813Y-8830787D01*
X7992587Y-8830787D01*
X7992587Y-9084787D02*
X7992587Y-9000013D01*
X7907813Y-9000013D01*
X7907813Y-9084787D01*
X7992587Y-9084787D01*
X7992587Y-9541987D02*
X7992587Y-9457213D01*
X7907813Y-9457213D01*
X7907813Y-9541987D01*
X7992587Y-9541987D01*
X7992587Y-9795987D02*
X7992587Y-9711213D01*
X7907813Y-9711213D01*
X7907813Y-9795987D01*
X7992587Y-9795987D01*
X20853400Y-6690614D02*
X20968462Y-6575552D01*
X20853400Y-6460490D01*
X20738338Y-6575552D01*
X20853400Y-6690614D01*
X20853400Y-7890510D02*
X20968462Y-7775448D01*
X20853400Y-7660386D01*
X20738338Y-7775448D01*
X20853400Y-7890510D01*
X9590532Y-9717532D02*
X9840468Y-9967468D01*
X9840468Y-9717532D02*
X9590532Y-9967468D01*
X9840468Y-9842500D02*
G75*
G03X9840468Y-9842500I-124968J0D01*
G01*
X9590532Y-15217902D02*
X9840468Y-15467838D01*
X9840468Y-15217902D02*
X9590532Y-15467838D01*
X9840468Y-15342870D02*
G75*
G03X9840468Y-15342870I-124968J0D01*
G01*
X18890488Y-9717532D02*
X19140424Y-9967468D01*
X19140424Y-9717532D02*
X18890488Y-9967468D01*
X19140424Y-9842500D02*
G75*
G03X19140424Y-9842500I-124968J0D01*
G01*
X18890488Y-15217648D02*
X19140424Y-15467584D01*
X19140424Y-15217648D02*
X18890488Y-15467584D01*
X19140424Y-15342616D02*
G75*
G03X19140424Y-15342616I-124968J0D01*
G01*
X9590500Y-9717500D02*
X9840500Y-9967500D01*
X9840500Y-9717500D02*
X9590500Y-9967500D01*
X9715500Y-9717500D02*
X9715500Y-9967500D01*
X9590500Y-9842500D02*
X9840500Y-9842500D01*
X9590500Y-15216600D02*
X9840500Y-15466600D01*
X9840500Y-15216600D02*
X9590500Y-15466600D01*
X9715500Y-15216600D02*
X9715500Y-15466600D01*
X9590500Y-15341600D02*
X9840500Y-15341600D01*
X18886900Y-9717500D02*
X19136900Y-9967500D01*
X19136900Y-9717500D02*
X18886900Y-9967500D01*
X19011900Y-9717500D02*
X19011900Y-9967500D01*
X18886900Y-9842500D02*
X19136900Y-9842500D01*
X18886900Y-15216600D02*
X19136900Y-15466600D01*
X19136900Y-15216600D02*
X18886900Y-15466600D01*
X19011900Y-15216600D02*
X19011900Y-15466600D01*
X18886900Y-15341600D02*
X19136900Y-15341600D01*
X19683500Y-11681000D02*
X19943500Y-11941000D01*
X19943500Y-11681000D02*
X19683500Y-11941000D01*
X19905425Y-11902925D02*
X19905425Y-11719075D01*
X19721575Y-11719075D01*
X19721575Y-11902925D01*
X19905425Y-11902925D01*
X20823500Y-11681000D02*
X21083500Y-11941000D01*
X21083500Y-11681000D02*
X20823500Y-11941000D01*
X21045425Y-11902925D02*
X21045425Y-11719075D01*
X20861575Y-11719075D01*
X20861575Y-11902925D01*
X21045425Y-11902925D01*
X7801000Y-5388000D02*
X8201000Y-5788000D01*
X8201000Y-5388000D02*
X7801000Y-5788000D01*
X8001000Y-5788000D02*
X8201000Y-5588000D01*
X8001000Y-5388000D01*
X7801000Y-5588000D01*
X8001000Y-5788000D01*
X7801000Y-14913000D02*
X8201000Y-15313000D01*
X8201000Y-14913000D02*
X7801000Y-15313000D01*
X8001000Y-15313000D02*
X8201000Y-15113000D01*
X8001000Y-14913000D01*
X7801000Y-15113000D01*
X8001000Y-15313000D01*
X20475600Y-5286400D02*
X20875600Y-5686400D01*
X20875600Y-5286400D02*
X20475600Y-5686400D01*
X20675600Y-5686400D02*
X20875600Y-5486400D01*
X20675600Y-5286400D01*
X20475600Y-5486400D01*
X20675600Y-5686400D01*
X20628000Y-14913000D02*
X21028000Y-15313000D01*
X21028000Y-14913000D02*
X20628000Y-15313000D01*
X20828000Y-15313000D02*
X21028000Y-15113000D01*
X20828000Y-14913000D01*
X20628000Y-15113000D01*
X20828000Y-15313000D01*
D13*
X7693428Y-16221214D02*
X7693428Y-15921214D01*
X7764857Y-15921214D01*
X7807714Y-15935500D01*
X7836286Y-15964071D01*
X7850571Y-15992643D01*
X7864857Y-16049786D01*
X7864857Y-16092643D01*
X7850571Y-16149786D01*
X7836286Y-16178357D01*
X7807714Y-16206929D01*
X7764857Y-16221214D01*
X7693428Y-16221214D01*
X7993428Y-16221214D02*
X7993428Y-16021214D01*
X7993428Y-16078357D02*
X8007714Y-16049786D01*
X8022000Y-16035500D01*
X8050571Y-16021214D01*
X8079143Y-16021214D01*
X8179143Y-16221214D02*
X8179143Y-16021214D01*
X8179143Y-15921214D02*
X8164857Y-15935500D01*
X8179143Y-15949786D01*
X8193428Y-15935500D01*
X8179143Y-15921214D01*
X8179143Y-15949786D01*
X8364857Y-16221214D02*
X8336286Y-16206929D01*
X8322000Y-16178357D01*
X8322000Y-15921214D01*
X8522000Y-16221214D02*
X8493429Y-16206929D01*
X8479143Y-16178357D01*
X8479143Y-15921214D01*
X8864857Y-16221214D02*
X8864857Y-15921214D01*
X8964857Y-16135500D01*
X9064857Y-15921214D01*
X9064857Y-16221214D01*
X9336286Y-16221214D02*
X9336286Y-16064071D01*
X9322000Y-16035500D01*
X9293429Y-16021214D01*
X9236286Y-16021214D01*
X9207714Y-16035500D01*
X9336286Y-16206929D02*
X9307714Y-16221214D01*
X9236286Y-16221214D01*
X9207714Y-16206929D01*
X9193429Y-16178357D01*
X9193429Y-16149786D01*
X9207714Y-16121214D01*
X9236286Y-16106929D01*
X9307714Y-16106929D01*
X9336286Y-16092643D01*
X9479143Y-16021214D02*
X9479143Y-16321214D01*
X9479143Y-16035500D02*
X9507714Y-16021214D01*
X9564857Y-16021214D01*
X9593429Y-16035500D01*
X9607714Y-16049786D01*
X9622000Y-16078357D01*
X9622000Y-16164071D01*
X9607714Y-16192643D01*
X9593429Y-16206929D01*
X9564857Y-16221214D01*
X9507714Y-16221214D01*
X9479143Y-16206929D01*
X9750571Y-16192643D02*
X9764857Y-16206929D01*
X9750571Y-16221214D01*
X9736286Y-16206929D01*
X9750571Y-16192643D01*
X9750571Y-16221214D01*
X9750571Y-16035500D02*
X9764857Y-16049786D01*
X9750571Y-16064071D01*
X9736286Y-16049786D01*
X9750571Y-16035500D01*
X9750571Y-16064071D01*
X7345800Y-16677400D02*
X7422000Y-16753600D01*
X7422000Y-16677400D02*
X7345800Y-16753600D01*
X7750571Y-16551214D02*
X7779143Y-16551214D01*
X7807714Y-16565500D01*
X7822000Y-16579786D01*
X7836286Y-16608357D01*
X7850571Y-16665500D01*
X7850571Y-16736929D01*
X7836286Y-16794072D01*
X7822000Y-16822643D01*
X7807714Y-16836929D01*
X7779143Y-16851214D01*
X7750571Y-16851214D01*
X7722000Y-16836929D01*
X7707714Y-16822643D01*
X7693428Y-16794072D01*
X7679143Y-16736929D01*
X7679143Y-16665500D01*
X7693428Y-16608357D01*
X7707714Y-16579786D01*
X7722000Y-16565500D01*
X7750571Y-16551214D01*
X7979143Y-16822643D02*
X7993428Y-16836929D01*
X7979143Y-16851214D01*
X7964857Y-16836929D01*
X7979143Y-16822643D01*
X7979143Y-16851214D01*
X8093428Y-16551214D02*
X8293428Y-16551214D01*
X8164857Y-16851214D01*
X8536286Y-16551214D02*
X8479143Y-16551214D01*
X8450571Y-16565500D01*
X8436286Y-16579786D01*
X8407714Y-16622643D01*
X8393429Y-16679786D01*
X8393429Y-16794072D01*
X8407714Y-16822643D01*
X8422000Y-16836929D01*
X8450571Y-16851214D01*
X8507714Y-16851214D01*
X8536286Y-16836929D01*
X8550571Y-16822643D01*
X8564857Y-16794072D01*
X8564857Y-16722643D01*
X8550571Y-16694071D01*
X8536286Y-16679786D01*
X8507714Y-16665500D01*
X8450571Y-16665500D01*
X8422000Y-16679786D01*
X8407714Y-16694071D01*
X8393429Y-16722643D01*
X8693429Y-16851214D02*
X8693429Y-16651214D01*
X8693429Y-16679786D02*
X8707714Y-16665500D01*
X8736286Y-16651214D01*
X8779143Y-16651214D01*
X8807714Y-16665500D01*
X8822000Y-16694071D01*
X8822000Y-16851214D01*
X8822000Y-16694071D02*
X8836286Y-16665500D01*
X8864857Y-16651214D01*
X8907714Y-16651214D01*
X8936286Y-16665500D01*
X8950571Y-16694071D01*
X8950571Y-16851214D01*
X9093429Y-16851214D02*
X9093429Y-16651214D01*
X9093429Y-16679786D02*
X9107714Y-16665500D01*
X9136286Y-16651214D01*
X9179143Y-16651214D01*
X9207714Y-16665500D01*
X9222000Y-16694071D01*
X9222000Y-16851214D01*
X9222000Y-16694071D02*
X9236286Y-16665500D01*
X9264857Y-16651214D01*
X9307714Y-16651214D01*
X9336286Y-16665500D01*
X9350571Y-16694071D01*
X9350571Y-16851214D01*
X9936286Y-16536929D02*
X9679143Y-16922643D01*
X10322000Y-16551214D02*
X10350571Y-16551214D01*
X10379143Y-16565500D01*
X10393428Y-16579786D01*
X10407714Y-16608357D01*
X10422000Y-16665500D01*
X10422000Y-16736929D01*
X10407714Y-16794072D01*
X10393428Y-16822643D01*
X10379143Y-16836929D01*
X10350571Y-16851214D01*
X10322000Y-16851214D01*
X10293428Y-16836929D01*
X10279143Y-16822643D01*
X10264857Y-16794072D01*
X10250571Y-16736929D01*
X10250571Y-16665500D01*
X10264857Y-16608357D01*
X10279143Y-16579786D01*
X10293428Y-16565500D01*
X10322000Y-16551214D01*
X10550571Y-16822643D02*
X10564857Y-16836929D01*
X10550571Y-16851214D01*
X10536286Y-16836929D01*
X10550571Y-16822643D01*
X10550571Y-16851214D01*
X10750571Y-16551214D02*
X10779143Y-16551214D01*
X10807714Y-16565500D01*
X10822000Y-16579786D01*
X10836286Y-16608357D01*
X10850571Y-16665500D01*
X10850571Y-16736929D01*
X10836286Y-16794072D01*
X10822000Y-16822643D01*
X10807714Y-16836929D01*
X10779143Y-16851214D01*
X10750571Y-16851214D01*
X10722000Y-16836929D01*
X10707714Y-16822643D01*
X10693428Y-16794072D01*
X10679143Y-16736929D01*
X10679143Y-16665500D01*
X10693428Y-16608357D01*
X10707714Y-16579786D01*
X10722000Y-16565500D01*
X10750571Y-16551214D01*
X10950571Y-16551214D02*
X11136286Y-16551214D01*
X11036286Y-16665500D01*
X11079143Y-16665500D01*
X11107714Y-16679786D01*
X11122000Y-16694071D01*
X11136286Y-16722643D01*
X11136286Y-16794072D01*
X11122000Y-16822643D01*
X11107714Y-16836929D01*
X11079143Y-16851214D01*
X10993428Y-16851214D01*
X10964857Y-16836929D01*
X10950571Y-16822643D01*
X11322000Y-16551214D02*
X11350571Y-16551214D01*
X11379143Y-16565500D01*
X11393428Y-16579786D01*
X11407714Y-16608357D01*
X11422000Y-16665500D01*
X11422000Y-16736929D01*
X11407714Y-16794072D01*
X11393428Y-16822643D01*
X11379143Y-16836929D01*
X11350571Y-16851214D01*
X11322000Y-16851214D01*
X11293428Y-16836929D01*
X11279143Y-16822643D01*
X11264857Y-16794072D01*
X11250571Y-16736929D01*
X11250571Y-16665500D01*
X11264857Y-16608357D01*
X11279143Y-16579786D01*
X11293428Y-16565500D01*
X11322000Y-16551214D01*
X11536286Y-16551214D02*
X11536286Y-16608357D01*
X11650571Y-16551214D02*
X11650571Y-16608357D01*
X12093428Y-16965500D02*
X12079143Y-16951214D01*
X12050571Y-16908357D01*
X12036285Y-16879786D01*
X12022000Y-16836929D01*
X12007714Y-16765500D01*
X12007714Y-16708357D01*
X12022000Y-16636929D01*
X12036285Y-16594071D01*
X12050571Y-16565500D01*
X12079143Y-16522643D01*
X12093428Y-16508357D01*
X12364857Y-16851214D02*
X12193428Y-16851214D01*
X12279143Y-16851214D02*
X12279143Y-16551214D01*
X12250571Y-16594071D01*
X12222000Y-16622643D01*
X12193428Y-16636929D01*
X12650571Y-16851214D02*
X12479143Y-16851214D01*
X12564857Y-16851214D02*
X12564857Y-16551214D01*
X12536285Y-16594071D01*
X12507714Y-16622643D01*
X12479143Y-16636929D01*
X13007714Y-16851214D02*
X13007714Y-16551214D01*
X13136285Y-16851214D02*
X13136285Y-16694071D01*
X13122000Y-16665500D01*
X13093428Y-16651214D01*
X13050571Y-16651214D01*
X13022000Y-16665500D01*
X13007714Y-16679786D01*
X13322000Y-16851214D02*
X13293428Y-16836929D01*
X13279143Y-16822643D01*
X13264857Y-16794072D01*
X13264857Y-16708357D01*
X13279143Y-16679786D01*
X13293428Y-16665500D01*
X13322000Y-16651214D01*
X13364857Y-16651214D01*
X13393428Y-16665500D01*
X13407714Y-16679786D01*
X13422000Y-16708357D01*
X13422000Y-16794072D01*
X13407714Y-16822643D01*
X13393428Y-16836929D01*
X13364857Y-16851214D01*
X13322000Y-16851214D01*
X13593428Y-16851214D02*
X13564857Y-16836929D01*
X13550571Y-16808357D01*
X13550571Y-16551214D01*
X13822000Y-16836929D02*
X13793428Y-16851214D01*
X13736286Y-16851214D01*
X13707714Y-16836929D01*
X13693428Y-16808357D01*
X13693428Y-16694071D01*
X13707714Y-16665500D01*
X13736286Y-16651214D01*
X13793428Y-16651214D01*
X13822000Y-16665500D01*
X13836286Y-16694071D01*
X13836286Y-16722643D01*
X13693428Y-16751214D01*
X13950571Y-16836929D02*
X13979143Y-16851214D01*
X14036286Y-16851214D01*
X14064857Y-16836929D01*
X14079143Y-16808357D01*
X14079143Y-16794072D01*
X14064857Y-16765500D01*
X14036286Y-16751214D01*
X13993428Y-16751214D01*
X13964857Y-16736929D01*
X13950571Y-16708357D01*
X13950571Y-16694071D01*
X13964857Y-16665500D01*
X13993428Y-16651214D01*
X14036286Y-16651214D01*
X14064857Y-16665500D01*
X14179143Y-16965500D02*
X14193428Y-16951214D01*
X14222000Y-16908357D01*
X14236286Y-16879786D01*
X14250571Y-16836929D01*
X14264857Y-16765500D01*
X14264857Y-16708357D01*
X14250571Y-16636929D01*
X14236286Y-16594071D01*
X14222000Y-16565500D01*
X14193428Y-16522643D01*
X14179143Y-16508357D01*
X7422000Y-17111500D02*
G75*
G03X7422000Y-17111500I-40640J0D01*
G01*
X7750571Y-16947214D02*
X7779143Y-16947214D01*
X7807714Y-16961500D01*
X7822000Y-16975786D01*
X7836286Y-17004357D01*
X7850571Y-17061500D01*
X7850571Y-17132929D01*
X7836286Y-17190072D01*
X7822000Y-17218643D01*
X7807714Y-17232929D01*
X7779143Y-17247214D01*
X7750571Y-17247214D01*
X7722000Y-17232929D01*
X7707714Y-17218643D01*
X7693428Y-17190072D01*
X7679143Y-17132929D01*
X7679143Y-17061500D01*
X7693428Y-17004357D01*
X7707714Y-16975786D01*
X7722000Y-16961500D01*
X7750571Y-16947214D01*
X7979143Y-17218643D02*
X7993428Y-17232929D01*
X7979143Y-17247214D01*
X7964857Y-17232929D01*
X7979143Y-17218643D01*
X7979143Y-17247214D01*
X8164857Y-17075786D02*
X8136286Y-17061500D01*
X8122000Y-17047214D01*
X8107714Y-17018643D01*
X8107714Y-17004357D01*
X8122000Y-16975786D01*
X8136286Y-16961500D01*
X8164857Y-16947214D01*
X8222000Y-16947214D01*
X8250571Y-16961500D01*
X8264857Y-16975786D01*
X8279143Y-17004357D01*
X8279143Y-17018643D01*
X8264857Y-17047214D01*
X8250571Y-17061500D01*
X8222000Y-17075786D01*
X8164857Y-17075786D01*
X8136286Y-17090072D01*
X8122000Y-17104357D01*
X8107714Y-17132929D01*
X8107714Y-17190072D01*
X8122000Y-17218643D01*
X8136286Y-17232929D01*
X8164857Y-17247214D01*
X8222000Y-17247214D01*
X8250571Y-17232929D01*
X8264857Y-17218643D01*
X8279143Y-17190072D01*
X8279143Y-17132929D01*
X8264857Y-17104357D01*
X8250571Y-17090072D01*
X8222000Y-17075786D01*
X8564857Y-17247214D02*
X8393429Y-17247214D01*
X8479143Y-17247214D02*
X8479143Y-16947214D01*
X8450571Y-16990072D01*
X8422000Y-17018643D01*
X8393429Y-17032929D01*
X8693429Y-17247214D02*
X8693429Y-17047214D01*
X8693429Y-17075786D02*
X8707714Y-17061500D01*
X8736286Y-17047214D01*
X8779143Y-17047214D01*
X8807714Y-17061500D01*
X8822000Y-17090072D01*
X8822000Y-17247214D01*
X8822000Y-17090072D02*
X8836286Y-17061500D01*
X8864857Y-17047214D01*
X8907714Y-17047214D01*
X8936286Y-17061500D01*
X8950571Y-17090072D01*
X8950571Y-17247214D01*
X9093429Y-17247214D02*
X9093429Y-17047214D01*
X9093429Y-17075786D02*
X9107714Y-17061500D01*
X9136286Y-17047214D01*
X9179143Y-17047214D01*
X9207714Y-17061500D01*
X9222000Y-17090072D01*
X9222000Y-17247214D01*
X9222000Y-17090072D02*
X9236286Y-17061500D01*
X9264857Y-17047214D01*
X9307714Y-17047214D01*
X9336286Y-17061500D01*
X9350571Y-17090072D01*
X9350571Y-17247214D01*
X9936286Y-16932929D02*
X9679143Y-17318643D01*
X10322000Y-16947214D02*
X10350571Y-16947214D01*
X10379143Y-16961500D01*
X10393428Y-16975786D01*
X10407714Y-17004357D01*
X10422000Y-17061500D01*
X10422000Y-17132929D01*
X10407714Y-17190072D01*
X10393428Y-17218643D01*
X10379143Y-17232929D01*
X10350571Y-17247214D01*
X10322000Y-17247214D01*
X10293428Y-17232929D01*
X10279143Y-17218643D01*
X10264857Y-17190072D01*
X10250571Y-17132929D01*
X10250571Y-17061500D01*
X10264857Y-17004357D01*
X10279143Y-16975786D01*
X10293428Y-16961500D01*
X10322000Y-16947214D01*
X10550571Y-17218643D02*
X10564857Y-17232929D01*
X10550571Y-17247214D01*
X10536286Y-17232929D01*
X10550571Y-17218643D01*
X10550571Y-17247214D01*
X10750571Y-16947214D02*
X10779143Y-16947214D01*
X10807714Y-16961500D01*
X10822000Y-16975786D01*
X10836286Y-17004357D01*
X10850571Y-17061500D01*
X10850571Y-17132929D01*
X10836286Y-17190072D01*
X10822000Y-17218643D01*
X10807714Y-17232929D01*
X10779143Y-17247214D01*
X10750571Y-17247214D01*
X10722000Y-17232929D01*
X10707714Y-17218643D01*
X10693428Y-17190072D01*
X10679143Y-17132929D01*
X10679143Y-17061500D01*
X10693428Y-17004357D01*
X10707714Y-16975786D01*
X10722000Y-16961500D01*
X10750571Y-16947214D01*
X10950571Y-16947214D02*
X11136286Y-16947214D01*
X11036286Y-17061500D01*
X11079143Y-17061500D01*
X11107714Y-17075786D01*
X11122000Y-17090072D01*
X11136286Y-17118643D01*
X11136286Y-17190072D01*
X11122000Y-17218643D01*
X11107714Y-17232929D01*
X11079143Y-17247214D01*
X10993428Y-17247214D01*
X10964857Y-17232929D01*
X10950571Y-17218643D01*
X11250571Y-16975786D02*
X11264857Y-16961500D01*
X11293428Y-16947214D01*
X11364857Y-16947214D01*
X11393428Y-16961500D01*
X11407714Y-16975786D01*
X11422000Y-17004357D01*
X11422000Y-17032929D01*
X11407714Y-17075786D01*
X11236285Y-17247214D01*
X11422000Y-17247214D01*
X11536286Y-16947214D02*
X11536286Y-17004357D01*
X11650571Y-16947214D02*
X11650571Y-17004357D01*
X12093428Y-17361500D02*
X12079143Y-17347214D01*
X12050571Y-17304357D01*
X12036285Y-17275786D01*
X12022000Y-17232929D01*
X12007714Y-17161500D01*
X12007714Y-17104357D01*
X12022000Y-17032929D01*
X12036285Y-16990072D01*
X12050571Y-16961500D01*
X12079143Y-16918643D01*
X12093428Y-16904357D01*
X12250571Y-17075786D02*
X12222000Y-17061500D01*
X12207714Y-17047214D01*
X12193428Y-17018643D01*
X12193428Y-17004357D01*
X12207714Y-16975786D01*
X12222000Y-16961500D01*
X12250571Y-16947214D01*
X12307714Y-16947214D01*
X12336285Y-16961500D01*
X12350571Y-16975786D01*
X12364857Y-17004357D01*
X12364857Y-17018643D01*
X12350571Y-17047214D01*
X12336285Y-17061500D01*
X12307714Y-17075786D01*
X12250571Y-17075786D01*
X12222000Y-17090072D01*
X12207714Y-17104357D01*
X12193428Y-17132929D01*
X12193428Y-17190072D01*
X12207714Y-17218643D01*
X12222000Y-17232929D01*
X12250571Y-17247214D01*
X12307714Y-17247214D01*
X12336285Y-17232929D01*
X12350571Y-17218643D01*
X12364857Y-17190072D01*
X12364857Y-17132929D01*
X12350571Y-17104357D01*
X12336285Y-17090072D01*
X12307714Y-17075786D01*
X12722000Y-17247214D02*
X12722000Y-16947214D01*
X12850571Y-17247214D02*
X12850571Y-17090072D01*
X12836285Y-17061500D01*
X12807714Y-17047214D01*
X12764857Y-17047214D01*
X12736285Y-17061500D01*
X12722000Y-17075786D01*
X13036285Y-17247214D02*
X13007714Y-17232929D01*
X12993428Y-17218643D01*
X12979143Y-17190072D01*
X12979143Y-17104357D01*
X12993428Y-17075786D01*
X13007714Y-17061500D01*
X13036285Y-17047214D01*
X13079143Y-17047214D01*
X13107714Y-17061500D01*
X13122000Y-17075786D01*
X13136285Y-17104357D01*
X13136285Y-17190072D01*
X13122000Y-17218643D01*
X13107714Y-17232929D01*
X13079143Y-17247214D01*
X13036285Y-17247214D01*
X13307714Y-17247214D02*
X13279143Y-17232929D01*
X13264857Y-17204357D01*
X13264857Y-16947214D01*
X13536286Y-17232929D02*
X13507714Y-17247214D01*
X13450571Y-17247214D01*
X13422000Y-17232929D01*
X13407714Y-17204357D01*
X13407714Y-17090072D01*
X13422000Y-17061500D01*
X13450571Y-17047214D01*
X13507714Y-17047214D01*
X13536286Y-17061500D01*
X13550571Y-17090072D01*
X13550571Y-17118643D01*
X13407714Y-17147214D01*
X13664857Y-17232929D02*
X13693428Y-17247214D01*
X13750571Y-17247214D01*
X13779143Y-17232929D01*
X13793428Y-17204357D01*
X13793428Y-17190072D01*
X13779143Y-17161500D01*
X13750571Y-17147214D01*
X13707714Y-17147214D01*
X13679143Y-17132929D01*
X13664857Y-17104357D01*
X13664857Y-17090072D01*
X13679143Y-17061500D01*
X13707714Y-17047214D01*
X13750571Y-17047214D01*
X13779143Y-17061500D01*
X13893428Y-17361500D02*
X13907714Y-17347214D01*
X13936286Y-17304357D01*
X13950571Y-17275786D01*
X13964857Y-17232929D01*
X13979143Y-17161500D01*
X13979143Y-17104357D01*
X13964857Y-17032929D01*
X13950571Y-16990072D01*
X13936286Y-16961500D01*
X13907714Y-16918643D01*
X13893428Y-16904357D01*
X7371200Y-17456700D02*
X7371200Y-17558300D01*
X7320400Y-17507500D02*
X7422000Y-17507500D01*
X7850571Y-17643214D02*
X7679143Y-17643214D01*
X7764857Y-17643214D02*
X7764857Y-17343214D01*
X7736286Y-17386072D01*
X7707714Y-17414643D01*
X7679143Y-17428929D01*
X7979143Y-17614643D02*
X7993428Y-17628929D01*
X7979143Y-17643214D01*
X7964857Y-17628929D01*
X7979143Y-17614643D01*
X7979143Y-17643214D01*
X8179143Y-17343214D02*
X8207714Y-17343214D01*
X8236286Y-17357500D01*
X8250571Y-17371786D01*
X8264857Y-17400357D01*
X8279143Y-17457500D01*
X8279143Y-17528929D01*
X8264857Y-17586072D01*
X8250571Y-17614643D01*
X8236286Y-17628929D01*
X8207714Y-17643214D01*
X8179143Y-17643214D01*
X8150571Y-17628929D01*
X8136286Y-17614643D01*
X8122000Y-17586072D01*
X8107714Y-17528929D01*
X8107714Y-17457500D01*
X8122000Y-17400357D01*
X8136286Y-17371786D01*
X8150571Y-17357500D01*
X8179143Y-17343214D01*
X8393429Y-17371786D02*
X8407714Y-17357500D01*
X8436286Y-17343214D01*
X8507714Y-17343214D01*
X8536286Y-17357500D01*
X8550571Y-17371786D01*
X8564857Y-17400357D01*
X8564857Y-17428929D01*
X8550571Y-17471786D01*
X8379143Y-17643214D01*
X8564857Y-17643214D01*
X8693429Y-17643214D02*
X8693429Y-17443214D01*
X8693429Y-17471786D02*
X8707714Y-17457500D01*
X8736286Y-17443214D01*
X8779143Y-17443214D01*
X8807714Y-17457500D01*
X8822000Y-17486072D01*
X8822000Y-17643214D01*
X8822000Y-17486072D02*
X8836286Y-17457500D01*
X8864857Y-17443214D01*
X8907714Y-17443214D01*
X8936286Y-17457500D01*
X8950571Y-17486072D01*
X8950571Y-17643214D01*
X9093429Y-17643214D02*
X9093429Y-17443214D01*
X9093429Y-17471786D02*
X9107714Y-17457500D01*
X9136286Y-17443214D01*
X9179143Y-17443214D01*
X9207714Y-17457500D01*
X9222000Y-17486072D01*
X9222000Y-17643214D01*
X9222000Y-17486072D02*
X9236286Y-17457500D01*
X9264857Y-17443214D01*
X9307714Y-17443214D01*
X9336286Y-17457500D01*
X9350571Y-17486072D01*
X9350571Y-17643214D01*
X9936286Y-17328929D02*
X9679143Y-17714643D01*
X10322000Y-17343214D02*
X10350571Y-17343214D01*
X10379143Y-17357500D01*
X10393428Y-17371786D01*
X10407714Y-17400357D01*
X10422000Y-17457500D01*
X10422000Y-17528929D01*
X10407714Y-17586072D01*
X10393428Y-17614643D01*
X10379143Y-17628929D01*
X10350571Y-17643214D01*
X10322000Y-17643214D01*
X10293428Y-17628929D01*
X10279143Y-17614643D01*
X10264857Y-17586072D01*
X10250571Y-17528929D01*
X10250571Y-17457500D01*
X10264857Y-17400357D01*
X10279143Y-17371786D01*
X10293428Y-17357500D01*
X10322000Y-17343214D01*
X10550571Y-17614643D02*
X10564857Y-17628929D01*
X10550571Y-17643214D01*
X10536286Y-17628929D01*
X10550571Y-17614643D01*
X10550571Y-17643214D01*
X10750571Y-17343214D02*
X10779143Y-17343214D01*
X10807714Y-17357500D01*
X10822000Y-17371786D01*
X10836286Y-17400357D01*
X10850571Y-17457500D01*
X10850571Y-17528929D01*
X10836286Y-17586072D01*
X10822000Y-17614643D01*
X10807714Y-17628929D01*
X10779143Y-17643214D01*
X10750571Y-17643214D01*
X10722000Y-17628929D01*
X10707714Y-17614643D01*
X10693428Y-17586072D01*
X10679143Y-17528929D01*
X10679143Y-17457500D01*
X10693428Y-17400357D01*
X10707714Y-17371786D01*
X10722000Y-17357500D01*
X10750571Y-17343214D01*
X11107714Y-17443214D02*
X11107714Y-17643214D01*
X11036286Y-17328929D02*
X10964857Y-17543214D01*
X11150571Y-17543214D01*
X11322000Y-17343214D02*
X11350571Y-17343214D01*
X11379143Y-17357500D01*
X11393428Y-17371786D01*
X11407714Y-17400357D01*
X11422000Y-17457500D01*
X11422000Y-17528929D01*
X11407714Y-17586072D01*
X11393428Y-17614643D01*
X11379143Y-17628929D01*
X11350571Y-17643214D01*
X11322000Y-17643214D01*
X11293428Y-17628929D01*
X11279143Y-17614643D01*
X11264857Y-17586072D01*
X11250571Y-17528929D01*
X11250571Y-17457500D01*
X11264857Y-17400357D01*
X11279143Y-17371786D01*
X11293428Y-17357500D01*
X11322000Y-17343214D01*
X11536286Y-17343214D02*
X11536286Y-17400357D01*
X11650571Y-17343214D02*
X11650571Y-17400357D01*
X12093428Y-17757500D02*
X12079143Y-17743214D01*
X12050571Y-17700357D01*
X12036285Y-17671786D01*
X12022000Y-17628929D01*
X12007714Y-17557500D01*
X12007714Y-17500357D01*
X12022000Y-17428929D01*
X12036285Y-17386072D01*
X12050571Y-17357500D01*
X12079143Y-17314643D01*
X12093428Y-17300357D01*
X12336285Y-17443214D02*
X12336285Y-17643214D01*
X12264857Y-17328929D02*
X12193428Y-17543214D01*
X12379143Y-17543214D01*
X12464857Y-17343214D02*
X12650571Y-17343214D01*
X12550571Y-17457500D01*
X12593428Y-17457500D01*
X12622000Y-17471786D01*
X12636285Y-17486072D01*
X12650571Y-17514643D01*
X12650571Y-17586072D01*
X12636285Y-17614643D01*
X12622000Y-17628929D01*
X12593428Y-17643214D01*
X12507714Y-17643214D01*
X12479143Y-17628929D01*
X12464857Y-17614643D01*
X13007714Y-17643214D02*
X13007714Y-17343214D01*
X13136285Y-17643214D02*
X13136285Y-17486072D01*
X13122000Y-17457500D01*
X13093428Y-17443214D01*
X13050571Y-17443214D01*
X13022000Y-17457500D01*
X13007714Y-17471786D01*
X13322000Y-17643214D02*
X13293428Y-17628929D01*
X13279143Y-17614643D01*
X13264857Y-17586072D01*
X13264857Y-17500357D01*
X13279143Y-17471786D01*
X13293428Y-17457500D01*
X13322000Y-17443214D01*
X13364857Y-17443214D01*
X13393428Y-17457500D01*
X13407714Y-17471786D01*
X13422000Y-17500357D01*
X13422000Y-17586072D01*
X13407714Y-17614643D01*
X13393428Y-17628929D01*
X13364857Y-17643214D01*
X13322000Y-17643214D01*
X13593428Y-17643214D02*
X13564857Y-17628929D01*
X13550571Y-17600357D01*
X13550571Y-17343214D01*
X13822000Y-17628929D02*
X13793428Y-17643214D01*
X13736286Y-17643214D01*
X13707714Y-17628929D01*
X13693428Y-17600357D01*
X13693428Y-17486072D01*
X13707714Y-17457500D01*
X13736286Y-17443214D01*
X13793428Y-17443214D01*
X13822000Y-17457500D01*
X13836286Y-17486072D01*
X13836286Y-17514643D01*
X13693428Y-17543214D01*
X13950571Y-17628929D02*
X13979143Y-17643214D01*
X14036286Y-17643214D01*
X14064857Y-17628929D01*
X14079143Y-17600357D01*
X14079143Y-17586072D01*
X14064857Y-17557500D01*
X14036286Y-17543214D01*
X13993428Y-17543214D01*
X13964857Y-17528929D01*
X13950571Y-17500357D01*
X13950571Y-17486072D01*
X13964857Y-17457500D01*
X13993428Y-17443214D01*
X14036286Y-17443214D01*
X14064857Y-17457500D01*
X14179143Y-17757500D02*
X14193428Y-17743214D01*
X14222000Y-17700357D01*
X14236286Y-17671786D01*
X14250571Y-17628929D01*
X14264857Y-17557500D01*
X14264857Y-17500357D01*
X14250571Y-17428929D01*
X14236286Y-17386072D01*
X14222000Y-17357500D01*
X14193428Y-17314643D01*
X14179143Y-17300357D01*
X7404443Y-17945887D02*
X7404443Y-17861113D01*
X7319669Y-17861113D01*
X7319669Y-17945887D01*
X7404443Y-17945887D01*
X7850571Y-18039214D02*
X7679143Y-18039214D01*
X7764857Y-18039214D02*
X7764857Y-17739214D01*
X7736286Y-17782072D01*
X7707714Y-17810643D01*
X7679143Y-17824929D01*
X7979143Y-18010643D02*
X7993428Y-18024929D01*
X7979143Y-18039214D01*
X7964857Y-18024929D01*
X7979143Y-18010643D01*
X7979143Y-18039214D01*
X8107714Y-17767786D02*
X8122000Y-17753500D01*
X8150571Y-17739214D01*
X8222000Y-17739214D01*
X8250571Y-17753500D01*
X8264857Y-17767786D01*
X8279143Y-17796357D01*
X8279143Y-17824929D01*
X8264857Y-17867786D01*
X8093428Y-18039214D01*
X8279143Y-18039214D01*
X8464857Y-17739214D02*
X8493429Y-17739214D01*
X8522000Y-17753500D01*
X8536286Y-17767786D01*
X8550571Y-17796357D01*
X8564857Y-17853500D01*
X8564857Y-17924929D01*
X8550571Y-17982072D01*
X8536286Y-18010643D01*
X8522000Y-18024929D01*
X8493429Y-18039214D01*
X8464857Y-18039214D01*
X8436286Y-18024929D01*
X8422000Y-18010643D01*
X8407714Y-17982072D01*
X8393429Y-17924929D01*
X8393429Y-17853500D01*
X8407714Y-17796357D01*
X8422000Y-17767786D01*
X8436286Y-17753500D01*
X8464857Y-17739214D01*
X8693429Y-18039214D02*
X8693429Y-17839214D01*
X8693429Y-17867786D02*
X8707714Y-17853500D01*
X8736286Y-17839214D01*
X8779143Y-17839214D01*
X8807714Y-17853500D01*
X8822000Y-17882072D01*
X8822000Y-18039214D01*
X8822000Y-17882072D02*
X8836286Y-17853500D01*
X8864857Y-17839214D01*
X8907714Y-17839214D01*
X8936286Y-17853500D01*
X8950571Y-17882072D01*
X8950571Y-18039214D01*
X9093429Y-18039214D02*
X9093429Y-17839214D01*
X9093429Y-17867786D02*
X9107714Y-17853500D01*
X9136286Y-17839214D01*
X9179143Y-17839214D01*
X9207714Y-17853500D01*
X9222000Y-17882072D01*
X9222000Y-18039214D01*
X9222000Y-17882072D02*
X9236286Y-17853500D01*
X9264857Y-17839214D01*
X9307714Y-17839214D01*
X9336286Y-17853500D01*
X9350571Y-17882072D01*
X9350571Y-18039214D01*
X9936286Y-17724929D02*
X9679143Y-18110643D01*
X10322000Y-17739214D02*
X10350571Y-17739214D01*
X10379143Y-17753500D01*
X10393428Y-17767786D01*
X10407714Y-17796357D01*
X10422000Y-17853500D01*
X10422000Y-17924929D01*
X10407714Y-17982072D01*
X10393428Y-18010643D01*
X10379143Y-18024929D01*
X10350571Y-18039214D01*
X10322000Y-18039214D01*
X10293428Y-18024929D01*
X10279143Y-18010643D01*
X10264857Y-17982072D01*
X10250571Y-17924929D01*
X10250571Y-17853500D01*
X10264857Y-17796357D01*
X10279143Y-17767786D01*
X10293428Y-17753500D01*
X10322000Y-17739214D01*
X10550571Y-18010643D02*
X10564857Y-18024929D01*
X10550571Y-18039214D01*
X10536286Y-18024929D01*
X10550571Y-18010643D01*
X10550571Y-18039214D01*
X10750571Y-17739214D02*
X10779143Y-17739214D01*
X10807714Y-17753500D01*
X10822000Y-17767786D01*
X10836286Y-17796357D01*
X10850571Y-17853500D01*
X10850571Y-17924929D01*
X10836286Y-17982072D01*
X10822000Y-18010643D01*
X10807714Y-18024929D01*
X10779143Y-18039214D01*
X10750571Y-18039214D01*
X10722000Y-18024929D01*
X10707714Y-18010643D01*
X10693428Y-17982072D01*
X10679143Y-17924929D01*
X10679143Y-17853500D01*
X10693428Y-17796357D01*
X10707714Y-17767786D01*
X10722000Y-17753500D01*
X10750571Y-17739214D01*
X11107714Y-17839214D02*
X11107714Y-18039214D01*
X11036286Y-17724929D02*
X10964857Y-17939214D01*
X11150571Y-17939214D01*
X11236285Y-17739214D02*
X11436285Y-17739214D01*
X11307714Y-18039214D01*
X11536286Y-17739214D02*
X11536286Y-17796357D01*
X11650571Y-17739214D02*
X11650571Y-17796357D01*
X12093428Y-18153500D02*
X12079143Y-18139214D01*
X12050571Y-18096357D01*
X12036285Y-18067786D01*
X12022000Y-18024929D01*
X12007714Y-17953500D01*
X12007714Y-17896357D01*
X12022000Y-17824929D01*
X12036285Y-17782072D01*
X12050571Y-17753500D01*
X12079143Y-17710643D01*
X12093428Y-17696357D01*
X12364857Y-18039214D02*
X12193428Y-18039214D01*
X12279143Y-18039214D02*
X12279143Y-17739214D01*
X12250571Y-17782072D01*
X12222000Y-17810643D01*
X12193428Y-17824929D01*
X12550571Y-17739214D02*
X12579143Y-17739214D01*
X12607714Y-17753500D01*
X12622000Y-17767786D01*
X12636285Y-17796357D01*
X12650571Y-17853500D01*
X12650571Y-17924929D01*
X12636285Y-17982072D01*
X12622000Y-18010643D01*
X12607714Y-18024929D01*
X12579143Y-18039214D01*
X12550571Y-18039214D01*
X12522000Y-18024929D01*
X12507714Y-18010643D01*
X12493428Y-17982072D01*
X12479143Y-17924929D01*
X12479143Y-17853500D01*
X12493428Y-17796357D01*
X12507714Y-17767786D01*
X12522000Y-17753500D01*
X12550571Y-17739214D01*
X13007714Y-18039214D02*
X13007714Y-17739214D01*
X13136285Y-18039214D02*
X13136285Y-17882072D01*
X13122000Y-17853500D01*
X13093428Y-17839214D01*
X13050571Y-17839214D01*
X13022000Y-17853500D01*
X13007714Y-17867786D01*
X13322000Y-18039214D02*
X13293428Y-18024929D01*
X13279143Y-18010643D01*
X13264857Y-17982072D01*
X13264857Y-17896357D01*
X13279143Y-17867786D01*
X13293428Y-17853500D01*
X13322000Y-17839214D01*
X13364857Y-17839214D01*
X13393428Y-17853500D01*
X13407714Y-17867786D01*
X13422000Y-17896357D01*
X13422000Y-17982072D01*
X13407714Y-18010643D01*
X13393428Y-18024929D01*
X13364857Y-18039214D01*
X13322000Y-18039214D01*
X13593428Y-18039214D02*
X13564857Y-18024929D01*
X13550571Y-17996357D01*
X13550571Y-17739214D01*
X13822000Y-18024929D02*
X13793428Y-18039214D01*
X13736286Y-18039214D01*
X13707714Y-18024929D01*
X13693428Y-17996357D01*
X13693428Y-17882072D01*
X13707714Y-17853500D01*
X13736286Y-17839214D01*
X13793428Y-17839214D01*
X13822000Y-17853500D01*
X13836286Y-17882072D01*
X13836286Y-17910643D01*
X13693428Y-17939214D01*
X13950571Y-18024929D02*
X13979143Y-18039214D01*
X14036286Y-18039214D01*
X14064857Y-18024929D01*
X14079143Y-17996357D01*
X14079143Y-17982072D01*
X14064857Y-17953500D01*
X14036286Y-17939214D01*
X13993428Y-17939214D01*
X13964857Y-17924929D01*
X13950571Y-17896357D01*
X13950571Y-17882072D01*
X13964857Y-17853500D01*
X13993428Y-17839214D01*
X14036286Y-17839214D01*
X14064857Y-17853500D01*
X14179143Y-18153500D02*
X14193428Y-18139214D01*
X14222000Y-18096357D01*
X14236286Y-18067786D01*
X14250571Y-18024929D01*
X14264857Y-17953500D01*
X14264857Y-17896357D01*
X14250571Y-17824929D01*
X14236286Y-17782072D01*
X14222000Y-17753500D01*
X14193428Y-17710643D01*
X14179143Y-17696357D01*
X7306938Y-18414562D02*
X7422000Y-18299500D01*
X7306938Y-18184438D01*
X7191876Y-18299500D01*
X7306938Y-18414562D01*
X7679143Y-18163786D02*
X7693428Y-18149500D01*
X7722000Y-18135214D01*
X7793428Y-18135214D01*
X7822000Y-18149500D01*
X7836286Y-18163786D01*
X7850571Y-18192357D01*
X7850571Y-18220929D01*
X7836286Y-18263786D01*
X7664857Y-18435214D01*
X7850571Y-18435214D01*
X7979143Y-18406643D02*
X7993428Y-18420929D01*
X7979143Y-18435214D01*
X7964857Y-18420929D01*
X7979143Y-18406643D01*
X7979143Y-18435214D01*
X8093428Y-18135214D02*
X8279143Y-18135214D01*
X8179143Y-18249500D01*
X8222000Y-18249500D01*
X8250571Y-18263786D01*
X8264857Y-18278072D01*
X8279143Y-18306643D01*
X8279143Y-18378072D01*
X8264857Y-18406643D01*
X8250571Y-18420929D01*
X8222000Y-18435214D01*
X8136286Y-18435214D01*
X8107714Y-18420929D01*
X8093428Y-18406643D01*
X8464857Y-18135214D02*
X8493429Y-18135214D01*
X8522000Y-18149500D01*
X8536286Y-18163786D01*
X8550571Y-18192357D01*
X8564857Y-18249500D01*
X8564857Y-18320929D01*
X8550571Y-18378072D01*
X8536286Y-18406643D01*
X8522000Y-18420929D01*
X8493429Y-18435214D01*
X8464857Y-18435214D01*
X8436286Y-18420929D01*
X8422000Y-18406643D01*
X8407714Y-18378072D01*
X8393429Y-18320929D01*
X8393429Y-18249500D01*
X8407714Y-18192357D01*
X8422000Y-18163786D01*
X8436286Y-18149500D01*
X8464857Y-18135214D01*
X8693429Y-18435214D02*
X8693429Y-18235214D01*
X8693429Y-18263786D02*
X8707714Y-18249500D01*
X8736286Y-18235214D01*
X8779143Y-18235214D01*
X8807714Y-18249500D01*
X8822000Y-18278072D01*
X8822000Y-18435214D01*
X8822000Y-18278072D02*
X8836286Y-18249500D01*
X8864857Y-18235214D01*
X8907714Y-18235214D01*
X8936286Y-18249500D01*
X8950571Y-18278072D01*
X8950571Y-18435214D01*
X9093429Y-18435214D02*
X9093429Y-18235214D01*
X9093429Y-18263786D02*
X9107714Y-18249500D01*
X9136286Y-18235214D01*
X9179143Y-18235214D01*
X9207714Y-18249500D01*
X9222000Y-18278072D01*
X9222000Y-18435214D01*
X9222000Y-18278072D02*
X9236286Y-18249500D01*
X9264857Y-18235214D01*
X9307714Y-18235214D01*
X9336286Y-18249500D01*
X9350571Y-18278072D01*
X9350571Y-18435214D01*
X9936286Y-18120929D02*
X9679143Y-18506643D01*
X10322000Y-18135214D02*
X10350571Y-18135214D01*
X10379143Y-18149500D01*
X10393428Y-18163786D01*
X10407714Y-18192357D01*
X10422000Y-18249500D01*
X10422000Y-18320929D01*
X10407714Y-18378072D01*
X10393428Y-18406643D01*
X10379143Y-18420929D01*
X10350571Y-18435214D01*
X10322000Y-18435214D01*
X10293428Y-18420929D01*
X10279143Y-18406643D01*
X10264857Y-18378072D01*
X10250571Y-18320929D01*
X10250571Y-18249500D01*
X10264857Y-18192357D01*
X10279143Y-18163786D01*
X10293428Y-18149500D01*
X10322000Y-18135214D01*
X10550571Y-18406643D02*
X10564857Y-18420929D01*
X10550571Y-18435214D01*
X10536286Y-18420929D01*
X10550571Y-18406643D01*
X10550571Y-18435214D01*
X10750571Y-18135214D02*
X10779143Y-18135214D01*
X10807714Y-18149500D01*
X10822000Y-18163786D01*
X10836286Y-18192357D01*
X10850571Y-18249500D01*
X10850571Y-18320929D01*
X10836286Y-18378072D01*
X10822000Y-18406643D01*
X10807714Y-18420929D01*
X10779143Y-18435214D01*
X10750571Y-18435214D01*
X10722000Y-18420929D01*
X10707714Y-18406643D01*
X10693428Y-18378072D01*
X10679143Y-18320929D01*
X10679143Y-18249500D01*
X10693428Y-18192357D01*
X10707714Y-18163786D01*
X10722000Y-18149500D01*
X10750571Y-18135214D01*
X10993428Y-18435214D02*
X11050571Y-18435214D01*
X11079143Y-18420929D01*
X11093428Y-18406643D01*
X11122000Y-18363786D01*
X11136286Y-18306643D01*
X11136286Y-18192357D01*
X11122000Y-18163786D01*
X11107714Y-18149500D01*
X11079143Y-18135214D01*
X11022000Y-18135214D01*
X10993428Y-18149500D01*
X10979143Y-18163786D01*
X10964857Y-18192357D01*
X10964857Y-18263786D01*
X10979143Y-18292357D01*
X10993428Y-18306643D01*
X11022000Y-18320929D01*
X11079143Y-18320929D01*
X11107714Y-18306643D01*
X11122000Y-18292357D01*
X11136286Y-18263786D01*
X11422000Y-18435214D02*
X11250571Y-18435214D01*
X11336285Y-18435214D02*
X11336285Y-18135214D01*
X11307714Y-18178072D01*
X11279143Y-18206643D01*
X11250571Y-18220929D01*
X11536286Y-18135214D02*
X11536286Y-18192357D01*
X11650571Y-18135214D02*
X11650571Y-18192357D01*
X12093428Y-18549500D02*
X12079143Y-18535214D01*
X12050571Y-18492357D01*
X12036285Y-18463786D01*
X12022000Y-18420929D01*
X12007714Y-18349500D01*
X12007714Y-18292357D01*
X12022000Y-18220929D01*
X12036285Y-18178072D01*
X12050571Y-18149500D01*
X12079143Y-18106643D01*
X12093428Y-18092357D01*
X12193428Y-18163786D02*
X12207714Y-18149500D01*
X12236285Y-18135214D01*
X12307714Y-18135214D01*
X12336285Y-18149500D01*
X12350571Y-18163786D01*
X12364857Y-18192357D01*
X12364857Y-18220929D01*
X12350571Y-18263786D01*
X12179143Y-18435214D01*
X12364857Y-18435214D01*
X12722000Y-18435214D02*
X12722000Y-18135214D01*
X12850571Y-18435214D02*
X12850571Y-18278072D01*
X12836285Y-18249500D01*
X12807714Y-18235214D01*
X12764857Y-18235214D01*
X12736285Y-18249500D01*
X12722000Y-18263786D01*
X13036285Y-18435214D02*
X13007714Y-18420929D01*
X12993428Y-18406643D01*
X12979143Y-18378072D01*
X12979143Y-18292357D01*
X12993428Y-18263786D01*
X13007714Y-18249500D01*
X13036285Y-18235214D01*
X13079143Y-18235214D01*
X13107714Y-18249500D01*
X13122000Y-18263786D01*
X13136285Y-18292357D01*
X13136285Y-18378072D01*
X13122000Y-18406643D01*
X13107714Y-18420929D01*
X13079143Y-18435214D01*
X13036285Y-18435214D01*
X13307714Y-18435214D02*
X13279143Y-18420929D01*
X13264857Y-18392357D01*
X13264857Y-18135214D01*
X13536286Y-18420929D02*
X13507714Y-18435214D01*
X13450571Y-18435214D01*
X13422000Y-18420929D01*
X13407714Y-18392357D01*
X13407714Y-18278072D01*
X13422000Y-18249500D01*
X13450571Y-18235214D01*
X13507714Y-18235214D01*
X13536286Y-18249500D01*
X13550571Y-18278072D01*
X13550571Y-18306643D01*
X13407714Y-18335214D01*
X13664857Y-18420929D02*
X13693428Y-18435214D01*
X13750571Y-18435214D01*
X13779143Y-18420929D01*
X13793428Y-18392357D01*
X13793428Y-18378072D01*
X13779143Y-18349500D01*
X13750571Y-18335214D01*
X13707714Y-18335214D01*
X13679143Y-18320929D01*
X13664857Y-18292357D01*
X13664857Y-18278072D01*
X13679143Y-18249500D01*
X13707714Y-18235214D01*
X13750571Y-18235214D01*
X13779143Y-18249500D01*
X13893428Y-18549500D02*
X13907714Y-18535214D01*
X13936286Y-18492357D01*
X13950571Y-18463786D01*
X13964857Y-18420929D01*
X13979143Y-18349500D01*
X13979143Y-18292357D01*
X13964857Y-18220929D01*
X13950571Y-18178072D01*
X13936286Y-18149500D01*
X13907714Y-18106643D01*
X13893428Y-18092357D01*
X7172064Y-18570532D02*
X7422000Y-18820468D01*
X7422000Y-18570532D02*
X7172064Y-18820468D01*
X7422000Y-18695500D02*
G75*
G03X7422000Y-18695500I-124968J0D01*
G01*
X7679143Y-18559786D02*
X7693428Y-18545500D01*
X7722000Y-18531214D01*
X7793428Y-18531214D01*
X7822000Y-18545500D01*
X7836286Y-18559786D01*
X7850571Y-18588357D01*
X7850571Y-18616929D01*
X7836286Y-18659786D01*
X7664857Y-18831214D01*
X7850571Y-18831214D01*
X7979143Y-18802643D02*
X7993428Y-18816929D01*
X7979143Y-18831214D01*
X7964857Y-18816929D01*
X7979143Y-18802643D01*
X7979143Y-18831214D01*
X8264857Y-18531214D02*
X8122000Y-18531214D01*
X8107714Y-18674072D01*
X8122000Y-18659786D01*
X8150571Y-18645500D01*
X8222000Y-18645500D01*
X8250571Y-18659786D01*
X8264857Y-18674072D01*
X8279143Y-18702643D01*
X8279143Y-18774072D01*
X8264857Y-18802643D01*
X8250571Y-18816929D01*
X8222000Y-18831214D01*
X8150571Y-18831214D01*
X8122000Y-18816929D01*
X8107714Y-18802643D01*
X8464857Y-18531214D02*
X8493429Y-18531214D01*
X8522000Y-18545500D01*
X8536286Y-18559786D01*
X8550571Y-18588357D01*
X8564857Y-18645500D01*
X8564857Y-18716929D01*
X8550571Y-18774072D01*
X8536286Y-18802643D01*
X8522000Y-18816929D01*
X8493429Y-18831214D01*
X8464857Y-18831214D01*
X8436286Y-18816929D01*
X8422000Y-18802643D01*
X8407714Y-18774072D01*
X8393429Y-18716929D01*
X8393429Y-18645500D01*
X8407714Y-18588357D01*
X8422000Y-18559786D01*
X8436286Y-18545500D01*
X8464857Y-18531214D01*
X8693429Y-18831214D02*
X8693429Y-18631214D01*
X8693429Y-18659786D02*
X8707714Y-18645500D01*
X8736286Y-18631214D01*
X8779143Y-18631214D01*
X8807714Y-18645500D01*
X8822000Y-18674072D01*
X8822000Y-18831214D01*
X8822000Y-18674072D02*
X8836286Y-18645500D01*
X8864857Y-18631214D01*
X8907714Y-18631214D01*
X8936286Y-18645500D01*
X8950571Y-18674072D01*
X8950571Y-18831214D01*
X9093429Y-18831214D02*
X9093429Y-18631214D01*
X9093429Y-18659786D02*
X9107714Y-18645500D01*
X9136286Y-18631214D01*
X9179143Y-18631214D01*
X9207714Y-18645500D01*
X9222000Y-18674072D01*
X9222000Y-18831214D01*
X9222000Y-18674072D02*
X9236286Y-18645500D01*
X9264857Y-18631214D01*
X9307714Y-18631214D01*
X9336286Y-18645500D01*
X9350571Y-18674072D01*
X9350571Y-18831214D01*
X9936286Y-18516929D02*
X9679143Y-18902643D01*
X10322000Y-18531214D02*
X10350571Y-18531214D01*
X10379143Y-18545500D01*
X10393428Y-18559786D01*
X10407714Y-18588357D01*
X10422000Y-18645500D01*
X10422000Y-18716929D01*
X10407714Y-18774072D01*
X10393428Y-18802643D01*
X10379143Y-18816929D01*
X10350571Y-18831214D01*
X10322000Y-18831214D01*
X10293428Y-18816929D01*
X10279143Y-18802643D01*
X10264857Y-18774072D01*
X10250571Y-18716929D01*
X10250571Y-18645500D01*
X10264857Y-18588357D01*
X10279143Y-18559786D01*
X10293428Y-18545500D01*
X10322000Y-18531214D01*
X10550571Y-18802643D02*
X10564857Y-18816929D01*
X10550571Y-18831214D01*
X10536286Y-18816929D01*
X10550571Y-18802643D01*
X10550571Y-18831214D01*
X10750571Y-18531214D02*
X10779143Y-18531214D01*
X10807714Y-18545500D01*
X10822000Y-18559786D01*
X10836286Y-18588357D01*
X10850571Y-18645500D01*
X10850571Y-18716929D01*
X10836286Y-18774072D01*
X10822000Y-18802643D01*
X10807714Y-18816929D01*
X10779143Y-18831214D01*
X10750571Y-18831214D01*
X10722000Y-18816929D01*
X10707714Y-18802643D01*
X10693428Y-18774072D01*
X10679143Y-18716929D01*
X10679143Y-18645500D01*
X10693428Y-18588357D01*
X10707714Y-18559786D01*
X10722000Y-18545500D01*
X10750571Y-18531214D01*
X10993428Y-18831214D02*
X11050571Y-18831214D01*
X11079143Y-18816929D01*
X11093428Y-18802643D01*
X11122000Y-18759786D01*
X11136286Y-18702643D01*
X11136286Y-18588357D01*
X11122000Y-18559786D01*
X11107714Y-18545500D01*
X11079143Y-18531214D01*
X11022000Y-18531214D01*
X10993428Y-18545500D01*
X10979143Y-18559786D01*
X10964857Y-18588357D01*
X10964857Y-18659786D01*
X10979143Y-18688357D01*
X10993428Y-18702643D01*
X11022000Y-18716929D01*
X11079143Y-18716929D01*
X11107714Y-18702643D01*
X11122000Y-18688357D01*
X11136286Y-18659786D01*
X11307714Y-18659786D02*
X11279143Y-18645500D01*
X11264857Y-18631214D01*
X11250571Y-18602643D01*
X11250571Y-18588357D01*
X11264857Y-18559786D01*
X11279143Y-18545500D01*
X11307714Y-18531214D01*
X11364857Y-18531214D01*
X11393428Y-18545500D01*
X11407714Y-18559786D01*
X11422000Y-18588357D01*
X11422000Y-18602643D01*
X11407714Y-18631214D01*
X11393428Y-18645500D01*
X11364857Y-18659786D01*
X11307714Y-18659786D01*
X11279143Y-18674072D01*
X11264857Y-18688357D01*
X11250571Y-18716929D01*
X11250571Y-18774072D01*
X11264857Y-18802643D01*
X11279143Y-18816929D01*
X11307714Y-18831214D01*
X11364857Y-18831214D01*
X11393428Y-18816929D01*
X11407714Y-18802643D01*
X11422000Y-18774072D01*
X11422000Y-18716929D01*
X11407714Y-18688357D01*
X11393428Y-18674072D01*
X11364857Y-18659786D01*
X11536286Y-18531214D02*
X11536286Y-18588357D01*
X11650571Y-18531214D02*
X11650571Y-18588357D01*
X12093428Y-18945500D02*
X12079143Y-18931214D01*
X12050571Y-18888357D01*
X12036285Y-18859786D01*
X12022000Y-18816929D01*
X12007714Y-18745500D01*
X12007714Y-18688357D01*
X12022000Y-18616929D01*
X12036285Y-18574072D01*
X12050571Y-18545500D01*
X12079143Y-18502643D01*
X12093428Y-18488357D01*
X12336285Y-18631214D02*
X12336285Y-18831214D01*
X12264857Y-18516929D02*
X12193428Y-18731214D01*
X12379143Y-18731214D01*
X12722000Y-18831214D02*
X12722000Y-18531214D01*
X12850571Y-18831214D02*
X12850571Y-18674072D01*
X12836285Y-18645500D01*
X12807714Y-18631214D01*
X12764857Y-18631214D01*
X12736285Y-18645500D01*
X12722000Y-18659786D01*
X13036285Y-18831214D02*
X13007714Y-18816929D01*
X12993428Y-18802643D01*
X12979143Y-18774072D01*
X12979143Y-18688357D01*
X12993428Y-18659786D01*
X13007714Y-18645500D01*
X13036285Y-18631214D01*
X13079143Y-18631214D01*
X13107714Y-18645500D01*
X13122000Y-18659786D01*
X13136285Y-18688357D01*
X13136285Y-18774072D01*
X13122000Y-18802643D01*
X13107714Y-18816929D01*
X13079143Y-18831214D01*
X13036285Y-18831214D01*
X13307714Y-18831214D02*
X13279143Y-18816929D01*
X13264857Y-18788357D01*
X13264857Y-18531214D01*
X13536286Y-18816929D02*
X13507714Y-18831214D01*
X13450571Y-18831214D01*
X13422000Y-18816929D01*
X13407714Y-18788357D01*
X13407714Y-18674072D01*
X13422000Y-18645500D01*
X13450571Y-18631214D01*
X13507714Y-18631214D01*
X13536286Y-18645500D01*
X13550571Y-18674072D01*
X13550571Y-18702643D01*
X13407714Y-18731214D01*
X13664857Y-18816929D02*
X13693428Y-18831214D01*
X13750571Y-18831214D01*
X13779143Y-18816929D01*
X13793428Y-18788357D01*
X13793428Y-18774072D01*
X13779143Y-18745500D01*
X13750571Y-18731214D01*
X13707714Y-18731214D01*
X13679143Y-18716929D01*
X13664857Y-18688357D01*
X13664857Y-18674072D01*
X13679143Y-18645500D01*
X13707714Y-18631214D01*
X13750571Y-18631214D01*
X13779143Y-18645500D01*
X13893428Y-18945500D02*
X13907714Y-18931214D01*
X13936286Y-18888357D01*
X13950571Y-18859786D01*
X13964857Y-18816929D01*
X13979143Y-18745500D01*
X13979143Y-18688357D01*
X13964857Y-18616929D01*
X13950571Y-18574072D01*
X13936286Y-18545500D01*
X13907714Y-18502643D01*
X13893428Y-18488357D01*
X7172000Y-18966500D02*
X7422000Y-19216500D01*
X7422000Y-18966500D02*
X7172000Y-19216500D01*
X7297000Y-18966500D02*
X7297000Y-19216500D01*
X7172000Y-19091500D02*
X7422000Y-19091500D01*
X7679143Y-18955786D02*
X7693428Y-18941500D01*
X7722000Y-18927214D01*
X7793428Y-18927214D01*
X7822000Y-18941500D01*
X7836286Y-18955786D01*
X7850571Y-18984357D01*
X7850571Y-19012929D01*
X7836286Y-19055786D01*
X7664857Y-19227214D01*
X7850571Y-19227214D01*
X7979143Y-19198643D02*
X7993428Y-19212929D01*
X7979143Y-19227214D01*
X7964857Y-19212929D01*
X7979143Y-19198643D01*
X7979143Y-19227214D01*
X8264857Y-18927214D02*
X8122000Y-18927214D01*
X8107714Y-19070072D01*
X8122000Y-19055786D01*
X8150571Y-19041500D01*
X8222000Y-19041500D01*
X8250571Y-19055786D01*
X8264857Y-19070072D01*
X8279143Y-19098643D01*
X8279143Y-19170072D01*
X8264857Y-19198643D01*
X8250571Y-19212929D01*
X8222000Y-19227214D01*
X8150571Y-19227214D01*
X8122000Y-19212929D01*
X8107714Y-19198643D01*
X8464857Y-18927214D02*
X8493429Y-18927214D01*
X8522000Y-18941500D01*
X8536286Y-18955786D01*
X8550571Y-18984357D01*
X8564857Y-19041500D01*
X8564857Y-19112929D01*
X8550571Y-19170072D01*
X8536286Y-19198643D01*
X8522000Y-19212929D01*
X8493429Y-19227214D01*
X8464857Y-19227214D01*
X8436286Y-19212929D01*
X8422000Y-19198643D01*
X8407714Y-19170072D01*
X8393429Y-19112929D01*
X8393429Y-19041500D01*
X8407714Y-18984357D01*
X8422000Y-18955786D01*
X8436286Y-18941500D01*
X8464857Y-18927214D01*
X8693429Y-19227214D02*
X8693429Y-19027214D01*
X8693429Y-19055786D02*
X8707714Y-19041500D01*
X8736286Y-19027214D01*
X8779143Y-19027214D01*
X8807714Y-19041500D01*
X8822000Y-19070072D01*
X8822000Y-19227214D01*
X8822000Y-19070072D02*
X8836286Y-19041500D01*
X8864857Y-19027214D01*
X8907714Y-19027214D01*
X8936286Y-19041500D01*
X8950571Y-19070072D01*
X8950571Y-19227214D01*
X9093429Y-19227214D02*
X9093429Y-19027214D01*
X9093429Y-19055786D02*
X9107714Y-19041500D01*
X9136286Y-19027214D01*
X9179143Y-19027214D01*
X9207714Y-19041500D01*
X9222000Y-19070072D01*
X9222000Y-19227214D01*
X9222000Y-19070072D02*
X9236286Y-19041500D01*
X9264857Y-19027214D01*
X9307714Y-19027214D01*
X9336286Y-19041500D01*
X9350571Y-19070072D01*
X9350571Y-19227214D01*
X9936286Y-18912929D02*
X9679143Y-19298643D01*
X10322000Y-18927214D02*
X10350571Y-18927214D01*
X10379143Y-18941500D01*
X10393428Y-18955786D01*
X10407714Y-18984357D01*
X10422000Y-19041500D01*
X10422000Y-19112929D01*
X10407714Y-19170072D01*
X10393428Y-19198643D01*
X10379143Y-19212929D01*
X10350571Y-19227214D01*
X10322000Y-19227214D01*
X10293428Y-19212929D01*
X10279143Y-19198643D01*
X10264857Y-19170072D01*
X10250571Y-19112929D01*
X10250571Y-19041500D01*
X10264857Y-18984357D01*
X10279143Y-18955786D01*
X10293428Y-18941500D01*
X10322000Y-18927214D01*
X10550571Y-19198643D02*
X10564857Y-19212929D01*
X10550571Y-19227214D01*
X10536286Y-19212929D01*
X10550571Y-19198643D01*
X10550571Y-19227214D01*
X10750571Y-18927214D02*
X10779143Y-18927214D01*
X10807714Y-18941500D01*
X10822000Y-18955786D01*
X10836286Y-18984357D01*
X10850571Y-19041500D01*
X10850571Y-19112929D01*
X10836286Y-19170072D01*
X10822000Y-19198643D01*
X10807714Y-19212929D01*
X10779143Y-19227214D01*
X10750571Y-19227214D01*
X10722000Y-19212929D01*
X10707714Y-19198643D01*
X10693428Y-19170072D01*
X10679143Y-19112929D01*
X10679143Y-19041500D01*
X10693428Y-18984357D01*
X10707714Y-18955786D01*
X10722000Y-18941500D01*
X10750571Y-18927214D01*
X10993428Y-19227214D02*
X11050571Y-19227214D01*
X11079143Y-19212929D01*
X11093428Y-19198643D01*
X11122000Y-19155786D01*
X11136286Y-19098643D01*
X11136286Y-18984357D01*
X11122000Y-18955786D01*
X11107714Y-18941500D01*
X11079143Y-18927214D01*
X11022000Y-18927214D01*
X10993428Y-18941500D01*
X10979143Y-18955786D01*
X10964857Y-18984357D01*
X10964857Y-19055786D01*
X10979143Y-19084357D01*
X10993428Y-19098643D01*
X11022000Y-19112929D01*
X11079143Y-19112929D01*
X11107714Y-19098643D01*
X11122000Y-19084357D01*
X11136286Y-19055786D01*
X11307714Y-19055786D02*
X11279143Y-19041500D01*
X11264857Y-19027214D01*
X11250571Y-18998643D01*
X11250571Y-18984357D01*
X11264857Y-18955786D01*
X11279143Y-18941500D01*
X11307714Y-18927214D01*
X11364857Y-18927214D01*
X11393428Y-18941500D01*
X11407714Y-18955786D01*
X11422000Y-18984357D01*
X11422000Y-18998643D01*
X11407714Y-19027214D01*
X11393428Y-19041500D01*
X11364857Y-19055786D01*
X11307714Y-19055786D01*
X11279143Y-19070072D01*
X11264857Y-19084357D01*
X11250571Y-19112929D01*
X11250571Y-19170072D01*
X11264857Y-19198643D01*
X11279143Y-19212929D01*
X11307714Y-19227214D01*
X11364857Y-19227214D01*
X11393428Y-19212929D01*
X11407714Y-19198643D01*
X11422000Y-19170072D01*
X11422000Y-19112929D01*
X11407714Y-19084357D01*
X11393428Y-19070072D01*
X11364857Y-19055786D01*
X11536286Y-18927214D02*
X11536286Y-18984357D01*
X11650571Y-18927214D02*
X11650571Y-18984357D01*
X12093428Y-19341500D02*
X12079143Y-19327214D01*
X12050571Y-19284357D01*
X12036285Y-19255786D01*
X12022000Y-19212929D01*
X12007714Y-19141500D01*
X12007714Y-19084357D01*
X12022000Y-19012929D01*
X12036285Y-18970072D01*
X12050571Y-18941500D01*
X12079143Y-18898643D01*
X12093428Y-18884357D01*
X12336285Y-19027214D02*
X12336285Y-19227214D01*
X12264857Y-18912929D02*
X12193428Y-19127214D01*
X12379143Y-19127214D01*
X12722000Y-19227214D02*
X12722000Y-18927214D01*
X12850571Y-19227214D02*
X12850571Y-19070072D01*
X12836285Y-19041500D01*
X12807714Y-19027214D01*
X12764857Y-19027214D01*
X12736285Y-19041500D01*
X12722000Y-19055786D01*
X13036285Y-19227214D02*
X13007714Y-19212929D01*
X12993428Y-19198643D01*
X12979143Y-19170072D01*
X12979143Y-19084357D01*
X12993428Y-19055786D01*
X13007714Y-19041500D01*
X13036285Y-19027214D01*
X13079143Y-19027214D01*
X13107714Y-19041500D01*
X13122000Y-19055786D01*
X13136285Y-19084357D01*
X13136285Y-19170072D01*
X13122000Y-19198643D01*
X13107714Y-19212929D01*
X13079143Y-19227214D01*
X13036285Y-19227214D01*
X13307714Y-19227214D02*
X13279143Y-19212929D01*
X13264857Y-19184357D01*
X13264857Y-18927214D01*
X13536286Y-19212929D02*
X13507714Y-19227214D01*
X13450571Y-19227214D01*
X13422000Y-19212929D01*
X13407714Y-19184357D01*
X13407714Y-19070072D01*
X13422000Y-19041500D01*
X13450571Y-19027214D01*
X13507714Y-19027214D01*
X13536286Y-19041500D01*
X13550571Y-19070072D01*
X13550571Y-19098643D01*
X13407714Y-19127214D01*
X13664857Y-19212929D02*
X13693428Y-19227214D01*
X13750571Y-19227214D01*
X13779143Y-19212929D01*
X13793428Y-19184357D01*
X13793428Y-19170072D01*
X13779143Y-19141500D01*
X13750571Y-19127214D01*
X13707714Y-19127214D01*
X13679143Y-19112929D01*
X13664857Y-19084357D01*
X13664857Y-19070072D01*
X13679143Y-19041500D01*
X13707714Y-19027214D01*
X13750571Y-19027214D01*
X13779143Y-19041500D01*
X13893428Y-19341500D02*
X13907714Y-19327214D01*
X13936286Y-19284357D01*
X13950571Y-19255786D01*
X13964857Y-19212929D01*
X13979143Y-19141500D01*
X13979143Y-19084357D01*
X13964857Y-19012929D01*
X13950571Y-18970072D01*
X13936286Y-18941500D01*
X13907714Y-18898643D01*
X13893428Y-18884357D01*
X7162000Y-19357500D02*
X7422000Y-19617500D01*
X7422000Y-19357500D02*
X7162000Y-19617500D01*
X7383925Y-19579425D02*
X7383925Y-19395575D01*
X7200075Y-19395575D01*
X7200075Y-19579425D01*
X7383925Y-19579425D01*
X7679143Y-19351786D02*
X7693428Y-19337500D01*
X7722000Y-19323214D01*
X7793428Y-19323214D01*
X7822000Y-19337500D01*
X7836286Y-19351786D01*
X7850571Y-19380357D01*
X7850571Y-19408929D01*
X7836286Y-19451786D01*
X7664857Y-19623214D01*
X7850571Y-19623214D01*
X7979143Y-19594643D02*
X7993428Y-19608929D01*
X7979143Y-19623214D01*
X7964857Y-19608929D01*
X7979143Y-19594643D01*
X7979143Y-19623214D01*
X8250571Y-19323214D02*
X8193428Y-19323214D01*
X8164857Y-19337500D01*
X8150571Y-19351786D01*
X8122000Y-19394643D01*
X8107714Y-19451786D01*
X8107714Y-19566072D01*
X8122000Y-19594643D01*
X8136286Y-19608929D01*
X8164857Y-19623214D01*
X8222000Y-19623214D01*
X8250571Y-19608929D01*
X8264857Y-19594643D01*
X8279143Y-19566072D01*
X8279143Y-19494643D01*
X8264857Y-19466072D01*
X8250571Y-19451786D01*
X8222000Y-19437500D01*
X8164857Y-19437500D01*
X8136286Y-19451786D01*
X8122000Y-19466072D01*
X8107714Y-19494643D01*
X8464857Y-19323214D02*
X8493429Y-19323214D01*
X8522000Y-19337500D01*
X8536286Y-19351786D01*
X8550571Y-19380357D01*
X8564857Y-19437500D01*
X8564857Y-19508929D01*
X8550571Y-19566072D01*
X8536286Y-19594643D01*
X8522000Y-19608929D01*
X8493429Y-19623214D01*
X8464857Y-19623214D01*
X8436286Y-19608929D01*
X8422000Y-19594643D01*
X8407714Y-19566072D01*
X8393429Y-19508929D01*
X8393429Y-19437500D01*
X8407714Y-19380357D01*
X8422000Y-19351786D01*
X8436286Y-19337500D01*
X8464857Y-19323214D01*
X8693429Y-19623214D02*
X8693429Y-19423214D01*
X8693429Y-19451786D02*
X8707714Y-19437500D01*
X8736286Y-19423214D01*
X8779143Y-19423214D01*
X8807714Y-19437500D01*
X8822000Y-19466072D01*
X8822000Y-19623214D01*
X8822000Y-19466072D02*
X8836286Y-19437500D01*
X8864857Y-19423214D01*
X8907714Y-19423214D01*
X8936286Y-19437500D01*
X8950571Y-19466072D01*
X8950571Y-19623214D01*
X9093429Y-19623214D02*
X9093429Y-19423214D01*
X9093429Y-19451786D02*
X9107714Y-19437500D01*
X9136286Y-19423214D01*
X9179143Y-19423214D01*
X9207714Y-19437500D01*
X9222000Y-19466072D01*
X9222000Y-19623214D01*
X9222000Y-19466072D02*
X9236286Y-19437500D01*
X9264857Y-19423214D01*
X9307714Y-19423214D01*
X9336286Y-19437500D01*
X9350571Y-19466072D01*
X9350571Y-19623214D01*
X9936286Y-19308929D02*
X9679143Y-19694643D01*
X10322000Y-19323214D02*
X10350571Y-19323214D01*
X10379143Y-19337500D01*
X10393428Y-19351786D01*
X10407714Y-19380357D01*
X10422000Y-19437500D01*
X10422000Y-19508929D01*
X10407714Y-19566072D01*
X10393428Y-19594643D01*
X10379143Y-19608929D01*
X10350571Y-19623214D01*
X10322000Y-19623214D01*
X10293428Y-19608929D01*
X10279143Y-19594643D01*
X10264857Y-19566072D01*
X10250571Y-19508929D01*
X10250571Y-19437500D01*
X10264857Y-19380357D01*
X10279143Y-19351786D01*
X10293428Y-19337500D01*
X10322000Y-19323214D01*
X10550571Y-19594643D02*
X10564857Y-19608929D01*
X10550571Y-19623214D01*
X10536286Y-19608929D01*
X10550571Y-19594643D01*
X10550571Y-19623214D01*
X10850571Y-19623214D02*
X10679143Y-19623214D01*
X10764857Y-19623214D02*
X10764857Y-19323214D01*
X10736286Y-19366072D01*
X10707714Y-19394643D01*
X10679143Y-19408929D01*
X11036286Y-19323214D02*
X11064857Y-19323214D01*
X11093428Y-19337500D01*
X11107714Y-19351786D01*
X11122000Y-19380357D01*
X11136286Y-19437500D01*
X11136286Y-19508929D01*
X11122000Y-19566072D01*
X11107714Y-19594643D01*
X11093428Y-19608929D01*
X11064857Y-19623214D01*
X11036286Y-19623214D01*
X11007714Y-19608929D01*
X10993428Y-19594643D01*
X10979143Y-19566072D01*
X10964857Y-19508929D01*
X10964857Y-19437500D01*
X10979143Y-19380357D01*
X10993428Y-19351786D01*
X11007714Y-19337500D01*
X11036286Y-19323214D01*
X11250571Y-19351786D02*
X11264857Y-19337500D01*
X11293428Y-19323214D01*
X11364857Y-19323214D01*
X11393428Y-19337500D01*
X11407714Y-19351786D01*
X11422000Y-19380357D01*
X11422000Y-19408929D01*
X11407714Y-19451786D01*
X11236285Y-19623214D01*
X11422000Y-19623214D01*
X11536286Y-19323214D02*
X11536286Y-19380357D01*
X11650571Y-19323214D02*
X11650571Y-19380357D01*
X12093428Y-19737500D02*
X12079143Y-19723214D01*
X12050571Y-19680357D01*
X12036285Y-19651786D01*
X12022000Y-19608929D01*
X12007714Y-19537500D01*
X12007714Y-19480357D01*
X12022000Y-19408929D01*
X12036285Y-19366072D01*
X12050571Y-19337500D01*
X12079143Y-19294643D01*
X12093428Y-19280357D01*
X12193428Y-19351786D02*
X12207714Y-19337500D01*
X12236285Y-19323214D01*
X12307714Y-19323214D01*
X12336285Y-19337500D01*
X12350571Y-19351786D01*
X12364857Y-19380357D01*
X12364857Y-19408929D01*
X12350571Y-19451786D01*
X12179143Y-19623214D01*
X12364857Y-19623214D01*
X12722000Y-19623214D02*
X12722000Y-19323214D01*
X12850571Y-19623214D02*
X12850571Y-19466072D01*
X12836285Y-19437500D01*
X12807714Y-19423214D01*
X12764857Y-19423214D01*
X12736285Y-19437500D01*
X12722000Y-19451786D01*
X13036285Y-19623214D02*
X13007714Y-19608929D01*
X12993428Y-19594643D01*
X12979143Y-19566072D01*
X12979143Y-19480357D01*
X12993428Y-19451786D01*
X13007714Y-19437500D01*
X13036285Y-19423214D01*
X13079143Y-19423214D01*
X13107714Y-19437500D01*
X13122000Y-19451786D01*
X13136285Y-19480357D01*
X13136285Y-19566072D01*
X13122000Y-19594643D01*
X13107714Y-19608929D01*
X13079143Y-19623214D01*
X13036285Y-19623214D01*
X13307714Y-19623214D02*
X13279143Y-19608929D01*
X13264857Y-19580357D01*
X13264857Y-19323214D01*
X13536286Y-19608929D02*
X13507714Y-19623214D01*
X13450571Y-19623214D01*
X13422000Y-19608929D01*
X13407714Y-19580357D01*
X13407714Y-19466072D01*
X13422000Y-19437500D01*
X13450571Y-19423214D01*
X13507714Y-19423214D01*
X13536286Y-19437500D01*
X13550571Y-19466072D01*
X13550571Y-19494643D01*
X13407714Y-19523214D01*
X13664857Y-19608929D02*
X13693428Y-19623214D01*
X13750571Y-19623214D01*
X13779143Y-19608929D01*
X13793428Y-19580357D01*
X13793428Y-19566072D01*
X13779143Y-19537500D01*
X13750571Y-19523214D01*
X13707714Y-19523214D01*
X13679143Y-19508929D01*
X13664857Y-19480357D01*
X13664857Y-19466072D01*
X13679143Y-19437500D01*
X13707714Y-19423214D01*
X13750571Y-19423214D01*
X13779143Y-19437500D01*
X13893428Y-19737500D02*
X13907714Y-19723214D01*
X13936286Y-19680357D01*
X13950571Y-19651786D01*
X13964857Y-19608929D01*
X13979143Y-19537500D01*
X13979143Y-19480357D01*
X13964857Y-19408929D01*
X13950571Y-19366072D01*
X13936286Y-19337500D01*
X13907714Y-19294643D01*
X13893428Y-19280357D01*
X7022000Y-19683500D02*
X7422000Y-20083500D01*
X7422000Y-19683500D02*
X7022000Y-20083500D01*
X7222000Y-20083500D02*
X7422000Y-19883500D01*
X7222000Y-19683500D01*
X7022000Y-19883500D01*
X7222000Y-20083500D01*
X7822000Y-19819214D02*
X7822000Y-20019214D01*
X7750571Y-19704929D02*
X7679143Y-19919214D01*
X7864857Y-19919214D01*
X7979143Y-19990643D02*
X7993428Y-20004929D01*
X7979143Y-20019214D01*
X7964857Y-20004929D01*
X7979143Y-19990643D01*
X7979143Y-20019214D01*
X8179143Y-19719214D02*
X8207714Y-19719214D01*
X8236286Y-19733500D01*
X8250571Y-19747786D01*
X8264857Y-19776357D01*
X8279143Y-19833500D01*
X8279143Y-19904929D01*
X8264857Y-19962072D01*
X8250571Y-19990643D01*
X8236286Y-20004929D01*
X8207714Y-20019214D01*
X8179143Y-20019214D01*
X8150571Y-20004929D01*
X8136286Y-19990643D01*
X8122000Y-19962072D01*
X8107714Y-19904929D01*
X8107714Y-19833500D01*
X8122000Y-19776357D01*
X8136286Y-19747786D01*
X8150571Y-19733500D01*
X8179143Y-19719214D01*
X8464857Y-19719214D02*
X8493429Y-19719214D01*
X8522000Y-19733500D01*
X8536286Y-19747786D01*
X8550571Y-19776357D01*
X8564857Y-19833500D01*
X8564857Y-19904929D01*
X8550571Y-19962072D01*
X8536286Y-19990643D01*
X8522000Y-20004929D01*
X8493429Y-20019214D01*
X8464857Y-20019214D01*
X8436286Y-20004929D01*
X8422000Y-19990643D01*
X8407714Y-19962072D01*
X8393429Y-19904929D01*
X8393429Y-19833500D01*
X8407714Y-19776357D01*
X8422000Y-19747786D01*
X8436286Y-19733500D01*
X8464857Y-19719214D01*
X8693429Y-20019214D02*
X8693429Y-19819214D01*
X8693429Y-19847786D02*
X8707714Y-19833500D01*
X8736286Y-19819214D01*
X8779143Y-19819214D01*
X8807714Y-19833500D01*
X8822000Y-19862072D01*
X8822000Y-20019214D01*
X8822000Y-19862072D02*
X8836286Y-19833500D01*
X8864857Y-19819214D01*
X8907714Y-19819214D01*
X8936286Y-19833500D01*
X8950571Y-19862072D01*
X8950571Y-20019214D01*
X9093429Y-20019214D02*
X9093429Y-19819214D01*
X9093429Y-19847786D02*
X9107714Y-19833500D01*
X9136286Y-19819214D01*
X9179143Y-19819214D01*
X9207714Y-19833500D01*
X9222000Y-19862072D01*
X9222000Y-20019214D01*
X9222000Y-19862072D02*
X9236286Y-19833500D01*
X9264857Y-19819214D01*
X9307714Y-19819214D01*
X9336286Y-19833500D01*
X9350571Y-19862072D01*
X9350571Y-20019214D01*
X9936286Y-19704929D02*
X9679143Y-20090643D01*
X10322000Y-19719214D02*
X10350571Y-19719214D01*
X10379143Y-19733500D01*
X10393428Y-19747786D01*
X10407714Y-19776357D01*
X10422000Y-19833500D01*
X10422000Y-19904929D01*
X10407714Y-19962072D01*
X10393428Y-19990643D01*
X10379143Y-20004929D01*
X10350571Y-20019214D01*
X10322000Y-20019214D01*
X10293428Y-20004929D01*
X10279143Y-19990643D01*
X10264857Y-19962072D01*
X10250571Y-19904929D01*
X10250571Y-19833500D01*
X10264857Y-19776357D01*
X10279143Y-19747786D01*
X10293428Y-19733500D01*
X10322000Y-19719214D01*
X10550571Y-19990643D02*
X10564857Y-20004929D01*
X10550571Y-20019214D01*
X10536286Y-20004929D01*
X10550571Y-19990643D01*
X10550571Y-20019214D01*
X10850571Y-20019214D02*
X10679143Y-20019214D01*
X10764857Y-20019214D02*
X10764857Y-19719214D01*
X10736286Y-19762072D01*
X10707714Y-19790643D01*
X10679143Y-19804929D01*
X11122000Y-19719214D02*
X10979143Y-19719214D01*
X10964857Y-19862072D01*
X10979143Y-19847786D01*
X11007714Y-19833500D01*
X11079143Y-19833500D01*
X11107714Y-19847786D01*
X11122000Y-19862072D01*
X11136286Y-19890643D01*
X11136286Y-19962072D01*
X11122000Y-19990643D01*
X11107714Y-20004929D01*
X11079143Y-20019214D01*
X11007714Y-20019214D01*
X10979143Y-20004929D01*
X10964857Y-19990643D01*
X11236285Y-19719214D02*
X11436285Y-19719214D01*
X11307714Y-20019214D01*
X11536286Y-19719214D02*
X11536286Y-19776357D01*
X11650571Y-19719214D02*
X11650571Y-19776357D01*
X12093428Y-20133500D02*
X12079143Y-20119214D01*
X12050571Y-20076357D01*
X12036285Y-20047786D01*
X12022000Y-20004929D01*
X12007714Y-19933500D01*
X12007714Y-19876357D01*
X12022000Y-19804929D01*
X12036285Y-19762072D01*
X12050571Y-19733500D01*
X12079143Y-19690643D01*
X12093428Y-19676357D01*
X12336285Y-19819214D02*
X12336285Y-20019214D01*
X12264857Y-19704929D02*
X12193428Y-19919214D01*
X12379143Y-19919214D01*
X12722000Y-20019214D02*
X12722000Y-19719214D01*
X12850571Y-20019214D02*
X12850571Y-19862072D01*
X12836285Y-19833500D01*
X12807714Y-19819214D01*
X12764857Y-19819214D01*
X12736285Y-19833500D01*
X12722000Y-19847786D01*
X13036285Y-20019214D02*
X13007714Y-20004929D01*
X12993428Y-19990643D01*
X12979143Y-19962072D01*
X12979143Y-19876357D01*
X12993428Y-19847786D01*
X13007714Y-19833500D01*
X13036285Y-19819214D01*
X13079143Y-19819214D01*
X13107714Y-19833500D01*
X13122000Y-19847786D01*
X13136285Y-19876357D01*
X13136285Y-19962072D01*
X13122000Y-19990643D01*
X13107714Y-20004929D01*
X13079143Y-20019214D01*
X13036285Y-20019214D01*
X13307714Y-20019214D02*
X13279143Y-20004929D01*
X13264857Y-19976357D01*
X13264857Y-19719214D01*
X13536286Y-20004929D02*
X13507714Y-20019214D01*
X13450571Y-20019214D01*
X13422000Y-20004929D01*
X13407714Y-19976357D01*
X13407714Y-19862072D01*
X13422000Y-19833500D01*
X13450571Y-19819214D01*
X13507714Y-19819214D01*
X13536286Y-19833500D01*
X13550571Y-19862072D01*
X13550571Y-19890643D01*
X13407714Y-19919214D01*
X13664857Y-20004929D02*
X13693428Y-20019214D01*
X13750571Y-20019214D01*
X13779143Y-20004929D01*
X13793428Y-19976357D01*
X13793428Y-19962072D01*
X13779143Y-19933500D01*
X13750571Y-19919214D01*
X13707714Y-19919214D01*
X13679143Y-19904929D01*
X13664857Y-19876357D01*
X13664857Y-19862072D01*
X13679143Y-19833500D01*
X13707714Y-19819214D01*
X13750571Y-19819214D01*
X13779143Y-19833500D01*
X13893428Y-20133500D02*
X13907714Y-20119214D01*
X13936286Y-20076357D01*
X13950571Y-20047786D01*
X13964857Y-20004929D01*
X13979143Y-19933500D01*
X13979143Y-19876357D01*
X13964857Y-19804929D01*
X13950571Y-19762072D01*
X13936286Y-19733500D01*
X13907714Y-19690643D01*
X13893428Y-19676357D01*
M02*
