G04 #@! TF.FileFunction,Copper,L1,Top,Signal*
%FSLAX46Y46*%
G04 Gerber Fmt 4.6, Leading zero omitted, Abs format (unit mm)*
G04 Created by KiCad (PCBNEW 4.0.1-stable) date Tuesday, March 29, 2016 'AMt' 01:29:57 AM*
%MOMM*%
G01*
G04 APERTURE LIST*
%ADD10C,0.100000*%
%ADD11R,1.250000X1.000000*%
%ADD12R,1.000000X1.250000*%
%ADD13R,1.198880X1.198880*%
%ADD14R,2.600000X3.200000*%
%ADD15R,0.550000X1.600000*%
%ADD16R,1.600000X0.550000*%
%ADD17O,3.500120X1.800860*%
%ADD18C,1.524000*%
%ADD19C,2.700020*%
%ADD20R,0.800100X0.800100*%
%ADD21R,0.700000X1.300000*%
%ADD22R,1.300000X0.700000*%
%ADD23R,3.200000X3.200000*%
%ADD24R,0.450000X1.750000*%
%ADD25R,1.550000X0.600000*%
%ADD26R,1.399540X1.800860*%
%ADD27R,1.800000X2.230000*%
%ADD28O,1.727200X2.032000*%
%ADD29R,1.727200X2.032000*%
%ADD30R,1.727200X1.727200*%
%ADD31O,1.727200X1.727200*%
%ADD32R,1.200000X1.200000*%
%ADD33R,1.600000X1.500000*%
%ADD34C,1.397000*%
%ADD35R,1.300000X1.500000*%
%ADD36R,1.300000X1.300000*%
%ADD37C,1.016000*%
%ADD38C,0.508000*%
%ADD39C,0.381000*%
%ADD40C,0.250000*%
%ADD41C,0.254000*%
G04 APERTURE END LIST*
D10*
D11*
X102235000Y-72120000D03*
X102235000Y-70120000D03*
D12*
X172577000Y-65151000D03*
X170577000Y-65151000D03*
X159972500Y-52578000D03*
X161972500Y-52578000D03*
X172450000Y-67564000D03*
X170450000Y-67564000D03*
D11*
X160655000Y-65770000D03*
X160655000Y-63770000D03*
X155575000Y-68215000D03*
X155575000Y-70215000D03*
D12*
X153400000Y-52705000D03*
X151400000Y-52705000D03*
X155210000Y-63500000D03*
X157210000Y-63500000D03*
X129270000Y-57150000D03*
X127270000Y-57150000D03*
X130540000Y-59690000D03*
X128540000Y-59690000D03*
D11*
X203835000Y-106124500D03*
X203835000Y-108124500D03*
X206375000Y-98790000D03*
X206375000Y-96790000D03*
D13*
X194022980Y-62992000D03*
X196121020Y-62992000D03*
X194149980Y-59563000D03*
X196248020Y-59563000D03*
D14*
X139275000Y-57785000D03*
X146475000Y-57785000D03*
D15*
X134118000Y-69410000D03*
X133318000Y-69410000D03*
X132518000Y-69410000D03*
X131718000Y-69410000D03*
X130918000Y-69410000D03*
X130118000Y-69410000D03*
X129318000Y-69410000D03*
X128518000Y-69410000D03*
D16*
X127068000Y-70860000D03*
X127068000Y-71660000D03*
X127068000Y-72460000D03*
X127068000Y-73260000D03*
X127068000Y-74060000D03*
X127068000Y-74860000D03*
X127068000Y-75660000D03*
X127068000Y-76460000D03*
D15*
X128518000Y-77910000D03*
X129318000Y-77910000D03*
X130118000Y-77910000D03*
X130918000Y-77910000D03*
X131718000Y-77910000D03*
X132518000Y-77910000D03*
X133318000Y-77910000D03*
X134118000Y-77910000D03*
D16*
X135568000Y-76460000D03*
X135568000Y-75660000D03*
X135568000Y-74860000D03*
X135568000Y-74060000D03*
X135568000Y-73260000D03*
X135568000Y-72460000D03*
X135568000Y-71660000D03*
X135568000Y-70860000D03*
D12*
X195850000Y-69850000D03*
X197850000Y-69850000D03*
D11*
X151130000Y-54880000D03*
X151130000Y-56880000D03*
D17*
X79502000Y-64770000D03*
X79502000Y-67310000D03*
D18*
X203835000Y-73025000D03*
X203835000Y-70485000D03*
X205833980Y-70485000D03*
X205833980Y-73025000D03*
D19*
X208534000Y-77754480D03*
X208534000Y-65755520D03*
D17*
X79502000Y-94996000D03*
X79502000Y-97536000D03*
X79502000Y-80264000D03*
X79502000Y-82804000D03*
X79502000Y-87884000D03*
X79502000Y-90424000D03*
D20*
X88630760Y-91755000D03*
X88630760Y-89855000D03*
X86631780Y-90805000D03*
X88630760Y-76515000D03*
X88630760Y-74615000D03*
X86631780Y-75565000D03*
X88630760Y-83500000D03*
X88630760Y-81600000D03*
X86631780Y-82550000D03*
D21*
X191577000Y-62992000D03*
X189677000Y-62992000D03*
X191577000Y-59563000D03*
X189677000Y-59563000D03*
X155768000Y-72898000D03*
X157668000Y-72898000D03*
D22*
X165989000Y-58671500D03*
X165989000Y-56771500D03*
X169799000Y-60640000D03*
X169799000Y-58740000D03*
D21*
X139385000Y-67310000D03*
X141285000Y-67310000D03*
X148905000Y-78105000D03*
X147005000Y-78105000D03*
X147635000Y-74930000D03*
X145735000Y-74930000D03*
D22*
X102235000Y-66355000D03*
X102235000Y-64455000D03*
D21*
X198821000Y-103759000D03*
X200721000Y-103759000D03*
X201102000Y-107315000D03*
X199202000Y-107315000D03*
X206695000Y-107315000D03*
X208595000Y-107315000D03*
D22*
X97663000Y-74488000D03*
X97663000Y-76388000D03*
X97028000Y-91882000D03*
X97028000Y-89982000D03*
X97282000Y-81600000D03*
X97282000Y-83500000D03*
D21*
X206695000Y-102235000D03*
X208595000Y-102235000D03*
D22*
X92837000Y-89855000D03*
X92837000Y-91755000D03*
X93345000Y-76515000D03*
X93345000Y-74615000D03*
X92837000Y-83500000D03*
X92837000Y-81600000D03*
D18*
X206335000Y-110610000D03*
X203835000Y-110610000D03*
X201335000Y-110610000D03*
X201335000Y-125110000D03*
X206335000Y-125110000D03*
D23*
X209535000Y-118110000D03*
X198135000Y-118110000D03*
D17*
X79502000Y-71120000D03*
X79502000Y-73660000D03*
D24*
X160240000Y-82975000D03*
X160890000Y-82975000D03*
X161540000Y-82975000D03*
X162190000Y-82975000D03*
X162840000Y-82975000D03*
X163490000Y-82975000D03*
X164140000Y-82975000D03*
X164790000Y-82975000D03*
X165440000Y-82975000D03*
X166090000Y-82975000D03*
X166740000Y-82975000D03*
X167390000Y-82975000D03*
X168040000Y-82975000D03*
X168690000Y-82975000D03*
X168690000Y-75775000D03*
X168040000Y-75775000D03*
X167390000Y-75775000D03*
X166740000Y-75775000D03*
X166090000Y-75775000D03*
X165440000Y-75775000D03*
X164790000Y-75775000D03*
X164140000Y-75775000D03*
X163490000Y-75775000D03*
X162840000Y-75775000D03*
X162190000Y-75775000D03*
X161540000Y-75775000D03*
X160890000Y-75775000D03*
X160240000Y-75775000D03*
D25*
X156685000Y-55245000D03*
X156685000Y-56515000D03*
X156685000Y-57785000D03*
X156685000Y-59055000D03*
X162085000Y-59055000D03*
X162085000Y-57785000D03*
X162085000Y-56515000D03*
X162085000Y-55245000D03*
D26*
X135818880Y-59984640D03*
X135818880Y-55585360D03*
X133421120Y-55585360D03*
X133421120Y-59984640D03*
D27*
X164020000Y-88265000D03*
X161100000Y-88265000D03*
D11*
X167640000Y-69707000D03*
X167640000Y-67707000D03*
D28*
X142875000Y-87630000D03*
X140335000Y-87630000D03*
X137795000Y-87630000D03*
X135255000Y-87630000D03*
X132715000Y-87630000D03*
X130175000Y-87630000D03*
X127635000Y-87630000D03*
X125095000Y-87630000D03*
X122555000Y-87630000D03*
X120015000Y-87630000D03*
X117475000Y-87630000D03*
X114935000Y-87630000D03*
X112395000Y-87630000D03*
X109855000Y-87630000D03*
X107315000Y-87630000D03*
D29*
X104775000Y-87630000D03*
D30*
X121285000Y-83820000D03*
D31*
X121285000Y-81280000D03*
X123825000Y-83820000D03*
X123825000Y-81280000D03*
X126365000Y-83820000D03*
X126365000Y-81280000D03*
D32*
X110982000Y-80442000D03*
X108982000Y-80442000D03*
D33*
X109982000Y-83692000D03*
D22*
X195580000Y-126045000D03*
X195580000Y-124145000D03*
D34*
X95250000Y-60452000D03*
X95250000Y-65532000D03*
X87630000Y-60452000D03*
X87630000Y-65532000D03*
D35*
X146355000Y-65060000D03*
X146355000Y-69560000D03*
D36*
X149855000Y-64960000D03*
D37*
X168148000Y-87058500D03*
X168084500Y-64770000D03*
X203708000Y-102171500D03*
X107569000Y-71818500D03*
X186499500Y-68516500D03*
X164846000Y-60388500D03*
X158115000Y-89281000D03*
X135128000Y-64262000D03*
X123317000Y-77470000D03*
X140081000Y-74168000D03*
X121031000Y-67945000D03*
D38*
X157210000Y-63500000D02*
X157210000Y-64786000D01*
X150681000Y-65786000D02*
X149855000Y-64960000D01*
X156210000Y-65786000D02*
X150681000Y-65786000D01*
X157210000Y-64786000D02*
X156210000Y-65786000D01*
X148844000Y-63246000D02*
X146304000Y-63246000D01*
X146304000Y-63246000D02*
X146304000Y-63182500D01*
X149855000Y-64960000D02*
X149855000Y-64003000D01*
X149098000Y-63246000D02*
X148844000Y-63246000D01*
X149855000Y-64003000D02*
X149098000Y-63246000D01*
X96266000Y-72136000D02*
X96266000Y-70866000D01*
X95250000Y-69850000D02*
X95250000Y-65532000D01*
X96266000Y-70866000D02*
X95250000Y-69850000D01*
X166941500Y-88265000D02*
X164020000Y-88265000D01*
X168148000Y-87058500D02*
X166941500Y-88265000D01*
D39*
X139275000Y-60598500D02*
X137902500Y-60598500D01*
X131127500Y-66865500D02*
X131127500Y-67691000D01*
X134874000Y-63119000D02*
X131127500Y-66865500D01*
X135382000Y-63119000D02*
X134874000Y-63119000D01*
X137902500Y-60598500D02*
X135382000Y-63119000D01*
X97282000Y-81600000D02*
X97282000Y-78613000D01*
X96266000Y-72136000D02*
X97663000Y-73533000D01*
X92329000Y-72136000D02*
X96266000Y-72136000D01*
X90805000Y-73660000D02*
X92329000Y-72136000D01*
X90805000Y-74485500D02*
X90805000Y-73660000D01*
X91884500Y-75565000D02*
X90805000Y-74485500D01*
X94234000Y-75565000D02*
X91884500Y-75565000D01*
X97282000Y-78613000D02*
X94234000Y-75565000D01*
D38*
X139275000Y-57785000D02*
X139275000Y-60598500D01*
X141859000Y-63182500D02*
X146304000Y-63182500D01*
X139275000Y-60598500D02*
X141859000Y-63182500D01*
X165989000Y-56771500D02*
X165989000Y-54800500D01*
X163766500Y-52578000D02*
X161972500Y-52578000D01*
X165989000Y-54800500D02*
X163766500Y-52578000D01*
X161972500Y-52578000D02*
X173863000Y-52578000D01*
X198501000Y-54991000D02*
X197231000Y-54991000D01*
X197231000Y-54991000D02*
X195072000Y-52832000D01*
X198501000Y-54991000D02*
X208534000Y-65024000D01*
X174117000Y-52832000D02*
X195072000Y-52832000D01*
X173863000Y-52578000D02*
X174117000Y-52832000D01*
X161972500Y-52578000D02*
X161972500Y-53292500D01*
X158051500Y-59055000D02*
X156685000Y-59055000D01*
X158305500Y-58801000D02*
X158051500Y-59055000D01*
X158369000Y-58801000D02*
X158305500Y-58801000D01*
X159639000Y-57531000D02*
X158369000Y-58801000D01*
X159639000Y-54991000D02*
X159639000Y-57531000D01*
X160591500Y-54038500D02*
X159639000Y-54991000D01*
X161226500Y-54038500D02*
X160591500Y-54038500D01*
X161972500Y-53292500D02*
X161226500Y-54038500D01*
X167640000Y-67707000D02*
X167640000Y-65214500D01*
X167640000Y-65214500D02*
X168084500Y-64770000D01*
D39*
X170577000Y-65151000D02*
X170577000Y-67437000D01*
X170577000Y-67437000D02*
X170450000Y-67564000D01*
X167640000Y-67707000D02*
X170307000Y-67707000D01*
X170307000Y-67707000D02*
X170450000Y-67564000D01*
X164790000Y-75775000D02*
X164790000Y-69080500D01*
X166163500Y-67707000D02*
X167640000Y-67707000D01*
X164790000Y-69080500D02*
X166163500Y-67707000D01*
D38*
X206375000Y-96790000D02*
X206375000Y-94361000D01*
X208534000Y-92202000D02*
X208534000Y-77754480D01*
X206375000Y-94361000D02*
X208534000Y-92202000D01*
X203835000Y-110610000D02*
X203835000Y-111252000D01*
X203835000Y-111252000D02*
X205232000Y-112649000D01*
X207915000Y-96790000D02*
X206375000Y-96790000D01*
X210820000Y-99695000D02*
X207915000Y-96790000D01*
X210820000Y-109601000D02*
X210820000Y-99695000D01*
X207772000Y-112649000D02*
X210820000Y-109601000D01*
X205232000Y-112649000D02*
X207772000Y-112649000D01*
X203835000Y-110610000D02*
X203835000Y-108061000D01*
X203835000Y-110610000D02*
X203835000Y-112903000D01*
X203835000Y-112903000D02*
X202184000Y-114554000D01*
X209535000Y-118110000D02*
X209296000Y-118110000D01*
X209296000Y-118110000D02*
X205740000Y-114554000D01*
X205740000Y-114554000D02*
X202184000Y-114554000D01*
X202184000Y-114554000D02*
X201930000Y-114554000D01*
X201930000Y-114554000D02*
X198374000Y-118110000D01*
X198374000Y-118110000D02*
X198374000Y-121285000D01*
X198374000Y-121285000D02*
X195580000Y-124079000D01*
X195580000Y-124079000D02*
X195580000Y-124145000D01*
D39*
X161540000Y-75775000D02*
X161540000Y-73783000D01*
X160655000Y-72898000D02*
X157668000Y-72898000D01*
X161540000Y-73783000D02*
X160655000Y-72898000D01*
X166740000Y-75775000D02*
X166740000Y-77735000D01*
X165862000Y-78613000D02*
X164734000Y-78613000D01*
X166740000Y-77735000D02*
X165862000Y-78613000D01*
X162190000Y-75775000D02*
X161540000Y-75775000D01*
X161540000Y-75775000D02*
X161798000Y-76033000D01*
X161798000Y-76033000D02*
X161798000Y-77216000D01*
X161798000Y-77216000D02*
X162814000Y-78232000D01*
X162814000Y-78232000D02*
X164353000Y-78232000D01*
X164353000Y-78232000D02*
X164734000Y-78613000D01*
X164734000Y-78613000D02*
X164790000Y-78669000D01*
X164790000Y-78669000D02*
X164790000Y-75775000D01*
X164140000Y-82975000D02*
X164140000Y-88145000D01*
X164140000Y-88145000D02*
X164020000Y-88265000D01*
D38*
X208534000Y-65755520D02*
X208534000Y-65024000D01*
D40*
X131718000Y-77910000D02*
X131718000Y-81388000D01*
X128905000Y-89408000D02*
X126873000Y-91440000D01*
X128905000Y-88011000D02*
X128905000Y-89408000D01*
X128905000Y-84201000D02*
X128905000Y-88011000D01*
X131718000Y-81388000D02*
X128905000Y-84201000D01*
D38*
X113538000Y-89916000D02*
X113538000Y-90170000D01*
X113538000Y-90170000D02*
X114808000Y-91440000D01*
X114808000Y-91440000D02*
X126873000Y-91440000D01*
X142875000Y-90170000D02*
X142875000Y-87630000D01*
X126873000Y-91440000D02*
X140843000Y-91440000D01*
X140843000Y-91440000D02*
X141351000Y-90932000D01*
X141351000Y-90932000D02*
X142113000Y-90932000D01*
X142113000Y-90932000D02*
X142875000Y-90170000D01*
X132518000Y-69410000D02*
X132518000Y-71952000D01*
X131718000Y-72752000D02*
X131718000Y-77910000D01*
X132518000Y-71952000D02*
X131718000Y-72752000D01*
X130918000Y-69410000D02*
X130918000Y-67837000D01*
X130918000Y-67837000D02*
X131064000Y-67691000D01*
X131064000Y-67691000D02*
X131127500Y-67691000D01*
X132518000Y-68002000D02*
X132518000Y-69410000D01*
X131127500Y-67691000D02*
X132207000Y-67691000D01*
X132207000Y-67691000D02*
X132518000Y-68002000D01*
X97663000Y-74488000D02*
X97663000Y-73533000D01*
X97663000Y-73533000D02*
X97663000Y-73406000D01*
X97663000Y-73406000D02*
X98949000Y-72120000D01*
X104775000Y-87630000D02*
X104775000Y-88265000D01*
X104775000Y-88265000D02*
X106426000Y-89916000D01*
X113538000Y-89916000D02*
X114935000Y-88519000D01*
X106426000Y-89916000D02*
X113538000Y-89916000D01*
X114935000Y-88519000D02*
X114935000Y-87630000D01*
X108982000Y-80442000D02*
X107264000Y-80442000D01*
X107264000Y-80442000D02*
X105537000Y-82169000D01*
X105537000Y-82169000D02*
X105537000Y-85217000D01*
X105537000Y-85217000D02*
X104775000Y-85979000D01*
X104775000Y-85979000D02*
X104775000Y-87630000D01*
X104775000Y-87630000D02*
X103505000Y-87630000D01*
X103505000Y-87630000D02*
X99253000Y-91882000D01*
X99253000Y-91882000D02*
X97028000Y-91882000D01*
X102235000Y-72120000D02*
X98949000Y-72120000D01*
X98949000Y-72120000D02*
X98870000Y-72120000D01*
X160655000Y-63770000D02*
X157480000Y-63770000D01*
X157480000Y-63770000D02*
X156685000Y-62975000D01*
X156685000Y-62975000D02*
X156685000Y-59055000D01*
X133421120Y-55585360D02*
X133421120Y-56459120D01*
X133421120Y-56459120D02*
X134747000Y-57785000D01*
X134747000Y-57785000D02*
X139275000Y-57785000D01*
X130540000Y-59690000D02*
X130540000Y-58420000D01*
X130540000Y-58420000D02*
X129270000Y-57150000D01*
X133421120Y-55585360D02*
X130834640Y-55585360D01*
X130834640Y-55585360D02*
X129270000Y-57150000D01*
X208534000Y-77754480D02*
X208534000Y-68834000D01*
X208534000Y-68834000D02*
X208280000Y-69088000D01*
X205833980Y-70485000D02*
X206883000Y-70485000D01*
X208534000Y-68834000D02*
X208534000Y-65755520D01*
X206883000Y-70485000D02*
X208280000Y-69088000D01*
X208280000Y-69088000D02*
X208534000Y-68834000D01*
X156685000Y-56515000D02*
X157670500Y-56515000D01*
X158496000Y-54038500D02*
X159956500Y-52578000D01*
X158496000Y-55689500D02*
X158496000Y-54038500D01*
X157670500Y-56515000D02*
X158496000Y-55689500D01*
X159956500Y-52578000D02*
X159972500Y-52578000D01*
X159972500Y-52578000D02*
X157988000Y-52578000D01*
X83566000Y-71628000D02*
X81534000Y-73660000D01*
X83566000Y-71628000D02*
X83566000Y-61468000D01*
X83566000Y-61468000D02*
X93472000Y-51562000D01*
X93472000Y-51562000D02*
X148717000Y-51562000D01*
X148717000Y-51562000D02*
X149352000Y-50927000D01*
X156337000Y-50927000D02*
X149352000Y-50927000D01*
X157988000Y-52578000D02*
X156337000Y-50927000D01*
X88630760Y-81600000D02*
X88630760Y-80629760D01*
X76454000Y-85217000D02*
X75438000Y-84201000D01*
X82423000Y-85217000D02*
X76454000Y-85217000D01*
X83820000Y-83820000D02*
X82423000Y-85217000D01*
X83820000Y-81534000D02*
X83820000Y-83820000D01*
X85598000Y-79756000D02*
X83820000Y-81534000D01*
X87757000Y-79756000D02*
X85598000Y-79756000D01*
X88630760Y-80629760D02*
X87757000Y-79756000D01*
X88630760Y-89855000D02*
X88630760Y-88884760D01*
X75438000Y-77470000D02*
X79248000Y-73660000D01*
X75438000Y-91948000D02*
X75438000Y-84201000D01*
X75438000Y-84201000D02*
X75438000Y-77470000D01*
X76200000Y-92710000D02*
X75438000Y-91948000D01*
X82042000Y-92710000D02*
X76200000Y-92710000D01*
X83439000Y-91313000D02*
X82042000Y-92710000D01*
X83439000Y-90678000D02*
X83439000Y-91313000D01*
X85725000Y-88392000D02*
X83439000Y-90678000D01*
X88138000Y-88392000D02*
X85725000Y-88392000D01*
X88630760Y-88884760D02*
X88138000Y-88392000D01*
X79248000Y-73660000D02*
X79502000Y-73660000D01*
X81534000Y-73660000D02*
X87675760Y-73660000D01*
X87675760Y-73660000D02*
X88630760Y-74615000D01*
X79502000Y-73660000D02*
X81534000Y-73660000D01*
X206695000Y-107315000D02*
X206695000Y-105349000D01*
X203708000Y-102362000D02*
X203708000Y-102171500D01*
X206695000Y-105349000D02*
X203708000Y-102362000D01*
X103330500Y-70120000D02*
X102235000Y-70120000D01*
X105029000Y-71818500D02*
X103330500Y-70120000D01*
X107569000Y-71818500D02*
X105029000Y-71818500D01*
X195850000Y-69850000D02*
X194818000Y-69850000D01*
X193484500Y-68516500D02*
X186499500Y-68516500D01*
X194818000Y-69850000D02*
X193484500Y-68516500D01*
X169799000Y-60640000D02*
X165097500Y-60640000D01*
X165097500Y-60640000D02*
X164846000Y-60388500D01*
X161100000Y-88265000D02*
X159131000Y-88265000D01*
X159131000Y-88265000D02*
X158115000Y-89281000D01*
X151130000Y-60071000D02*
X149542500Y-60071000D01*
X149542500Y-60071000D02*
X147510500Y-62103000D01*
X147510500Y-62103000D02*
X145161000Y-62103000D01*
X145161000Y-62103000D02*
X142811500Y-59753500D01*
X142811500Y-59753500D02*
X142811500Y-55880000D01*
X142811500Y-55880000D02*
X139700000Y-52768500D01*
X139700000Y-52768500D02*
X127190500Y-52768500D01*
X127190500Y-52768500D02*
X124079000Y-55880000D01*
X124079000Y-55880000D02*
X124079000Y-68135500D01*
X124079000Y-68135500D02*
X122999500Y-69215000D01*
X122999500Y-69215000D02*
X103140000Y-69215000D01*
X103140000Y-69215000D02*
X102235000Y-70120000D01*
D39*
X172450000Y-67564000D02*
X172450000Y-68913500D01*
X166090000Y-74015000D02*
X166090000Y-75775000D01*
X165798500Y-73723500D02*
X166090000Y-74015000D01*
X165798500Y-69342000D02*
X165798500Y-73723500D01*
X166433500Y-68707000D02*
X165798500Y-69342000D01*
X168910000Y-68707000D02*
X166433500Y-68707000D01*
X169545000Y-69342000D02*
X168910000Y-68707000D01*
X172021500Y-69342000D02*
X169545000Y-69342000D01*
X172450000Y-68913500D02*
X172021500Y-69342000D01*
D38*
X151130000Y-56880000D02*
X151130000Y-60071000D01*
X151130000Y-60071000D02*
X151130000Y-60198000D01*
X154432000Y-63500000D02*
X155210000Y-63500000D01*
X151130000Y-60198000D02*
X154432000Y-63500000D01*
D39*
X172577000Y-65151000D02*
X173418500Y-65151000D01*
X188468000Y-57721500D02*
X189677000Y-58930500D01*
X180848000Y-57721500D02*
X188468000Y-57721500D01*
X173418500Y-65151000D02*
X180848000Y-57721500D01*
X189677000Y-58930500D02*
X189677000Y-59563000D01*
X172450000Y-67564000D02*
X172450000Y-65278000D01*
X172450000Y-65278000D02*
X172577000Y-65151000D01*
X189677000Y-62992000D02*
X189677000Y-59563000D01*
X195850000Y-69850000D02*
X195850000Y-68723000D01*
X189677000Y-64645500D02*
X189677000Y-59563000D01*
X190182500Y-65151000D02*
X189677000Y-64645500D01*
X192278000Y-65151000D02*
X190182500Y-65151000D01*
X195850000Y-68723000D02*
X192278000Y-65151000D01*
X206695000Y-107315000D02*
X205486000Y-107315000D01*
X205295500Y-107124500D02*
X201292500Y-107124500D01*
X205486000Y-107315000D02*
X205295500Y-107124500D01*
X201292500Y-107124500D02*
X201102000Y-107315000D01*
X166090000Y-75775000D02*
X165440000Y-75775000D01*
X162190000Y-82975000D02*
X162190000Y-84571000D01*
X161100000Y-85661000D02*
X161100000Y-88265000D01*
X162190000Y-84571000D02*
X161100000Y-85661000D01*
D38*
X130918000Y-77910000D02*
X130918000Y-74403000D01*
X130918000Y-74403000D02*
X129318000Y-72803000D01*
X129318000Y-77910000D02*
X129318000Y-72803000D01*
X129318000Y-72803000D02*
X129318000Y-71977000D01*
X129318000Y-71977000D02*
X130302000Y-70993000D01*
X130118000Y-69410000D02*
X130118000Y-70809000D01*
X130118000Y-70809000D02*
X130302000Y-70993000D01*
X131718000Y-70847000D02*
X131718000Y-69410000D01*
X130302000Y-70993000D02*
X131572000Y-70993000D01*
X131572000Y-70993000D02*
X131718000Y-70847000D01*
D40*
X129318000Y-77910000D02*
X129318000Y-80486000D01*
X119126000Y-85852000D02*
X118745000Y-86233000D01*
X124206000Y-85852000D02*
X119126000Y-85852000D01*
X125095000Y-84963000D02*
X124206000Y-85852000D01*
X125095000Y-83947000D02*
X125095000Y-84963000D01*
X125096398Y-83945602D02*
X125095000Y-83947000D01*
X125096398Y-83185000D02*
X125096398Y-83945602D01*
X125731398Y-82550000D02*
X125096398Y-83185000D01*
X127254000Y-82550000D02*
X125731398Y-82550000D01*
X129318000Y-80486000D02*
X127254000Y-82550000D01*
X121285000Y-81280000D02*
X119888000Y-81280000D01*
X108331000Y-89154000D02*
X107315000Y-88138000D01*
X113284000Y-89154000D02*
X108331000Y-89154000D01*
X113665000Y-88773000D02*
X113284000Y-89154000D01*
X113665000Y-86233000D02*
X113665000Y-88773000D01*
X114173000Y-85725000D02*
X113665000Y-86233000D01*
X115443000Y-85725000D02*
X114173000Y-85725000D01*
X116205000Y-86487000D02*
X115443000Y-85725000D01*
X116205000Y-88900000D02*
X116205000Y-86487000D01*
X116586000Y-89281000D02*
X116205000Y-88900000D01*
X116967000Y-89281000D02*
X116586000Y-89281000D01*
X118237000Y-89281000D02*
X116967000Y-89281000D01*
X118364000Y-89154000D02*
X118237000Y-89281000D01*
X118745000Y-88773000D02*
X118364000Y-89154000D01*
X118745000Y-82423000D02*
X118745000Y-86233000D01*
X118745000Y-86233000D02*
X118745000Y-88773000D01*
X119888000Y-81280000D02*
X118745000Y-82423000D01*
X107315000Y-88138000D02*
X107315000Y-87630000D01*
D38*
X102235000Y-66355000D02*
X102235000Y-70120000D01*
X110982000Y-80442000D02*
X110982000Y-81169000D01*
X107315000Y-83058000D02*
X107315000Y-87630000D01*
X108458000Y-81915000D02*
X107315000Y-83058000D01*
X110236000Y-81915000D02*
X108458000Y-81915000D01*
X110982000Y-81169000D02*
X110236000Y-81915000D01*
X162085000Y-57785000D02*
X160782000Y-57785000D01*
X161941000Y-65770000D02*
X160655000Y-65770000D01*
X162941000Y-64770000D02*
X161941000Y-65770000D01*
X162941000Y-62738000D02*
X162941000Y-64770000D01*
X160274000Y-60071000D02*
X162941000Y-62738000D01*
X160274000Y-58293000D02*
X160274000Y-60071000D01*
X160782000Y-57785000D02*
X160274000Y-58293000D01*
X155575000Y-68215000D02*
X158988000Y-68215000D01*
X160655000Y-66548000D02*
X160655000Y-65770000D01*
X158988000Y-68215000D02*
X160655000Y-66548000D01*
X133318000Y-69410000D02*
X133318000Y-66453000D01*
X135128000Y-64643000D02*
X135128000Y-64262000D01*
X133318000Y-66453000D02*
X135128000Y-64643000D01*
X155768000Y-72898000D02*
X155768000Y-70408000D01*
X155768000Y-70408000D02*
X155575000Y-70215000D01*
X155845000Y-70485000D02*
X155575000Y-70215000D01*
X156685000Y-55245000D02*
X154940000Y-55245000D01*
X153400000Y-53705000D02*
X153400000Y-52705000D01*
X154940000Y-55245000D02*
X153400000Y-53705000D01*
X156685000Y-57785000D02*
X154559000Y-57785000D01*
X152035000Y-54880000D02*
X151130000Y-54880000D01*
X152908000Y-55753000D02*
X152035000Y-54880000D01*
X152908000Y-56134000D02*
X152908000Y-55753000D01*
X154559000Y-57785000D02*
X152908000Y-56134000D01*
X151400000Y-52705000D02*
X151400000Y-54610000D01*
X151400000Y-54610000D02*
X151130000Y-54880000D01*
X151130000Y-54880000D02*
X149844000Y-54880000D01*
X149844000Y-54880000D02*
X146939000Y-57785000D01*
X146939000Y-57785000D02*
X146475000Y-57785000D01*
X203835000Y-106061000D02*
X203835000Y-105029000D01*
X202565000Y-103759000D02*
X200721000Y-103759000D01*
X203835000Y-105029000D02*
X202565000Y-103759000D01*
X200721000Y-103759000D02*
X200721000Y-98232000D01*
X200721000Y-98232000D02*
X200025000Y-97536000D01*
X155130500Y-89471500D02*
X155829000Y-90170000D01*
X138449000Y-74060000D02*
X140589000Y-76200000D01*
X140589000Y-76200000D02*
X141859000Y-76200000D01*
X141859000Y-76200000D02*
X147828000Y-82169000D01*
X147828000Y-82169000D02*
X155130500Y-89471500D01*
X194691000Y-92202000D02*
X200025000Y-97536000D01*
X135568000Y-74060000D02*
X138449000Y-74060000D01*
X155829000Y-90170000D02*
X156337000Y-90678000D01*
X156337000Y-90678000D02*
X193167000Y-90678000D01*
X193167000Y-90678000D02*
X194691000Y-92202000D01*
X206375000Y-98790000D02*
X206375000Y-101915000D01*
X206375000Y-101915000D02*
X206695000Y-102235000D01*
X135568000Y-70860000D02*
X142754000Y-70860000D01*
X204708000Y-98790000D02*
X206375000Y-98790000D01*
X204597000Y-98679000D02*
X204708000Y-98790000D01*
X204597000Y-98298000D02*
X204597000Y-98679000D01*
X201930000Y-95631000D02*
X204597000Y-98298000D01*
X188595000Y-82296000D02*
X201930000Y-95631000D01*
X171323000Y-82296000D02*
X188595000Y-82296000D01*
X168910000Y-79883000D02*
X171323000Y-82296000D01*
X162687000Y-79883000D02*
X168910000Y-79883000D01*
X161925000Y-79121000D02*
X162687000Y-79883000D01*
X159893000Y-79121000D02*
X161925000Y-79121000D01*
X157353000Y-76581000D02*
X159893000Y-79121000D01*
X152908000Y-76581000D02*
X157353000Y-76581000D01*
X148971000Y-72644000D02*
X152908000Y-76581000D01*
X144538000Y-72644000D02*
X148971000Y-72644000D01*
X142754000Y-70860000D02*
X144538000Y-72644000D01*
D39*
X196121020Y-62992000D02*
X198755000Y-62992000D01*
X163490000Y-69002000D02*
X162814000Y-68326000D01*
X162814000Y-68326000D02*
X162814000Y-66548000D01*
X162814000Y-66548000D02*
X164465000Y-64897000D01*
X164465000Y-64897000D02*
X164465000Y-63754000D01*
X164465000Y-63754000D02*
X166116000Y-62103000D01*
X166116000Y-62103000D02*
X171450000Y-62103000D01*
X171450000Y-62103000D02*
X179197000Y-54356000D01*
X179197000Y-54356000D02*
X191643000Y-54356000D01*
X163490000Y-69002000D02*
X163490000Y-75775000D01*
X193548000Y-54356000D02*
X191643000Y-54356000D01*
X195580000Y-56388000D02*
X193548000Y-54356000D01*
X198247000Y-56388000D02*
X195580000Y-56388000D01*
X200406000Y-58547000D02*
X198247000Y-56388000D01*
X200406000Y-61341000D02*
X200406000Y-58547000D01*
X198755000Y-62992000D02*
X200406000Y-61341000D01*
X196248020Y-58326020D02*
X196248020Y-59563000D01*
X195580000Y-57658000D02*
X196248020Y-58326020D01*
X194310000Y-57658000D02*
X195580000Y-57658000D01*
X192659000Y-56007000D02*
X194310000Y-57658000D01*
X188468000Y-56007000D02*
X192659000Y-56007000D01*
X164140000Y-67635000D02*
X165608000Y-66167000D01*
X165608000Y-66167000D02*
X165608000Y-64262000D01*
X165608000Y-64262000D02*
X166751000Y-63119000D01*
X166751000Y-63119000D02*
X172593000Y-63119000D01*
X172593000Y-63119000D02*
X179705000Y-56007000D01*
X179705000Y-56007000D02*
X188468000Y-56007000D01*
X164140000Y-75775000D02*
X164140000Y-67635000D01*
D38*
X134118000Y-69410000D02*
X134118000Y-67939000D01*
X134747000Y-67310000D02*
X139385000Y-67310000D01*
X134118000Y-67939000D02*
X134747000Y-67310000D01*
X127068000Y-70860000D02*
X112020000Y-70860000D01*
X99761000Y-76388000D02*
X97663000Y-76388000D01*
X101473000Y-74676000D02*
X99761000Y-76388000D01*
X108204000Y-74676000D02*
X101473000Y-74676000D01*
X112020000Y-70860000D02*
X108204000Y-74676000D01*
X93345000Y-74615000D02*
X94554000Y-74615000D01*
X96327000Y-76388000D02*
X97663000Y-76388000D01*
X94554000Y-74615000D02*
X96327000Y-76388000D01*
X127068000Y-71660000D02*
X113887000Y-71660000D01*
X98999000Y-83500000D02*
X97282000Y-83500000D01*
X99822000Y-82677000D02*
X98999000Y-83500000D01*
X99822000Y-80010000D02*
X99822000Y-82677000D01*
X103505000Y-76327000D02*
X99822000Y-80010000D01*
X109220000Y-76327000D02*
X103505000Y-76327000D01*
X113887000Y-71660000D02*
X109220000Y-76327000D01*
X92837000Y-81600000D02*
X94173000Y-81600000D01*
X95565000Y-83500000D02*
X97282000Y-83500000D01*
X94996000Y-82931000D02*
X95565000Y-83500000D01*
X94996000Y-82423000D02*
X94996000Y-82931000D01*
X94173000Y-81600000D02*
X94996000Y-82423000D01*
X127068000Y-74060000D02*
X118599000Y-74060000D01*
X117221000Y-75438000D02*
X117221000Y-87376000D01*
X118599000Y-74060000D02*
X117221000Y-75438000D01*
X117221000Y-87376000D02*
X117475000Y-87630000D01*
X127068000Y-75660000D02*
X122079000Y-75660000D01*
X123825000Y-80010000D02*
X123825000Y-81280000D01*
X123317000Y-79502000D02*
X123825000Y-80010000D01*
X122428000Y-79502000D02*
X123317000Y-79502000D01*
X121158000Y-78232000D02*
X122428000Y-79502000D01*
X121158000Y-76581000D02*
X121158000Y-78232000D01*
X122079000Y-75660000D02*
X121158000Y-76581000D01*
X127068000Y-76460000D02*
X124327000Y-76460000D01*
X124327000Y-76460000D02*
X123317000Y-77470000D01*
D40*
X128518000Y-77910000D02*
X126687000Y-77910000D01*
X125095000Y-82550000D02*
X123825000Y-83820000D01*
X125095000Y-79502000D02*
X125095000Y-82550000D01*
X126687000Y-77910000D02*
X125095000Y-79502000D01*
D38*
X130175000Y-87630000D02*
X130175000Y-84455000D01*
X133318000Y-81312000D02*
X133318000Y-77910000D01*
X130175000Y-84455000D02*
X133318000Y-81312000D01*
X132715000Y-87630000D02*
X132715000Y-83947000D01*
X134118000Y-82544000D02*
X134118000Y-77910000D01*
X132715000Y-83947000D02*
X134118000Y-82544000D01*
X135568000Y-76460000D02*
X135568000Y-82618000D01*
X135255000Y-82931000D02*
X135255000Y-87630000D01*
X135568000Y-82618000D02*
X135255000Y-82931000D01*
X137795000Y-87630000D02*
X137795000Y-78359000D01*
X137001000Y-75660000D02*
X135568000Y-75660000D01*
X137922000Y-76581000D02*
X137001000Y-75660000D01*
X137922000Y-78232000D02*
X137922000Y-76581000D01*
X137795000Y-78359000D02*
X137922000Y-78232000D01*
X201335000Y-125110000D02*
X201280000Y-125110000D01*
X201280000Y-125110000D02*
X200345000Y-126045000D01*
X200345000Y-126045000D02*
X195580000Y-126045000D01*
X135568000Y-74860000D02*
X137852000Y-74860000D01*
X193990000Y-126045000D02*
X195580000Y-126045000D01*
X193802000Y-125857000D02*
X193990000Y-126045000D01*
X193802000Y-121031000D02*
X193802000Y-125857000D01*
X194691000Y-120142000D02*
X193802000Y-121031000D01*
X194691000Y-94869000D02*
X194691000Y-120142000D01*
X191770000Y-91948000D02*
X194691000Y-94869000D01*
X154940000Y-91948000D02*
X191770000Y-91948000D01*
X137852000Y-74860000D02*
X154940000Y-91948000D01*
X147005000Y-78105000D02*
X145796000Y-78105000D01*
X140278000Y-72460000D02*
X135568000Y-72460000D01*
X141097000Y-73279000D02*
X140278000Y-72460000D01*
X141097000Y-73406000D02*
X141097000Y-73279000D01*
X145796000Y-78105000D02*
X141097000Y-73406000D01*
X135568000Y-71660000D02*
X141383000Y-71660000D01*
X144653000Y-74930000D02*
X145735000Y-74930000D01*
X141383000Y-71660000D02*
X144653000Y-74930000D01*
X79502000Y-67310000D02*
X79502000Y-71120000D01*
D39*
X168040000Y-75775000D02*
X168040000Y-72879000D01*
X195453000Y-73025000D02*
X203835000Y-73025000D01*
X193357500Y-70929500D02*
X195453000Y-73025000D01*
X169989500Y-70929500D02*
X193357500Y-70929500D01*
X168040000Y-72879000D02*
X169989500Y-70929500D01*
D38*
X109982000Y-83692000D02*
X109982000Y-87503000D01*
X109982000Y-87503000D02*
X109855000Y-87630000D01*
X79502000Y-94996000D02*
X82169000Y-94996000D01*
X82169000Y-94996000D02*
X86360000Y-90805000D01*
X86360000Y-90805000D02*
X86631780Y-90805000D01*
X86631780Y-75565000D02*
X84201000Y-75565000D01*
X84201000Y-75565000D02*
X79502000Y-80264000D01*
X86631780Y-82550000D02*
X86631780Y-83548220D01*
X82296000Y-87884000D02*
X79502000Y-87884000D01*
X86631780Y-83548220D02*
X82296000Y-87884000D01*
X79502000Y-87884000D02*
X79502000Y-87122000D01*
X92837000Y-91755000D02*
X88630760Y-91755000D01*
X88630760Y-76515000D02*
X93345000Y-76515000D01*
X88630760Y-83500000D02*
X92837000Y-83500000D01*
X165989000Y-58671500D02*
X164340500Y-58671500D01*
X164340500Y-58671500D02*
X163957000Y-59055000D01*
X163957000Y-59055000D02*
X162085000Y-59055000D01*
X169799000Y-58740000D02*
X165735000Y-58740000D01*
X162085000Y-59055000D02*
X163957000Y-59055000D01*
X164272000Y-58740000D02*
X165735000Y-58740000D01*
X163957000Y-59055000D02*
X164272000Y-58740000D01*
X141285000Y-67310000D02*
X142494000Y-67310000D01*
X144744000Y-65060000D02*
X146355000Y-65060000D01*
X142494000Y-67310000D02*
X144744000Y-65060000D01*
D39*
X160240000Y-82975000D02*
X157143000Y-82975000D01*
X149733000Y-78105000D02*
X148905000Y-78105000D01*
X151003000Y-79375000D02*
X149733000Y-78105000D01*
X153543000Y-79375000D02*
X151003000Y-79375000D01*
X157143000Y-82975000D02*
X153543000Y-79375000D01*
X147635000Y-74930000D02*
X148717000Y-74930000D01*
X162840000Y-81306000D02*
X162840000Y-82975000D01*
X162433000Y-80899000D02*
X162840000Y-81306000D01*
X158369000Y-80899000D02*
X162433000Y-80899000D01*
X155702000Y-78232000D02*
X158369000Y-80899000D01*
X152019000Y-78232000D02*
X155702000Y-78232000D01*
X148717000Y-74930000D02*
X152019000Y-78232000D01*
D38*
X198821000Y-103759000D02*
X198821000Y-104968000D01*
X199202000Y-105349000D02*
X199202000Y-107315000D01*
X198821000Y-104968000D02*
X199202000Y-105349000D01*
X199202000Y-107315000D02*
X199202000Y-108778000D01*
X199202000Y-108778000D02*
X201034000Y-110610000D01*
X201034000Y-110610000D02*
X201335000Y-110610000D01*
X208595000Y-107315000D02*
X208595000Y-102235000D01*
X206335000Y-110610000D02*
X207144000Y-110610000D01*
X208595000Y-109159000D02*
X208595000Y-102235000D01*
X207144000Y-110610000D02*
X208595000Y-109159000D01*
X127270000Y-57150000D02*
X127270000Y-56118000D01*
X134874000Y-53848000D02*
X135818880Y-54792880D01*
X129540000Y-53848000D02*
X134874000Y-53848000D01*
X127270000Y-56118000D02*
X129540000Y-53848000D01*
X135818880Y-54792880D02*
X135818880Y-55585360D01*
X127270000Y-57150000D02*
X127270000Y-57642000D01*
X127270000Y-57642000D02*
X126492000Y-58420000D01*
X126492000Y-58420000D02*
X126492000Y-62992000D01*
X126492000Y-62992000D02*
X128518000Y-65018000D01*
X128518000Y-65018000D02*
X128518000Y-69410000D01*
X129318000Y-63913000D02*
X131794000Y-63913000D01*
X135818880Y-61158120D02*
X134112000Y-62865000D01*
X134112000Y-62865000D02*
X132842000Y-62865000D01*
X135818880Y-61158120D02*
X135818880Y-59984640D01*
X131794000Y-63913000D02*
X132842000Y-62865000D01*
X128540000Y-59690000D02*
X128540000Y-63135000D01*
X129318000Y-63913000D02*
X129318000Y-69410000D01*
X128540000Y-63135000D02*
X129318000Y-63913000D01*
D39*
X167390000Y-75775000D02*
X167390000Y-69957000D01*
X167390000Y-69957000D02*
X167640000Y-69707000D01*
D38*
X191577000Y-62992000D02*
X194022980Y-62992000D01*
X194149980Y-59563000D02*
X191577000Y-59563000D01*
X102235000Y-64455000D02*
X99507000Y-64455000D01*
X99507000Y-64455000D02*
X95504000Y-60452000D01*
X95504000Y-60452000D02*
X87630000Y-60452000D01*
X135568000Y-73260000D02*
X139173000Y-73260000D01*
X139173000Y-73260000D02*
X140081000Y-74168000D01*
X102235000Y-64455000D02*
X104079000Y-64455000D01*
X120142000Y-67056000D02*
X121031000Y-67945000D01*
X106680000Y-67056000D02*
X120142000Y-67056000D01*
X104079000Y-64455000D02*
X106680000Y-67056000D01*
X197850000Y-69850000D02*
X203200000Y-69850000D01*
X203200000Y-69850000D02*
X203835000Y-70485000D01*
D39*
X205833980Y-73025000D02*
X205833980Y-73947020D01*
X168690000Y-74832500D02*
X168690000Y-75775000D01*
X170434000Y-73088500D02*
X168690000Y-74832500D01*
X191389000Y-73088500D02*
X170434000Y-73088500D01*
X193357500Y-75057000D02*
X191389000Y-73088500D01*
X204724000Y-75057000D02*
X193357500Y-75057000D01*
X205833980Y-73947020D02*
X204724000Y-75057000D01*
D38*
X97028000Y-89982000D02*
X98232000Y-89982000D01*
X115881000Y-72460000D02*
X127068000Y-72460000D01*
X110490000Y-77851000D02*
X115881000Y-72460000D01*
X106807000Y-77851000D02*
X110490000Y-77851000D01*
X103124000Y-81534000D02*
X106807000Y-77851000D01*
X103124000Y-85090000D02*
X103124000Y-81534000D01*
X98232000Y-89982000D02*
X103124000Y-85090000D01*
X92837000Y-89855000D02*
X96901000Y-89855000D01*
X96901000Y-89855000D02*
X97028000Y-89982000D01*
X112395000Y-87630000D02*
X112395000Y-84836000D01*
X116859000Y-73260000D02*
X127068000Y-73260000D01*
X113284000Y-76835000D02*
X116859000Y-73260000D01*
X113284000Y-83947000D02*
X113284000Y-76835000D01*
X112395000Y-84836000D02*
X113284000Y-83947000D01*
D41*
G36*
X213285000Y-156770000D02*
X187400000Y-156770000D01*
X187400000Y-153948044D01*
X187518853Y-153948044D01*
X187919201Y-154916959D01*
X188659862Y-155658914D01*
X189628077Y-156060952D01*
X190676444Y-156061867D01*
X191645359Y-155661519D01*
X192387314Y-154920858D01*
X192789352Y-153952643D01*
X192790267Y-152904276D01*
X192389919Y-151935361D01*
X192106887Y-151651834D01*
X205644543Y-151651834D01*
X206044853Y-152620658D01*
X206785443Y-153362542D01*
X207753567Y-153764542D01*
X208801834Y-153765457D01*
X209770658Y-153365147D01*
X210512542Y-152624557D01*
X210914542Y-151656433D01*
X210915457Y-150608166D01*
X210515147Y-149639342D01*
X209774557Y-148897458D01*
X208806433Y-148495458D01*
X207758166Y-148494543D01*
X206789342Y-148894853D01*
X206047458Y-149635443D01*
X205645458Y-150603567D01*
X205644543Y-151651834D01*
X192106887Y-151651834D01*
X191649258Y-151193406D01*
X190681043Y-150791368D01*
X189632676Y-150790453D01*
X188663761Y-151190801D01*
X187921806Y-151931462D01*
X187519768Y-152899677D01*
X187518853Y-153948044D01*
X187400000Y-153948044D01*
X187400000Y-98946884D01*
X187518853Y-98946884D01*
X187919201Y-99915799D01*
X188659862Y-100657754D01*
X189628077Y-101059792D01*
X190676444Y-101060707D01*
X191645359Y-100660359D01*
X192387314Y-99919698D01*
X192789352Y-98951483D01*
X192790267Y-97903116D01*
X192389919Y-96934201D01*
X191649258Y-96192246D01*
X190681043Y-95790208D01*
X189632676Y-95789293D01*
X188663761Y-96189641D01*
X187921806Y-96930302D01*
X187519768Y-97898517D01*
X187518853Y-98946884D01*
X187400000Y-98946884D01*
X187400000Y-93980000D01*
X187345954Y-93708295D01*
X187192046Y-93477954D01*
X186961705Y-93324046D01*
X186690000Y-93270000D01*
X101600000Y-93270000D01*
X101328295Y-93324046D01*
X101097954Y-93477954D01*
X100944046Y-93708295D01*
X100890000Y-93980000D01*
X100890000Y-156770000D01*
X75005000Y-156770000D01*
X75005000Y-153950584D01*
X94519293Y-153950584D01*
X94919641Y-154919499D01*
X95660302Y-155661454D01*
X96628517Y-156063492D01*
X97676884Y-156064407D01*
X98645799Y-155664059D01*
X99387754Y-154923398D01*
X99789792Y-153955183D01*
X99790707Y-152906816D01*
X99390359Y-151937901D01*
X98649698Y-151195946D01*
X97681483Y-150793908D01*
X96633116Y-150792993D01*
X95664201Y-151193341D01*
X94922246Y-151934002D01*
X94520208Y-152902217D01*
X94519293Y-153950584D01*
X75005000Y-153950584D01*
X75005000Y-151651834D01*
X77374543Y-151651834D01*
X77774853Y-152620658D01*
X78515443Y-153362542D01*
X79483567Y-153764542D01*
X80531834Y-153765457D01*
X81500658Y-153365147D01*
X82242542Y-152624557D01*
X82644542Y-151656433D01*
X82645457Y-150608166D01*
X82245147Y-149639342D01*
X81504557Y-148897458D01*
X80536433Y-148495458D01*
X79488166Y-148494543D01*
X78519342Y-148894853D01*
X77777458Y-149635443D01*
X77375458Y-150603567D01*
X77374543Y-151651834D01*
X75005000Y-151651834D01*
X75005000Y-97900808D01*
X77160907Y-97900808D01*
X77185217Y-98006252D01*
X77476855Y-98531911D01*
X77947454Y-98905952D01*
X78525370Y-99071430D01*
X79375000Y-99071430D01*
X79375000Y-97663000D01*
X79629000Y-97663000D01*
X79629000Y-99071430D01*
X80478630Y-99071430D01*
X80913594Y-98946884D01*
X94519293Y-98946884D01*
X94919641Y-99915799D01*
X95660302Y-100657754D01*
X96628517Y-101059792D01*
X97676884Y-101060707D01*
X98645799Y-100660359D01*
X99387754Y-99919698D01*
X99789792Y-98951483D01*
X99790707Y-97903116D01*
X99390359Y-96934201D01*
X98649698Y-96192246D01*
X97681483Y-95790208D01*
X96633116Y-95789293D01*
X95664201Y-96189641D01*
X94922246Y-96930302D01*
X94520208Y-97898517D01*
X94519293Y-98946884D01*
X80913594Y-98946884D01*
X81056546Y-98905952D01*
X81527145Y-98531911D01*
X81818783Y-98006252D01*
X81843093Y-97900808D01*
X81722440Y-97663000D01*
X79629000Y-97663000D01*
X79375000Y-97663000D01*
X77281560Y-97663000D01*
X77160907Y-97900808D01*
X75005000Y-97900808D01*
X75005000Y-92772236D01*
X75571382Y-93338618D01*
X75859794Y-93531329D01*
X76200000Y-93599000D01*
X77985805Y-93599000D01*
X77519931Y-93910287D01*
X77187092Y-94408416D01*
X77070214Y-94996000D01*
X77187092Y-95583584D01*
X77519931Y-96081713D01*
X77809842Y-96275425D01*
X77476855Y-96540089D01*
X77185217Y-97065748D01*
X77160907Y-97171192D01*
X77281560Y-97409000D01*
X79375000Y-97409000D01*
X79375000Y-97389000D01*
X79629000Y-97389000D01*
X79629000Y-97409000D01*
X81722440Y-97409000D01*
X81843093Y-97171192D01*
X81818783Y-97065748D01*
X81527145Y-96540089D01*
X81194158Y-96275425D01*
X81484069Y-96081713D01*
X81615508Y-95885000D01*
X82169000Y-95885000D01*
X82509206Y-95817329D01*
X82797618Y-95624618D01*
X86569746Y-91852490D01*
X87031830Y-91852490D01*
X87267147Y-91808212D01*
X87483271Y-91669140D01*
X87583270Y-91522787D01*
X87583270Y-92155050D01*
X87627548Y-92390367D01*
X87766620Y-92606491D01*
X87978820Y-92751481D01*
X88230710Y-92802490D01*
X89030810Y-92802490D01*
X89266127Y-92758212D01*
X89443617Y-92644000D01*
X91851057Y-92644000D01*
X91935110Y-92701431D01*
X92187000Y-92752440D01*
X93487000Y-92752440D01*
X93722317Y-92708162D01*
X93938441Y-92569090D01*
X94083431Y-92356890D01*
X94121732Y-92167750D01*
X95743000Y-92167750D01*
X95743000Y-92358309D01*
X95839673Y-92591698D01*
X96018301Y-92770327D01*
X96251690Y-92867000D01*
X96742250Y-92867000D01*
X96901000Y-92708250D01*
X96901000Y-92009000D01*
X97155000Y-92009000D01*
X97155000Y-92708250D01*
X97313750Y-92867000D01*
X97804310Y-92867000D01*
X98037699Y-92770327D01*
X98216327Y-92591698D01*
X98313000Y-92358309D01*
X98313000Y-92167750D01*
X98154250Y-92009000D01*
X97155000Y-92009000D01*
X96901000Y-92009000D01*
X95901750Y-92009000D01*
X95743000Y-92167750D01*
X94121732Y-92167750D01*
X94134440Y-92105000D01*
X94134440Y-91405000D01*
X94090162Y-91169683D01*
X93951090Y-90953559D01*
X93738890Y-90808569D01*
X93725803Y-90805919D01*
X93822028Y-90744000D01*
X95888530Y-90744000D01*
X95913910Y-90783441D01*
X96126110Y-90928431D01*
X96159490Y-90935191D01*
X96018301Y-90993673D01*
X95839673Y-91172302D01*
X95743000Y-91405691D01*
X95743000Y-91596250D01*
X95901750Y-91755000D01*
X96901000Y-91755000D01*
X96901000Y-91735000D01*
X97155000Y-91735000D01*
X97155000Y-91755000D01*
X98154250Y-91755000D01*
X98313000Y-91596250D01*
X98313000Y-91405691D01*
X98216327Y-91172302D01*
X98037699Y-90993673D01*
X97901713Y-90937346D01*
X97913317Y-90935162D01*
X98013028Y-90871000D01*
X98232000Y-90871000D01*
X98572206Y-90803329D01*
X98860618Y-90610618D01*
X101555486Y-87915750D01*
X103276400Y-87915750D01*
X103276400Y-88772309D01*
X103373073Y-89005698D01*
X103551701Y-89184327D01*
X103785090Y-89281000D01*
X104489250Y-89281000D01*
X104648000Y-89122250D01*
X104648000Y-87757000D01*
X103435150Y-87757000D01*
X103276400Y-87915750D01*
X101555486Y-87915750D01*
X102983545Y-86487691D01*
X103276400Y-86487691D01*
X103276400Y-87344250D01*
X103435150Y-87503000D01*
X104648000Y-87503000D01*
X104648000Y-86137750D01*
X104489250Y-85979000D01*
X103785090Y-85979000D01*
X103551701Y-86075673D01*
X103373073Y-86254302D01*
X103276400Y-86487691D01*
X102983545Y-86487691D01*
X103752618Y-85718618D01*
X103767999Y-85695599D01*
X103945329Y-85430206D01*
X104013000Y-85090000D01*
X104013000Y-81902236D01*
X106199546Y-79715690D01*
X107747000Y-79715690D01*
X107747000Y-80156250D01*
X107905750Y-80315000D01*
X108855000Y-80315000D01*
X108855000Y-79365750D01*
X108696250Y-79207000D01*
X108255691Y-79207000D01*
X108022302Y-79303673D01*
X107843673Y-79482301D01*
X107747000Y-79715690D01*
X106199546Y-79715690D01*
X107175236Y-78740000D01*
X110490000Y-78740000D01*
X110830206Y-78672329D01*
X111118618Y-78479618D01*
X112395000Y-77203236D01*
X112395000Y-83578764D01*
X111766382Y-84207382D01*
X111573671Y-84495794D01*
X111506000Y-84836000D01*
X111506000Y-86271547D01*
X111335330Y-86385585D01*
X111125000Y-86700366D01*
X110914670Y-86385585D01*
X110871000Y-86356406D01*
X110871000Y-85072693D01*
X111017317Y-85045162D01*
X111233441Y-84906090D01*
X111378431Y-84693890D01*
X111429440Y-84442000D01*
X111429440Y-82942000D01*
X111385162Y-82706683D01*
X111246090Y-82490559D01*
X111050986Y-82357250D01*
X111610618Y-81797618D01*
X111697411Y-81667724D01*
X111817317Y-81645162D01*
X112033441Y-81506090D01*
X112178431Y-81293890D01*
X112229440Y-81042000D01*
X112229440Y-79842000D01*
X112185162Y-79606683D01*
X112046090Y-79390559D01*
X111833890Y-79245569D01*
X111582000Y-79194560D01*
X110382000Y-79194560D01*
X110146683Y-79238838D01*
X109982507Y-79344482D01*
X109941698Y-79303673D01*
X109708309Y-79207000D01*
X109267750Y-79207000D01*
X109109000Y-79365750D01*
X109109000Y-80315000D01*
X109129000Y-80315000D01*
X109129000Y-80569000D01*
X109109000Y-80569000D01*
X109109000Y-80589000D01*
X108855000Y-80589000D01*
X108855000Y-80569000D01*
X107905750Y-80569000D01*
X107747000Y-80727750D01*
X107747000Y-81168310D01*
X107805712Y-81310052D01*
X106686382Y-82429382D01*
X106493671Y-82717794D01*
X106426000Y-83058000D01*
X106426000Y-86271547D01*
X106255330Y-86385585D01*
X106240500Y-86407780D01*
X106176927Y-86254302D01*
X105998299Y-86075673D01*
X105764910Y-85979000D01*
X105060750Y-85979000D01*
X104902000Y-86137750D01*
X104902000Y-87503000D01*
X104922000Y-87503000D01*
X104922000Y-87757000D01*
X104902000Y-87757000D01*
X104902000Y-89122250D01*
X105060750Y-89281000D01*
X105764910Y-89281000D01*
X105998299Y-89184327D01*
X106176927Y-89005698D01*
X106240500Y-88852220D01*
X106255330Y-88874415D01*
X106741511Y-89199271D01*
X107315000Y-89313345D01*
X107398862Y-89296664D01*
X107793599Y-89691401D01*
X108040161Y-89856148D01*
X108331000Y-89914000D01*
X113284000Y-89914000D01*
X113574839Y-89856148D01*
X113821401Y-89691401D01*
X114202401Y-89310401D01*
X114327786Y-89122749D01*
X114560209Y-89234709D01*
X114575974Y-89237358D01*
X114808000Y-89116217D01*
X114808000Y-87757000D01*
X114788000Y-87757000D01*
X114788000Y-87503000D01*
X114808000Y-87503000D01*
X114808000Y-87483000D01*
X115062000Y-87483000D01*
X115062000Y-87503000D01*
X115082000Y-87503000D01*
X115082000Y-87757000D01*
X115062000Y-87757000D01*
X115062000Y-89116217D01*
X115294026Y-89237358D01*
X115309791Y-89234709D01*
X115493934Y-89146006D01*
X115502852Y-89190839D01*
X115667599Y-89437401D01*
X116048599Y-89818401D01*
X116295160Y-89983148D01*
X116586000Y-90041000D01*
X118237000Y-90041000D01*
X118527839Y-89983148D01*
X118774401Y-89818401D01*
X119282401Y-89310401D01*
X119382847Y-89160073D01*
X119441511Y-89199271D01*
X120015000Y-89313345D01*
X120588489Y-89199271D01*
X121074670Y-88874415D01*
X121285000Y-88559634D01*
X121495330Y-88874415D01*
X121981511Y-89199271D01*
X122555000Y-89313345D01*
X123128489Y-89199271D01*
X123614670Y-88874415D01*
X123825000Y-88559634D01*
X124035330Y-88874415D01*
X124521511Y-89199271D01*
X125095000Y-89313345D01*
X125668489Y-89199271D01*
X126154670Y-88874415D01*
X126365000Y-88559634D01*
X126575330Y-88874415D01*
X127061511Y-89199271D01*
X127635000Y-89313345D01*
X128208489Y-89199271D01*
X128694670Y-88874415D01*
X128905000Y-88559634D01*
X129115330Y-88874415D01*
X129601511Y-89199271D01*
X130175000Y-89313345D01*
X130748489Y-89199271D01*
X131234670Y-88874415D01*
X131445000Y-88559634D01*
X131655330Y-88874415D01*
X132141511Y-89199271D01*
X132715000Y-89313345D01*
X133288489Y-89199271D01*
X133774670Y-88874415D01*
X133985000Y-88559634D01*
X134195330Y-88874415D01*
X134681511Y-89199271D01*
X135255000Y-89313345D01*
X135828489Y-89199271D01*
X136314670Y-88874415D01*
X136525000Y-88559634D01*
X136735330Y-88874415D01*
X137221511Y-89199271D01*
X137795000Y-89313345D01*
X138368489Y-89199271D01*
X138854670Y-88874415D01*
X139065000Y-88559634D01*
X139275330Y-88874415D01*
X139761511Y-89199271D01*
X140335000Y-89313345D01*
X140908489Y-89199271D01*
X141394670Y-88874415D01*
X141601461Y-88564931D01*
X141972964Y-88980732D01*
X142500209Y-89234709D01*
X142515974Y-89237358D01*
X142748000Y-89116217D01*
X142748000Y-87757000D01*
X143002000Y-87757000D01*
X143002000Y-89116217D01*
X143234026Y-89237358D01*
X143249791Y-89234709D01*
X143777036Y-88980732D01*
X144166954Y-88544320D01*
X144360184Y-87991913D01*
X144215924Y-87757000D01*
X143002000Y-87757000D01*
X142748000Y-87757000D01*
X142728000Y-87757000D01*
X142728000Y-87503000D01*
X142748000Y-87503000D01*
X142748000Y-86143783D01*
X143002000Y-86143783D01*
X143002000Y-87503000D01*
X144215924Y-87503000D01*
X144360184Y-87268087D01*
X144166954Y-86715680D01*
X143777036Y-86279268D01*
X143249791Y-86025291D01*
X143234026Y-86022642D01*
X143002000Y-86143783D01*
X142748000Y-86143783D01*
X142515974Y-86022642D01*
X142500209Y-86025291D01*
X141972964Y-86279268D01*
X141601461Y-86695069D01*
X141394670Y-86385585D01*
X140908489Y-86060729D01*
X140335000Y-85946655D01*
X139761511Y-86060729D01*
X139275330Y-86385585D01*
X139065000Y-86700366D01*
X138854670Y-86385585D01*
X138684000Y-86271547D01*
X138684000Y-78660998D01*
X138743329Y-78572206D01*
X138811000Y-78232000D01*
X138811000Y-77076236D01*
X154311382Y-92576618D01*
X154599794Y-92769329D01*
X154940000Y-92837000D01*
X191401764Y-92837000D01*
X193802000Y-95237236D01*
X193802000Y-119773764D01*
X193173382Y-120402382D01*
X192980671Y-120690794D01*
X192913000Y-121031000D01*
X192913000Y-125857000D01*
X192980671Y-126197206D01*
X193045099Y-126293629D01*
X193173382Y-126485618D01*
X193361382Y-126673618D01*
X193649794Y-126866329D01*
X193990000Y-126934000D01*
X194594057Y-126934000D01*
X194678110Y-126991431D01*
X194930000Y-127042440D01*
X196230000Y-127042440D01*
X196465317Y-126998162D01*
X196565028Y-126934000D01*
X200345000Y-126934000D01*
X200685206Y-126866329D01*
X200973618Y-126673618D01*
X201140405Y-126506831D01*
X201611661Y-126507242D01*
X202125303Y-126295010D01*
X202518629Y-125902370D01*
X202731757Y-125389100D01*
X202731759Y-125386661D01*
X204937758Y-125386661D01*
X205149990Y-125900303D01*
X205542630Y-126293629D01*
X206055900Y-126506757D01*
X206611661Y-126507242D01*
X207125303Y-126295010D01*
X207518629Y-125902370D01*
X207731757Y-125389100D01*
X207732242Y-124833339D01*
X207520010Y-124319697D01*
X207127370Y-123926371D01*
X206614100Y-123713243D01*
X206058339Y-123712758D01*
X205544697Y-123924990D01*
X205151371Y-124317630D01*
X204938243Y-124830900D01*
X204937758Y-125386661D01*
X202731759Y-125386661D01*
X202732242Y-124833339D01*
X202520010Y-124319697D01*
X202127370Y-123926371D01*
X201614100Y-123713243D01*
X201058339Y-123712758D01*
X200544697Y-123924990D01*
X200151371Y-124317630D01*
X199938243Y-124830900D01*
X199937959Y-125156000D01*
X196565943Y-125156000D01*
X196481890Y-125098569D01*
X196448510Y-125091809D01*
X196589699Y-125033327D01*
X196768327Y-124854698D01*
X196865000Y-124621309D01*
X196865000Y-124430750D01*
X196706250Y-124272000D01*
X195707000Y-124272000D01*
X195707000Y-124292000D01*
X195453000Y-124292000D01*
X195453000Y-124272000D01*
X195433000Y-124272000D01*
X195433000Y-124018000D01*
X195453000Y-124018000D01*
X195453000Y-123318750D01*
X195707000Y-123318750D01*
X195707000Y-124018000D01*
X196706250Y-124018000D01*
X196865000Y-123859250D01*
X196865000Y-123668691D01*
X196768327Y-123435302D01*
X196589699Y-123256673D01*
X196356310Y-123160000D01*
X195865750Y-123160000D01*
X195707000Y-123318750D01*
X195453000Y-123318750D01*
X195294250Y-123160000D01*
X194803690Y-123160000D01*
X194691000Y-123206678D01*
X194691000Y-121399236D01*
X195319618Y-120770618D01*
X195372955Y-120690794D01*
X195512329Y-120482206D01*
X195580000Y-120142000D01*
X195580000Y-118395750D01*
X195900000Y-118395750D01*
X195900000Y-119836310D01*
X195996673Y-120069699D01*
X196175302Y-120248327D01*
X196408691Y-120345000D01*
X197849250Y-120345000D01*
X198008000Y-120186250D01*
X198008000Y-118237000D01*
X198262000Y-118237000D01*
X198262000Y-120186250D01*
X198420750Y-120345000D01*
X199861309Y-120345000D01*
X200094698Y-120248327D01*
X200273327Y-120069699D01*
X200370000Y-119836310D01*
X200370000Y-118395750D01*
X207300000Y-118395750D01*
X207300000Y-119836310D01*
X207396673Y-120069699D01*
X207575302Y-120248327D01*
X207808691Y-120345000D01*
X209249250Y-120345000D01*
X209408000Y-120186250D01*
X209408000Y-118237000D01*
X209662000Y-118237000D01*
X209662000Y-120186250D01*
X209820750Y-120345000D01*
X211261309Y-120345000D01*
X211494698Y-120248327D01*
X211673327Y-120069699D01*
X211770000Y-119836310D01*
X211770000Y-118395750D01*
X211611250Y-118237000D01*
X209662000Y-118237000D01*
X209408000Y-118237000D01*
X207458750Y-118237000D01*
X207300000Y-118395750D01*
X200370000Y-118395750D01*
X200211250Y-118237000D01*
X198262000Y-118237000D01*
X198008000Y-118237000D01*
X196058750Y-118237000D01*
X195900000Y-118395750D01*
X195580000Y-118395750D01*
X195580000Y-116383690D01*
X195900000Y-116383690D01*
X195900000Y-117824250D01*
X196058750Y-117983000D01*
X198008000Y-117983000D01*
X198008000Y-116033750D01*
X198262000Y-116033750D01*
X198262000Y-117983000D01*
X200211250Y-117983000D01*
X200370000Y-117824250D01*
X200370000Y-116383690D01*
X207300000Y-116383690D01*
X207300000Y-117824250D01*
X207458750Y-117983000D01*
X209408000Y-117983000D01*
X209408000Y-116033750D01*
X209662000Y-116033750D01*
X209662000Y-117983000D01*
X211611250Y-117983000D01*
X211770000Y-117824250D01*
X211770000Y-116383690D01*
X211673327Y-116150301D01*
X211494698Y-115971673D01*
X211261309Y-115875000D01*
X209820750Y-115875000D01*
X209662000Y-116033750D01*
X209408000Y-116033750D01*
X209249250Y-115875000D01*
X207808691Y-115875000D01*
X207575302Y-115971673D01*
X207396673Y-116150301D01*
X207300000Y-116383690D01*
X200370000Y-116383690D01*
X200273327Y-116150301D01*
X200094698Y-115971673D01*
X199861309Y-115875000D01*
X198420750Y-115875000D01*
X198262000Y-116033750D01*
X198008000Y-116033750D01*
X197849250Y-115875000D01*
X196408691Y-115875000D01*
X196175302Y-115971673D01*
X195996673Y-116150301D01*
X195900000Y-116383690D01*
X195580000Y-116383690D01*
X195580000Y-94869000D01*
X195512329Y-94528794D01*
X195319618Y-94240382D01*
X192646236Y-91567000D01*
X192798764Y-91567000D01*
X199832000Y-98600236D01*
X199832000Y-102773057D01*
X199774569Y-102857110D01*
X199771919Y-102870197D01*
X199635090Y-102657559D01*
X199422890Y-102512569D01*
X199171000Y-102461560D01*
X198471000Y-102461560D01*
X198235683Y-102505838D01*
X198019559Y-102644910D01*
X197874569Y-102857110D01*
X197823560Y-103109000D01*
X197823560Y-104409000D01*
X197867838Y-104644317D01*
X197932000Y-104744028D01*
X197932000Y-104968000D01*
X197999671Y-105308206D01*
X198192382Y-105596618D01*
X198313000Y-105717236D01*
X198313000Y-106329057D01*
X198255569Y-106413110D01*
X198204560Y-106665000D01*
X198204560Y-107965000D01*
X198248838Y-108200317D01*
X198313000Y-108300028D01*
X198313000Y-108778000D01*
X198380671Y-109118206D01*
X198475081Y-109259500D01*
X198573382Y-109406618D01*
X199937859Y-110771095D01*
X199937758Y-110886661D01*
X200149990Y-111400303D01*
X200542630Y-111793629D01*
X201055900Y-112006757D01*
X201611661Y-112007242D01*
X202125303Y-111795010D01*
X202330457Y-111590213D01*
X203034392Y-111590213D01*
X203103857Y-111832397D01*
X203627302Y-112019144D01*
X204182368Y-111991362D01*
X204566143Y-111832397D01*
X204635608Y-111590213D01*
X203835000Y-110789605D01*
X203034392Y-111590213D01*
X202330457Y-111590213D01*
X202518629Y-111402370D01*
X202578370Y-111258497D01*
X202612603Y-111341143D01*
X202854787Y-111410608D01*
X203655395Y-110610000D01*
X202854787Y-109809392D01*
X202612603Y-109878857D01*
X202581026Y-109967367D01*
X202520010Y-109819697D01*
X202127370Y-109426371D01*
X201614100Y-109213243D01*
X201058339Y-109212758D01*
X200942045Y-109260809D01*
X200091000Y-108409764D01*
X200091000Y-108300943D01*
X200148431Y-108216890D01*
X200151081Y-108203803D01*
X200287910Y-108416441D01*
X200500110Y-108561431D01*
X200752000Y-108612440D01*
X201452000Y-108612440D01*
X201687317Y-108568162D01*
X201903441Y-108429090D01*
X201916313Y-108410250D01*
X202575000Y-108410250D01*
X202575000Y-108750809D01*
X202671673Y-108984198D01*
X202850301Y-109162827D01*
X203083690Y-109259500D01*
X203413125Y-109259500D01*
X203103857Y-109387603D01*
X203034392Y-109629787D01*
X203835000Y-110430395D01*
X204635608Y-109629787D01*
X204566143Y-109387603D01*
X204207075Y-109259500D01*
X204586310Y-109259500D01*
X204819699Y-109162827D01*
X204998327Y-108984198D01*
X205095000Y-108750809D01*
X205095000Y-108410250D01*
X204936250Y-108251500D01*
X203962000Y-108251500D01*
X203962000Y-108271500D01*
X203708000Y-108271500D01*
X203708000Y-108251500D01*
X202733750Y-108251500D01*
X202575000Y-108410250D01*
X201916313Y-108410250D01*
X202048431Y-108216890D01*
X202099440Y-107965000D01*
X202099440Y-107950000D01*
X202686250Y-107950000D01*
X202733750Y-107997500D01*
X203708000Y-107997500D01*
X203708000Y-107977500D01*
X203962000Y-107977500D01*
X203962000Y-107997500D01*
X204936250Y-107997500D01*
X204981861Y-107951889D01*
X205170095Y-108077663D01*
X205486000Y-108140501D01*
X205486005Y-108140500D01*
X205730583Y-108140500D01*
X205741838Y-108200317D01*
X205880910Y-108416441D01*
X206093110Y-108561431D01*
X206345000Y-108612440D01*
X207045000Y-108612440D01*
X207280317Y-108568162D01*
X207496441Y-108429090D01*
X207641431Y-108216890D01*
X207644081Y-108203803D01*
X207706000Y-108300028D01*
X207706000Y-108790764D01*
X207087110Y-109409654D01*
X206614100Y-109213243D01*
X206058339Y-109212758D01*
X205544697Y-109424990D01*
X205151371Y-109817630D01*
X205091630Y-109961503D01*
X205057397Y-109878857D01*
X204815213Y-109809392D01*
X204014605Y-110610000D01*
X204815213Y-111410608D01*
X205057397Y-111341143D01*
X205088974Y-111252633D01*
X205149990Y-111400303D01*
X205542630Y-111793629D01*
X206055900Y-112006757D01*
X206611661Y-112007242D01*
X207125303Y-111795010D01*
X207500578Y-111420390D01*
X207772618Y-111238618D01*
X209223618Y-109787618D01*
X209329077Y-109629787D01*
X209416329Y-109499206D01*
X209484000Y-109159000D01*
X209484000Y-108300943D01*
X209541431Y-108216890D01*
X209592440Y-107965000D01*
X209592440Y-106665000D01*
X209548162Y-106429683D01*
X209484000Y-106329972D01*
X209484000Y-103220943D01*
X209541431Y-103136890D01*
X209592440Y-102885000D01*
X209592440Y-101585000D01*
X209548162Y-101349683D01*
X209409090Y-101133559D01*
X209196890Y-100988569D01*
X208945000Y-100937560D01*
X208245000Y-100937560D01*
X208009683Y-100981838D01*
X207793559Y-101120910D01*
X207648569Y-101333110D01*
X207645919Y-101346197D01*
X207509090Y-101133559D01*
X207296890Y-100988569D01*
X207264000Y-100981909D01*
X207264000Y-99874705D01*
X207451441Y-99754090D01*
X207596431Y-99541890D01*
X207647440Y-99290000D01*
X207647440Y-98290000D01*
X207603162Y-98054683D01*
X207464090Y-97838559D01*
X207395994Y-97792031D01*
X207538327Y-97649698D01*
X207635000Y-97416309D01*
X207635000Y-97075750D01*
X207476250Y-96917000D01*
X206502000Y-96917000D01*
X206502000Y-96937000D01*
X206248000Y-96937000D01*
X206248000Y-96917000D01*
X205273750Y-96917000D01*
X205115000Y-97075750D01*
X205115000Y-97416309D01*
X205211673Y-97649698D01*
X205352910Y-97790936D01*
X205320691Y-97811668D01*
X205225618Y-97669382D01*
X203719927Y-96163691D01*
X205115000Y-96163691D01*
X205115000Y-96504250D01*
X205273750Y-96663000D01*
X206248000Y-96663000D01*
X206248000Y-95813750D01*
X206502000Y-95813750D01*
X206502000Y-96663000D01*
X207476250Y-96663000D01*
X207635000Y-96504250D01*
X207635000Y-96163691D01*
X207538327Y-95930302D01*
X207359699Y-95751673D01*
X207126310Y-95655000D01*
X206660750Y-95655000D01*
X206502000Y-95813750D01*
X206248000Y-95813750D01*
X206089250Y-95655000D01*
X205623690Y-95655000D01*
X205390301Y-95751673D01*
X205211673Y-95930302D01*
X205115000Y-96163691D01*
X203719927Y-96163691D01*
X189223618Y-81667382D01*
X189205087Y-81655000D01*
X188935206Y-81474671D01*
X188595000Y-81407000D01*
X171691236Y-81407000D01*
X169538618Y-79254382D01*
X169449088Y-79194560D01*
X169397487Y-79160081D01*
X207308004Y-79160081D01*
X207449472Y-79463270D01*
X208185952Y-79748227D01*
X208975420Y-79729654D01*
X209618528Y-79463270D01*
X209759996Y-79160081D01*
X208534000Y-77934085D01*
X207308004Y-79160081D01*
X169397487Y-79160081D01*
X169250206Y-79061671D01*
X168910000Y-78994000D01*
X163055236Y-78994000D01*
X162553618Y-78492382D01*
X162474555Y-78439554D01*
X162265206Y-78299671D01*
X161925000Y-78232000D01*
X160261236Y-78232000D01*
X159435668Y-77406432D01*
X206540253Y-77406432D01*
X206558826Y-78195900D01*
X206825210Y-78839008D01*
X207128399Y-78980476D01*
X208354395Y-77754480D01*
X208713605Y-77754480D01*
X209939601Y-78980476D01*
X210242790Y-78839008D01*
X210527747Y-78102528D01*
X210509174Y-77313060D01*
X210242790Y-76669952D01*
X209939601Y-76528484D01*
X208713605Y-77754480D01*
X208354395Y-77754480D01*
X207128399Y-76528484D01*
X206825210Y-76669952D01*
X206540253Y-77406432D01*
X159435668Y-77406432D01*
X157981618Y-75952382D01*
X157952775Y-75933110D01*
X157693206Y-75759671D01*
X157353000Y-75692000D01*
X153276236Y-75692000D01*
X149599618Y-72015382D01*
X149590067Y-72009000D01*
X149311206Y-71822671D01*
X148971000Y-71755000D01*
X144906236Y-71755000D01*
X143382618Y-70231382D01*
X143346128Y-70207000D01*
X143094206Y-70038671D01*
X142754000Y-69971000D01*
X136533132Y-69971000D01*
X136368000Y-69937560D01*
X135040440Y-69937560D01*
X135040440Y-68810000D01*
X145057560Y-68810000D01*
X145057560Y-70310000D01*
X145101838Y-70545317D01*
X145240910Y-70761441D01*
X145453110Y-70906431D01*
X145705000Y-70957440D01*
X147005000Y-70957440D01*
X147240317Y-70913162D01*
X147456441Y-70774090D01*
X147601431Y-70561890D01*
X147652440Y-70310000D01*
X147652440Y-68810000D01*
X147608162Y-68574683D01*
X147469090Y-68358559D01*
X147256890Y-68213569D01*
X147005000Y-68162560D01*
X145705000Y-68162560D01*
X145469683Y-68206838D01*
X145253559Y-68345910D01*
X145108569Y-68558110D01*
X145057560Y-68810000D01*
X135040440Y-68810000D01*
X135040440Y-68610000D01*
X135007000Y-68432282D01*
X135007000Y-68307236D01*
X135115236Y-68199000D01*
X138434208Y-68199000D01*
X138570910Y-68411441D01*
X138783110Y-68556431D01*
X139035000Y-68607440D01*
X139735000Y-68607440D01*
X139970317Y-68563162D01*
X140186441Y-68424090D01*
X140331431Y-68211890D01*
X140334081Y-68198803D01*
X140470910Y-68411441D01*
X140683110Y-68556431D01*
X140935000Y-68607440D01*
X141635000Y-68607440D01*
X141870317Y-68563162D01*
X142086441Y-68424090D01*
X142231431Y-68211890D01*
X142234041Y-68199000D01*
X142494000Y-68199000D01*
X142834206Y-68131329D01*
X143122618Y-67938618D01*
X143346236Y-67715000D01*
X154302560Y-67715000D01*
X154302560Y-68715000D01*
X154346838Y-68950317D01*
X154485910Y-69166441D01*
X154555711Y-69214134D01*
X154498559Y-69250910D01*
X154353569Y-69463110D01*
X154302560Y-69715000D01*
X154302560Y-70715000D01*
X154346838Y-70950317D01*
X154485910Y-71166441D01*
X154698110Y-71311431D01*
X154879000Y-71348062D01*
X154879000Y-71912057D01*
X154821569Y-71996110D01*
X154770560Y-72248000D01*
X154770560Y-73548000D01*
X154814838Y-73783317D01*
X154953910Y-73999441D01*
X155166110Y-74144431D01*
X155418000Y-74195440D01*
X156118000Y-74195440D01*
X156353317Y-74151162D01*
X156569441Y-74012090D01*
X156714431Y-73799890D01*
X156721191Y-73766510D01*
X156779673Y-73907699D01*
X156958302Y-74086327D01*
X157191691Y-74183000D01*
X157382250Y-74183000D01*
X157541000Y-74024250D01*
X157541000Y-73025000D01*
X157795000Y-73025000D01*
X157795000Y-74024250D01*
X157953750Y-74183000D01*
X158144309Y-74183000D01*
X158377698Y-74086327D01*
X158556327Y-73907699D01*
X158653000Y-73674310D01*
X158653000Y-73183750D01*
X158494250Y-73025000D01*
X157795000Y-73025000D01*
X157541000Y-73025000D01*
X157521000Y-73025000D01*
X157521000Y-72771000D01*
X157541000Y-72771000D01*
X157541000Y-71771750D01*
X157795000Y-71771750D01*
X157795000Y-72771000D01*
X158494250Y-72771000D01*
X158653000Y-72612250D01*
X158653000Y-72121690D01*
X158556327Y-71888301D01*
X158377698Y-71709673D01*
X158144309Y-71613000D01*
X157953750Y-71613000D01*
X157795000Y-71771750D01*
X157541000Y-71771750D01*
X157382250Y-71613000D01*
X157191691Y-71613000D01*
X156958302Y-71709673D01*
X156779673Y-71888301D01*
X156723346Y-72024287D01*
X156721162Y-72012683D01*
X156657000Y-71912972D01*
X156657000Y-71170954D01*
X156796431Y-70966890D01*
X156847440Y-70715000D01*
X156847440Y-69715000D01*
X156803162Y-69479683D01*
X156664090Y-69263559D01*
X156594289Y-69215866D01*
X156651441Y-69179090D01*
X156702748Y-69104000D01*
X158988000Y-69104000D01*
X159328206Y-69036329D01*
X159616618Y-68843618D01*
X161283618Y-67176618D01*
X161367364Y-67051283D01*
X161476329Y-66888206D01*
X161477922Y-66880198D01*
X161515317Y-66873162D01*
X161731441Y-66734090D01*
X161782748Y-66659000D01*
X161941000Y-66659000D01*
X161988500Y-66649552D01*
X161988500Y-68326000D01*
X162051337Y-68641906D01*
X162230283Y-68909717D01*
X162664500Y-69343933D01*
X162664500Y-74252560D01*
X162615000Y-74252560D01*
X162543677Y-74265980D01*
X162541310Y-74265000D01*
X162461250Y-74265000D01*
X162440938Y-74285312D01*
X162379683Y-74296838D01*
X162185084Y-74422059D01*
X162124699Y-74361673D01*
X161938153Y-74284403D01*
X161918750Y-74265000D01*
X161811250Y-74265000D01*
X161791847Y-74284403D01*
X161605301Y-74361673D01*
X161543044Y-74423930D01*
X161366890Y-74303569D01*
X161292192Y-74288442D01*
X161268750Y-74265000D01*
X161188690Y-74265000D01*
X161184665Y-74266667D01*
X161115000Y-74252560D01*
X160665000Y-74252560D01*
X160561329Y-74272067D01*
X160465000Y-74252560D01*
X160015000Y-74252560D01*
X159779683Y-74296838D01*
X159563559Y-74435910D01*
X159418569Y-74648110D01*
X159367560Y-74900000D01*
X159367560Y-76650000D01*
X159411838Y-76885317D01*
X159550910Y-77101441D01*
X159763110Y-77246431D01*
X160015000Y-77297440D01*
X160465000Y-77297440D01*
X160568671Y-77277933D01*
X160665000Y-77297440D01*
X161115000Y-77297440D01*
X161186323Y-77284020D01*
X161188690Y-77285000D01*
X161268750Y-77285000D01*
X161289062Y-77264688D01*
X161350317Y-77253162D01*
X161544916Y-77127941D01*
X161605301Y-77188327D01*
X161791847Y-77265597D01*
X161811250Y-77285000D01*
X161918750Y-77285000D01*
X161938153Y-77265597D01*
X162124699Y-77188327D01*
X162186956Y-77126070D01*
X162363110Y-77246431D01*
X162437808Y-77261558D01*
X162461250Y-77285000D01*
X162541310Y-77285000D01*
X162545335Y-77283333D01*
X162615000Y-77297440D01*
X163065000Y-77297440D01*
X163168671Y-77277933D01*
X163265000Y-77297440D01*
X163715000Y-77297440D01*
X163818671Y-77277933D01*
X163915000Y-77297440D01*
X164365000Y-77297440D01*
X164436323Y-77284020D01*
X164438690Y-77285000D01*
X164518750Y-77285000D01*
X164539062Y-77264688D01*
X164600317Y-77253162D01*
X164792227Y-77129671D01*
X164963110Y-77246431D01*
X165037808Y-77261558D01*
X165061250Y-77285000D01*
X165141310Y-77285000D01*
X165145335Y-77283333D01*
X165215000Y-77297440D01*
X165665000Y-77297440D01*
X165768671Y-77277933D01*
X165865000Y-77297440D01*
X166315000Y-77297440D01*
X166386323Y-77284020D01*
X166388690Y-77285000D01*
X166468750Y-77285000D01*
X166489062Y-77264688D01*
X166550317Y-77253162D01*
X166742227Y-77129671D01*
X166913110Y-77246431D01*
X166987808Y-77261558D01*
X167011250Y-77285000D01*
X167091310Y-77285000D01*
X167095335Y-77283333D01*
X167165000Y-77297440D01*
X167615000Y-77297440D01*
X167718671Y-77277933D01*
X167815000Y-77297440D01*
X168265000Y-77297440D01*
X168368671Y-77277933D01*
X168465000Y-77297440D01*
X168915000Y-77297440D01*
X169150317Y-77253162D01*
X169366441Y-77114090D01*
X169511431Y-76901890D01*
X169562440Y-76650000D01*
X169562440Y-76348879D01*
X207308004Y-76348879D01*
X208534000Y-77574875D01*
X209759996Y-76348879D01*
X209618528Y-76045690D01*
X208882048Y-75760733D01*
X208092580Y-75779306D01*
X207449472Y-76045690D01*
X207308004Y-76348879D01*
X169562440Y-76348879D01*
X169562440Y-75127494D01*
X170775933Y-73914000D01*
X191047066Y-73914000D01*
X192773781Y-75640714D01*
X192773783Y-75640717D01*
X193041595Y-75819663D01*
X193357500Y-75882500D01*
X204724000Y-75882500D01*
X205039906Y-75819663D01*
X205307717Y-75640717D01*
X206417694Y-74530739D01*
X206417697Y-74530737D01*
X206596643Y-74262925D01*
X206599456Y-74248783D01*
X206605636Y-74217715D01*
X206624283Y-74210010D01*
X207017609Y-73817370D01*
X207230737Y-73304100D01*
X207231222Y-72748339D01*
X207018990Y-72234697D01*
X206626350Y-71841371D01*
X206434253Y-71761605D01*
X206565123Y-71707397D01*
X206634588Y-71465213D01*
X205833980Y-70664605D01*
X205033372Y-71465213D01*
X205102837Y-71707397D01*
X205243298Y-71757509D01*
X205043677Y-71839990D01*
X204834470Y-72048832D01*
X204627370Y-71841371D01*
X204419488Y-71755051D01*
X204625303Y-71670010D01*
X205018629Y-71277370D01*
X205129846Y-71009529D01*
X205654375Y-70485000D01*
X206013585Y-70485000D01*
X206814193Y-71285608D01*
X207056377Y-71216143D01*
X207243124Y-70692698D01*
X207215342Y-70137632D01*
X207056377Y-69753857D01*
X206814193Y-69684392D01*
X206013585Y-70485000D01*
X205654375Y-70485000D01*
X205129811Y-69960436D01*
X205020010Y-69694697D01*
X204830432Y-69504787D01*
X205033372Y-69504787D01*
X205833980Y-70305395D01*
X206634588Y-69504787D01*
X206565123Y-69262603D01*
X206041678Y-69075856D01*
X205486612Y-69103638D01*
X205102837Y-69262603D01*
X205033372Y-69504787D01*
X204830432Y-69504787D01*
X204627370Y-69301371D01*
X204114100Y-69088243D01*
X203628728Y-69087819D01*
X203540206Y-69028671D01*
X203200000Y-68961000D01*
X198934705Y-68961000D01*
X198814090Y-68773559D01*
X198601890Y-68628569D01*
X198350000Y-68577560D01*
X197350000Y-68577560D01*
X197114683Y-68621838D01*
X196898559Y-68760910D01*
X196850866Y-68830711D01*
X196814090Y-68773559D01*
X196665341Y-68671923D01*
X196612663Y-68407094D01*
X196433717Y-68139283D01*
X195455555Y-67161121D01*
X207308004Y-67161121D01*
X207449472Y-67464310D01*
X208185952Y-67749267D01*
X208975420Y-67730694D01*
X209618528Y-67464310D01*
X209759996Y-67161121D01*
X208534000Y-65935125D01*
X207308004Y-67161121D01*
X195455555Y-67161121D01*
X193701906Y-65407472D01*
X206540253Y-65407472D01*
X206558826Y-66196940D01*
X206825210Y-66840048D01*
X207128399Y-66981516D01*
X208354395Y-65755520D01*
X208713605Y-65755520D01*
X209939601Y-66981516D01*
X210242790Y-66840048D01*
X210527747Y-66103568D01*
X210509174Y-65314100D01*
X210242790Y-64670992D01*
X209939601Y-64529524D01*
X208713605Y-65755520D01*
X208354395Y-65755520D01*
X207128399Y-64529524D01*
X206825210Y-64670992D01*
X206540253Y-65407472D01*
X193701906Y-65407472D01*
X192861717Y-64567283D01*
X192593906Y-64388337D01*
X192400764Y-64349919D01*
X207308004Y-64349919D01*
X208534000Y-65575915D01*
X209759996Y-64349919D01*
X209618528Y-64046730D01*
X208882048Y-63761773D01*
X208092580Y-63780346D01*
X207449472Y-64046730D01*
X207308004Y-64349919D01*
X192400764Y-64349919D01*
X192278000Y-64325500D01*
X190524434Y-64325500D01*
X190502500Y-64303566D01*
X190502500Y-64070878D01*
X190623431Y-63893890D01*
X190626081Y-63880803D01*
X190762910Y-64093441D01*
X190975110Y-64238431D01*
X191227000Y-64289440D01*
X191927000Y-64289440D01*
X192162317Y-64245162D01*
X192378441Y-64106090D01*
X192523431Y-63893890D01*
X192526041Y-63881000D01*
X192855282Y-63881000D01*
X192959450Y-64042881D01*
X193171650Y-64187871D01*
X193423540Y-64238880D01*
X194622420Y-64238880D01*
X194857737Y-64194602D01*
X195073861Y-64055530D01*
X195074543Y-64054533D01*
X195269690Y-64187871D01*
X195521580Y-64238880D01*
X196720460Y-64238880D01*
X196955777Y-64194602D01*
X197171901Y-64055530D01*
X197316891Y-63843330D01*
X197322122Y-63817500D01*
X198755000Y-63817500D01*
X199070906Y-63754663D01*
X199338717Y-63575717D01*
X200989714Y-61924719D01*
X200989717Y-61924717D01*
X201168663Y-61656905D01*
X201182681Y-61586431D01*
X201231501Y-61341000D01*
X201231500Y-61340995D01*
X201231500Y-58547000D01*
X201185665Y-58316569D01*
X201168663Y-58231094D01*
X200989717Y-57963283D01*
X198830717Y-55804283D01*
X198562906Y-55625337D01*
X198247000Y-55562500D01*
X195921934Y-55562500D01*
X195745268Y-55385834D01*
X204120543Y-55385834D01*
X204520853Y-56354658D01*
X205261443Y-57096542D01*
X206229567Y-57498542D01*
X207277834Y-57499457D01*
X208246658Y-57099147D01*
X208988542Y-56358557D01*
X209390542Y-55390433D01*
X209391457Y-54342166D01*
X208991147Y-53373342D01*
X208250557Y-52631458D01*
X207282433Y-52229458D01*
X206234166Y-52228543D01*
X205265342Y-52628853D01*
X204523458Y-53369443D01*
X204121458Y-54337567D01*
X204120543Y-55385834D01*
X195745268Y-55385834D01*
X194131717Y-53772283D01*
X193863906Y-53593337D01*
X193548000Y-53530500D01*
X179197000Y-53530500D01*
X178881095Y-53593337D01*
X178613283Y-53772283D01*
X178613281Y-53772286D01*
X171108066Y-61277500D01*
X171021100Y-61277500D01*
X171045431Y-61241890D01*
X171096440Y-60990000D01*
X171096440Y-60290000D01*
X171052162Y-60054683D01*
X170913090Y-59838559D01*
X170700890Y-59693569D01*
X170687803Y-59690919D01*
X170900441Y-59554090D01*
X171045431Y-59341890D01*
X171096440Y-59090000D01*
X171096440Y-58390000D01*
X171052162Y-58154683D01*
X170913090Y-57938559D01*
X170700890Y-57793569D01*
X170449000Y-57742560D01*
X169149000Y-57742560D01*
X168913683Y-57786838D01*
X168813972Y-57851000D01*
X167075196Y-57851000D01*
X166890890Y-57725069D01*
X166857510Y-57718309D01*
X166998699Y-57659827D01*
X167177327Y-57481198D01*
X167274000Y-57247809D01*
X167274000Y-57057250D01*
X167115250Y-56898500D01*
X166116000Y-56898500D01*
X166116000Y-56918500D01*
X165862000Y-56918500D01*
X165862000Y-56898500D01*
X164862750Y-56898500D01*
X164704000Y-57057250D01*
X164704000Y-57247809D01*
X164800673Y-57481198D01*
X164979301Y-57659827D01*
X165115287Y-57716154D01*
X165103683Y-57718338D01*
X165003972Y-57782500D01*
X164340500Y-57782500D01*
X164000294Y-57850171D01*
X163802690Y-57982206D01*
X163711882Y-58042882D01*
X163588764Y-58166000D01*
X163491037Y-58166000D01*
X163507440Y-58085000D01*
X163507440Y-57485000D01*
X163463162Y-57249683D01*
X163399322Y-57150472D01*
X163456431Y-57066890D01*
X163507440Y-56815000D01*
X163507440Y-56295191D01*
X164704000Y-56295191D01*
X164704000Y-56485750D01*
X164862750Y-56644500D01*
X165862000Y-56644500D01*
X165862000Y-55945250D01*
X166116000Y-55945250D01*
X166116000Y-56644500D01*
X167115250Y-56644500D01*
X167274000Y-56485750D01*
X167274000Y-56295191D01*
X167177327Y-56061802D01*
X166998699Y-55883173D01*
X166765310Y-55786500D01*
X166274750Y-55786500D01*
X166116000Y-55945250D01*
X165862000Y-55945250D01*
X165703250Y-55786500D01*
X165212690Y-55786500D01*
X164979301Y-55883173D01*
X164800673Y-56061802D01*
X164704000Y-56295191D01*
X163507440Y-56295191D01*
X163507440Y-56215000D01*
X163463162Y-55979683D01*
X163399322Y-55880472D01*
X163456431Y-55796890D01*
X163507440Y-55545000D01*
X163507440Y-54945000D01*
X163463162Y-54709683D01*
X163324090Y-54493559D01*
X163111890Y-54348569D01*
X162860000Y-54297560D01*
X161310000Y-54297560D01*
X161074683Y-54341838D01*
X160858559Y-54480910D01*
X160713569Y-54693110D01*
X160662560Y-54945000D01*
X160662560Y-55545000D01*
X160706838Y-55780317D01*
X160770678Y-55879528D01*
X160713569Y-55963110D01*
X160662560Y-56215000D01*
X160662560Y-56815000D01*
X160681560Y-56915979D01*
X160441794Y-56963671D01*
X160153382Y-57156382D01*
X159645382Y-57664382D01*
X159452671Y-57952794D01*
X159385000Y-58293000D01*
X159385000Y-60071000D01*
X159452671Y-60411206D01*
X159628732Y-60674699D01*
X159645382Y-60699618D01*
X162052000Y-63106236D01*
X162052000Y-64401764D01*
X161679403Y-64774361D01*
X161675994Y-64772031D01*
X161818327Y-64629698D01*
X161915000Y-64396309D01*
X161915000Y-64055750D01*
X161756250Y-63897000D01*
X160782000Y-63897000D01*
X160782000Y-63917000D01*
X160528000Y-63917000D01*
X160528000Y-63897000D01*
X159553750Y-63897000D01*
X159395000Y-64055750D01*
X159395000Y-64396309D01*
X159491673Y-64629698D01*
X159632910Y-64770936D01*
X159578559Y-64805910D01*
X159433569Y-65018110D01*
X159382560Y-65270000D01*
X159382560Y-66270000D01*
X159426838Y-66505317D01*
X159432166Y-66513598D01*
X158619764Y-67326000D01*
X156704270Y-67326000D01*
X156664090Y-67263559D01*
X156451890Y-67118569D01*
X156200000Y-67067560D01*
X154950000Y-67067560D01*
X154714683Y-67111838D01*
X154498559Y-67250910D01*
X154353569Y-67463110D01*
X154302560Y-67715000D01*
X143346236Y-67715000D01*
X145088231Y-65973005D01*
X145101838Y-66045317D01*
X145240910Y-66261441D01*
X145453110Y-66406431D01*
X145705000Y-66457440D01*
X147005000Y-66457440D01*
X147240317Y-66413162D01*
X147456441Y-66274090D01*
X147601431Y-66061890D01*
X147652440Y-65810000D01*
X147652440Y-65245750D01*
X148570000Y-65245750D01*
X148570000Y-65736309D01*
X148666673Y-65969698D01*
X148845301Y-66148327D01*
X149078690Y-66245000D01*
X149569250Y-66245000D01*
X149728000Y-66086250D01*
X149728000Y-65087000D01*
X149982000Y-65087000D01*
X149982000Y-66086250D01*
X150140750Y-66245000D01*
X150631310Y-66245000D01*
X150864699Y-66148327D01*
X151043327Y-65969698D01*
X151140000Y-65736309D01*
X151140000Y-65245750D01*
X150981250Y-65087000D01*
X149982000Y-65087000D01*
X149728000Y-65087000D01*
X148728750Y-65087000D01*
X148570000Y-65245750D01*
X147652440Y-65245750D01*
X147652440Y-64310000D01*
X147628674Y-64183691D01*
X148570000Y-64183691D01*
X148570000Y-64674250D01*
X148728750Y-64833000D01*
X149728000Y-64833000D01*
X149728000Y-63833750D01*
X149982000Y-63833750D01*
X149982000Y-64833000D01*
X150981250Y-64833000D01*
X151140000Y-64674250D01*
X151140000Y-64183691D01*
X151043327Y-63950302D01*
X150864699Y-63771673D01*
X150631310Y-63675000D01*
X150140750Y-63675000D01*
X149982000Y-63833750D01*
X149728000Y-63833750D01*
X149569250Y-63675000D01*
X149078690Y-63675000D01*
X148845301Y-63771673D01*
X148666673Y-63950302D01*
X148570000Y-64183691D01*
X147628674Y-64183691D01*
X147608162Y-64074683D01*
X147469090Y-63858559D01*
X147256890Y-63713569D01*
X147005000Y-63662560D01*
X145705000Y-63662560D01*
X145469683Y-63706838D01*
X145253559Y-63845910D01*
X145108569Y-64058110D01*
X145085708Y-64171000D01*
X144744000Y-64171000D01*
X144403795Y-64238670D01*
X144115382Y-64431382D01*
X142192712Y-66354052D01*
X142099090Y-66208559D01*
X141886890Y-66063569D01*
X141635000Y-66012560D01*
X140935000Y-66012560D01*
X140699683Y-66056838D01*
X140483559Y-66195910D01*
X140338569Y-66408110D01*
X140335919Y-66421197D01*
X140199090Y-66208559D01*
X139986890Y-66063569D01*
X139735000Y-66012560D01*
X139035000Y-66012560D01*
X138799683Y-66056838D01*
X138583559Y-66195910D01*
X138438569Y-66408110D01*
X138435959Y-66421000D01*
X134747000Y-66421000D01*
X134572532Y-66455704D01*
X135756618Y-65271618D01*
X135800968Y-65205244D01*
X136096423Y-64910303D01*
X136270801Y-64490354D01*
X136271198Y-64035641D01*
X136097554Y-63615388D01*
X135776303Y-63293577D01*
X135356354Y-63119199D01*
X135115248Y-63118988D01*
X136447498Y-61786738D01*
X136509089Y-61694560D01*
X136631564Y-61511264D01*
X136753967Y-61488232D01*
X136970091Y-61349160D01*
X137115081Y-61136960D01*
X137166090Y-60885070D01*
X137166090Y-59084210D01*
X137121812Y-58848893D01*
X136982740Y-58632769D01*
X136770540Y-58487779D01*
X136518650Y-58436770D01*
X135119110Y-58436770D01*
X134883793Y-58481048D01*
X134667669Y-58620120D01*
X134620893Y-58688579D01*
X134584980Y-58632769D01*
X134372780Y-58487779D01*
X134120890Y-58436770D01*
X132721350Y-58436770D01*
X132486033Y-58481048D01*
X132269909Y-58620120D01*
X132124919Y-58832320D01*
X132073910Y-59084210D01*
X132073910Y-60885070D01*
X132118188Y-61120387D01*
X132257260Y-61336511D01*
X132469460Y-61481501D01*
X132721350Y-61532510D01*
X134120890Y-61532510D01*
X134202635Y-61517129D01*
X133743764Y-61976000D01*
X132842000Y-61976000D01*
X132501794Y-62043671D01*
X132226585Y-62227560D01*
X132213382Y-62236382D01*
X131425764Y-63024000D01*
X129686236Y-63024000D01*
X129429000Y-62766764D01*
X129429000Y-60819270D01*
X129491441Y-60779090D01*
X129537969Y-60710994D01*
X129680302Y-60853327D01*
X129913691Y-60950000D01*
X130254250Y-60950000D01*
X130413000Y-60791250D01*
X130413000Y-59817000D01*
X130667000Y-59817000D01*
X130667000Y-60791250D01*
X130825750Y-60950000D01*
X131166309Y-60950000D01*
X131399698Y-60853327D01*
X131578327Y-60674699D01*
X131675000Y-60441310D01*
X131675000Y-59975750D01*
X131516250Y-59817000D01*
X130667000Y-59817000D01*
X130413000Y-59817000D01*
X130393000Y-59817000D01*
X130393000Y-59563000D01*
X130413000Y-59563000D01*
X130413000Y-58588750D01*
X130667000Y-58588750D01*
X130667000Y-59563000D01*
X131516250Y-59563000D01*
X131675000Y-59404250D01*
X131675000Y-58938690D01*
X131578327Y-58705301D01*
X131399698Y-58526673D01*
X131166309Y-58430000D01*
X130825750Y-58430000D01*
X130667000Y-58588750D01*
X130413000Y-58588750D01*
X130254250Y-58430000D01*
X129913691Y-58430000D01*
X129680302Y-58526673D01*
X129539064Y-58667910D01*
X129504090Y-58613559D01*
X129291890Y-58468569D01*
X129040000Y-58417560D01*
X128040000Y-58417560D01*
X127804683Y-58461838D01*
X127588559Y-58600910D01*
X127443569Y-58813110D01*
X127392560Y-59065000D01*
X127392560Y-60315000D01*
X127436838Y-60550317D01*
X127575910Y-60766441D01*
X127651000Y-60817748D01*
X127651000Y-62893764D01*
X127381000Y-62623764D01*
X127381000Y-58788236D01*
X127746796Y-58422440D01*
X127770000Y-58422440D01*
X128005317Y-58378162D01*
X128221441Y-58239090D01*
X128267969Y-58170994D01*
X128410302Y-58313327D01*
X128643691Y-58410000D01*
X128984250Y-58410000D01*
X129143000Y-58251250D01*
X129143000Y-57277000D01*
X129397000Y-57277000D01*
X129397000Y-58251250D01*
X129555750Y-58410000D01*
X129896309Y-58410000D01*
X130129698Y-58313327D01*
X130308327Y-58134699D01*
X130334815Y-58070750D01*
X137340000Y-58070750D01*
X137340000Y-59511310D01*
X137436673Y-59744699D01*
X137615302Y-59923327D01*
X137848691Y-60020000D01*
X138989250Y-60020000D01*
X139148000Y-59861250D01*
X139148000Y-57912000D01*
X139402000Y-57912000D01*
X139402000Y-59861250D01*
X139560750Y-60020000D01*
X140701309Y-60020000D01*
X140934698Y-59923327D01*
X141113327Y-59744699D01*
X141210000Y-59511310D01*
X141210000Y-58070750D01*
X141051250Y-57912000D01*
X139402000Y-57912000D01*
X139148000Y-57912000D01*
X137498750Y-57912000D01*
X137340000Y-58070750D01*
X130334815Y-58070750D01*
X130405000Y-57901310D01*
X130405000Y-57435750D01*
X130246250Y-57277000D01*
X129397000Y-57277000D01*
X129143000Y-57277000D01*
X129123000Y-57277000D01*
X129123000Y-57023000D01*
X129143000Y-57023000D01*
X129143000Y-56048750D01*
X129397000Y-56048750D01*
X129397000Y-57023000D01*
X130246250Y-57023000D01*
X130405000Y-56864250D01*
X130405000Y-56398690D01*
X130308327Y-56165301D01*
X130129698Y-55986673D01*
X129896309Y-55890000D01*
X129555750Y-55890000D01*
X129397000Y-56048750D01*
X129143000Y-56048750D01*
X128984250Y-55890000D01*
X128755236Y-55890000D01*
X128774126Y-55871110D01*
X132086350Y-55871110D01*
X132086350Y-56612099D01*
X132183023Y-56845488D01*
X132361651Y-57024117D01*
X132595040Y-57120790D01*
X133135370Y-57120790D01*
X133294120Y-56962040D01*
X133294120Y-55712360D01*
X132245100Y-55712360D01*
X132086350Y-55871110D01*
X128774126Y-55871110D01*
X129908236Y-54737000D01*
X132086350Y-54737000D01*
X132086350Y-55299610D01*
X132245100Y-55458360D01*
X133294120Y-55458360D01*
X133294120Y-55438360D01*
X133548120Y-55438360D01*
X133548120Y-55458360D01*
X133568120Y-55458360D01*
X133568120Y-55712360D01*
X133548120Y-55712360D01*
X133548120Y-56962040D01*
X133706870Y-57120790D01*
X134247200Y-57120790D01*
X134480589Y-57024117D01*
X134620743Y-56883963D01*
X134655020Y-56937231D01*
X134867220Y-57082221D01*
X135119110Y-57133230D01*
X136518650Y-57133230D01*
X136753967Y-57088952D01*
X136970091Y-56949880D01*
X137115081Y-56737680D01*
X137166090Y-56485790D01*
X137166090Y-56058690D01*
X137340000Y-56058690D01*
X137340000Y-57499250D01*
X137498750Y-57658000D01*
X139148000Y-57658000D01*
X139148000Y-55708750D01*
X139402000Y-55708750D01*
X139402000Y-57658000D01*
X141051250Y-57658000D01*
X141210000Y-57499250D01*
X141210000Y-56058690D01*
X141113327Y-55825301D01*
X140934698Y-55646673D01*
X140701309Y-55550000D01*
X139560750Y-55550000D01*
X139402000Y-55708750D01*
X139148000Y-55708750D01*
X138989250Y-55550000D01*
X137848691Y-55550000D01*
X137615302Y-55646673D01*
X137436673Y-55825301D01*
X137340000Y-56058690D01*
X137166090Y-56058690D01*
X137166090Y-54684930D01*
X137121812Y-54449613D01*
X136982740Y-54233489D01*
X136770540Y-54088499D01*
X136518650Y-54037490D01*
X136320726Y-54037490D01*
X135940736Y-53657500D01*
X139331764Y-53657500D01*
X141922500Y-56248236D01*
X141922500Y-59753500D01*
X141990171Y-60093706D01*
X142182882Y-60382118D01*
X144532382Y-62731618D01*
X144820794Y-62924329D01*
X145161000Y-62992000D01*
X147510500Y-62992000D01*
X147850706Y-62924329D01*
X148139118Y-62731618D01*
X149910736Y-60960000D01*
X150634764Y-60960000D01*
X153803382Y-64128618D01*
X154091794Y-64321329D01*
X154099802Y-64322922D01*
X154106838Y-64360317D01*
X154245910Y-64576441D01*
X154458110Y-64721431D01*
X154710000Y-64772440D01*
X155710000Y-64772440D01*
X155945317Y-64728162D01*
X156161441Y-64589090D01*
X156207969Y-64520994D01*
X156350302Y-64663327D01*
X156583691Y-64760000D01*
X156924250Y-64760000D01*
X157083000Y-64601250D01*
X157083000Y-63627000D01*
X157337000Y-63627000D01*
X157337000Y-64601250D01*
X157495750Y-64760000D01*
X157836309Y-64760000D01*
X158069698Y-64663327D01*
X158248327Y-64484699D01*
X158345000Y-64251310D01*
X158345000Y-63785750D01*
X158186250Y-63627000D01*
X157337000Y-63627000D01*
X157083000Y-63627000D01*
X157063000Y-63627000D01*
X157063000Y-63373000D01*
X157083000Y-63373000D01*
X157083000Y-62398750D01*
X157337000Y-62398750D01*
X157337000Y-63373000D01*
X158186250Y-63373000D01*
X158345000Y-63214250D01*
X158345000Y-63143691D01*
X159395000Y-63143691D01*
X159395000Y-63484250D01*
X159553750Y-63643000D01*
X160528000Y-63643000D01*
X160528000Y-62793750D01*
X160782000Y-62793750D01*
X160782000Y-63643000D01*
X161756250Y-63643000D01*
X161915000Y-63484250D01*
X161915000Y-63143691D01*
X161818327Y-62910302D01*
X161639699Y-62731673D01*
X161406310Y-62635000D01*
X160940750Y-62635000D01*
X160782000Y-62793750D01*
X160528000Y-62793750D01*
X160369250Y-62635000D01*
X159903690Y-62635000D01*
X159670301Y-62731673D01*
X159491673Y-62910302D01*
X159395000Y-63143691D01*
X158345000Y-63143691D01*
X158345000Y-62748690D01*
X158248327Y-62515301D01*
X158069698Y-62336673D01*
X157836309Y-62240000D01*
X157495750Y-62240000D01*
X157337000Y-62398750D01*
X157083000Y-62398750D01*
X156924250Y-62240000D01*
X156583691Y-62240000D01*
X156350302Y-62336673D01*
X156209064Y-62477910D01*
X156174090Y-62423559D01*
X155961890Y-62278569D01*
X155710000Y-62227560D01*
X154710000Y-62227560D01*
X154474683Y-62271838D01*
X154466402Y-62277166D01*
X152019000Y-59829764D01*
X152019000Y-59340750D01*
X155275000Y-59340750D01*
X155275000Y-59481310D01*
X155371673Y-59714699D01*
X155550302Y-59893327D01*
X155783691Y-59990000D01*
X156399250Y-59990000D01*
X156558000Y-59831250D01*
X156558000Y-59182000D01*
X156812000Y-59182000D01*
X156812000Y-59831250D01*
X156970750Y-59990000D01*
X157586309Y-59990000D01*
X157819698Y-59893327D01*
X157998327Y-59714699D01*
X158095000Y-59481310D01*
X158095000Y-59340750D01*
X157936250Y-59182000D01*
X156812000Y-59182000D01*
X156558000Y-59182000D01*
X155433750Y-59182000D01*
X155275000Y-59340750D01*
X152019000Y-59340750D01*
X152019000Y-57964705D01*
X152206441Y-57844090D01*
X152351431Y-57631890D01*
X152402440Y-57380000D01*
X152402440Y-56885676D01*
X153930382Y-58413618D01*
X154218795Y-58606330D01*
X154559000Y-58674000D01*
X155275000Y-58674000D01*
X155275000Y-58769250D01*
X155433750Y-58928000D01*
X156558000Y-58928000D01*
X156558000Y-58908000D01*
X156812000Y-58908000D01*
X156812000Y-58928000D01*
X157936250Y-58928000D01*
X158095000Y-58769250D01*
X158095000Y-58628690D01*
X158005194Y-58411878D01*
X158056431Y-58336890D01*
X158107440Y-58085000D01*
X158107440Y-57485000D01*
X158071786Y-57295516D01*
X158299118Y-57143618D01*
X159124618Y-56318118D01*
X159317329Y-56029706D01*
X159385000Y-55689500D01*
X159385000Y-54406736D01*
X159941296Y-53850440D01*
X160472500Y-53850440D01*
X160707817Y-53806162D01*
X160923941Y-53667090D01*
X160970469Y-53598994D01*
X161112802Y-53741327D01*
X161346191Y-53838000D01*
X161686750Y-53838000D01*
X161845500Y-53679250D01*
X161845500Y-52705000D01*
X162099500Y-52705000D01*
X162099500Y-53679250D01*
X162258250Y-53838000D01*
X162598809Y-53838000D01*
X162832198Y-53741327D01*
X163010827Y-53562699D01*
X163107500Y-53329310D01*
X163107500Y-52863750D01*
X162948750Y-52705000D01*
X162099500Y-52705000D01*
X161845500Y-52705000D01*
X161825500Y-52705000D01*
X161825500Y-52451000D01*
X161845500Y-52451000D01*
X161845500Y-51476750D01*
X162099500Y-51476750D01*
X162099500Y-52451000D01*
X162948750Y-52451000D01*
X163107500Y-52292250D01*
X163107500Y-51826690D01*
X163010827Y-51593301D01*
X162832198Y-51414673D01*
X162598809Y-51318000D01*
X162258250Y-51318000D01*
X162099500Y-51476750D01*
X161845500Y-51476750D01*
X161686750Y-51318000D01*
X161346191Y-51318000D01*
X161112802Y-51414673D01*
X160971564Y-51555910D01*
X160936590Y-51501559D01*
X160724390Y-51356569D01*
X160472500Y-51305560D01*
X159472500Y-51305560D01*
X159237183Y-51349838D01*
X159021059Y-51488910D01*
X158884343Y-51689000D01*
X158356236Y-51689000D01*
X157542236Y-50875000D01*
X213285000Y-50875000D01*
X213285000Y-156770000D01*
X213285000Y-156770000D01*
G37*
X213285000Y-156770000D02*
X187400000Y-156770000D01*
X187400000Y-153948044D01*
X187518853Y-153948044D01*
X187919201Y-154916959D01*
X188659862Y-155658914D01*
X189628077Y-156060952D01*
X190676444Y-156061867D01*
X191645359Y-155661519D01*
X192387314Y-154920858D01*
X192789352Y-153952643D01*
X192790267Y-152904276D01*
X192389919Y-151935361D01*
X192106887Y-151651834D01*
X205644543Y-151651834D01*
X206044853Y-152620658D01*
X206785443Y-153362542D01*
X207753567Y-153764542D01*
X208801834Y-153765457D01*
X209770658Y-153365147D01*
X210512542Y-152624557D01*
X210914542Y-151656433D01*
X210915457Y-150608166D01*
X210515147Y-149639342D01*
X209774557Y-148897458D01*
X208806433Y-148495458D01*
X207758166Y-148494543D01*
X206789342Y-148894853D01*
X206047458Y-149635443D01*
X205645458Y-150603567D01*
X205644543Y-151651834D01*
X192106887Y-151651834D01*
X191649258Y-151193406D01*
X190681043Y-150791368D01*
X189632676Y-150790453D01*
X188663761Y-151190801D01*
X187921806Y-151931462D01*
X187519768Y-152899677D01*
X187518853Y-153948044D01*
X187400000Y-153948044D01*
X187400000Y-98946884D01*
X187518853Y-98946884D01*
X187919201Y-99915799D01*
X188659862Y-100657754D01*
X189628077Y-101059792D01*
X190676444Y-101060707D01*
X191645359Y-100660359D01*
X192387314Y-99919698D01*
X192789352Y-98951483D01*
X192790267Y-97903116D01*
X192389919Y-96934201D01*
X191649258Y-96192246D01*
X190681043Y-95790208D01*
X189632676Y-95789293D01*
X188663761Y-96189641D01*
X187921806Y-96930302D01*
X187519768Y-97898517D01*
X187518853Y-98946884D01*
X187400000Y-98946884D01*
X187400000Y-93980000D01*
X187345954Y-93708295D01*
X187192046Y-93477954D01*
X186961705Y-93324046D01*
X186690000Y-93270000D01*
X101600000Y-93270000D01*
X101328295Y-93324046D01*
X101097954Y-93477954D01*
X100944046Y-93708295D01*
X100890000Y-93980000D01*
X100890000Y-156770000D01*
X75005000Y-156770000D01*
X75005000Y-153950584D01*
X94519293Y-153950584D01*
X94919641Y-154919499D01*
X95660302Y-155661454D01*
X96628517Y-156063492D01*
X97676884Y-156064407D01*
X98645799Y-155664059D01*
X99387754Y-154923398D01*
X99789792Y-153955183D01*
X99790707Y-152906816D01*
X99390359Y-151937901D01*
X98649698Y-151195946D01*
X97681483Y-150793908D01*
X96633116Y-150792993D01*
X95664201Y-151193341D01*
X94922246Y-151934002D01*
X94520208Y-152902217D01*
X94519293Y-153950584D01*
X75005000Y-153950584D01*
X75005000Y-151651834D01*
X77374543Y-151651834D01*
X77774853Y-152620658D01*
X78515443Y-153362542D01*
X79483567Y-153764542D01*
X80531834Y-153765457D01*
X81500658Y-153365147D01*
X82242542Y-152624557D01*
X82644542Y-151656433D01*
X82645457Y-150608166D01*
X82245147Y-149639342D01*
X81504557Y-148897458D01*
X80536433Y-148495458D01*
X79488166Y-148494543D01*
X78519342Y-148894853D01*
X77777458Y-149635443D01*
X77375458Y-150603567D01*
X77374543Y-151651834D01*
X75005000Y-151651834D01*
X75005000Y-97900808D01*
X77160907Y-97900808D01*
X77185217Y-98006252D01*
X77476855Y-98531911D01*
X77947454Y-98905952D01*
X78525370Y-99071430D01*
X79375000Y-99071430D01*
X79375000Y-97663000D01*
X79629000Y-97663000D01*
X79629000Y-99071430D01*
X80478630Y-99071430D01*
X80913594Y-98946884D01*
X94519293Y-98946884D01*
X94919641Y-99915799D01*
X95660302Y-100657754D01*
X96628517Y-101059792D01*
X97676884Y-101060707D01*
X98645799Y-100660359D01*
X99387754Y-99919698D01*
X99789792Y-98951483D01*
X99790707Y-97903116D01*
X99390359Y-96934201D01*
X98649698Y-96192246D01*
X97681483Y-95790208D01*
X96633116Y-95789293D01*
X95664201Y-96189641D01*
X94922246Y-96930302D01*
X94520208Y-97898517D01*
X94519293Y-98946884D01*
X80913594Y-98946884D01*
X81056546Y-98905952D01*
X81527145Y-98531911D01*
X81818783Y-98006252D01*
X81843093Y-97900808D01*
X81722440Y-97663000D01*
X79629000Y-97663000D01*
X79375000Y-97663000D01*
X77281560Y-97663000D01*
X77160907Y-97900808D01*
X75005000Y-97900808D01*
X75005000Y-92772236D01*
X75571382Y-93338618D01*
X75859794Y-93531329D01*
X76200000Y-93599000D01*
X77985805Y-93599000D01*
X77519931Y-93910287D01*
X77187092Y-94408416D01*
X77070214Y-94996000D01*
X77187092Y-95583584D01*
X77519931Y-96081713D01*
X77809842Y-96275425D01*
X77476855Y-96540089D01*
X77185217Y-97065748D01*
X77160907Y-97171192D01*
X77281560Y-97409000D01*
X79375000Y-97409000D01*
X79375000Y-97389000D01*
X79629000Y-97389000D01*
X79629000Y-97409000D01*
X81722440Y-97409000D01*
X81843093Y-97171192D01*
X81818783Y-97065748D01*
X81527145Y-96540089D01*
X81194158Y-96275425D01*
X81484069Y-96081713D01*
X81615508Y-95885000D01*
X82169000Y-95885000D01*
X82509206Y-95817329D01*
X82797618Y-95624618D01*
X86569746Y-91852490D01*
X87031830Y-91852490D01*
X87267147Y-91808212D01*
X87483271Y-91669140D01*
X87583270Y-91522787D01*
X87583270Y-92155050D01*
X87627548Y-92390367D01*
X87766620Y-92606491D01*
X87978820Y-92751481D01*
X88230710Y-92802490D01*
X89030810Y-92802490D01*
X89266127Y-92758212D01*
X89443617Y-92644000D01*
X91851057Y-92644000D01*
X91935110Y-92701431D01*
X92187000Y-92752440D01*
X93487000Y-92752440D01*
X93722317Y-92708162D01*
X93938441Y-92569090D01*
X94083431Y-92356890D01*
X94121732Y-92167750D01*
X95743000Y-92167750D01*
X95743000Y-92358309D01*
X95839673Y-92591698D01*
X96018301Y-92770327D01*
X96251690Y-92867000D01*
X96742250Y-92867000D01*
X96901000Y-92708250D01*
X96901000Y-92009000D01*
X97155000Y-92009000D01*
X97155000Y-92708250D01*
X97313750Y-92867000D01*
X97804310Y-92867000D01*
X98037699Y-92770327D01*
X98216327Y-92591698D01*
X98313000Y-92358309D01*
X98313000Y-92167750D01*
X98154250Y-92009000D01*
X97155000Y-92009000D01*
X96901000Y-92009000D01*
X95901750Y-92009000D01*
X95743000Y-92167750D01*
X94121732Y-92167750D01*
X94134440Y-92105000D01*
X94134440Y-91405000D01*
X94090162Y-91169683D01*
X93951090Y-90953559D01*
X93738890Y-90808569D01*
X93725803Y-90805919D01*
X93822028Y-90744000D01*
X95888530Y-90744000D01*
X95913910Y-90783441D01*
X96126110Y-90928431D01*
X96159490Y-90935191D01*
X96018301Y-90993673D01*
X95839673Y-91172302D01*
X95743000Y-91405691D01*
X95743000Y-91596250D01*
X95901750Y-91755000D01*
X96901000Y-91755000D01*
X96901000Y-91735000D01*
X97155000Y-91735000D01*
X97155000Y-91755000D01*
X98154250Y-91755000D01*
X98313000Y-91596250D01*
X98313000Y-91405691D01*
X98216327Y-91172302D01*
X98037699Y-90993673D01*
X97901713Y-90937346D01*
X97913317Y-90935162D01*
X98013028Y-90871000D01*
X98232000Y-90871000D01*
X98572206Y-90803329D01*
X98860618Y-90610618D01*
X101555486Y-87915750D01*
X103276400Y-87915750D01*
X103276400Y-88772309D01*
X103373073Y-89005698D01*
X103551701Y-89184327D01*
X103785090Y-89281000D01*
X104489250Y-89281000D01*
X104648000Y-89122250D01*
X104648000Y-87757000D01*
X103435150Y-87757000D01*
X103276400Y-87915750D01*
X101555486Y-87915750D01*
X102983545Y-86487691D01*
X103276400Y-86487691D01*
X103276400Y-87344250D01*
X103435150Y-87503000D01*
X104648000Y-87503000D01*
X104648000Y-86137750D01*
X104489250Y-85979000D01*
X103785090Y-85979000D01*
X103551701Y-86075673D01*
X103373073Y-86254302D01*
X103276400Y-86487691D01*
X102983545Y-86487691D01*
X103752618Y-85718618D01*
X103767999Y-85695599D01*
X103945329Y-85430206D01*
X104013000Y-85090000D01*
X104013000Y-81902236D01*
X106199546Y-79715690D01*
X107747000Y-79715690D01*
X107747000Y-80156250D01*
X107905750Y-80315000D01*
X108855000Y-80315000D01*
X108855000Y-79365750D01*
X108696250Y-79207000D01*
X108255691Y-79207000D01*
X108022302Y-79303673D01*
X107843673Y-79482301D01*
X107747000Y-79715690D01*
X106199546Y-79715690D01*
X107175236Y-78740000D01*
X110490000Y-78740000D01*
X110830206Y-78672329D01*
X111118618Y-78479618D01*
X112395000Y-77203236D01*
X112395000Y-83578764D01*
X111766382Y-84207382D01*
X111573671Y-84495794D01*
X111506000Y-84836000D01*
X111506000Y-86271547D01*
X111335330Y-86385585D01*
X111125000Y-86700366D01*
X110914670Y-86385585D01*
X110871000Y-86356406D01*
X110871000Y-85072693D01*
X111017317Y-85045162D01*
X111233441Y-84906090D01*
X111378431Y-84693890D01*
X111429440Y-84442000D01*
X111429440Y-82942000D01*
X111385162Y-82706683D01*
X111246090Y-82490559D01*
X111050986Y-82357250D01*
X111610618Y-81797618D01*
X111697411Y-81667724D01*
X111817317Y-81645162D01*
X112033441Y-81506090D01*
X112178431Y-81293890D01*
X112229440Y-81042000D01*
X112229440Y-79842000D01*
X112185162Y-79606683D01*
X112046090Y-79390559D01*
X111833890Y-79245569D01*
X111582000Y-79194560D01*
X110382000Y-79194560D01*
X110146683Y-79238838D01*
X109982507Y-79344482D01*
X109941698Y-79303673D01*
X109708309Y-79207000D01*
X109267750Y-79207000D01*
X109109000Y-79365750D01*
X109109000Y-80315000D01*
X109129000Y-80315000D01*
X109129000Y-80569000D01*
X109109000Y-80569000D01*
X109109000Y-80589000D01*
X108855000Y-80589000D01*
X108855000Y-80569000D01*
X107905750Y-80569000D01*
X107747000Y-80727750D01*
X107747000Y-81168310D01*
X107805712Y-81310052D01*
X106686382Y-82429382D01*
X106493671Y-82717794D01*
X106426000Y-83058000D01*
X106426000Y-86271547D01*
X106255330Y-86385585D01*
X106240500Y-86407780D01*
X106176927Y-86254302D01*
X105998299Y-86075673D01*
X105764910Y-85979000D01*
X105060750Y-85979000D01*
X104902000Y-86137750D01*
X104902000Y-87503000D01*
X104922000Y-87503000D01*
X104922000Y-87757000D01*
X104902000Y-87757000D01*
X104902000Y-89122250D01*
X105060750Y-89281000D01*
X105764910Y-89281000D01*
X105998299Y-89184327D01*
X106176927Y-89005698D01*
X106240500Y-88852220D01*
X106255330Y-88874415D01*
X106741511Y-89199271D01*
X107315000Y-89313345D01*
X107398862Y-89296664D01*
X107793599Y-89691401D01*
X108040161Y-89856148D01*
X108331000Y-89914000D01*
X113284000Y-89914000D01*
X113574839Y-89856148D01*
X113821401Y-89691401D01*
X114202401Y-89310401D01*
X114327786Y-89122749D01*
X114560209Y-89234709D01*
X114575974Y-89237358D01*
X114808000Y-89116217D01*
X114808000Y-87757000D01*
X114788000Y-87757000D01*
X114788000Y-87503000D01*
X114808000Y-87503000D01*
X114808000Y-87483000D01*
X115062000Y-87483000D01*
X115062000Y-87503000D01*
X115082000Y-87503000D01*
X115082000Y-87757000D01*
X115062000Y-87757000D01*
X115062000Y-89116217D01*
X115294026Y-89237358D01*
X115309791Y-89234709D01*
X115493934Y-89146006D01*
X115502852Y-89190839D01*
X115667599Y-89437401D01*
X116048599Y-89818401D01*
X116295160Y-89983148D01*
X116586000Y-90041000D01*
X118237000Y-90041000D01*
X118527839Y-89983148D01*
X118774401Y-89818401D01*
X119282401Y-89310401D01*
X119382847Y-89160073D01*
X119441511Y-89199271D01*
X120015000Y-89313345D01*
X120588489Y-89199271D01*
X121074670Y-88874415D01*
X121285000Y-88559634D01*
X121495330Y-88874415D01*
X121981511Y-89199271D01*
X122555000Y-89313345D01*
X123128489Y-89199271D01*
X123614670Y-88874415D01*
X123825000Y-88559634D01*
X124035330Y-88874415D01*
X124521511Y-89199271D01*
X125095000Y-89313345D01*
X125668489Y-89199271D01*
X126154670Y-88874415D01*
X126365000Y-88559634D01*
X126575330Y-88874415D01*
X127061511Y-89199271D01*
X127635000Y-89313345D01*
X128208489Y-89199271D01*
X128694670Y-88874415D01*
X128905000Y-88559634D01*
X129115330Y-88874415D01*
X129601511Y-89199271D01*
X130175000Y-89313345D01*
X130748489Y-89199271D01*
X131234670Y-88874415D01*
X131445000Y-88559634D01*
X131655330Y-88874415D01*
X132141511Y-89199271D01*
X132715000Y-89313345D01*
X133288489Y-89199271D01*
X133774670Y-88874415D01*
X133985000Y-88559634D01*
X134195330Y-88874415D01*
X134681511Y-89199271D01*
X135255000Y-89313345D01*
X135828489Y-89199271D01*
X136314670Y-88874415D01*
X136525000Y-88559634D01*
X136735330Y-88874415D01*
X137221511Y-89199271D01*
X137795000Y-89313345D01*
X138368489Y-89199271D01*
X138854670Y-88874415D01*
X139065000Y-88559634D01*
X139275330Y-88874415D01*
X139761511Y-89199271D01*
X140335000Y-89313345D01*
X140908489Y-89199271D01*
X141394670Y-88874415D01*
X141601461Y-88564931D01*
X141972964Y-88980732D01*
X142500209Y-89234709D01*
X142515974Y-89237358D01*
X142748000Y-89116217D01*
X142748000Y-87757000D01*
X143002000Y-87757000D01*
X143002000Y-89116217D01*
X143234026Y-89237358D01*
X143249791Y-89234709D01*
X143777036Y-88980732D01*
X144166954Y-88544320D01*
X144360184Y-87991913D01*
X144215924Y-87757000D01*
X143002000Y-87757000D01*
X142748000Y-87757000D01*
X142728000Y-87757000D01*
X142728000Y-87503000D01*
X142748000Y-87503000D01*
X142748000Y-86143783D01*
X143002000Y-86143783D01*
X143002000Y-87503000D01*
X144215924Y-87503000D01*
X144360184Y-87268087D01*
X144166954Y-86715680D01*
X143777036Y-86279268D01*
X143249791Y-86025291D01*
X143234026Y-86022642D01*
X143002000Y-86143783D01*
X142748000Y-86143783D01*
X142515974Y-86022642D01*
X142500209Y-86025291D01*
X141972964Y-86279268D01*
X141601461Y-86695069D01*
X141394670Y-86385585D01*
X140908489Y-86060729D01*
X140335000Y-85946655D01*
X139761511Y-86060729D01*
X139275330Y-86385585D01*
X139065000Y-86700366D01*
X138854670Y-86385585D01*
X138684000Y-86271547D01*
X138684000Y-78660998D01*
X138743329Y-78572206D01*
X138811000Y-78232000D01*
X138811000Y-77076236D01*
X154311382Y-92576618D01*
X154599794Y-92769329D01*
X154940000Y-92837000D01*
X191401764Y-92837000D01*
X193802000Y-95237236D01*
X193802000Y-119773764D01*
X193173382Y-120402382D01*
X192980671Y-120690794D01*
X192913000Y-121031000D01*
X192913000Y-125857000D01*
X192980671Y-126197206D01*
X193045099Y-126293629D01*
X193173382Y-126485618D01*
X193361382Y-126673618D01*
X193649794Y-126866329D01*
X193990000Y-126934000D01*
X194594057Y-126934000D01*
X194678110Y-126991431D01*
X194930000Y-127042440D01*
X196230000Y-127042440D01*
X196465317Y-126998162D01*
X196565028Y-126934000D01*
X200345000Y-126934000D01*
X200685206Y-126866329D01*
X200973618Y-126673618D01*
X201140405Y-126506831D01*
X201611661Y-126507242D01*
X202125303Y-126295010D01*
X202518629Y-125902370D01*
X202731757Y-125389100D01*
X202731759Y-125386661D01*
X204937758Y-125386661D01*
X205149990Y-125900303D01*
X205542630Y-126293629D01*
X206055900Y-126506757D01*
X206611661Y-126507242D01*
X207125303Y-126295010D01*
X207518629Y-125902370D01*
X207731757Y-125389100D01*
X207732242Y-124833339D01*
X207520010Y-124319697D01*
X207127370Y-123926371D01*
X206614100Y-123713243D01*
X206058339Y-123712758D01*
X205544697Y-123924990D01*
X205151371Y-124317630D01*
X204938243Y-124830900D01*
X204937758Y-125386661D01*
X202731759Y-125386661D01*
X202732242Y-124833339D01*
X202520010Y-124319697D01*
X202127370Y-123926371D01*
X201614100Y-123713243D01*
X201058339Y-123712758D01*
X200544697Y-123924990D01*
X200151371Y-124317630D01*
X199938243Y-124830900D01*
X199937959Y-125156000D01*
X196565943Y-125156000D01*
X196481890Y-125098569D01*
X196448510Y-125091809D01*
X196589699Y-125033327D01*
X196768327Y-124854698D01*
X196865000Y-124621309D01*
X196865000Y-124430750D01*
X196706250Y-124272000D01*
X195707000Y-124272000D01*
X195707000Y-124292000D01*
X195453000Y-124292000D01*
X195453000Y-124272000D01*
X195433000Y-124272000D01*
X195433000Y-124018000D01*
X195453000Y-124018000D01*
X195453000Y-123318750D01*
X195707000Y-123318750D01*
X195707000Y-124018000D01*
X196706250Y-124018000D01*
X196865000Y-123859250D01*
X196865000Y-123668691D01*
X196768327Y-123435302D01*
X196589699Y-123256673D01*
X196356310Y-123160000D01*
X195865750Y-123160000D01*
X195707000Y-123318750D01*
X195453000Y-123318750D01*
X195294250Y-123160000D01*
X194803690Y-123160000D01*
X194691000Y-123206678D01*
X194691000Y-121399236D01*
X195319618Y-120770618D01*
X195372955Y-120690794D01*
X195512329Y-120482206D01*
X195580000Y-120142000D01*
X195580000Y-118395750D01*
X195900000Y-118395750D01*
X195900000Y-119836310D01*
X195996673Y-120069699D01*
X196175302Y-120248327D01*
X196408691Y-120345000D01*
X197849250Y-120345000D01*
X198008000Y-120186250D01*
X198008000Y-118237000D01*
X198262000Y-118237000D01*
X198262000Y-120186250D01*
X198420750Y-120345000D01*
X199861309Y-120345000D01*
X200094698Y-120248327D01*
X200273327Y-120069699D01*
X200370000Y-119836310D01*
X200370000Y-118395750D01*
X207300000Y-118395750D01*
X207300000Y-119836310D01*
X207396673Y-120069699D01*
X207575302Y-120248327D01*
X207808691Y-120345000D01*
X209249250Y-120345000D01*
X209408000Y-120186250D01*
X209408000Y-118237000D01*
X209662000Y-118237000D01*
X209662000Y-120186250D01*
X209820750Y-120345000D01*
X211261309Y-120345000D01*
X211494698Y-120248327D01*
X211673327Y-120069699D01*
X211770000Y-119836310D01*
X211770000Y-118395750D01*
X211611250Y-118237000D01*
X209662000Y-118237000D01*
X209408000Y-118237000D01*
X207458750Y-118237000D01*
X207300000Y-118395750D01*
X200370000Y-118395750D01*
X200211250Y-118237000D01*
X198262000Y-118237000D01*
X198008000Y-118237000D01*
X196058750Y-118237000D01*
X195900000Y-118395750D01*
X195580000Y-118395750D01*
X195580000Y-116383690D01*
X195900000Y-116383690D01*
X195900000Y-117824250D01*
X196058750Y-117983000D01*
X198008000Y-117983000D01*
X198008000Y-116033750D01*
X198262000Y-116033750D01*
X198262000Y-117983000D01*
X200211250Y-117983000D01*
X200370000Y-117824250D01*
X200370000Y-116383690D01*
X207300000Y-116383690D01*
X207300000Y-117824250D01*
X207458750Y-117983000D01*
X209408000Y-117983000D01*
X209408000Y-116033750D01*
X209662000Y-116033750D01*
X209662000Y-117983000D01*
X211611250Y-117983000D01*
X211770000Y-117824250D01*
X211770000Y-116383690D01*
X211673327Y-116150301D01*
X211494698Y-115971673D01*
X211261309Y-115875000D01*
X209820750Y-115875000D01*
X209662000Y-116033750D01*
X209408000Y-116033750D01*
X209249250Y-115875000D01*
X207808691Y-115875000D01*
X207575302Y-115971673D01*
X207396673Y-116150301D01*
X207300000Y-116383690D01*
X200370000Y-116383690D01*
X200273327Y-116150301D01*
X200094698Y-115971673D01*
X199861309Y-115875000D01*
X198420750Y-115875000D01*
X198262000Y-116033750D01*
X198008000Y-116033750D01*
X197849250Y-115875000D01*
X196408691Y-115875000D01*
X196175302Y-115971673D01*
X195996673Y-116150301D01*
X195900000Y-116383690D01*
X195580000Y-116383690D01*
X195580000Y-94869000D01*
X195512329Y-94528794D01*
X195319618Y-94240382D01*
X192646236Y-91567000D01*
X192798764Y-91567000D01*
X199832000Y-98600236D01*
X199832000Y-102773057D01*
X199774569Y-102857110D01*
X199771919Y-102870197D01*
X199635090Y-102657559D01*
X199422890Y-102512569D01*
X199171000Y-102461560D01*
X198471000Y-102461560D01*
X198235683Y-102505838D01*
X198019559Y-102644910D01*
X197874569Y-102857110D01*
X197823560Y-103109000D01*
X197823560Y-104409000D01*
X197867838Y-104644317D01*
X197932000Y-104744028D01*
X197932000Y-104968000D01*
X197999671Y-105308206D01*
X198192382Y-105596618D01*
X198313000Y-105717236D01*
X198313000Y-106329057D01*
X198255569Y-106413110D01*
X198204560Y-106665000D01*
X198204560Y-107965000D01*
X198248838Y-108200317D01*
X198313000Y-108300028D01*
X198313000Y-108778000D01*
X198380671Y-109118206D01*
X198475081Y-109259500D01*
X198573382Y-109406618D01*
X199937859Y-110771095D01*
X199937758Y-110886661D01*
X200149990Y-111400303D01*
X200542630Y-111793629D01*
X201055900Y-112006757D01*
X201611661Y-112007242D01*
X202125303Y-111795010D01*
X202330457Y-111590213D01*
X203034392Y-111590213D01*
X203103857Y-111832397D01*
X203627302Y-112019144D01*
X204182368Y-111991362D01*
X204566143Y-111832397D01*
X204635608Y-111590213D01*
X203835000Y-110789605D01*
X203034392Y-111590213D01*
X202330457Y-111590213D01*
X202518629Y-111402370D01*
X202578370Y-111258497D01*
X202612603Y-111341143D01*
X202854787Y-111410608D01*
X203655395Y-110610000D01*
X202854787Y-109809392D01*
X202612603Y-109878857D01*
X202581026Y-109967367D01*
X202520010Y-109819697D01*
X202127370Y-109426371D01*
X201614100Y-109213243D01*
X201058339Y-109212758D01*
X200942045Y-109260809D01*
X200091000Y-108409764D01*
X200091000Y-108300943D01*
X200148431Y-108216890D01*
X200151081Y-108203803D01*
X200287910Y-108416441D01*
X200500110Y-108561431D01*
X200752000Y-108612440D01*
X201452000Y-108612440D01*
X201687317Y-108568162D01*
X201903441Y-108429090D01*
X201916313Y-108410250D01*
X202575000Y-108410250D01*
X202575000Y-108750809D01*
X202671673Y-108984198D01*
X202850301Y-109162827D01*
X203083690Y-109259500D01*
X203413125Y-109259500D01*
X203103857Y-109387603D01*
X203034392Y-109629787D01*
X203835000Y-110430395D01*
X204635608Y-109629787D01*
X204566143Y-109387603D01*
X204207075Y-109259500D01*
X204586310Y-109259500D01*
X204819699Y-109162827D01*
X204998327Y-108984198D01*
X205095000Y-108750809D01*
X205095000Y-108410250D01*
X204936250Y-108251500D01*
X203962000Y-108251500D01*
X203962000Y-108271500D01*
X203708000Y-108271500D01*
X203708000Y-108251500D01*
X202733750Y-108251500D01*
X202575000Y-108410250D01*
X201916313Y-108410250D01*
X202048431Y-108216890D01*
X202099440Y-107965000D01*
X202099440Y-107950000D01*
X202686250Y-107950000D01*
X202733750Y-107997500D01*
X203708000Y-107997500D01*
X203708000Y-107977500D01*
X203962000Y-107977500D01*
X203962000Y-107997500D01*
X204936250Y-107997500D01*
X204981861Y-107951889D01*
X205170095Y-108077663D01*
X205486000Y-108140501D01*
X205486005Y-108140500D01*
X205730583Y-108140500D01*
X205741838Y-108200317D01*
X205880910Y-108416441D01*
X206093110Y-108561431D01*
X206345000Y-108612440D01*
X207045000Y-108612440D01*
X207280317Y-108568162D01*
X207496441Y-108429090D01*
X207641431Y-108216890D01*
X207644081Y-108203803D01*
X207706000Y-108300028D01*
X207706000Y-108790764D01*
X207087110Y-109409654D01*
X206614100Y-109213243D01*
X206058339Y-109212758D01*
X205544697Y-109424990D01*
X205151371Y-109817630D01*
X205091630Y-109961503D01*
X205057397Y-109878857D01*
X204815213Y-109809392D01*
X204014605Y-110610000D01*
X204815213Y-111410608D01*
X205057397Y-111341143D01*
X205088974Y-111252633D01*
X205149990Y-111400303D01*
X205542630Y-111793629D01*
X206055900Y-112006757D01*
X206611661Y-112007242D01*
X207125303Y-111795010D01*
X207500578Y-111420390D01*
X207772618Y-111238618D01*
X209223618Y-109787618D01*
X209329077Y-109629787D01*
X209416329Y-109499206D01*
X209484000Y-109159000D01*
X209484000Y-108300943D01*
X209541431Y-108216890D01*
X209592440Y-107965000D01*
X209592440Y-106665000D01*
X209548162Y-106429683D01*
X209484000Y-106329972D01*
X209484000Y-103220943D01*
X209541431Y-103136890D01*
X209592440Y-102885000D01*
X209592440Y-101585000D01*
X209548162Y-101349683D01*
X209409090Y-101133559D01*
X209196890Y-100988569D01*
X208945000Y-100937560D01*
X208245000Y-100937560D01*
X208009683Y-100981838D01*
X207793559Y-101120910D01*
X207648569Y-101333110D01*
X207645919Y-101346197D01*
X207509090Y-101133559D01*
X207296890Y-100988569D01*
X207264000Y-100981909D01*
X207264000Y-99874705D01*
X207451441Y-99754090D01*
X207596431Y-99541890D01*
X207647440Y-99290000D01*
X207647440Y-98290000D01*
X207603162Y-98054683D01*
X207464090Y-97838559D01*
X207395994Y-97792031D01*
X207538327Y-97649698D01*
X207635000Y-97416309D01*
X207635000Y-97075750D01*
X207476250Y-96917000D01*
X206502000Y-96917000D01*
X206502000Y-96937000D01*
X206248000Y-96937000D01*
X206248000Y-96917000D01*
X205273750Y-96917000D01*
X205115000Y-97075750D01*
X205115000Y-97416309D01*
X205211673Y-97649698D01*
X205352910Y-97790936D01*
X205320691Y-97811668D01*
X205225618Y-97669382D01*
X203719927Y-96163691D01*
X205115000Y-96163691D01*
X205115000Y-96504250D01*
X205273750Y-96663000D01*
X206248000Y-96663000D01*
X206248000Y-95813750D01*
X206502000Y-95813750D01*
X206502000Y-96663000D01*
X207476250Y-96663000D01*
X207635000Y-96504250D01*
X207635000Y-96163691D01*
X207538327Y-95930302D01*
X207359699Y-95751673D01*
X207126310Y-95655000D01*
X206660750Y-95655000D01*
X206502000Y-95813750D01*
X206248000Y-95813750D01*
X206089250Y-95655000D01*
X205623690Y-95655000D01*
X205390301Y-95751673D01*
X205211673Y-95930302D01*
X205115000Y-96163691D01*
X203719927Y-96163691D01*
X189223618Y-81667382D01*
X189205087Y-81655000D01*
X188935206Y-81474671D01*
X188595000Y-81407000D01*
X171691236Y-81407000D01*
X169538618Y-79254382D01*
X169449088Y-79194560D01*
X169397487Y-79160081D01*
X207308004Y-79160081D01*
X207449472Y-79463270D01*
X208185952Y-79748227D01*
X208975420Y-79729654D01*
X209618528Y-79463270D01*
X209759996Y-79160081D01*
X208534000Y-77934085D01*
X207308004Y-79160081D01*
X169397487Y-79160081D01*
X169250206Y-79061671D01*
X168910000Y-78994000D01*
X163055236Y-78994000D01*
X162553618Y-78492382D01*
X162474555Y-78439554D01*
X162265206Y-78299671D01*
X161925000Y-78232000D01*
X160261236Y-78232000D01*
X159435668Y-77406432D01*
X206540253Y-77406432D01*
X206558826Y-78195900D01*
X206825210Y-78839008D01*
X207128399Y-78980476D01*
X208354395Y-77754480D01*
X208713605Y-77754480D01*
X209939601Y-78980476D01*
X210242790Y-78839008D01*
X210527747Y-78102528D01*
X210509174Y-77313060D01*
X210242790Y-76669952D01*
X209939601Y-76528484D01*
X208713605Y-77754480D01*
X208354395Y-77754480D01*
X207128399Y-76528484D01*
X206825210Y-76669952D01*
X206540253Y-77406432D01*
X159435668Y-77406432D01*
X157981618Y-75952382D01*
X157952775Y-75933110D01*
X157693206Y-75759671D01*
X157353000Y-75692000D01*
X153276236Y-75692000D01*
X149599618Y-72015382D01*
X149590067Y-72009000D01*
X149311206Y-71822671D01*
X148971000Y-71755000D01*
X144906236Y-71755000D01*
X143382618Y-70231382D01*
X143346128Y-70207000D01*
X143094206Y-70038671D01*
X142754000Y-69971000D01*
X136533132Y-69971000D01*
X136368000Y-69937560D01*
X135040440Y-69937560D01*
X135040440Y-68810000D01*
X145057560Y-68810000D01*
X145057560Y-70310000D01*
X145101838Y-70545317D01*
X145240910Y-70761441D01*
X145453110Y-70906431D01*
X145705000Y-70957440D01*
X147005000Y-70957440D01*
X147240317Y-70913162D01*
X147456441Y-70774090D01*
X147601431Y-70561890D01*
X147652440Y-70310000D01*
X147652440Y-68810000D01*
X147608162Y-68574683D01*
X147469090Y-68358559D01*
X147256890Y-68213569D01*
X147005000Y-68162560D01*
X145705000Y-68162560D01*
X145469683Y-68206838D01*
X145253559Y-68345910D01*
X145108569Y-68558110D01*
X145057560Y-68810000D01*
X135040440Y-68810000D01*
X135040440Y-68610000D01*
X135007000Y-68432282D01*
X135007000Y-68307236D01*
X135115236Y-68199000D01*
X138434208Y-68199000D01*
X138570910Y-68411441D01*
X138783110Y-68556431D01*
X139035000Y-68607440D01*
X139735000Y-68607440D01*
X139970317Y-68563162D01*
X140186441Y-68424090D01*
X140331431Y-68211890D01*
X140334081Y-68198803D01*
X140470910Y-68411441D01*
X140683110Y-68556431D01*
X140935000Y-68607440D01*
X141635000Y-68607440D01*
X141870317Y-68563162D01*
X142086441Y-68424090D01*
X142231431Y-68211890D01*
X142234041Y-68199000D01*
X142494000Y-68199000D01*
X142834206Y-68131329D01*
X143122618Y-67938618D01*
X143346236Y-67715000D01*
X154302560Y-67715000D01*
X154302560Y-68715000D01*
X154346838Y-68950317D01*
X154485910Y-69166441D01*
X154555711Y-69214134D01*
X154498559Y-69250910D01*
X154353569Y-69463110D01*
X154302560Y-69715000D01*
X154302560Y-70715000D01*
X154346838Y-70950317D01*
X154485910Y-71166441D01*
X154698110Y-71311431D01*
X154879000Y-71348062D01*
X154879000Y-71912057D01*
X154821569Y-71996110D01*
X154770560Y-72248000D01*
X154770560Y-73548000D01*
X154814838Y-73783317D01*
X154953910Y-73999441D01*
X155166110Y-74144431D01*
X155418000Y-74195440D01*
X156118000Y-74195440D01*
X156353317Y-74151162D01*
X156569441Y-74012090D01*
X156714431Y-73799890D01*
X156721191Y-73766510D01*
X156779673Y-73907699D01*
X156958302Y-74086327D01*
X157191691Y-74183000D01*
X157382250Y-74183000D01*
X157541000Y-74024250D01*
X157541000Y-73025000D01*
X157795000Y-73025000D01*
X157795000Y-74024250D01*
X157953750Y-74183000D01*
X158144309Y-74183000D01*
X158377698Y-74086327D01*
X158556327Y-73907699D01*
X158653000Y-73674310D01*
X158653000Y-73183750D01*
X158494250Y-73025000D01*
X157795000Y-73025000D01*
X157541000Y-73025000D01*
X157521000Y-73025000D01*
X157521000Y-72771000D01*
X157541000Y-72771000D01*
X157541000Y-71771750D01*
X157795000Y-71771750D01*
X157795000Y-72771000D01*
X158494250Y-72771000D01*
X158653000Y-72612250D01*
X158653000Y-72121690D01*
X158556327Y-71888301D01*
X158377698Y-71709673D01*
X158144309Y-71613000D01*
X157953750Y-71613000D01*
X157795000Y-71771750D01*
X157541000Y-71771750D01*
X157382250Y-71613000D01*
X157191691Y-71613000D01*
X156958302Y-71709673D01*
X156779673Y-71888301D01*
X156723346Y-72024287D01*
X156721162Y-72012683D01*
X156657000Y-71912972D01*
X156657000Y-71170954D01*
X156796431Y-70966890D01*
X156847440Y-70715000D01*
X156847440Y-69715000D01*
X156803162Y-69479683D01*
X156664090Y-69263559D01*
X156594289Y-69215866D01*
X156651441Y-69179090D01*
X156702748Y-69104000D01*
X158988000Y-69104000D01*
X159328206Y-69036329D01*
X159616618Y-68843618D01*
X161283618Y-67176618D01*
X161367364Y-67051283D01*
X161476329Y-66888206D01*
X161477922Y-66880198D01*
X161515317Y-66873162D01*
X161731441Y-66734090D01*
X161782748Y-66659000D01*
X161941000Y-66659000D01*
X161988500Y-66649552D01*
X161988500Y-68326000D01*
X162051337Y-68641906D01*
X162230283Y-68909717D01*
X162664500Y-69343933D01*
X162664500Y-74252560D01*
X162615000Y-74252560D01*
X162543677Y-74265980D01*
X162541310Y-74265000D01*
X162461250Y-74265000D01*
X162440938Y-74285312D01*
X162379683Y-74296838D01*
X162185084Y-74422059D01*
X162124699Y-74361673D01*
X161938153Y-74284403D01*
X161918750Y-74265000D01*
X161811250Y-74265000D01*
X161791847Y-74284403D01*
X161605301Y-74361673D01*
X161543044Y-74423930D01*
X161366890Y-74303569D01*
X161292192Y-74288442D01*
X161268750Y-74265000D01*
X161188690Y-74265000D01*
X161184665Y-74266667D01*
X161115000Y-74252560D01*
X160665000Y-74252560D01*
X160561329Y-74272067D01*
X160465000Y-74252560D01*
X160015000Y-74252560D01*
X159779683Y-74296838D01*
X159563559Y-74435910D01*
X159418569Y-74648110D01*
X159367560Y-74900000D01*
X159367560Y-76650000D01*
X159411838Y-76885317D01*
X159550910Y-77101441D01*
X159763110Y-77246431D01*
X160015000Y-77297440D01*
X160465000Y-77297440D01*
X160568671Y-77277933D01*
X160665000Y-77297440D01*
X161115000Y-77297440D01*
X161186323Y-77284020D01*
X161188690Y-77285000D01*
X161268750Y-77285000D01*
X161289062Y-77264688D01*
X161350317Y-77253162D01*
X161544916Y-77127941D01*
X161605301Y-77188327D01*
X161791847Y-77265597D01*
X161811250Y-77285000D01*
X161918750Y-77285000D01*
X161938153Y-77265597D01*
X162124699Y-77188327D01*
X162186956Y-77126070D01*
X162363110Y-77246431D01*
X162437808Y-77261558D01*
X162461250Y-77285000D01*
X162541310Y-77285000D01*
X162545335Y-77283333D01*
X162615000Y-77297440D01*
X163065000Y-77297440D01*
X163168671Y-77277933D01*
X163265000Y-77297440D01*
X163715000Y-77297440D01*
X163818671Y-77277933D01*
X163915000Y-77297440D01*
X164365000Y-77297440D01*
X164436323Y-77284020D01*
X164438690Y-77285000D01*
X164518750Y-77285000D01*
X164539062Y-77264688D01*
X164600317Y-77253162D01*
X164792227Y-77129671D01*
X164963110Y-77246431D01*
X165037808Y-77261558D01*
X165061250Y-77285000D01*
X165141310Y-77285000D01*
X165145335Y-77283333D01*
X165215000Y-77297440D01*
X165665000Y-77297440D01*
X165768671Y-77277933D01*
X165865000Y-77297440D01*
X166315000Y-77297440D01*
X166386323Y-77284020D01*
X166388690Y-77285000D01*
X166468750Y-77285000D01*
X166489062Y-77264688D01*
X166550317Y-77253162D01*
X166742227Y-77129671D01*
X166913110Y-77246431D01*
X166987808Y-77261558D01*
X167011250Y-77285000D01*
X167091310Y-77285000D01*
X167095335Y-77283333D01*
X167165000Y-77297440D01*
X167615000Y-77297440D01*
X167718671Y-77277933D01*
X167815000Y-77297440D01*
X168265000Y-77297440D01*
X168368671Y-77277933D01*
X168465000Y-77297440D01*
X168915000Y-77297440D01*
X169150317Y-77253162D01*
X169366441Y-77114090D01*
X169511431Y-76901890D01*
X169562440Y-76650000D01*
X169562440Y-76348879D01*
X207308004Y-76348879D01*
X208534000Y-77574875D01*
X209759996Y-76348879D01*
X209618528Y-76045690D01*
X208882048Y-75760733D01*
X208092580Y-75779306D01*
X207449472Y-76045690D01*
X207308004Y-76348879D01*
X169562440Y-76348879D01*
X169562440Y-75127494D01*
X170775933Y-73914000D01*
X191047066Y-73914000D01*
X192773781Y-75640714D01*
X192773783Y-75640717D01*
X193041595Y-75819663D01*
X193357500Y-75882500D01*
X204724000Y-75882500D01*
X205039906Y-75819663D01*
X205307717Y-75640717D01*
X206417694Y-74530739D01*
X206417697Y-74530737D01*
X206596643Y-74262925D01*
X206599456Y-74248783D01*
X206605636Y-74217715D01*
X206624283Y-74210010D01*
X207017609Y-73817370D01*
X207230737Y-73304100D01*
X207231222Y-72748339D01*
X207018990Y-72234697D01*
X206626350Y-71841371D01*
X206434253Y-71761605D01*
X206565123Y-71707397D01*
X206634588Y-71465213D01*
X205833980Y-70664605D01*
X205033372Y-71465213D01*
X205102837Y-71707397D01*
X205243298Y-71757509D01*
X205043677Y-71839990D01*
X204834470Y-72048832D01*
X204627370Y-71841371D01*
X204419488Y-71755051D01*
X204625303Y-71670010D01*
X205018629Y-71277370D01*
X205129846Y-71009529D01*
X205654375Y-70485000D01*
X206013585Y-70485000D01*
X206814193Y-71285608D01*
X207056377Y-71216143D01*
X207243124Y-70692698D01*
X207215342Y-70137632D01*
X207056377Y-69753857D01*
X206814193Y-69684392D01*
X206013585Y-70485000D01*
X205654375Y-70485000D01*
X205129811Y-69960436D01*
X205020010Y-69694697D01*
X204830432Y-69504787D01*
X205033372Y-69504787D01*
X205833980Y-70305395D01*
X206634588Y-69504787D01*
X206565123Y-69262603D01*
X206041678Y-69075856D01*
X205486612Y-69103638D01*
X205102837Y-69262603D01*
X205033372Y-69504787D01*
X204830432Y-69504787D01*
X204627370Y-69301371D01*
X204114100Y-69088243D01*
X203628728Y-69087819D01*
X203540206Y-69028671D01*
X203200000Y-68961000D01*
X198934705Y-68961000D01*
X198814090Y-68773559D01*
X198601890Y-68628569D01*
X198350000Y-68577560D01*
X197350000Y-68577560D01*
X197114683Y-68621838D01*
X196898559Y-68760910D01*
X196850866Y-68830711D01*
X196814090Y-68773559D01*
X196665341Y-68671923D01*
X196612663Y-68407094D01*
X196433717Y-68139283D01*
X195455555Y-67161121D01*
X207308004Y-67161121D01*
X207449472Y-67464310D01*
X208185952Y-67749267D01*
X208975420Y-67730694D01*
X209618528Y-67464310D01*
X209759996Y-67161121D01*
X208534000Y-65935125D01*
X207308004Y-67161121D01*
X195455555Y-67161121D01*
X193701906Y-65407472D01*
X206540253Y-65407472D01*
X206558826Y-66196940D01*
X206825210Y-66840048D01*
X207128399Y-66981516D01*
X208354395Y-65755520D01*
X208713605Y-65755520D01*
X209939601Y-66981516D01*
X210242790Y-66840048D01*
X210527747Y-66103568D01*
X210509174Y-65314100D01*
X210242790Y-64670992D01*
X209939601Y-64529524D01*
X208713605Y-65755520D01*
X208354395Y-65755520D01*
X207128399Y-64529524D01*
X206825210Y-64670992D01*
X206540253Y-65407472D01*
X193701906Y-65407472D01*
X192861717Y-64567283D01*
X192593906Y-64388337D01*
X192400764Y-64349919D01*
X207308004Y-64349919D01*
X208534000Y-65575915D01*
X209759996Y-64349919D01*
X209618528Y-64046730D01*
X208882048Y-63761773D01*
X208092580Y-63780346D01*
X207449472Y-64046730D01*
X207308004Y-64349919D01*
X192400764Y-64349919D01*
X192278000Y-64325500D01*
X190524434Y-64325500D01*
X190502500Y-64303566D01*
X190502500Y-64070878D01*
X190623431Y-63893890D01*
X190626081Y-63880803D01*
X190762910Y-64093441D01*
X190975110Y-64238431D01*
X191227000Y-64289440D01*
X191927000Y-64289440D01*
X192162317Y-64245162D01*
X192378441Y-64106090D01*
X192523431Y-63893890D01*
X192526041Y-63881000D01*
X192855282Y-63881000D01*
X192959450Y-64042881D01*
X193171650Y-64187871D01*
X193423540Y-64238880D01*
X194622420Y-64238880D01*
X194857737Y-64194602D01*
X195073861Y-64055530D01*
X195074543Y-64054533D01*
X195269690Y-64187871D01*
X195521580Y-64238880D01*
X196720460Y-64238880D01*
X196955777Y-64194602D01*
X197171901Y-64055530D01*
X197316891Y-63843330D01*
X197322122Y-63817500D01*
X198755000Y-63817500D01*
X199070906Y-63754663D01*
X199338717Y-63575717D01*
X200989714Y-61924719D01*
X200989717Y-61924717D01*
X201168663Y-61656905D01*
X201182681Y-61586431D01*
X201231501Y-61341000D01*
X201231500Y-61340995D01*
X201231500Y-58547000D01*
X201185665Y-58316569D01*
X201168663Y-58231094D01*
X200989717Y-57963283D01*
X198830717Y-55804283D01*
X198562906Y-55625337D01*
X198247000Y-55562500D01*
X195921934Y-55562500D01*
X195745268Y-55385834D01*
X204120543Y-55385834D01*
X204520853Y-56354658D01*
X205261443Y-57096542D01*
X206229567Y-57498542D01*
X207277834Y-57499457D01*
X208246658Y-57099147D01*
X208988542Y-56358557D01*
X209390542Y-55390433D01*
X209391457Y-54342166D01*
X208991147Y-53373342D01*
X208250557Y-52631458D01*
X207282433Y-52229458D01*
X206234166Y-52228543D01*
X205265342Y-52628853D01*
X204523458Y-53369443D01*
X204121458Y-54337567D01*
X204120543Y-55385834D01*
X195745268Y-55385834D01*
X194131717Y-53772283D01*
X193863906Y-53593337D01*
X193548000Y-53530500D01*
X179197000Y-53530500D01*
X178881095Y-53593337D01*
X178613283Y-53772283D01*
X178613281Y-53772286D01*
X171108066Y-61277500D01*
X171021100Y-61277500D01*
X171045431Y-61241890D01*
X171096440Y-60990000D01*
X171096440Y-60290000D01*
X171052162Y-60054683D01*
X170913090Y-59838559D01*
X170700890Y-59693569D01*
X170687803Y-59690919D01*
X170900441Y-59554090D01*
X171045431Y-59341890D01*
X171096440Y-59090000D01*
X171096440Y-58390000D01*
X171052162Y-58154683D01*
X170913090Y-57938559D01*
X170700890Y-57793569D01*
X170449000Y-57742560D01*
X169149000Y-57742560D01*
X168913683Y-57786838D01*
X168813972Y-57851000D01*
X167075196Y-57851000D01*
X166890890Y-57725069D01*
X166857510Y-57718309D01*
X166998699Y-57659827D01*
X167177327Y-57481198D01*
X167274000Y-57247809D01*
X167274000Y-57057250D01*
X167115250Y-56898500D01*
X166116000Y-56898500D01*
X166116000Y-56918500D01*
X165862000Y-56918500D01*
X165862000Y-56898500D01*
X164862750Y-56898500D01*
X164704000Y-57057250D01*
X164704000Y-57247809D01*
X164800673Y-57481198D01*
X164979301Y-57659827D01*
X165115287Y-57716154D01*
X165103683Y-57718338D01*
X165003972Y-57782500D01*
X164340500Y-57782500D01*
X164000294Y-57850171D01*
X163802690Y-57982206D01*
X163711882Y-58042882D01*
X163588764Y-58166000D01*
X163491037Y-58166000D01*
X163507440Y-58085000D01*
X163507440Y-57485000D01*
X163463162Y-57249683D01*
X163399322Y-57150472D01*
X163456431Y-57066890D01*
X163507440Y-56815000D01*
X163507440Y-56295191D01*
X164704000Y-56295191D01*
X164704000Y-56485750D01*
X164862750Y-56644500D01*
X165862000Y-56644500D01*
X165862000Y-55945250D01*
X166116000Y-55945250D01*
X166116000Y-56644500D01*
X167115250Y-56644500D01*
X167274000Y-56485750D01*
X167274000Y-56295191D01*
X167177327Y-56061802D01*
X166998699Y-55883173D01*
X166765310Y-55786500D01*
X166274750Y-55786500D01*
X166116000Y-55945250D01*
X165862000Y-55945250D01*
X165703250Y-55786500D01*
X165212690Y-55786500D01*
X164979301Y-55883173D01*
X164800673Y-56061802D01*
X164704000Y-56295191D01*
X163507440Y-56295191D01*
X163507440Y-56215000D01*
X163463162Y-55979683D01*
X163399322Y-55880472D01*
X163456431Y-55796890D01*
X163507440Y-55545000D01*
X163507440Y-54945000D01*
X163463162Y-54709683D01*
X163324090Y-54493559D01*
X163111890Y-54348569D01*
X162860000Y-54297560D01*
X161310000Y-54297560D01*
X161074683Y-54341838D01*
X160858559Y-54480910D01*
X160713569Y-54693110D01*
X160662560Y-54945000D01*
X160662560Y-55545000D01*
X160706838Y-55780317D01*
X160770678Y-55879528D01*
X160713569Y-55963110D01*
X160662560Y-56215000D01*
X160662560Y-56815000D01*
X160681560Y-56915979D01*
X160441794Y-56963671D01*
X160153382Y-57156382D01*
X159645382Y-57664382D01*
X159452671Y-57952794D01*
X159385000Y-58293000D01*
X159385000Y-60071000D01*
X159452671Y-60411206D01*
X159628732Y-60674699D01*
X159645382Y-60699618D01*
X162052000Y-63106236D01*
X162052000Y-64401764D01*
X161679403Y-64774361D01*
X161675994Y-64772031D01*
X161818327Y-64629698D01*
X161915000Y-64396309D01*
X161915000Y-64055750D01*
X161756250Y-63897000D01*
X160782000Y-63897000D01*
X160782000Y-63917000D01*
X160528000Y-63917000D01*
X160528000Y-63897000D01*
X159553750Y-63897000D01*
X159395000Y-64055750D01*
X159395000Y-64396309D01*
X159491673Y-64629698D01*
X159632910Y-64770936D01*
X159578559Y-64805910D01*
X159433569Y-65018110D01*
X159382560Y-65270000D01*
X159382560Y-66270000D01*
X159426838Y-66505317D01*
X159432166Y-66513598D01*
X158619764Y-67326000D01*
X156704270Y-67326000D01*
X156664090Y-67263559D01*
X156451890Y-67118569D01*
X156200000Y-67067560D01*
X154950000Y-67067560D01*
X154714683Y-67111838D01*
X154498559Y-67250910D01*
X154353569Y-67463110D01*
X154302560Y-67715000D01*
X143346236Y-67715000D01*
X145088231Y-65973005D01*
X145101838Y-66045317D01*
X145240910Y-66261441D01*
X145453110Y-66406431D01*
X145705000Y-66457440D01*
X147005000Y-66457440D01*
X147240317Y-66413162D01*
X147456441Y-66274090D01*
X147601431Y-66061890D01*
X147652440Y-65810000D01*
X147652440Y-65245750D01*
X148570000Y-65245750D01*
X148570000Y-65736309D01*
X148666673Y-65969698D01*
X148845301Y-66148327D01*
X149078690Y-66245000D01*
X149569250Y-66245000D01*
X149728000Y-66086250D01*
X149728000Y-65087000D01*
X149982000Y-65087000D01*
X149982000Y-66086250D01*
X150140750Y-66245000D01*
X150631310Y-66245000D01*
X150864699Y-66148327D01*
X151043327Y-65969698D01*
X151140000Y-65736309D01*
X151140000Y-65245750D01*
X150981250Y-65087000D01*
X149982000Y-65087000D01*
X149728000Y-65087000D01*
X148728750Y-65087000D01*
X148570000Y-65245750D01*
X147652440Y-65245750D01*
X147652440Y-64310000D01*
X147628674Y-64183691D01*
X148570000Y-64183691D01*
X148570000Y-64674250D01*
X148728750Y-64833000D01*
X149728000Y-64833000D01*
X149728000Y-63833750D01*
X149982000Y-63833750D01*
X149982000Y-64833000D01*
X150981250Y-64833000D01*
X151140000Y-64674250D01*
X151140000Y-64183691D01*
X151043327Y-63950302D01*
X150864699Y-63771673D01*
X150631310Y-63675000D01*
X150140750Y-63675000D01*
X149982000Y-63833750D01*
X149728000Y-63833750D01*
X149569250Y-63675000D01*
X149078690Y-63675000D01*
X148845301Y-63771673D01*
X148666673Y-63950302D01*
X148570000Y-64183691D01*
X147628674Y-64183691D01*
X147608162Y-64074683D01*
X147469090Y-63858559D01*
X147256890Y-63713569D01*
X147005000Y-63662560D01*
X145705000Y-63662560D01*
X145469683Y-63706838D01*
X145253559Y-63845910D01*
X145108569Y-64058110D01*
X145085708Y-64171000D01*
X144744000Y-64171000D01*
X144403795Y-64238670D01*
X144115382Y-64431382D01*
X142192712Y-66354052D01*
X142099090Y-66208559D01*
X141886890Y-66063569D01*
X141635000Y-66012560D01*
X140935000Y-66012560D01*
X140699683Y-66056838D01*
X140483559Y-66195910D01*
X140338569Y-66408110D01*
X140335919Y-66421197D01*
X140199090Y-66208559D01*
X139986890Y-66063569D01*
X139735000Y-66012560D01*
X139035000Y-66012560D01*
X138799683Y-66056838D01*
X138583559Y-66195910D01*
X138438569Y-66408110D01*
X138435959Y-66421000D01*
X134747000Y-66421000D01*
X134572532Y-66455704D01*
X135756618Y-65271618D01*
X135800968Y-65205244D01*
X136096423Y-64910303D01*
X136270801Y-64490354D01*
X136271198Y-64035641D01*
X136097554Y-63615388D01*
X135776303Y-63293577D01*
X135356354Y-63119199D01*
X135115248Y-63118988D01*
X136447498Y-61786738D01*
X136509089Y-61694560D01*
X136631564Y-61511264D01*
X136753967Y-61488232D01*
X136970091Y-61349160D01*
X137115081Y-61136960D01*
X137166090Y-60885070D01*
X137166090Y-59084210D01*
X137121812Y-58848893D01*
X136982740Y-58632769D01*
X136770540Y-58487779D01*
X136518650Y-58436770D01*
X135119110Y-58436770D01*
X134883793Y-58481048D01*
X134667669Y-58620120D01*
X134620893Y-58688579D01*
X134584980Y-58632769D01*
X134372780Y-58487779D01*
X134120890Y-58436770D01*
X132721350Y-58436770D01*
X132486033Y-58481048D01*
X132269909Y-58620120D01*
X132124919Y-58832320D01*
X132073910Y-59084210D01*
X132073910Y-60885070D01*
X132118188Y-61120387D01*
X132257260Y-61336511D01*
X132469460Y-61481501D01*
X132721350Y-61532510D01*
X134120890Y-61532510D01*
X134202635Y-61517129D01*
X133743764Y-61976000D01*
X132842000Y-61976000D01*
X132501794Y-62043671D01*
X132226585Y-62227560D01*
X132213382Y-62236382D01*
X131425764Y-63024000D01*
X129686236Y-63024000D01*
X129429000Y-62766764D01*
X129429000Y-60819270D01*
X129491441Y-60779090D01*
X129537969Y-60710994D01*
X129680302Y-60853327D01*
X129913691Y-60950000D01*
X130254250Y-60950000D01*
X130413000Y-60791250D01*
X130413000Y-59817000D01*
X130667000Y-59817000D01*
X130667000Y-60791250D01*
X130825750Y-60950000D01*
X131166309Y-60950000D01*
X131399698Y-60853327D01*
X131578327Y-60674699D01*
X131675000Y-60441310D01*
X131675000Y-59975750D01*
X131516250Y-59817000D01*
X130667000Y-59817000D01*
X130413000Y-59817000D01*
X130393000Y-59817000D01*
X130393000Y-59563000D01*
X130413000Y-59563000D01*
X130413000Y-58588750D01*
X130667000Y-58588750D01*
X130667000Y-59563000D01*
X131516250Y-59563000D01*
X131675000Y-59404250D01*
X131675000Y-58938690D01*
X131578327Y-58705301D01*
X131399698Y-58526673D01*
X131166309Y-58430000D01*
X130825750Y-58430000D01*
X130667000Y-58588750D01*
X130413000Y-58588750D01*
X130254250Y-58430000D01*
X129913691Y-58430000D01*
X129680302Y-58526673D01*
X129539064Y-58667910D01*
X129504090Y-58613559D01*
X129291890Y-58468569D01*
X129040000Y-58417560D01*
X128040000Y-58417560D01*
X127804683Y-58461838D01*
X127588559Y-58600910D01*
X127443569Y-58813110D01*
X127392560Y-59065000D01*
X127392560Y-60315000D01*
X127436838Y-60550317D01*
X127575910Y-60766441D01*
X127651000Y-60817748D01*
X127651000Y-62893764D01*
X127381000Y-62623764D01*
X127381000Y-58788236D01*
X127746796Y-58422440D01*
X127770000Y-58422440D01*
X128005317Y-58378162D01*
X128221441Y-58239090D01*
X128267969Y-58170994D01*
X128410302Y-58313327D01*
X128643691Y-58410000D01*
X128984250Y-58410000D01*
X129143000Y-58251250D01*
X129143000Y-57277000D01*
X129397000Y-57277000D01*
X129397000Y-58251250D01*
X129555750Y-58410000D01*
X129896309Y-58410000D01*
X130129698Y-58313327D01*
X130308327Y-58134699D01*
X130334815Y-58070750D01*
X137340000Y-58070750D01*
X137340000Y-59511310D01*
X137436673Y-59744699D01*
X137615302Y-59923327D01*
X137848691Y-60020000D01*
X138989250Y-60020000D01*
X139148000Y-59861250D01*
X139148000Y-57912000D01*
X139402000Y-57912000D01*
X139402000Y-59861250D01*
X139560750Y-60020000D01*
X140701309Y-60020000D01*
X140934698Y-59923327D01*
X141113327Y-59744699D01*
X141210000Y-59511310D01*
X141210000Y-58070750D01*
X141051250Y-57912000D01*
X139402000Y-57912000D01*
X139148000Y-57912000D01*
X137498750Y-57912000D01*
X137340000Y-58070750D01*
X130334815Y-58070750D01*
X130405000Y-57901310D01*
X130405000Y-57435750D01*
X130246250Y-57277000D01*
X129397000Y-57277000D01*
X129143000Y-57277000D01*
X129123000Y-57277000D01*
X129123000Y-57023000D01*
X129143000Y-57023000D01*
X129143000Y-56048750D01*
X129397000Y-56048750D01*
X129397000Y-57023000D01*
X130246250Y-57023000D01*
X130405000Y-56864250D01*
X130405000Y-56398690D01*
X130308327Y-56165301D01*
X130129698Y-55986673D01*
X129896309Y-55890000D01*
X129555750Y-55890000D01*
X129397000Y-56048750D01*
X129143000Y-56048750D01*
X128984250Y-55890000D01*
X128755236Y-55890000D01*
X128774126Y-55871110D01*
X132086350Y-55871110D01*
X132086350Y-56612099D01*
X132183023Y-56845488D01*
X132361651Y-57024117D01*
X132595040Y-57120790D01*
X133135370Y-57120790D01*
X133294120Y-56962040D01*
X133294120Y-55712360D01*
X132245100Y-55712360D01*
X132086350Y-55871110D01*
X128774126Y-55871110D01*
X129908236Y-54737000D01*
X132086350Y-54737000D01*
X132086350Y-55299610D01*
X132245100Y-55458360D01*
X133294120Y-55458360D01*
X133294120Y-55438360D01*
X133548120Y-55438360D01*
X133548120Y-55458360D01*
X133568120Y-55458360D01*
X133568120Y-55712360D01*
X133548120Y-55712360D01*
X133548120Y-56962040D01*
X133706870Y-57120790D01*
X134247200Y-57120790D01*
X134480589Y-57024117D01*
X134620743Y-56883963D01*
X134655020Y-56937231D01*
X134867220Y-57082221D01*
X135119110Y-57133230D01*
X136518650Y-57133230D01*
X136753967Y-57088952D01*
X136970091Y-56949880D01*
X137115081Y-56737680D01*
X137166090Y-56485790D01*
X137166090Y-56058690D01*
X137340000Y-56058690D01*
X137340000Y-57499250D01*
X137498750Y-57658000D01*
X139148000Y-57658000D01*
X139148000Y-55708750D01*
X139402000Y-55708750D01*
X139402000Y-57658000D01*
X141051250Y-57658000D01*
X141210000Y-57499250D01*
X141210000Y-56058690D01*
X141113327Y-55825301D01*
X140934698Y-55646673D01*
X140701309Y-55550000D01*
X139560750Y-55550000D01*
X139402000Y-55708750D01*
X139148000Y-55708750D01*
X138989250Y-55550000D01*
X137848691Y-55550000D01*
X137615302Y-55646673D01*
X137436673Y-55825301D01*
X137340000Y-56058690D01*
X137166090Y-56058690D01*
X137166090Y-54684930D01*
X137121812Y-54449613D01*
X136982740Y-54233489D01*
X136770540Y-54088499D01*
X136518650Y-54037490D01*
X136320726Y-54037490D01*
X135940736Y-53657500D01*
X139331764Y-53657500D01*
X141922500Y-56248236D01*
X141922500Y-59753500D01*
X141990171Y-60093706D01*
X142182882Y-60382118D01*
X144532382Y-62731618D01*
X144820794Y-62924329D01*
X145161000Y-62992000D01*
X147510500Y-62992000D01*
X147850706Y-62924329D01*
X148139118Y-62731618D01*
X149910736Y-60960000D01*
X150634764Y-60960000D01*
X153803382Y-64128618D01*
X154091794Y-64321329D01*
X154099802Y-64322922D01*
X154106838Y-64360317D01*
X154245910Y-64576441D01*
X154458110Y-64721431D01*
X154710000Y-64772440D01*
X155710000Y-64772440D01*
X155945317Y-64728162D01*
X156161441Y-64589090D01*
X156207969Y-64520994D01*
X156350302Y-64663327D01*
X156583691Y-64760000D01*
X156924250Y-64760000D01*
X157083000Y-64601250D01*
X157083000Y-63627000D01*
X157337000Y-63627000D01*
X157337000Y-64601250D01*
X157495750Y-64760000D01*
X157836309Y-64760000D01*
X158069698Y-64663327D01*
X158248327Y-64484699D01*
X158345000Y-64251310D01*
X158345000Y-63785750D01*
X158186250Y-63627000D01*
X157337000Y-63627000D01*
X157083000Y-63627000D01*
X157063000Y-63627000D01*
X157063000Y-63373000D01*
X157083000Y-63373000D01*
X157083000Y-62398750D01*
X157337000Y-62398750D01*
X157337000Y-63373000D01*
X158186250Y-63373000D01*
X158345000Y-63214250D01*
X158345000Y-63143691D01*
X159395000Y-63143691D01*
X159395000Y-63484250D01*
X159553750Y-63643000D01*
X160528000Y-63643000D01*
X160528000Y-62793750D01*
X160782000Y-62793750D01*
X160782000Y-63643000D01*
X161756250Y-63643000D01*
X161915000Y-63484250D01*
X161915000Y-63143691D01*
X161818327Y-62910302D01*
X161639699Y-62731673D01*
X161406310Y-62635000D01*
X160940750Y-62635000D01*
X160782000Y-62793750D01*
X160528000Y-62793750D01*
X160369250Y-62635000D01*
X159903690Y-62635000D01*
X159670301Y-62731673D01*
X159491673Y-62910302D01*
X159395000Y-63143691D01*
X158345000Y-63143691D01*
X158345000Y-62748690D01*
X158248327Y-62515301D01*
X158069698Y-62336673D01*
X157836309Y-62240000D01*
X157495750Y-62240000D01*
X157337000Y-62398750D01*
X157083000Y-62398750D01*
X156924250Y-62240000D01*
X156583691Y-62240000D01*
X156350302Y-62336673D01*
X156209064Y-62477910D01*
X156174090Y-62423559D01*
X155961890Y-62278569D01*
X155710000Y-62227560D01*
X154710000Y-62227560D01*
X154474683Y-62271838D01*
X154466402Y-62277166D01*
X152019000Y-59829764D01*
X152019000Y-59340750D01*
X155275000Y-59340750D01*
X155275000Y-59481310D01*
X155371673Y-59714699D01*
X155550302Y-59893327D01*
X155783691Y-59990000D01*
X156399250Y-59990000D01*
X156558000Y-59831250D01*
X156558000Y-59182000D01*
X156812000Y-59182000D01*
X156812000Y-59831250D01*
X156970750Y-59990000D01*
X157586309Y-59990000D01*
X157819698Y-59893327D01*
X157998327Y-59714699D01*
X158095000Y-59481310D01*
X158095000Y-59340750D01*
X157936250Y-59182000D01*
X156812000Y-59182000D01*
X156558000Y-59182000D01*
X155433750Y-59182000D01*
X155275000Y-59340750D01*
X152019000Y-59340750D01*
X152019000Y-57964705D01*
X152206441Y-57844090D01*
X152351431Y-57631890D01*
X152402440Y-57380000D01*
X152402440Y-56885676D01*
X153930382Y-58413618D01*
X154218795Y-58606330D01*
X154559000Y-58674000D01*
X155275000Y-58674000D01*
X155275000Y-58769250D01*
X155433750Y-58928000D01*
X156558000Y-58928000D01*
X156558000Y-58908000D01*
X156812000Y-58908000D01*
X156812000Y-58928000D01*
X157936250Y-58928000D01*
X158095000Y-58769250D01*
X158095000Y-58628690D01*
X158005194Y-58411878D01*
X158056431Y-58336890D01*
X158107440Y-58085000D01*
X158107440Y-57485000D01*
X158071786Y-57295516D01*
X158299118Y-57143618D01*
X159124618Y-56318118D01*
X159317329Y-56029706D01*
X159385000Y-55689500D01*
X159385000Y-54406736D01*
X159941296Y-53850440D01*
X160472500Y-53850440D01*
X160707817Y-53806162D01*
X160923941Y-53667090D01*
X160970469Y-53598994D01*
X161112802Y-53741327D01*
X161346191Y-53838000D01*
X161686750Y-53838000D01*
X161845500Y-53679250D01*
X161845500Y-52705000D01*
X162099500Y-52705000D01*
X162099500Y-53679250D01*
X162258250Y-53838000D01*
X162598809Y-53838000D01*
X162832198Y-53741327D01*
X163010827Y-53562699D01*
X163107500Y-53329310D01*
X163107500Y-52863750D01*
X162948750Y-52705000D01*
X162099500Y-52705000D01*
X161845500Y-52705000D01*
X161825500Y-52705000D01*
X161825500Y-52451000D01*
X161845500Y-52451000D01*
X161845500Y-51476750D01*
X162099500Y-51476750D01*
X162099500Y-52451000D01*
X162948750Y-52451000D01*
X163107500Y-52292250D01*
X163107500Y-51826690D01*
X163010827Y-51593301D01*
X162832198Y-51414673D01*
X162598809Y-51318000D01*
X162258250Y-51318000D01*
X162099500Y-51476750D01*
X161845500Y-51476750D01*
X161686750Y-51318000D01*
X161346191Y-51318000D01*
X161112802Y-51414673D01*
X160971564Y-51555910D01*
X160936590Y-51501559D01*
X160724390Y-51356569D01*
X160472500Y-51305560D01*
X159472500Y-51305560D01*
X159237183Y-51349838D01*
X159021059Y-51488910D01*
X158884343Y-51689000D01*
X158356236Y-51689000D01*
X157542236Y-50875000D01*
X213285000Y-50875000D01*
X213285000Y-156770000D01*
G36*
X169717302Y-63987673D02*
X169538673Y-64166301D01*
X169442000Y-64399690D01*
X169442000Y-64865250D01*
X169600750Y-65024000D01*
X170450000Y-65024000D01*
X170450000Y-65004000D01*
X170704000Y-65004000D01*
X170704000Y-65024000D01*
X170724000Y-65024000D01*
X170724000Y-65278000D01*
X170704000Y-65278000D01*
X170704000Y-66252250D01*
X170755750Y-66304000D01*
X170735750Y-66304000D01*
X170577000Y-66462750D01*
X170577000Y-67437000D01*
X170597000Y-67437000D01*
X170597000Y-67691000D01*
X170577000Y-67691000D01*
X170577000Y-67711000D01*
X170323000Y-67711000D01*
X170323000Y-67691000D01*
X169473750Y-67691000D01*
X169315000Y-67849750D01*
X169315000Y-68003868D01*
X169225906Y-67944337D01*
X168910000Y-67881500D01*
X168788750Y-67881500D01*
X168741250Y-67834000D01*
X167767000Y-67834000D01*
X167767000Y-67854000D01*
X167513000Y-67854000D01*
X167513000Y-67834000D01*
X166538750Y-67834000D01*
X166491250Y-67881500D01*
X166433505Y-67881500D01*
X166433500Y-67881499D01*
X166144426Y-67939000D01*
X166117595Y-67944337D01*
X165849783Y-68123283D01*
X165849781Y-68123286D01*
X165214783Y-68758283D01*
X165035837Y-69026094D01*
X164977793Y-69317905D01*
X164973000Y-69342000D01*
X164973000Y-73723500D01*
X165035837Y-74039406D01*
X165182365Y-74258701D01*
X165143677Y-74265980D01*
X165141310Y-74265000D01*
X165061250Y-74265000D01*
X165040938Y-74285312D01*
X164979683Y-74296838D01*
X164965500Y-74305965D01*
X164965500Y-67976934D01*
X165861742Y-67080691D01*
X166380000Y-67080691D01*
X166380000Y-67421250D01*
X166538750Y-67580000D01*
X167513000Y-67580000D01*
X167513000Y-66730750D01*
X167767000Y-66730750D01*
X167767000Y-67580000D01*
X168741250Y-67580000D01*
X168900000Y-67421250D01*
X168900000Y-67080691D01*
X168803327Y-66847302D01*
X168768716Y-66812690D01*
X169315000Y-66812690D01*
X169315000Y-67278250D01*
X169473750Y-67437000D01*
X170323000Y-67437000D01*
X170323000Y-66462750D01*
X170271250Y-66411000D01*
X170291250Y-66411000D01*
X170450000Y-66252250D01*
X170450000Y-65278000D01*
X169600750Y-65278000D01*
X169442000Y-65436750D01*
X169442000Y-65902310D01*
X169538673Y-66135699D01*
X169717302Y-66314327D01*
X169758031Y-66331197D01*
X169590302Y-66400673D01*
X169411673Y-66579301D01*
X169315000Y-66812690D01*
X168768716Y-66812690D01*
X168624699Y-66668673D01*
X168391310Y-66572000D01*
X167925750Y-66572000D01*
X167767000Y-66730750D01*
X167513000Y-66730750D01*
X167354250Y-66572000D01*
X166888690Y-66572000D01*
X166655301Y-66668673D01*
X166476673Y-66847302D01*
X166380000Y-67080691D01*
X165861742Y-67080691D01*
X166191714Y-66750719D01*
X166191717Y-66750717D01*
X166370663Y-66482905D01*
X166375728Y-66457440D01*
X166433501Y-66167000D01*
X166433500Y-66166995D01*
X166433500Y-64603934D01*
X167092934Y-63944500D01*
X169821531Y-63944500D01*
X169717302Y-63987673D01*
X169717302Y-63987673D01*
G37*
X169717302Y-63987673D02*
X169538673Y-64166301D01*
X169442000Y-64399690D01*
X169442000Y-64865250D01*
X169600750Y-65024000D01*
X170450000Y-65024000D01*
X170450000Y-65004000D01*
X170704000Y-65004000D01*
X170704000Y-65024000D01*
X170724000Y-65024000D01*
X170724000Y-65278000D01*
X170704000Y-65278000D01*
X170704000Y-66252250D01*
X170755750Y-66304000D01*
X170735750Y-66304000D01*
X170577000Y-66462750D01*
X170577000Y-67437000D01*
X170597000Y-67437000D01*
X170597000Y-67691000D01*
X170577000Y-67691000D01*
X170577000Y-67711000D01*
X170323000Y-67711000D01*
X170323000Y-67691000D01*
X169473750Y-67691000D01*
X169315000Y-67849750D01*
X169315000Y-68003868D01*
X169225906Y-67944337D01*
X168910000Y-67881500D01*
X168788750Y-67881500D01*
X168741250Y-67834000D01*
X167767000Y-67834000D01*
X167767000Y-67854000D01*
X167513000Y-67854000D01*
X167513000Y-67834000D01*
X166538750Y-67834000D01*
X166491250Y-67881500D01*
X166433505Y-67881500D01*
X166433500Y-67881499D01*
X166144426Y-67939000D01*
X166117595Y-67944337D01*
X165849783Y-68123283D01*
X165849781Y-68123286D01*
X165214783Y-68758283D01*
X165035837Y-69026094D01*
X164977793Y-69317905D01*
X164973000Y-69342000D01*
X164973000Y-73723500D01*
X165035837Y-74039406D01*
X165182365Y-74258701D01*
X165143677Y-74265980D01*
X165141310Y-74265000D01*
X165061250Y-74265000D01*
X165040938Y-74285312D01*
X164979683Y-74296838D01*
X164965500Y-74305965D01*
X164965500Y-67976934D01*
X165861742Y-67080691D01*
X166380000Y-67080691D01*
X166380000Y-67421250D01*
X166538750Y-67580000D01*
X167513000Y-67580000D01*
X167513000Y-66730750D01*
X167767000Y-66730750D01*
X167767000Y-67580000D01*
X168741250Y-67580000D01*
X168900000Y-67421250D01*
X168900000Y-67080691D01*
X168803327Y-66847302D01*
X168768716Y-66812690D01*
X169315000Y-66812690D01*
X169315000Y-67278250D01*
X169473750Y-67437000D01*
X170323000Y-67437000D01*
X170323000Y-66462750D01*
X170271250Y-66411000D01*
X170291250Y-66411000D01*
X170450000Y-66252250D01*
X170450000Y-65278000D01*
X169600750Y-65278000D01*
X169442000Y-65436750D01*
X169442000Y-65902310D01*
X169538673Y-66135699D01*
X169717302Y-66314327D01*
X169758031Y-66331197D01*
X169590302Y-66400673D01*
X169411673Y-66579301D01*
X169315000Y-66812690D01*
X168768716Y-66812690D01*
X168624699Y-66668673D01*
X168391310Y-66572000D01*
X167925750Y-66572000D01*
X167767000Y-66730750D01*
X167513000Y-66730750D01*
X167354250Y-66572000D01*
X166888690Y-66572000D01*
X166655301Y-66668673D01*
X166476673Y-66847302D01*
X166380000Y-67080691D01*
X165861742Y-67080691D01*
X166191714Y-66750719D01*
X166191717Y-66750717D01*
X166370663Y-66482905D01*
X166375728Y-66457440D01*
X166433501Y-66167000D01*
X166433500Y-66166995D01*
X166433500Y-64603934D01*
X167092934Y-63944500D01*
X169821531Y-63944500D01*
X169717302Y-63987673D01*
G36*
X170694382Y-82924618D02*
X170982794Y-83117329D01*
X171323000Y-83185000D01*
X188226764Y-83185000D01*
X203708000Y-98666236D01*
X203708000Y-98679000D01*
X203775671Y-99019206D01*
X203842572Y-99119330D01*
X203968382Y-99307618D01*
X204079382Y-99418618D01*
X204367794Y-99611329D01*
X204708000Y-99679000D01*
X205245730Y-99679000D01*
X205285910Y-99741441D01*
X205486000Y-99878157D01*
X205486000Y-101915000D01*
X205553671Y-102255206D01*
X205625029Y-102362000D01*
X205697560Y-102470551D01*
X205697560Y-102885000D01*
X205741838Y-103120317D01*
X205774841Y-103171605D01*
X204850934Y-102247698D01*
X204851198Y-101945141D01*
X204677554Y-101524888D01*
X204356303Y-101203077D01*
X203936354Y-101028699D01*
X203481641Y-101028302D01*
X203061388Y-101201946D01*
X202739577Y-101523197D01*
X202565199Y-101943146D01*
X202564802Y-102397859D01*
X202738446Y-102818112D01*
X202846051Y-102925904D01*
X202565000Y-102870000D01*
X201671792Y-102870000D01*
X201610000Y-102773972D01*
X201610000Y-98232000D01*
X201574730Y-98054683D01*
X201542330Y-97891795D01*
X201349618Y-97603382D01*
X193795618Y-90049382D01*
X193783073Y-90041000D01*
X193507206Y-89856671D01*
X193167000Y-89789000D01*
X165409026Y-89789000D01*
X165458327Y-89739699D01*
X165555000Y-89506310D01*
X165555000Y-88550750D01*
X165396250Y-88392000D01*
X164147000Y-88392000D01*
X164147000Y-88412000D01*
X163893000Y-88412000D01*
X163893000Y-88392000D01*
X163873000Y-88392000D01*
X163873000Y-88138000D01*
X163893000Y-88138000D01*
X163893000Y-86673750D01*
X164147000Y-86673750D01*
X164147000Y-88138000D01*
X165396250Y-88138000D01*
X165555000Y-87979250D01*
X165555000Y-87023690D01*
X165458327Y-86790301D01*
X165279698Y-86611673D01*
X165046309Y-86515000D01*
X164305750Y-86515000D01*
X164147000Y-86673750D01*
X163893000Y-86673750D01*
X163734250Y-86515000D01*
X162993691Y-86515000D01*
X162760302Y-86611673D01*
X162581673Y-86790301D01*
X162558744Y-86845656D01*
X162464090Y-86698559D01*
X162251890Y-86553569D01*
X162000000Y-86502560D01*
X161925500Y-86502560D01*
X161925500Y-86002934D01*
X162773714Y-85154719D01*
X162773717Y-85154717D01*
X162952663Y-84886905D01*
X162979936Y-84749794D01*
X163015501Y-84571000D01*
X163015500Y-84570995D01*
X163015500Y-84497440D01*
X163065000Y-84497440D01*
X163168671Y-84477933D01*
X163265000Y-84497440D01*
X163715000Y-84497440D01*
X163786323Y-84484020D01*
X163788690Y-84485000D01*
X163868750Y-84485000D01*
X163889062Y-84464688D01*
X163950317Y-84453162D01*
X164142227Y-84329671D01*
X164313110Y-84446431D01*
X164387808Y-84461558D01*
X164411250Y-84485000D01*
X164491310Y-84485000D01*
X164495335Y-84483333D01*
X164565000Y-84497440D01*
X165015000Y-84497440D01*
X165118671Y-84477933D01*
X165215000Y-84497440D01*
X165665000Y-84497440D01*
X165768671Y-84477933D01*
X165865000Y-84497440D01*
X166315000Y-84497440D01*
X166418671Y-84477933D01*
X166515000Y-84497440D01*
X166965000Y-84497440D01*
X167068671Y-84477933D01*
X167165000Y-84497440D01*
X167615000Y-84497440D01*
X167718671Y-84477933D01*
X167815000Y-84497440D01*
X168265000Y-84497440D01*
X168368671Y-84477933D01*
X168465000Y-84497440D01*
X168915000Y-84497440D01*
X169150317Y-84453162D01*
X169366441Y-84314090D01*
X169511431Y-84101890D01*
X169562440Y-83850000D01*
X169562440Y-82100000D01*
X169518162Y-81864683D01*
X169379090Y-81648559D01*
X169166890Y-81503569D01*
X168915000Y-81452560D01*
X168465000Y-81452560D01*
X168361329Y-81472067D01*
X168265000Y-81452560D01*
X167815000Y-81452560D01*
X167711329Y-81472067D01*
X167615000Y-81452560D01*
X167165000Y-81452560D01*
X167061329Y-81472067D01*
X166965000Y-81452560D01*
X166515000Y-81452560D01*
X166411329Y-81472067D01*
X166315000Y-81452560D01*
X165865000Y-81452560D01*
X165761329Y-81472067D01*
X165665000Y-81452560D01*
X165215000Y-81452560D01*
X165111329Y-81472067D01*
X165015000Y-81452560D01*
X164565000Y-81452560D01*
X164493677Y-81465980D01*
X164491310Y-81465000D01*
X164411250Y-81465000D01*
X164390938Y-81485312D01*
X164329683Y-81496838D01*
X164137773Y-81620329D01*
X163966890Y-81503569D01*
X163892192Y-81488442D01*
X163868750Y-81465000D01*
X163788690Y-81465000D01*
X163784665Y-81466667D01*
X163715000Y-81452560D01*
X163665500Y-81452560D01*
X163665500Y-81306005D01*
X163665501Y-81306000D01*
X163602663Y-80990094D01*
X163456937Y-80772000D01*
X168541764Y-80772000D01*
X170694382Y-82924618D01*
X170694382Y-82924618D01*
G37*
X170694382Y-82924618D02*
X170982794Y-83117329D01*
X171323000Y-83185000D01*
X188226764Y-83185000D01*
X203708000Y-98666236D01*
X203708000Y-98679000D01*
X203775671Y-99019206D01*
X203842572Y-99119330D01*
X203968382Y-99307618D01*
X204079382Y-99418618D01*
X204367794Y-99611329D01*
X204708000Y-99679000D01*
X205245730Y-99679000D01*
X205285910Y-99741441D01*
X205486000Y-99878157D01*
X205486000Y-101915000D01*
X205553671Y-102255206D01*
X205625029Y-102362000D01*
X205697560Y-102470551D01*
X205697560Y-102885000D01*
X205741838Y-103120317D01*
X205774841Y-103171605D01*
X204850934Y-102247698D01*
X204851198Y-101945141D01*
X204677554Y-101524888D01*
X204356303Y-101203077D01*
X203936354Y-101028699D01*
X203481641Y-101028302D01*
X203061388Y-101201946D01*
X202739577Y-101523197D01*
X202565199Y-101943146D01*
X202564802Y-102397859D01*
X202738446Y-102818112D01*
X202846051Y-102925904D01*
X202565000Y-102870000D01*
X201671792Y-102870000D01*
X201610000Y-102773972D01*
X201610000Y-98232000D01*
X201574730Y-98054683D01*
X201542330Y-97891795D01*
X201349618Y-97603382D01*
X193795618Y-90049382D01*
X193783073Y-90041000D01*
X193507206Y-89856671D01*
X193167000Y-89789000D01*
X165409026Y-89789000D01*
X165458327Y-89739699D01*
X165555000Y-89506310D01*
X165555000Y-88550750D01*
X165396250Y-88392000D01*
X164147000Y-88392000D01*
X164147000Y-88412000D01*
X163893000Y-88412000D01*
X163893000Y-88392000D01*
X163873000Y-88392000D01*
X163873000Y-88138000D01*
X163893000Y-88138000D01*
X163893000Y-86673750D01*
X164147000Y-86673750D01*
X164147000Y-88138000D01*
X165396250Y-88138000D01*
X165555000Y-87979250D01*
X165555000Y-87023690D01*
X165458327Y-86790301D01*
X165279698Y-86611673D01*
X165046309Y-86515000D01*
X164305750Y-86515000D01*
X164147000Y-86673750D01*
X163893000Y-86673750D01*
X163734250Y-86515000D01*
X162993691Y-86515000D01*
X162760302Y-86611673D01*
X162581673Y-86790301D01*
X162558744Y-86845656D01*
X162464090Y-86698559D01*
X162251890Y-86553569D01*
X162000000Y-86502560D01*
X161925500Y-86502560D01*
X161925500Y-86002934D01*
X162773714Y-85154719D01*
X162773717Y-85154717D01*
X162952663Y-84886905D01*
X162979936Y-84749794D01*
X163015501Y-84571000D01*
X163015500Y-84570995D01*
X163015500Y-84497440D01*
X163065000Y-84497440D01*
X163168671Y-84477933D01*
X163265000Y-84497440D01*
X163715000Y-84497440D01*
X163786323Y-84484020D01*
X163788690Y-84485000D01*
X163868750Y-84485000D01*
X163889062Y-84464688D01*
X163950317Y-84453162D01*
X164142227Y-84329671D01*
X164313110Y-84446431D01*
X164387808Y-84461558D01*
X164411250Y-84485000D01*
X164491310Y-84485000D01*
X164495335Y-84483333D01*
X164565000Y-84497440D01*
X165015000Y-84497440D01*
X165118671Y-84477933D01*
X165215000Y-84497440D01*
X165665000Y-84497440D01*
X165768671Y-84477933D01*
X165865000Y-84497440D01*
X166315000Y-84497440D01*
X166418671Y-84477933D01*
X166515000Y-84497440D01*
X166965000Y-84497440D01*
X167068671Y-84477933D01*
X167165000Y-84497440D01*
X167615000Y-84497440D01*
X167718671Y-84477933D01*
X167815000Y-84497440D01*
X168265000Y-84497440D01*
X168368671Y-84477933D01*
X168465000Y-84497440D01*
X168915000Y-84497440D01*
X169150317Y-84453162D01*
X169366441Y-84314090D01*
X169511431Y-84101890D01*
X169562440Y-83850000D01*
X169562440Y-82100000D01*
X169518162Y-81864683D01*
X169379090Y-81648559D01*
X169166890Y-81503569D01*
X168915000Y-81452560D01*
X168465000Y-81452560D01*
X168361329Y-81472067D01*
X168265000Y-81452560D01*
X167815000Y-81452560D01*
X167711329Y-81472067D01*
X167615000Y-81452560D01*
X167165000Y-81452560D01*
X167061329Y-81472067D01*
X166965000Y-81452560D01*
X166515000Y-81452560D01*
X166411329Y-81472067D01*
X166315000Y-81452560D01*
X165865000Y-81452560D01*
X165761329Y-81472067D01*
X165665000Y-81452560D01*
X165215000Y-81452560D01*
X165111329Y-81472067D01*
X165015000Y-81452560D01*
X164565000Y-81452560D01*
X164493677Y-81465980D01*
X164491310Y-81465000D01*
X164411250Y-81465000D01*
X164390938Y-81485312D01*
X164329683Y-81496838D01*
X164137773Y-81620329D01*
X163966890Y-81503569D01*
X163892192Y-81488442D01*
X163868750Y-81465000D01*
X163788690Y-81465000D01*
X163784665Y-81466667D01*
X163715000Y-81452560D01*
X163665500Y-81452560D01*
X163665500Y-81306005D01*
X163665501Y-81306000D01*
X163602663Y-80990094D01*
X163456937Y-80772000D01*
X168541764Y-80772000D01*
X170694382Y-82924618D01*
G36*
X106178382Y-77222382D02*
X102495382Y-80905382D01*
X102302671Y-81193794D01*
X102235000Y-81534000D01*
X102235000Y-84721764D01*
X97922659Y-89034105D01*
X97678000Y-88984560D01*
X96994308Y-88984560D01*
X96901000Y-88966000D01*
X93822943Y-88966000D01*
X93738890Y-88908569D01*
X93487000Y-88857560D01*
X92187000Y-88857560D01*
X91951683Y-88901838D01*
X91735559Y-89040910D01*
X91590569Y-89253110D01*
X91539560Y-89505000D01*
X91539560Y-90205000D01*
X91583838Y-90440317D01*
X91722910Y-90656441D01*
X91935110Y-90801431D01*
X91948197Y-90804081D01*
X91851972Y-90866000D01*
X89440004Y-90866000D01*
X89349803Y-90804368D01*
X89482251Y-90719140D01*
X89627241Y-90506940D01*
X89678250Y-90255050D01*
X89678250Y-89454950D01*
X89633972Y-89219633D01*
X89519760Y-89042143D01*
X89519760Y-88884760D01*
X89452089Y-88544554D01*
X89259378Y-88256142D01*
X88766618Y-87763382D01*
X88696014Y-87716206D01*
X88478206Y-87570671D01*
X88138000Y-87503000D01*
X85725000Y-87503000D01*
X85384794Y-87570671D01*
X85166986Y-87716206D01*
X85096382Y-87763382D01*
X82810382Y-90049382D01*
X82617671Y-90337794D01*
X82550000Y-90678000D01*
X82550000Y-90944764D01*
X81673764Y-91821000D01*
X80962083Y-91821000D01*
X81056546Y-91793952D01*
X81527145Y-91419911D01*
X81818783Y-90894252D01*
X81843093Y-90788808D01*
X81722440Y-90551000D01*
X79629000Y-90551000D01*
X79629000Y-90571000D01*
X79375000Y-90571000D01*
X79375000Y-90551000D01*
X77281560Y-90551000D01*
X77160907Y-90788808D01*
X77185217Y-90894252D01*
X77476855Y-91419911D01*
X77947454Y-91793952D01*
X78041917Y-91821000D01*
X76568236Y-91821000D01*
X76327000Y-91579764D01*
X76327000Y-86080738D01*
X76454000Y-86106000D01*
X82423000Y-86106000D01*
X82763206Y-86038329D01*
X83051618Y-85845618D01*
X84448618Y-84448618D01*
X84641329Y-84160206D01*
X84709000Y-83820000D01*
X84709000Y-81902236D01*
X85966236Y-80645000D01*
X87388764Y-80645000D01*
X87657638Y-80913874D01*
X87634279Y-80948060D01*
X87583270Y-81199950D01*
X87583270Y-81834255D01*
X87495920Y-81698509D01*
X87283720Y-81553519D01*
X87031830Y-81502510D01*
X86231730Y-81502510D01*
X85996413Y-81546788D01*
X85780289Y-81685860D01*
X85635299Y-81898060D01*
X85584290Y-82149950D01*
X85584290Y-82950050D01*
X85628568Y-83185367D01*
X85671178Y-83251586D01*
X81927764Y-86995000D01*
X81615508Y-86995000D01*
X81484069Y-86798287D01*
X80985940Y-86465448D01*
X80398356Y-86348570D01*
X79913892Y-86348570D01*
X79842206Y-86300671D01*
X79502000Y-86233000D01*
X79161794Y-86300671D01*
X79090108Y-86348570D01*
X78605644Y-86348570D01*
X78018060Y-86465448D01*
X77519931Y-86798287D01*
X77187092Y-87296416D01*
X77070214Y-87884000D01*
X77187092Y-88471584D01*
X77519931Y-88969713D01*
X77809842Y-89163425D01*
X77476855Y-89428089D01*
X77185217Y-89953748D01*
X77160907Y-90059192D01*
X77281560Y-90297000D01*
X79375000Y-90297000D01*
X79375000Y-90277000D01*
X79629000Y-90277000D01*
X79629000Y-90297000D01*
X81722440Y-90297000D01*
X81843093Y-90059192D01*
X81818783Y-89953748D01*
X81527145Y-89428089D01*
X81194158Y-89163425D01*
X81484069Y-88969713D01*
X81615508Y-88773000D01*
X82296000Y-88773000D01*
X82636206Y-88705329D01*
X82924618Y-88512618D01*
X87260398Y-84176838D01*
X87301854Y-84114795D01*
X87453109Y-83888426D01*
X87520780Y-83548220D01*
X87520780Y-83359244D01*
X87583270Y-83267787D01*
X87583270Y-83900050D01*
X87627548Y-84135367D01*
X87766620Y-84351491D01*
X87978820Y-84496481D01*
X88230710Y-84547490D01*
X89030810Y-84547490D01*
X89266127Y-84503212D01*
X89443617Y-84389000D01*
X91851057Y-84389000D01*
X91935110Y-84446431D01*
X92187000Y-84497440D01*
X93487000Y-84497440D01*
X93722317Y-84453162D01*
X93938441Y-84314090D01*
X94083431Y-84101890D01*
X94134440Y-83850000D01*
X94134440Y-83150000D01*
X94090162Y-82914683D01*
X93951090Y-82698559D01*
X93738890Y-82553569D01*
X93725803Y-82550919D01*
X93811523Y-82495759D01*
X94107000Y-82791236D01*
X94107000Y-82931000D01*
X94174671Y-83271206D01*
X94332224Y-83507000D01*
X94367382Y-83559618D01*
X94936382Y-84128618D01*
X95224795Y-84321330D01*
X95565000Y-84389000D01*
X96296057Y-84389000D01*
X96380110Y-84446431D01*
X96632000Y-84497440D01*
X97932000Y-84497440D01*
X98167317Y-84453162D01*
X98267028Y-84389000D01*
X98999000Y-84389000D01*
X99339206Y-84321329D01*
X99627618Y-84128618D01*
X100450618Y-83305618D01*
X100480598Y-83260750D01*
X100643329Y-83017206D01*
X100711000Y-82677000D01*
X100711000Y-80378236D01*
X103873236Y-77216000D01*
X106187933Y-77216000D01*
X106178382Y-77222382D01*
X106178382Y-77222382D01*
G37*
X106178382Y-77222382D02*
X102495382Y-80905382D01*
X102302671Y-81193794D01*
X102235000Y-81534000D01*
X102235000Y-84721764D01*
X97922659Y-89034105D01*
X97678000Y-88984560D01*
X96994308Y-88984560D01*
X96901000Y-88966000D01*
X93822943Y-88966000D01*
X93738890Y-88908569D01*
X93487000Y-88857560D01*
X92187000Y-88857560D01*
X91951683Y-88901838D01*
X91735559Y-89040910D01*
X91590569Y-89253110D01*
X91539560Y-89505000D01*
X91539560Y-90205000D01*
X91583838Y-90440317D01*
X91722910Y-90656441D01*
X91935110Y-90801431D01*
X91948197Y-90804081D01*
X91851972Y-90866000D01*
X89440004Y-90866000D01*
X89349803Y-90804368D01*
X89482251Y-90719140D01*
X89627241Y-90506940D01*
X89678250Y-90255050D01*
X89678250Y-89454950D01*
X89633972Y-89219633D01*
X89519760Y-89042143D01*
X89519760Y-88884760D01*
X89452089Y-88544554D01*
X89259378Y-88256142D01*
X88766618Y-87763382D01*
X88696014Y-87716206D01*
X88478206Y-87570671D01*
X88138000Y-87503000D01*
X85725000Y-87503000D01*
X85384794Y-87570671D01*
X85166986Y-87716206D01*
X85096382Y-87763382D01*
X82810382Y-90049382D01*
X82617671Y-90337794D01*
X82550000Y-90678000D01*
X82550000Y-90944764D01*
X81673764Y-91821000D01*
X80962083Y-91821000D01*
X81056546Y-91793952D01*
X81527145Y-91419911D01*
X81818783Y-90894252D01*
X81843093Y-90788808D01*
X81722440Y-90551000D01*
X79629000Y-90551000D01*
X79629000Y-90571000D01*
X79375000Y-90571000D01*
X79375000Y-90551000D01*
X77281560Y-90551000D01*
X77160907Y-90788808D01*
X77185217Y-90894252D01*
X77476855Y-91419911D01*
X77947454Y-91793952D01*
X78041917Y-91821000D01*
X76568236Y-91821000D01*
X76327000Y-91579764D01*
X76327000Y-86080738D01*
X76454000Y-86106000D01*
X82423000Y-86106000D01*
X82763206Y-86038329D01*
X83051618Y-85845618D01*
X84448618Y-84448618D01*
X84641329Y-84160206D01*
X84709000Y-83820000D01*
X84709000Y-81902236D01*
X85966236Y-80645000D01*
X87388764Y-80645000D01*
X87657638Y-80913874D01*
X87634279Y-80948060D01*
X87583270Y-81199950D01*
X87583270Y-81834255D01*
X87495920Y-81698509D01*
X87283720Y-81553519D01*
X87031830Y-81502510D01*
X86231730Y-81502510D01*
X85996413Y-81546788D01*
X85780289Y-81685860D01*
X85635299Y-81898060D01*
X85584290Y-82149950D01*
X85584290Y-82950050D01*
X85628568Y-83185367D01*
X85671178Y-83251586D01*
X81927764Y-86995000D01*
X81615508Y-86995000D01*
X81484069Y-86798287D01*
X80985940Y-86465448D01*
X80398356Y-86348570D01*
X79913892Y-86348570D01*
X79842206Y-86300671D01*
X79502000Y-86233000D01*
X79161794Y-86300671D01*
X79090108Y-86348570D01*
X78605644Y-86348570D01*
X78018060Y-86465448D01*
X77519931Y-86798287D01*
X77187092Y-87296416D01*
X77070214Y-87884000D01*
X77187092Y-88471584D01*
X77519931Y-88969713D01*
X77809842Y-89163425D01*
X77476855Y-89428089D01*
X77185217Y-89953748D01*
X77160907Y-90059192D01*
X77281560Y-90297000D01*
X79375000Y-90297000D01*
X79375000Y-90277000D01*
X79629000Y-90277000D01*
X79629000Y-90297000D01*
X81722440Y-90297000D01*
X81843093Y-90059192D01*
X81818783Y-89953748D01*
X81527145Y-89428089D01*
X81194158Y-89163425D01*
X81484069Y-88969713D01*
X81615508Y-88773000D01*
X82296000Y-88773000D01*
X82636206Y-88705329D01*
X82924618Y-88512618D01*
X87260398Y-84176838D01*
X87301854Y-84114795D01*
X87453109Y-83888426D01*
X87520780Y-83548220D01*
X87520780Y-83359244D01*
X87583270Y-83267787D01*
X87583270Y-83900050D01*
X87627548Y-84135367D01*
X87766620Y-84351491D01*
X87978820Y-84496481D01*
X88230710Y-84547490D01*
X89030810Y-84547490D01*
X89266127Y-84503212D01*
X89443617Y-84389000D01*
X91851057Y-84389000D01*
X91935110Y-84446431D01*
X92187000Y-84497440D01*
X93487000Y-84497440D01*
X93722317Y-84453162D01*
X93938441Y-84314090D01*
X94083431Y-84101890D01*
X94134440Y-83850000D01*
X94134440Y-83150000D01*
X94090162Y-82914683D01*
X93951090Y-82698559D01*
X93738890Y-82553569D01*
X93725803Y-82550919D01*
X93811523Y-82495759D01*
X94107000Y-82791236D01*
X94107000Y-82931000D01*
X94174671Y-83271206D01*
X94332224Y-83507000D01*
X94367382Y-83559618D01*
X94936382Y-84128618D01*
X95224795Y-84321330D01*
X95565000Y-84389000D01*
X96296057Y-84389000D01*
X96380110Y-84446431D01*
X96632000Y-84497440D01*
X97932000Y-84497440D01*
X98167317Y-84453162D01*
X98267028Y-84389000D01*
X98999000Y-84389000D01*
X99339206Y-84321329D01*
X99627618Y-84128618D01*
X100450618Y-83305618D01*
X100480598Y-83260750D01*
X100643329Y-83017206D01*
X100711000Y-82677000D01*
X100711000Y-80378236D01*
X103873236Y-77216000D01*
X106187933Y-77216000D01*
X106178382Y-77222382D01*
G36*
X131778910Y-79161441D02*
X131909245Y-79250495D01*
X132003750Y-79345000D01*
X132119310Y-79345000D01*
X132139753Y-79336532D01*
X132243000Y-79357440D01*
X132429000Y-79357440D01*
X132429000Y-80943764D01*
X129546382Y-83826382D01*
X129353671Y-84114794D01*
X129286000Y-84455000D01*
X129286000Y-86271547D01*
X129115330Y-86385585D01*
X128905000Y-86700366D01*
X128694670Y-86385585D01*
X128208489Y-86060729D01*
X127635000Y-85946655D01*
X127061511Y-86060729D01*
X126575330Y-86385585D01*
X126365000Y-86700366D01*
X126154670Y-86385585D01*
X125668489Y-86060729D01*
X125171025Y-85961777D01*
X125632401Y-85500401D01*
X125797148Y-85253839D01*
X125800752Y-85235723D01*
X126365000Y-85347959D01*
X126938489Y-85233885D01*
X127424670Y-84909029D01*
X127749526Y-84422848D01*
X127863600Y-83849359D01*
X127863600Y-83790641D01*
X127749526Y-83217152D01*
X127702514Y-83146793D01*
X127791401Y-83087401D01*
X129855401Y-81023401D01*
X130020148Y-80776839D01*
X130078000Y-80486000D01*
X130078000Y-79357440D01*
X130393000Y-79357440D01*
X130522589Y-79333056D01*
X130643000Y-79357440D01*
X131193000Y-79357440D01*
X131298705Y-79337550D01*
X131316690Y-79345000D01*
X131432250Y-79345000D01*
X131528651Y-79248599D01*
X131644441Y-79174090D01*
X131717884Y-79066603D01*
X131778910Y-79161441D01*
X131778910Y-79161441D01*
G37*
X131778910Y-79161441D02*
X131909245Y-79250495D01*
X132003750Y-79345000D01*
X132119310Y-79345000D01*
X132139753Y-79336532D01*
X132243000Y-79357440D01*
X132429000Y-79357440D01*
X132429000Y-80943764D01*
X129546382Y-83826382D01*
X129353671Y-84114794D01*
X129286000Y-84455000D01*
X129286000Y-86271547D01*
X129115330Y-86385585D01*
X128905000Y-86700366D01*
X128694670Y-86385585D01*
X128208489Y-86060729D01*
X127635000Y-85946655D01*
X127061511Y-86060729D01*
X126575330Y-86385585D01*
X126365000Y-86700366D01*
X126154670Y-86385585D01*
X125668489Y-86060729D01*
X125171025Y-85961777D01*
X125632401Y-85500401D01*
X125797148Y-85253839D01*
X125800752Y-85235723D01*
X126365000Y-85347959D01*
X126938489Y-85233885D01*
X127424670Y-84909029D01*
X127749526Y-84422848D01*
X127863600Y-83849359D01*
X127863600Y-83790641D01*
X127749526Y-83217152D01*
X127702514Y-83146793D01*
X127791401Y-83087401D01*
X129855401Y-81023401D01*
X130020148Y-80776839D01*
X130078000Y-80486000D01*
X130078000Y-79357440D01*
X130393000Y-79357440D01*
X130522589Y-79333056D01*
X130643000Y-79357440D01*
X131193000Y-79357440D01*
X131298705Y-79337550D01*
X131316690Y-79345000D01*
X131432250Y-79345000D01*
X131528651Y-79248599D01*
X131644441Y-79174090D01*
X131717884Y-79066603D01*
X131778910Y-79161441D01*
G36*
X85996413Y-74561788D02*
X85818923Y-74676000D01*
X84201000Y-74676000D01*
X83860795Y-74743670D01*
X83572382Y-74936382D01*
X79780194Y-78728570D01*
X78605644Y-78728570D01*
X78018060Y-78845448D01*
X77519931Y-79178287D01*
X77187092Y-79676416D01*
X77070214Y-80264000D01*
X77187092Y-80851584D01*
X77519931Y-81349713D01*
X77809842Y-81543425D01*
X77476855Y-81808089D01*
X77185217Y-82333748D01*
X77160907Y-82439192D01*
X77281560Y-82677000D01*
X79375000Y-82677000D01*
X79375000Y-82657000D01*
X79629000Y-82657000D01*
X79629000Y-82677000D01*
X81722440Y-82677000D01*
X81843093Y-82439192D01*
X81818783Y-82333748D01*
X81527145Y-81808089D01*
X81194158Y-81543425D01*
X81484069Y-81349713D01*
X81816908Y-80851584D01*
X81933786Y-80264000D01*
X81816908Y-79676416D01*
X81628617Y-79394619D01*
X84569236Y-76454000D01*
X85822536Y-76454000D01*
X85979840Y-76561481D01*
X86231730Y-76612490D01*
X87031830Y-76612490D01*
X87267147Y-76568212D01*
X87483271Y-76429140D01*
X87583270Y-76282787D01*
X87583270Y-76915050D01*
X87627548Y-77150367D01*
X87766620Y-77366491D01*
X87978820Y-77511481D01*
X88230710Y-77562490D01*
X89030810Y-77562490D01*
X89266127Y-77518212D01*
X89443617Y-77404000D01*
X92359057Y-77404000D01*
X92443110Y-77461431D01*
X92695000Y-77512440D01*
X93995000Y-77512440D01*
X94230317Y-77468162D01*
X94446441Y-77329090D01*
X94591431Y-77116890D01*
X94642440Y-76865000D01*
X94642440Y-76165000D01*
X94598162Y-75929683D01*
X94574184Y-75892420D01*
X95698382Y-77016618D01*
X95986795Y-77209330D01*
X96327000Y-77277000D01*
X96677057Y-77277000D01*
X96761110Y-77334431D01*
X97013000Y-77385440D01*
X98313000Y-77385440D01*
X98548317Y-77341162D01*
X98648028Y-77277000D01*
X99761000Y-77277000D01*
X100101206Y-77209329D01*
X100389618Y-77016618D01*
X101841236Y-75565000D01*
X103076002Y-75565000D01*
X102876382Y-75698382D01*
X99193382Y-79381382D01*
X99000671Y-79669794D01*
X98933000Y-80010000D01*
X98933000Y-82308764D01*
X98630764Y-82611000D01*
X98267943Y-82611000D01*
X98183890Y-82553569D01*
X98150510Y-82546809D01*
X98291699Y-82488327D01*
X98470327Y-82309698D01*
X98567000Y-82076309D01*
X98567000Y-81885750D01*
X98408250Y-81727000D01*
X97409000Y-81727000D01*
X97409000Y-81747000D01*
X97155000Y-81747000D01*
X97155000Y-81727000D01*
X96155750Y-81727000D01*
X95997000Y-81885750D01*
X95997000Y-82076309D01*
X96093673Y-82309698D01*
X96272301Y-82488327D01*
X96408287Y-82544654D01*
X96396683Y-82546838D01*
X96296972Y-82611000D01*
X95933236Y-82611000D01*
X95885000Y-82562764D01*
X95885000Y-82423000D01*
X95817329Y-82082794D01*
X95624618Y-81794382D01*
X94953927Y-81123691D01*
X95997000Y-81123691D01*
X95997000Y-81314250D01*
X96155750Y-81473000D01*
X97155000Y-81473000D01*
X97155000Y-80773750D01*
X97409000Y-80773750D01*
X97409000Y-81473000D01*
X98408250Y-81473000D01*
X98567000Y-81314250D01*
X98567000Y-81123691D01*
X98470327Y-80890302D01*
X98291699Y-80711673D01*
X98058310Y-80615000D01*
X97567750Y-80615000D01*
X97409000Y-80773750D01*
X97155000Y-80773750D01*
X96996250Y-80615000D01*
X96505690Y-80615000D01*
X96272301Y-80711673D01*
X96093673Y-80890302D01*
X95997000Y-81123691D01*
X94953927Y-81123691D01*
X94801618Y-80971382D01*
X94766714Y-80948060D01*
X94513206Y-80778671D01*
X94173000Y-80711000D01*
X93822943Y-80711000D01*
X93738890Y-80653569D01*
X93487000Y-80602560D01*
X92187000Y-80602560D01*
X91951683Y-80646838D01*
X91735559Y-80785910D01*
X91590569Y-80998110D01*
X91539560Y-81250000D01*
X91539560Y-81950000D01*
X91583838Y-82185317D01*
X91722910Y-82401441D01*
X91935110Y-82546431D01*
X91948197Y-82549081D01*
X91851972Y-82611000D01*
X89440004Y-82611000D01*
X89349803Y-82549368D01*
X89482251Y-82464140D01*
X89627241Y-82251940D01*
X89678250Y-82000050D01*
X89678250Y-81199950D01*
X89633972Y-80964633D01*
X89519760Y-80787143D01*
X89519760Y-80629760D01*
X89452089Y-80289554D01*
X89259378Y-80001142D01*
X88385618Y-79127382D01*
X88299288Y-79069698D01*
X88097206Y-78934671D01*
X87757000Y-78867000D01*
X85598000Y-78867000D01*
X85257794Y-78934671D01*
X85055712Y-79069698D01*
X84969382Y-79127382D01*
X83191382Y-80905382D01*
X82998671Y-81193794D01*
X82931000Y-81534000D01*
X82931000Y-83451764D01*
X82054764Y-84328000D01*
X80518548Y-84328000D01*
X81056546Y-84173952D01*
X81527145Y-83799911D01*
X81818783Y-83274252D01*
X81843093Y-83168808D01*
X81722440Y-82931000D01*
X79629000Y-82931000D01*
X79629000Y-82951000D01*
X79375000Y-82951000D01*
X79375000Y-82931000D01*
X77281560Y-82931000D01*
X77160907Y-83168808D01*
X77185217Y-83274252D01*
X77476855Y-83799911D01*
X77947454Y-84173952D01*
X78485452Y-84328000D01*
X76822236Y-84328000D01*
X76327000Y-83832764D01*
X76327000Y-77838236D01*
X78969806Y-75195430D01*
X80398356Y-75195430D01*
X80985940Y-75078552D01*
X81484069Y-74745713D01*
X81615508Y-74549000D01*
X86064375Y-74549000D01*
X85996413Y-74561788D01*
X85996413Y-74561788D01*
G37*
X85996413Y-74561788D02*
X85818923Y-74676000D01*
X84201000Y-74676000D01*
X83860795Y-74743670D01*
X83572382Y-74936382D01*
X79780194Y-78728570D01*
X78605644Y-78728570D01*
X78018060Y-78845448D01*
X77519931Y-79178287D01*
X77187092Y-79676416D01*
X77070214Y-80264000D01*
X77187092Y-80851584D01*
X77519931Y-81349713D01*
X77809842Y-81543425D01*
X77476855Y-81808089D01*
X77185217Y-82333748D01*
X77160907Y-82439192D01*
X77281560Y-82677000D01*
X79375000Y-82677000D01*
X79375000Y-82657000D01*
X79629000Y-82657000D01*
X79629000Y-82677000D01*
X81722440Y-82677000D01*
X81843093Y-82439192D01*
X81818783Y-82333748D01*
X81527145Y-81808089D01*
X81194158Y-81543425D01*
X81484069Y-81349713D01*
X81816908Y-80851584D01*
X81933786Y-80264000D01*
X81816908Y-79676416D01*
X81628617Y-79394619D01*
X84569236Y-76454000D01*
X85822536Y-76454000D01*
X85979840Y-76561481D01*
X86231730Y-76612490D01*
X87031830Y-76612490D01*
X87267147Y-76568212D01*
X87483271Y-76429140D01*
X87583270Y-76282787D01*
X87583270Y-76915050D01*
X87627548Y-77150367D01*
X87766620Y-77366491D01*
X87978820Y-77511481D01*
X88230710Y-77562490D01*
X89030810Y-77562490D01*
X89266127Y-77518212D01*
X89443617Y-77404000D01*
X92359057Y-77404000D01*
X92443110Y-77461431D01*
X92695000Y-77512440D01*
X93995000Y-77512440D01*
X94230317Y-77468162D01*
X94446441Y-77329090D01*
X94591431Y-77116890D01*
X94642440Y-76865000D01*
X94642440Y-76165000D01*
X94598162Y-75929683D01*
X94574184Y-75892420D01*
X95698382Y-77016618D01*
X95986795Y-77209330D01*
X96327000Y-77277000D01*
X96677057Y-77277000D01*
X96761110Y-77334431D01*
X97013000Y-77385440D01*
X98313000Y-77385440D01*
X98548317Y-77341162D01*
X98648028Y-77277000D01*
X99761000Y-77277000D01*
X100101206Y-77209329D01*
X100389618Y-77016618D01*
X101841236Y-75565000D01*
X103076002Y-75565000D01*
X102876382Y-75698382D01*
X99193382Y-79381382D01*
X99000671Y-79669794D01*
X98933000Y-80010000D01*
X98933000Y-82308764D01*
X98630764Y-82611000D01*
X98267943Y-82611000D01*
X98183890Y-82553569D01*
X98150510Y-82546809D01*
X98291699Y-82488327D01*
X98470327Y-82309698D01*
X98567000Y-82076309D01*
X98567000Y-81885750D01*
X98408250Y-81727000D01*
X97409000Y-81727000D01*
X97409000Y-81747000D01*
X97155000Y-81747000D01*
X97155000Y-81727000D01*
X96155750Y-81727000D01*
X95997000Y-81885750D01*
X95997000Y-82076309D01*
X96093673Y-82309698D01*
X96272301Y-82488327D01*
X96408287Y-82544654D01*
X96396683Y-82546838D01*
X96296972Y-82611000D01*
X95933236Y-82611000D01*
X95885000Y-82562764D01*
X95885000Y-82423000D01*
X95817329Y-82082794D01*
X95624618Y-81794382D01*
X94953927Y-81123691D01*
X95997000Y-81123691D01*
X95997000Y-81314250D01*
X96155750Y-81473000D01*
X97155000Y-81473000D01*
X97155000Y-80773750D01*
X97409000Y-80773750D01*
X97409000Y-81473000D01*
X98408250Y-81473000D01*
X98567000Y-81314250D01*
X98567000Y-81123691D01*
X98470327Y-80890302D01*
X98291699Y-80711673D01*
X98058310Y-80615000D01*
X97567750Y-80615000D01*
X97409000Y-80773750D01*
X97155000Y-80773750D01*
X96996250Y-80615000D01*
X96505690Y-80615000D01*
X96272301Y-80711673D01*
X96093673Y-80890302D01*
X95997000Y-81123691D01*
X94953927Y-81123691D01*
X94801618Y-80971382D01*
X94766714Y-80948060D01*
X94513206Y-80778671D01*
X94173000Y-80711000D01*
X93822943Y-80711000D01*
X93738890Y-80653569D01*
X93487000Y-80602560D01*
X92187000Y-80602560D01*
X91951683Y-80646838D01*
X91735559Y-80785910D01*
X91590569Y-80998110D01*
X91539560Y-81250000D01*
X91539560Y-81950000D01*
X91583838Y-82185317D01*
X91722910Y-82401441D01*
X91935110Y-82546431D01*
X91948197Y-82549081D01*
X91851972Y-82611000D01*
X89440004Y-82611000D01*
X89349803Y-82549368D01*
X89482251Y-82464140D01*
X89627241Y-82251940D01*
X89678250Y-82000050D01*
X89678250Y-81199950D01*
X89633972Y-80964633D01*
X89519760Y-80787143D01*
X89519760Y-80629760D01*
X89452089Y-80289554D01*
X89259378Y-80001142D01*
X88385618Y-79127382D01*
X88299288Y-79069698D01*
X88097206Y-78934671D01*
X87757000Y-78867000D01*
X85598000Y-78867000D01*
X85257794Y-78934671D01*
X85055712Y-79069698D01*
X84969382Y-79127382D01*
X83191382Y-80905382D01*
X82998671Y-81193794D01*
X82931000Y-81534000D01*
X82931000Y-83451764D01*
X82054764Y-84328000D01*
X80518548Y-84328000D01*
X81056546Y-84173952D01*
X81527145Y-83799911D01*
X81818783Y-83274252D01*
X81843093Y-83168808D01*
X81722440Y-82931000D01*
X79629000Y-82931000D01*
X79629000Y-82951000D01*
X79375000Y-82951000D01*
X79375000Y-82931000D01*
X77281560Y-82931000D01*
X77160907Y-83168808D01*
X77185217Y-83274252D01*
X77476855Y-83799911D01*
X77947454Y-84173952D01*
X78485452Y-84328000D01*
X76822236Y-84328000D01*
X76327000Y-83832764D01*
X76327000Y-77838236D01*
X78969806Y-75195430D01*
X80398356Y-75195430D01*
X80985940Y-75078552D01*
X81484069Y-74745713D01*
X81615508Y-74549000D01*
X86064375Y-74549000D01*
X85996413Y-74561788D01*
G36*
X127595560Y-78710000D02*
X127639838Y-78945317D01*
X127778910Y-79161441D01*
X127991110Y-79306431D01*
X128243000Y-79357440D01*
X128558000Y-79357440D01*
X128558000Y-80171198D01*
X127816221Y-80912977D01*
X127571821Y-80391510D01*
X127139947Y-79997312D01*
X126724026Y-79825042D01*
X126492000Y-79946183D01*
X126492000Y-81153000D01*
X126512000Y-81153000D01*
X126512000Y-81407000D01*
X126492000Y-81407000D01*
X126492000Y-81427000D01*
X126238000Y-81427000D01*
X126238000Y-81407000D01*
X126218000Y-81407000D01*
X126218000Y-81153000D01*
X126238000Y-81153000D01*
X126238000Y-79946183D01*
X126005974Y-79825042D01*
X125855000Y-79887574D01*
X125855000Y-79816802D01*
X127001802Y-78670000D01*
X127595560Y-78670000D01*
X127595560Y-78710000D01*
X127595560Y-78710000D01*
G37*
X127595560Y-78710000D02*
X127639838Y-78945317D01*
X127778910Y-79161441D01*
X127991110Y-79306431D01*
X128243000Y-79357440D01*
X128558000Y-79357440D01*
X128558000Y-80171198D01*
X127816221Y-80912977D01*
X127571821Y-80391510D01*
X127139947Y-79997312D01*
X126724026Y-79825042D01*
X126492000Y-79946183D01*
X126492000Y-81153000D01*
X126512000Y-81153000D01*
X126512000Y-81407000D01*
X126492000Y-81407000D01*
X126492000Y-81427000D01*
X126238000Y-81427000D01*
X126238000Y-81407000D01*
X126218000Y-81407000D01*
X126218000Y-81153000D01*
X126238000Y-81153000D01*
X126238000Y-79946183D01*
X126005974Y-79825042D01*
X125855000Y-79887574D01*
X125855000Y-79816802D01*
X127001802Y-78670000D01*
X127595560Y-78670000D01*
X127595560Y-78710000D01*
G36*
X92843382Y-50933382D02*
X82937382Y-60839382D01*
X82744671Y-61127794D01*
X82677000Y-61468000D01*
X82677000Y-71259764D01*
X81411180Y-72525584D01*
X81208264Y-72390000D01*
X81484069Y-72205713D01*
X81816908Y-71707584D01*
X81933786Y-71120000D01*
X81816908Y-70532416D01*
X81484069Y-70034287D01*
X80985940Y-69701448D01*
X80398356Y-69584570D01*
X80391000Y-69584570D01*
X80391000Y-68845430D01*
X80398356Y-68845430D01*
X80985940Y-68728552D01*
X81484069Y-68395713D01*
X81816908Y-67897584D01*
X81933786Y-67310000D01*
X81816908Y-66722416D01*
X81484069Y-66224287D01*
X81194158Y-66030575D01*
X81527145Y-65765911D01*
X81818783Y-65240252D01*
X81843093Y-65134808D01*
X81722440Y-64897000D01*
X79629000Y-64897000D01*
X79629000Y-64917000D01*
X79375000Y-64917000D01*
X79375000Y-64897000D01*
X77281560Y-64897000D01*
X77160907Y-65134808D01*
X77185217Y-65240252D01*
X77476855Y-65765911D01*
X77809842Y-66030575D01*
X77519931Y-66224287D01*
X77187092Y-66722416D01*
X77070214Y-67310000D01*
X77187092Y-67897584D01*
X77519931Y-68395713D01*
X78018060Y-68728552D01*
X78605644Y-68845430D01*
X78613000Y-68845430D01*
X78613000Y-69584570D01*
X78605644Y-69584570D01*
X78018060Y-69701448D01*
X77519931Y-70034287D01*
X77187092Y-70532416D01*
X77070214Y-71120000D01*
X77187092Y-71707584D01*
X77519931Y-72205713D01*
X77795736Y-72390000D01*
X77519931Y-72574287D01*
X77187092Y-73072416D01*
X77070214Y-73660000D01*
X77187092Y-74247584D01*
X77273645Y-74377119D01*
X75005000Y-76645764D01*
X75005000Y-64405192D01*
X77160907Y-64405192D01*
X77281560Y-64643000D01*
X79375000Y-64643000D01*
X79375000Y-63234570D01*
X79629000Y-63234570D01*
X79629000Y-64643000D01*
X81722440Y-64643000D01*
X81843093Y-64405192D01*
X81818783Y-64299748D01*
X81527145Y-63774089D01*
X81056546Y-63400048D01*
X80478630Y-63234570D01*
X79629000Y-63234570D01*
X79375000Y-63234570D01*
X78525370Y-63234570D01*
X77947454Y-63400048D01*
X77476855Y-63774089D01*
X77185217Y-64299748D01*
X77160907Y-64405192D01*
X75005000Y-64405192D01*
X75005000Y-56401834D01*
X77374543Y-56401834D01*
X77774853Y-57370658D01*
X78515443Y-58112542D01*
X79483567Y-58514542D01*
X80531834Y-58515457D01*
X81500658Y-58115147D01*
X82242542Y-57374557D01*
X82644542Y-56406433D01*
X82645457Y-55358166D01*
X82245147Y-54389342D01*
X81504557Y-53647458D01*
X80536433Y-53245458D01*
X79488166Y-53244543D01*
X78519342Y-53644853D01*
X77777458Y-54385443D01*
X77375458Y-55353567D01*
X77374543Y-56401834D01*
X75005000Y-56401834D01*
X75005000Y-50875000D01*
X92930757Y-50875000D01*
X92843382Y-50933382D01*
X92843382Y-50933382D01*
G37*
X92843382Y-50933382D02*
X82937382Y-60839382D01*
X82744671Y-61127794D01*
X82677000Y-61468000D01*
X82677000Y-71259764D01*
X81411180Y-72525584D01*
X81208264Y-72390000D01*
X81484069Y-72205713D01*
X81816908Y-71707584D01*
X81933786Y-71120000D01*
X81816908Y-70532416D01*
X81484069Y-70034287D01*
X80985940Y-69701448D01*
X80398356Y-69584570D01*
X80391000Y-69584570D01*
X80391000Y-68845430D01*
X80398356Y-68845430D01*
X80985940Y-68728552D01*
X81484069Y-68395713D01*
X81816908Y-67897584D01*
X81933786Y-67310000D01*
X81816908Y-66722416D01*
X81484069Y-66224287D01*
X81194158Y-66030575D01*
X81527145Y-65765911D01*
X81818783Y-65240252D01*
X81843093Y-65134808D01*
X81722440Y-64897000D01*
X79629000Y-64897000D01*
X79629000Y-64917000D01*
X79375000Y-64917000D01*
X79375000Y-64897000D01*
X77281560Y-64897000D01*
X77160907Y-65134808D01*
X77185217Y-65240252D01*
X77476855Y-65765911D01*
X77809842Y-66030575D01*
X77519931Y-66224287D01*
X77187092Y-66722416D01*
X77070214Y-67310000D01*
X77187092Y-67897584D01*
X77519931Y-68395713D01*
X78018060Y-68728552D01*
X78605644Y-68845430D01*
X78613000Y-68845430D01*
X78613000Y-69584570D01*
X78605644Y-69584570D01*
X78018060Y-69701448D01*
X77519931Y-70034287D01*
X77187092Y-70532416D01*
X77070214Y-71120000D01*
X77187092Y-71707584D01*
X77519931Y-72205713D01*
X77795736Y-72390000D01*
X77519931Y-72574287D01*
X77187092Y-73072416D01*
X77070214Y-73660000D01*
X77187092Y-74247584D01*
X77273645Y-74377119D01*
X75005000Y-76645764D01*
X75005000Y-64405192D01*
X77160907Y-64405192D01*
X77281560Y-64643000D01*
X79375000Y-64643000D01*
X79375000Y-63234570D01*
X79629000Y-63234570D01*
X79629000Y-64643000D01*
X81722440Y-64643000D01*
X81843093Y-64405192D01*
X81818783Y-64299748D01*
X81527145Y-63774089D01*
X81056546Y-63400048D01*
X80478630Y-63234570D01*
X79629000Y-63234570D01*
X79375000Y-63234570D01*
X78525370Y-63234570D01*
X77947454Y-63400048D01*
X77476855Y-63774089D01*
X77185217Y-64299748D01*
X77160907Y-64405192D01*
X75005000Y-64405192D01*
X75005000Y-56401834D01*
X77374543Y-56401834D01*
X77774853Y-57370658D01*
X78515443Y-58112542D01*
X79483567Y-58514542D01*
X80531834Y-58515457D01*
X81500658Y-58115147D01*
X82242542Y-57374557D01*
X82644542Y-56406433D01*
X82645457Y-55358166D01*
X82245147Y-54389342D01*
X81504557Y-53647458D01*
X80536433Y-53245458D01*
X79488166Y-53244543D01*
X78519342Y-53644853D01*
X77777458Y-54385443D01*
X77375458Y-55353567D01*
X77374543Y-56401834D01*
X75005000Y-56401834D01*
X75005000Y-50875000D01*
X92930757Y-50875000D01*
X92843382Y-50933382D01*
G36*
X132709245Y-70750495D02*
X132803750Y-70845000D01*
X132919310Y-70845000D01*
X132939753Y-70836532D01*
X133043000Y-70857440D01*
X133593000Y-70857440D01*
X133722589Y-70833056D01*
X133843000Y-70857440D01*
X134120560Y-70857440D01*
X134120560Y-71135000D01*
X134144944Y-71264589D01*
X134120560Y-71385000D01*
X134120560Y-71935000D01*
X134144944Y-72064589D01*
X134120560Y-72185000D01*
X134120560Y-72735000D01*
X134144944Y-72864589D01*
X134120560Y-72985000D01*
X134120560Y-73535000D01*
X134144944Y-73664589D01*
X134120560Y-73785000D01*
X134120560Y-74335000D01*
X134144944Y-74464589D01*
X134120560Y-74585000D01*
X134120560Y-75135000D01*
X134144944Y-75264589D01*
X134120560Y-75385000D01*
X134120560Y-75935000D01*
X134144944Y-76064589D01*
X134120560Y-76185000D01*
X134120560Y-76462560D01*
X133843000Y-76462560D01*
X133713411Y-76486944D01*
X133593000Y-76462560D01*
X133043000Y-76462560D01*
X132913411Y-76486944D01*
X132793000Y-76462560D01*
X132243000Y-76462560D01*
X132137295Y-76482450D01*
X132119310Y-76475000D01*
X132003750Y-76475000D01*
X131907349Y-76571401D01*
X131845002Y-76611520D01*
X131845002Y-76475000D01*
X131807000Y-76475000D01*
X131807000Y-74403000D01*
X131739329Y-74062794D01*
X131546618Y-73774382D01*
X130207000Y-72434764D01*
X130207000Y-72345236D01*
X130670236Y-71882000D01*
X131572000Y-71882000D01*
X131912206Y-71814329D01*
X132200618Y-71621618D01*
X132346618Y-71475618D01*
X132431634Y-71348382D01*
X132539329Y-71187206D01*
X132607000Y-70847000D01*
X132607000Y-70845000D01*
X132645002Y-70845000D01*
X132645002Y-70706600D01*
X132709245Y-70750495D01*
X132709245Y-70750495D01*
G37*
X132709245Y-70750495D02*
X132803750Y-70845000D01*
X132919310Y-70845000D01*
X132939753Y-70836532D01*
X133043000Y-70857440D01*
X133593000Y-70857440D01*
X133722589Y-70833056D01*
X133843000Y-70857440D01*
X134120560Y-70857440D01*
X134120560Y-71135000D01*
X134144944Y-71264589D01*
X134120560Y-71385000D01*
X134120560Y-71935000D01*
X134144944Y-72064589D01*
X134120560Y-72185000D01*
X134120560Y-72735000D01*
X134144944Y-72864589D01*
X134120560Y-72985000D01*
X134120560Y-73535000D01*
X134144944Y-73664589D01*
X134120560Y-73785000D01*
X134120560Y-74335000D01*
X134144944Y-74464589D01*
X134120560Y-74585000D01*
X134120560Y-75135000D01*
X134144944Y-75264589D01*
X134120560Y-75385000D01*
X134120560Y-75935000D01*
X134144944Y-76064589D01*
X134120560Y-76185000D01*
X134120560Y-76462560D01*
X133843000Y-76462560D01*
X133713411Y-76486944D01*
X133593000Y-76462560D01*
X133043000Y-76462560D01*
X132913411Y-76486944D01*
X132793000Y-76462560D01*
X132243000Y-76462560D01*
X132137295Y-76482450D01*
X132119310Y-76475000D01*
X132003750Y-76475000D01*
X131907349Y-76571401D01*
X131845002Y-76611520D01*
X131845002Y-76475000D01*
X131807000Y-76475000D01*
X131807000Y-74403000D01*
X131739329Y-74062794D01*
X131546618Y-73774382D01*
X130207000Y-72434764D01*
X130207000Y-72345236D01*
X130670236Y-71882000D01*
X131572000Y-71882000D01*
X131912206Y-71814329D01*
X132200618Y-71621618D01*
X132346618Y-71475618D01*
X132431634Y-71348382D01*
X132539329Y-71187206D01*
X132607000Y-70847000D01*
X132607000Y-70845000D01*
X132645002Y-70845000D01*
X132645002Y-70706600D01*
X132709245Y-70750495D01*
G36*
X86296732Y-60185587D02*
X86296269Y-60716086D01*
X86498854Y-61206380D01*
X86873647Y-61581827D01*
X87363587Y-61785268D01*
X87894086Y-61785731D01*
X88384380Y-61583146D01*
X88626949Y-61341000D01*
X94253240Y-61341000D01*
X94493647Y-61581827D01*
X94983587Y-61785268D01*
X95514086Y-61785731D01*
X95561078Y-61766314D01*
X98878382Y-65083618D01*
X99166794Y-65276329D01*
X99507000Y-65344000D01*
X101249057Y-65344000D01*
X101333110Y-65401431D01*
X101346197Y-65404081D01*
X101133559Y-65540910D01*
X100988569Y-65753110D01*
X100937560Y-66005000D01*
X100937560Y-66705000D01*
X100981838Y-66940317D01*
X101120910Y-67156441D01*
X101333110Y-67301431D01*
X101346000Y-67304041D01*
X101346000Y-69035295D01*
X101158559Y-69155910D01*
X101013569Y-69368110D01*
X100962560Y-69620000D01*
X100962560Y-70620000D01*
X101006838Y-70855317D01*
X101145910Y-71071441D01*
X101214006Y-71117969D01*
X101071673Y-71260302D01*
X100975000Y-71493691D01*
X100975000Y-71834250D01*
X101133750Y-71993000D01*
X102108000Y-71993000D01*
X102108000Y-71973000D01*
X102362000Y-71973000D01*
X102362000Y-71993000D01*
X103336250Y-71993000D01*
X103495000Y-71834250D01*
X103495000Y-71541736D01*
X104400382Y-72447118D01*
X104688794Y-72639829D01*
X105029000Y-72707500D01*
X106841412Y-72707500D01*
X106920697Y-72786923D01*
X107340646Y-72961301D01*
X107795359Y-72961698D01*
X108215612Y-72788054D01*
X108537423Y-72466803D01*
X108711801Y-72046854D01*
X108712198Y-71592141D01*
X108538554Y-71171888D01*
X108217303Y-70850077D01*
X107797354Y-70675699D01*
X107342641Y-70675302D01*
X106922388Y-70848946D01*
X106841694Y-70929500D01*
X105397236Y-70929500D01*
X104571736Y-70104000D01*
X111582022Y-70104000D01*
X111427872Y-70207000D01*
X111391382Y-70231382D01*
X107835764Y-73787000D01*
X101473000Y-73787000D01*
X101132795Y-73854670D01*
X100844382Y-74047382D01*
X99392764Y-75499000D01*
X98648943Y-75499000D01*
X98564890Y-75441569D01*
X98531510Y-75434809D01*
X98672699Y-75376327D01*
X98851327Y-75197698D01*
X98948000Y-74964309D01*
X98948000Y-74773750D01*
X98789250Y-74615000D01*
X97790000Y-74615000D01*
X97790000Y-74635000D01*
X97536000Y-74635000D01*
X97536000Y-74615000D01*
X96536750Y-74615000D01*
X96378000Y-74773750D01*
X96378000Y-74964309D01*
X96474673Y-75197698D01*
X96653301Y-75376327D01*
X96789287Y-75432654D01*
X96777683Y-75434838D01*
X96688477Y-75492241D01*
X95207927Y-74011691D01*
X96378000Y-74011691D01*
X96378000Y-74202250D01*
X96536750Y-74361000D01*
X97536000Y-74361000D01*
X97536000Y-73661750D01*
X97790000Y-73661750D01*
X97790000Y-74361000D01*
X98789250Y-74361000D01*
X98948000Y-74202250D01*
X98948000Y-74011691D01*
X98851327Y-73778302D01*
X98672699Y-73599673D01*
X98439310Y-73503000D01*
X97948750Y-73503000D01*
X97790000Y-73661750D01*
X97536000Y-73661750D01*
X97377250Y-73503000D01*
X96886690Y-73503000D01*
X96653301Y-73599673D01*
X96474673Y-73778302D01*
X96378000Y-74011691D01*
X95207927Y-74011691D01*
X95182618Y-73986382D01*
X95147714Y-73963060D01*
X94894206Y-73793671D01*
X94554000Y-73726000D01*
X94330943Y-73726000D01*
X94246890Y-73668569D01*
X93995000Y-73617560D01*
X92695000Y-73617560D01*
X92459683Y-73661838D01*
X92243559Y-73800910D01*
X92098569Y-74013110D01*
X92047560Y-74265000D01*
X92047560Y-74965000D01*
X92091838Y-75200317D01*
X92230910Y-75416441D01*
X92443110Y-75561431D01*
X92456197Y-75564081D01*
X92359972Y-75626000D01*
X89440004Y-75626000D01*
X89349803Y-75564368D01*
X89482251Y-75479140D01*
X89627241Y-75266940D01*
X89678250Y-75015050D01*
X89678250Y-74214950D01*
X89633972Y-73979633D01*
X89494900Y-73763509D01*
X89282700Y-73618519D01*
X89030810Y-73567510D01*
X88840506Y-73567510D01*
X88304378Y-73031382D01*
X88237791Y-72986890D01*
X88015966Y-72838671D01*
X87675760Y-72771000D01*
X83680236Y-72771000D01*
X84045486Y-72405750D01*
X100975000Y-72405750D01*
X100975000Y-72746309D01*
X101071673Y-72979698D01*
X101250301Y-73158327D01*
X101483690Y-73255000D01*
X101949250Y-73255000D01*
X102108000Y-73096250D01*
X102108000Y-72247000D01*
X102362000Y-72247000D01*
X102362000Y-73096250D01*
X102520750Y-73255000D01*
X102986310Y-73255000D01*
X103219699Y-73158327D01*
X103398327Y-72979698D01*
X103495000Y-72746309D01*
X103495000Y-72405750D01*
X103336250Y-72247000D01*
X102362000Y-72247000D01*
X102108000Y-72247000D01*
X101133750Y-72247000D01*
X100975000Y-72405750D01*
X84045486Y-72405750D01*
X84194618Y-72256618D01*
X84249566Y-72174382D01*
X84387329Y-71968206D01*
X84455000Y-71628000D01*
X84455000Y-66466188D01*
X86875417Y-66466188D01*
X86937071Y-66701800D01*
X87437480Y-66877927D01*
X87967199Y-66849148D01*
X88322929Y-66701800D01*
X88384583Y-66466188D01*
X94495417Y-66466188D01*
X94557071Y-66701800D01*
X95057480Y-66877927D01*
X95587199Y-66849148D01*
X95942929Y-66701800D01*
X96004583Y-66466188D01*
X95250000Y-65711605D01*
X94495417Y-66466188D01*
X88384583Y-66466188D01*
X87630000Y-65711605D01*
X86875417Y-66466188D01*
X84455000Y-66466188D01*
X84455000Y-65339480D01*
X86284073Y-65339480D01*
X86312852Y-65869199D01*
X86460200Y-66224929D01*
X86695812Y-66286583D01*
X87450395Y-65532000D01*
X87809605Y-65532000D01*
X88564188Y-66286583D01*
X88799800Y-66224929D01*
X88975927Y-65724520D01*
X88955009Y-65339480D01*
X93904073Y-65339480D01*
X93932852Y-65869199D01*
X94080200Y-66224929D01*
X94315812Y-66286583D01*
X95070395Y-65532000D01*
X95429605Y-65532000D01*
X96184188Y-66286583D01*
X96419800Y-66224929D01*
X96595927Y-65724520D01*
X96567148Y-65194801D01*
X96419800Y-64839071D01*
X96184188Y-64777417D01*
X95429605Y-65532000D01*
X95070395Y-65532000D01*
X94315812Y-64777417D01*
X94080200Y-64839071D01*
X93904073Y-65339480D01*
X88955009Y-65339480D01*
X88947148Y-65194801D01*
X88799800Y-64839071D01*
X88564188Y-64777417D01*
X87809605Y-65532000D01*
X87450395Y-65532000D01*
X86695812Y-64777417D01*
X86460200Y-64839071D01*
X86284073Y-65339480D01*
X84455000Y-65339480D01*
X84455000Y-64597812D01*
X86875417Y-64597812D01*
X87630000Y-65352395D01*
X88384583Y-64597812D01*
X94495417Y-64597812D01*
X95250000Y-65352395D01*
X96004583Y-64597812D01*
X95942929Y-64362200D01*
X95442520Y-64186073D01*
X94912801Y-64214852D01*
X94557071Y-64362200D01*
X94495417Y-64597812D01*
X88384583Y-64597812D01*
X88322929Y-64362200D01*
X87822520Y-64186073D01*
X87292801Y-64214852D01*
X86937071Y-64362200D01*
X86875417Y-64597812D01*
X84455000Y-64597812D01*
X84455000Y-61836236D01*
X86432419Y-59858817D01*
X86296732Y-60185587D01*
X86296732Y-60185587D01*
G37*
X86296732Y-60185587D02*
X86296269Y-60716086D01*
X86498854Y-61206380D01*
X86873647Y-61581827D01*
X87363587Y-61785268D01*
X87894086Y-61785731D01*
X88384380Y-61583146D01*
X88626949Y-61341000D01*
X94253240Y-61341000D01*
X94493647Y-61581827D01*
X94983587Y-61785268D01*
X95514086Y-61785731D01*
X95561078Y-61766314D01*
X98878382Y-65083618D01*
X99166794Y-65276329D01*
X99507000Y-65344000D01*
X101249057Y-65344000D01*
X101333110Y-65401431D01*
X101346197Y-65404081D01*
X101133559Y-65540910D01*
X100988569Y-65753110D01*
X100937560Y-66005000D01*
X100937560Y-66705000D01*
X100981838Y-66940317D01*
X101120910Y-67156441D01*
X101333110Y-67301431D01*
X101346000Y-67304041D01*
X101346000Y-69035295D01*
X101158559Y-69155910D01*
X101013569Y-69368110D01*
X100962560Y-69620000D01*
X100962560Y-70620000D01*
X101006838Y-70855317D01*
X101145910Y-71071441D01*
X101214006Y-71117969D01*
X101071673Y-71260302D01*
X100975000Y-71493691D01*
X100975000Y-71834250D01*
X101133750Y-71993000D01*
X102108000Y-71993000D01*
X102108000Y-71973000D01*
X102362000Y-71973000D01*
X102362000Y-71993000D01*
X103336250Y-71993000D01*
X103495000Y-71834250D01*
X103495000Y-71541736D01*
X104400382Y-72447118D01*
X104688794Y-72639829D01*
X105029000Y-72707500D01*
X106841412Y-72707500D01*
X106920697Y-72786923D01*
X107340646Y-72961301D01*
X107795359Y-72961698D01*
X108215612Y-72788054D01*
X108537423Y-72466803D01*
X108711801Y-72046854D01*
X108712198Y-71592141D01*
X108538554Y-71171888D01*
X108217303Y-70850077D01*
X107797354Y-70675699D01*
X107342641Y-70675302D01*
X106922388Y-70848946D01*
X106841694Y-70929500D01*
X105397236Y-70929500D01*
X104571736Y-70104000D01*
X111582022Y-70104000D01*
X111427872Y-70207000D01*
X111391382Y-70231382D01*
X107835764Y-73787000D01*
X101473000Y-73787000D01*
X101132795Y-73854670D01*
X100844382Y-74047382D01*
X99392764Y-75499000D01*
X98648943Y-75499000D01*
X98564890Y-75441569D01*
X98531510Y-75434809D01*
X98672699Y-75376327D01*
X98851327Y-75197698D01*
X98948000Y-74964309D01*
X98948000Y-74773750D01*
X98789250Y-74615000D01*
X97790000Y-74615000D01*
X97790000Y-74635000D01*
X97536000Y-74635000D01*
X97536000Y-74615000D01*
X96536750Y-74615000D01*
X96378000Y-74773750D01*
X96378000Y-74964309D01*
X96474673Y-75197698D01*
X96653301Y-75376327D01*
X96789287Y-75432654D01*
X96777683Y-75434838D01*
X96688477Y-75492241D01*
X95207927Y-74011691D01*
X96378000Y-74011691D01*
X96378000Y-74202250D01*
X96536750Y-74361000D01*
X97536000Y-74361000D01*
X97536000Y-73661750D01*
X97790000Y-73661750D01*
X97790000Y-74361000D01*
X98789250Y-74361000D01*
X98948000Y-74202250D01*
X98948000Y-74011691D01*
X98851327Y-73778302D01*
X98672699Y-73599673D01*
X98439310Y-73503000D01*
X97948750Y-73503000D01*
X97790000Y-73661750D01*
X97536000Y-73661750D01*
X97377250Y-73503000D01*
X96886690Y-73503000D01*
X96653301Y-73599673D01*
X96474673Y-73778302D01*
X96378000Y-74011691D01*
X95207927Y-74011691D01*
X95182618Y-73986382D01*
X95147714Y-73963060D01*
X94894206Y-73793671D01*
X94554000Y-73726000D01*
X94330943Y-73726000D01*
X94246890Y-73668569D01*
X93995000Y-73617560D01*
X92695000Y-73617560D01*
X92459683Y-73661838D01*
X92243559Y-73800910D01*
X92098569Y-74013110D01*
X92047560Y-74265000D01*
X92047560Y-74965000D01*
X92091838Y-75200317D01*
X92230910Y-75416441D01*
X92443110Y-75561431D01*
X92456197Y-75564081D01*
X92359972Y-75626000D01*
X89440004Y-75626000D01*
X89349803Y-75564368D01*
X89482251Y-75479140D01*
X89627241Y-75266940D01*
X89678250Y-75015050D01*
X89678250Y-74214950D01*
X89633972Y-73979633D01*
X89494900Y-73763509D01*
X89282700Y-73618519D01*
X89030810Y-73567510D01*
X88840506Y-73567510D01*
X88304378Y-73031382D01*
X88237791Y-72986890D01*
X88015966Y-72838671D01*
X87675760Y-72771000D01*
X83680236Y-72771000D01*
X84045486Y-72405750D01*
X100975000Y-72405750D01*
X100975000Y-72746309D01*
X101071673Y-72979698D01*
X101250301Y-73158327D01*
X101483690Y-73255000D01*
X101949250Y-73255000D01*
X102108000Y-73096250D01*
X102108000Y-72247000D01*
X102362000Y-72247000D01*
X102362000Y-73096250D01*
X102520750Y-73255000D01*
X102986310Y-73255000D01*
X103219699Y-73158327D01*
X103398327Y-72979698D01*
X103495000Y-72746309D01*
X103495000Y-72405750D01*
X103336250Y-72247000D01*
X102362000Y-72247000D01*
X102108000Y-72247000D01*
X101133750Y-72247000D01*
X100975000Y-72405750D01*
X84045486Y-72405750D01*
X84194618Y-72256618D01*
X84249566Y-72174382D01*
X84387329Y-71968206D01*
X84455000Y-71628000D01*
X84455000Y-66466188D01*
X86875417Y-66466188D01*
X86937071Y-66701800D01*
X87437480Y-66877927D01*
X87967199Y-66849148D01*
X88322929Y-66701800D01*
X88384583Y-66466188D01*
X94495417Y-66466188D01*
X94557071Y-66701800D01*
X95057480Y-66877927D01*
X95587199Y-66849148D01*
X95942929Y-66701800D01*
X96004583Y-66466188D01*
X95250000Y-65711605D01*
X94495417Y-66466188D01*
X88384583Y-66466188D01*
X87630000Y-65711605D01*
X86875417Y-66466188D01*
X84455000Y-66466188D01*
X84455000Y-65339480D01*
X86284073Y-65339480D01*
X86312852Y-65869199D01*
X86460200Y-66224929D01*
X86695812Y-66286583D01*
X87450395Y-65532000D01*
X87809605Y-65532000D01*
X88564188Y-66286583D01*
X88799800Y-66224929D01*
X88975927Y-65724520D01*
X88955009Y-65339480D01*
X93904073Y-65339480D01*
X93932852Y-65869199D01*
X94080200Y-66224929D01*
X94315812Y-66286583D01*
X95070395Y-65532000D01*
X95429605Y-65532000D01*
X96184188Y-66286583D01*
X96419800Y-66224929D01*
X96595927Y-65724520D01*
X96567148Y-65194801D01*
X96419800Y-64839071D01*
X96184188Y-64777417D01*
X95429605Y-65532000D01*
X95070395Y-65532000D01*
X94315812Y-64777417D01*
X94080200Y-64839071D01*
X93904073Y-65339480D01*
X88955009Y-65339480D01*
X88947148Y-65194801D01*
X88799800Y-64839071D01*
X88564188Y-64777417D01*
X87809605Y-65532000D01*
X87450395Y-65532000D01*
X86695812Y-64777417D01*
X86460200Y-64839071D01*
X86284073Y-65339480D01*
X84455000Y-65339480D01*
X84455000Y-64597812D01*
X86875417Y-64597812D01*
X87630000Y-65352395D01*
X88384583Y-64597812D01*
X94495417Y-64597812D01*
X95250000Y-65352395D01*
X96004583Y-64597812D01*
X95942929Y-64362200D01*
X95442520Y-64186073D01*
X94912801Y-64214852D01*
X94557071Y-64362200D01*
X94495417Y-64597812D01*
X88384583Y-64597812D01*
X88322929Y-64362200D01*
X87822520Y-64186073D01*
X87292801Y-64214852D01*
X86937071Y-64362200D01*
X86875417Y-64597812D01*
X84455000Y-64597812D01*
X84455000Y-61836236D01*
X86432419Y-59858817D01*
X86296732Y-60185587D01*
G36*
X133985199Y-64033646D02*
X133984802Y-64488359D01*
X133996674Y-64517090D01*
X132689382Y-65824382D01*
X132496671Y-66112794D01*
X132429000Y-66453000D01*
X132429000Y-67975000D01*
X132390998Y-67975000D01*
X132390998Y-68113400D01*
X132326755Y-68069505D01*
X132232250Y-67975000D01*
X132116690Y-67975000D01*
X132096247Y-67983468D01*
X131993000Y-67962560D01*
X131443000Y-67962560D01*
X131337295Y-67982450D01*
X131319310Y-67975000D01*
X131203750Y-67975000D01*
X131107349Y-68071401D01*
X130991559Y-68145910D01*
X130918116Y-68253397D01*
X130857090Y-68158559D01*
X130726755Y-68069505D01*
X130632250Y-67975000D01*
X130516690Y-67975000D01*
X130496247Y-67983468D01*
X130393000Y-67962560D01*
X130207000Y-67962560D01*
X130207000Y-64802000D01*
X131794000Y-64802000D01*
X132134206Y-64734329D01*
X132422618Y-64541618D01*
X133210236Y-63754000D01*
X134101318Y-63754000D01*
X133985199Y-64033646D01*
X133985199Y-64033646D01*
G37*
X133985199Y-64033646D02*
X133984802Y-64488359D01*
X133996674Y-64517090D01*
X132689382Y-65824382D01*
X132496671Y-66112794D01*
X132429000Y-66453000D01*
X132429000Y-67975000D01*
X132390998Y-67975000D01*
X132390998Y-68113400D01*
X132326755Y-68069505D01*
X132232250Y-67975000D01*
X132116690Y-67975000D01*
X132096247Y-67983468D01*
X131993000Y-67962560D01*
X131443000Y-67962560D01*
X131337295Y-67982450D01*
X131319310Y-67975000D01*
X131203750Y-67975000D01*
X131107349Y-68071401D01*
X130991559Y-68145910D01*
X130918116Y-68253397D01*
X130857090Y-68158559D01*
X130726755Y-68069505D01*
X130632250Y-67975000D01*
X130516690Y-67975000D01*
X130496247Y-67983468D01*
X130393000Y-67962560D01*
X130207000Y-67962560D01*
X130207000Y-64802000D01*
X131794000Y-64802000D01*
X132134206Y-64734329D01*
X132422618Y-64541618D01*
X133210236Y-63754000D01*
X134101318Y-63754000D01*
X133985199Y-64033646D01*
M02*
